%TF.GenerationSoftware,KiCad,Pcbnew,7.0.1*%
%TF.CreationDate,2023-04-06T21:06:24+02:00*%
%TF.ProjectId,Scout_Robot_Controller,53636f75-745f-4526-9f62-6f745f436f6e,rev?*%
%TF.SameCoordinates,Original*%
%TF.FileFunction,Soldermask,Top*%
%TF.FilePolarity,Negative*%
%FSLAX46Y46*%
G04 Gerber Fmt 4.6, Leading zero omitted, Abs format (unit mm)*
G04 Created by KiCad (PCBNEW 7.0.1) date 2023-04-06 21:06:24*
%MOMM*%
%LPD*%
G01*
G04 APERTURE LIST*
G04 Aperture macros list*
%AMRoundRect*
0 Rectangle with rounded corners*
0 $1 Rounding radius*
0 $2 $3 $4 $5 $6 $7 $8 $9 X,Y pos of 4 corners*
0 Add a 4 corners polygon primitive as box body*
4,1,4,$2,$3,$4,$5,$6,$7,$8,$9,$2,$3,0*
0 Add four circle primitives for the rounded corners*
1,1,$1+$1,$2,$3*
1,1,$1+$1,$4,$5*
1,1,$1+$1,$6,$7*
1,1,$1+$1,$8,$9*
0 Add four rect primitives between the rounded corners*
20,1,$1+$1,$2,$3,$4,$5,0*
20,1,$1+$1,$4,$5,$6,$7,0*
20,1,$1+$1,$6,$7,$8,$9,0*
20,1,$1+$1,$8,$9,$2,$3,0*%
G04 Aperture macros list end*
%ADD10RoundRect,0.250000X-0.262500X-0.450000X0.262500X-0.450000X0.262500X0.450000X-0.262500X0.450000X0*%
%ADD11RoundRect,0.250000X0.625000X-0.375000X0.625000X0.375000X-0.625000X0.375000X-0.625000X-0.375000X0*%
%ADD12RoundRect,0.250000X0.725000X-0.600000X0.725000X0.600000X-0.725000X0.600000X-0.725000X-0.600000X0*%
%ADD13O,1.950000X1.700000*%
%ADD14RoundRect,0.250000X-0.650000X0.325000X-0.650000X-0.325000X0.650000X-0.325000X0.650000X0.325000X0*%
%ADD15C,1.500000*%
%ADD16C,1.440000*%
%ADD17R,2.600000X2.600000*%
%ADD18C,2.600000*%
%ADD19RoundRect,0.250000X0.300000X-2.050000X0.300000X2.050000X-0.300000X2.050000X-0.300000X-2.050000X0*%
%ADD20RoundRect,0.250002X5.149998X-4.449998X5.149998X4.449998X-5.149998X4.449998X-5.149998X-4.449998X0*%
%ADD21RoundRect,0.250000X-0.325000X-0.650000X0.325000X-0.650000X0.325000X0.650000X-0.325000X0.650000X0*%
%ADD22RoundRect,0.243750X0.243750X0.456250X-0.243750X0.456250X-0.243750X-0.456250X0.243750X-0.456250X0*%
%ADD23RoundRect,0.250000X0.550000X-1.500000X0.550000X1.500000X-0.550000X1.500000X-0.550000X-1.500000X0*%
%ADD24R,1.500000X2.000000*%
%ADD25R,3.800000X2.000000*%
%ADD26C,0.800000*%
%ADD27C,6.400000*%
%ADD28RoundRect,0.250000X0.450000X-0.262500X0.450000X0.262500X-0.450000X0.262500X-0.450000X-0.262500X0*%
%ADD29RoundRect,0.243750X-0.243750X-0.456250X0.243750X-0.456250X0.243750X0.456250X-0.243750X0.456250X0*%
%ADD30RoundRect,0.250000X-0.600000X-0.725000X0.600000X-0.725000X0.600000X0.725000X-0.600000X0.725000X0*%
%ADD31O,1.700000X1.950000*%
%ADD32R,1.700000X1.700000*%
%ADD33O,1.700000X1.700000*%
%ADD34RoundRect,0.250000X-0.450000X0.262500X-0.450000X-0.262500X0.450000X-0.262500X0.450000X0.262500X0*%
%ADD35RoundRect,0.250000X0.262500X0.450000X-0.262500X0.450000X-0.262500X-0.450000X0.262500X-0.450000X0*%
%ADD36RoundRect,0.243750X0.456250X-0.243750X0.456250X0.243750X-0.456250X0.243750X-0.456250X-0.243750X0*%
%ADD37RoundRect,0.243750X-0.456250X0.243750X-0.456250X-0.243750X0.456250X-0.243750X0.456250X0.243750X0*%
%ADD38RoundRect,0.250000X1.400000X1.000000X-1.400000X1.000000X-1.400000X-1.000000X1.400000X-1.000000X0*%
%ADD39RoundRect,0.250000X0.325000X0.650000X-0.325000X0.650000X-0.325000X-0.650000X0.325000X-0.650000X0*%
%ADD40RoundRect,0.250000X-0.700000X1.950000X-0.700000X-1.950000X0.700000X-1.950000X0.700000X1.950000X0*%
%ADD41R,2.000000X2.000000*%
%ADD42C,2.000000*%
%ADD43RoundRect,0.250000X0.750000X-0.600000X0.750000X0.600000X-0.750000X0.600000X-0.750000X-0.600000X0*%
%ADD44O,2.000000X1.700000*%
%ADD45RoundRect,0.150000X-0.825000X-0.150000X0.825000X-0.150000X0.825000X0.150000X-0.825000X0.150000X0*%
%ADD46R,2.900000X5.400000*%
%ADD47RoundRect,0.250000X0.250000X0.475000X-0.250000X0.475000X-0.250000X-0.475000X0.250000X-0.475000X0*%
%ADD48RoundRect,0.250000X0.600000X-0.600000X0.600000X0.600000X-0.600000X0.600000X-0.600000X-0.600000X0*%
%ADD49C,1.700000*%
G04 APERTURE END LIST*
D10*
%TO.C,R9*%
X181275000Y-86800000D03*
X183100000Y-86800000D03*
%TD*%
D11*
%TO.C,D10*%
X158500000Y-106150000D03*
X158500000Y-103350000D03*
%TD*%
D12*
%TO.C,J5*%
X195250000Y-135250000D03*
D13*
X195250000Y-132750000D03*
X195250000Y-130250000D03*
%TD*%
D10*
%TO.C,R27*%
X146100000Y-128000000D03*
X147925000Y-128000000D03*
%TD*%
D14*
%TO.C,C12*%
X150000000Y-125325000D03*
X150000000Y-128275000D03*
%TD*%
D15*
%TO.C,TP15*%
X150000000Y-121000000D03*
%TD*%
D12*
%TO.C,J7*%
X202500000Y-123500000D03*
D13*
X202500000Y-121000000D03*
X202500000Y-118500000D03*
X202500000Y-116000000D03*
%TD*%
D12*
%TO.C,J1*%
X202500000Y-138000000D03*
D13*
X202500000Y-135500000D03*
X202500000Y-133000000D03*
X202500000Y-130500000D03*
%TD*%
D16*
%TO.C,RV2*%
X185800000Y-133800000D03*
X183260000Y-133800000D03*
X180720000Y-133800000D03*
%TD*%
D17*
%TO.C,J27*%
X145200000Y-143200000D03*
D18*
X150200000Y-143200000D03*
%TD*%
D12*
%TO.C,J23*%
X195250000Y-77500000D03*
D13*
X195250000Y-75000000D03*
X195250000Y-72500000D03*
X195250000Y-70000000D03*
X195250000Y-67500000D03*
%TD*%
D14*
%TO.C,C25*%
X146000000Y-102975000D03*
X146000000Y-105925000D03*
%TD*%
D19*
%TO.C,U3*%
X163175000Y-123225000D03*
X164875000Y-123225000D03*
X166575000Y-123225000D03*
D20*
X166575000Y-114075000D03*
D19*
X168275000Y-123225000D03*
X169975000Y-123225000D03*
%TD*%
D21*
%TO.C,C11*%
X142050000Y-121200000D03*
X145000000Y-121200000D03*
%TD*%
D22*
%TO.C,D8*%
X143837500Y-104550000D03*
X141962500Y-104550000D03*
%TD*%
D12*
%TO.C,J8*%
X202500000Y-94500000D03*
D13*
X202500000Y-92000000D03*
X202500000Y-89500000D03*
X202500000Y-87000000D03*
%TD*%
D23*
%TO.C,C15*%
X145262500Y-115850000D03*
X145262500Y-110450000D03*
%TD*%
D24*
%TO.C,U7*%
X151200000Y-108000000D03*
X153500000Y-108000000D03*
D25*
X153500000Y-101700000D03*
D24*
X155800000Y-108000000D03*
%TD*%
D26*
%TO.C,H3*%
X200600000Y-146000000D03*
X201302944Y-144302944D03*
X201302944Y-147697056D03*
X203000000Y-143600000D03*
D27*
X203000000Y-146000000D03*
D26*
X203000000Y-148400000D03*
X204697056Y-144302944D03*
X204697056Y-147697056D03*
X205400000Y-146000000D03*
%TD*%
D15*
%TO.C,TP4*%
X178800000Y-111875000D03*
%TD*%
D26*
%TO.C,H1*%
X108600000Y-54000000D03*
X109302944Y-52302944D03*
X109302944Y-55697056D03*
X111000000Y-51600000D03*
D27*
X111000000Y-54000000D03*
D26*
X111000000Y-56400000D03*
X112697056Y-52302944D03*
X112697056Y-55697056D03*
X113400000Y-54000000D03*
%TD*%
D28*
%TO.C,R24*%
X139800000Y-134312500D03*
X139800000Y-132487500D03*
%TD*%
D15*
%TO.C,TP13*%
X175500000Y-113250000D03*
%TD*%
D12*
%TO.C,J2*%
X202500000Y-109000000D03*
D13*
X202500000Y-106500000D03*
X202500000Y-104000000D03*
X202500000Y-101500000D03*
%TD*%
D21*
%TO.C,C1*%
X202250000Y-61400000D03*
X205200000Y-61400000D03*
%TD*%
D29*
%TO.C,D2*%
X154375000Y-115500000D03*
X156250000Y-115500000D03*
%TD*%
D15*
%TO.C,TP5*%
X178800000Y-109250000D03*
%TD*%
D12*
%TO.C,J10*%
X195250000Y-121000000D03*
D13*
X195250000Y-118500000D03*
X195250000Y-116000000D03*
%TD*%
D30*
%TO.C,J15*%
X110500000Y-103250000D03*
D31*
X113000000Y-103250000D03*
X115500000Y-103250000D03*
%TD*%
D15*
%TO.C,TP16*%
X147500000Y-121000000D03*
%TD*%
D32*
%TO.C,U1*%
X125250000Y-81760000D03*
D33*
X127790000Y-81760000D03*
X125250000Y-84300000D03*
X127790000Y-84300000D03*
X125250000Y-86840000D03*
X127790000Y-86840000D03*
X125250000Y-89380000D03*
X127790000Y-89380000D03*
X125250000Y-91920000D03*
X127790000Y-91920000D03*
X125250000Y-94460000D03*
X127790000Y-94460000D03*
X125250000Y-97000000D03*
X127790000Y-97000000D03*
X125250000Y-99540000D03*
X127790000Y-99540000D03*
X125250000Y-102080000D03*
X127790000Y-102080000D03*
X125250000Y-104620000D03*
X127790000Y-104620000D03*
X125250000Y-107160000D03*
X127790000Y-107160000D03*
X125250000Y-109700000D03*
X127790000Y-109700000D03*
X125250000Y-112240000D03*
X127790000Y-112240000D03*
X125250000Y-114780000D03*
X127790000Y-114780000D03*
X125250000Y-117320000D03*
X127790000Y-117320000D03*
X125250000Y-119860000D03*
X127790000Y-119860000D03*
X125250000Y-122400000D03*
X127790000Y-122400000D03*
X125250000Y-124940000D03*
X127790000Y-124940000D03*
X125250000Y-127480000D03*
X127790000Y-127480000D03*
D32*
X186210000Y-81760000D03*
D33*
X188750000Y-81760000D03*
X186210000Y-84300000D03*
X188750000Y-84300000D03*
X186210000Y-86840000D03*
X188750000Y-86840000D03*
X186210000Y-89380000D03*
X188750000Y-89380000D03*
X186210000Y-91920000D03*
X188750000Y-91920000D03*
X186210000Y-94460000D03*
X188750000Y-94460000D03*
X186210000Y-97000000D03*
X188750000Y-97000000D03*
X186210000Y-99540000D03*
X188750000Y-99540000D03*
X186210000Y-102080000D03*
X188750000Y-102080000D03*
X186210000Y-104620000D03*
X188750000Y-104620000D03*
X186210000Y-107160000D03*
X188750000Y-107160000D03*
X186210000Y-109700000D03*
X188750000Y-109700000D03*
X186210000Y-112240000D03*
X188750000Y-112240000D03*
X186210000Y-114780000D03*
X188750000Y-114780000D03*
X186210000Y-117320000D03*
X188750000Y-117320000D03*
X186210000Y-119860000D03*
X188750000Y-119860000D03*
X186210000Y-122400000D03*
X188750000Y-122400000D03*
X186210000Y-124940000D03*
X188750000Y-124940000D03*
X186210000Y-127480000D03*
X188750000Y-127480000D03*
D32*
X188750000Y-53750000D03*
D33*
X188750000Y-56290000D03*
D32*
X125250000Y-53750000D03*
D33*
X125250000Y-56290000D03*
%TD*%
D34*
%TO.C,R21*%
X174000000Y-118887500D03*
X174000000Y-120712500D03*
%TD*%
D15*
%TO.C,TP3*%
X178800000Y-114500000D03*
%TD*%
D30*
%TO.C,J21*%
X110500000Y-79250000D03*
D31*
X113000000Y-79250000D03*
X115500000Y-79250000D03*
X118000000Y-79250000D03*
%TD*%
D15*
%TO.C,TP8*%
X177100000Y-73400000D03*
%TD*%
D35*
%TO.C,R40*%
X136812500Y-130630000D03*
X134987500Y-130630000D03*
%TD*%
D28*
%TO.C,R26*%
X145200000Y-134312500D03*
X145200000Y-132487500D03*
%TD*%
D15*
%TO.C,TP18*%
X137250000Y-86000000D03*
%TD*%
D12*
%TO.C,J11*%
X195250000Y-92000000D03*
D13*
X195250000Y-89500000D03*
X195250000Y-87000000D03*
%TD*%
D36*
%TO.C,D6*%
X174000000Y-117187500D03*
X174000000Y-115312500D03*
%TD*%
D10*
%TO.C,R34*%
X146087500Y-125700000D03*
X147912500Y-125700000D03*
%TD*%
D12*
%TO.C,J13*%
X202500000Y-80000000D03*
D13*
X202500000Y-77500000D03*
X202500000Y-75000000D03*
X202500000Y-72500000D03*
X202500000Y-70000000D03*
X202500000Y-67500000D03*
%TD*%
D30*
%TO.C,J25*%
X110500000Y-71250000D03*
D31*
X113000000Y-71250000D03*
X115500000Y-71250000D03*
X118000000Y-71250000D03*
%TD*%
D15*
%TO.C,TP21*%
X146750000Y-86000000D03*
%TD*%
D12*
%TO.C,J3*%
X110400000Y-116250000D03*
D13*
X110400000Y-113750000D03*
X110400000Y-111250000D03*
%TD*%
D37*
%TO.C,D11*%
X145100000Y-99375000D03*
X145100000Y-101250000D03*
%TD*%
D32*
%TO.C,J9*%
X197290000Y-52450000D03*
D33*
X194750000Y-52450000D03*
X197290000Y-54990000D03*
X194750000Y-54990000D03*
X197290000Y-57530000D03*
X194750000Y-57530000D03*
X197290000Y-60070000D03*
X194750000Y-60070000D03*
%TD*%
D12*
%TO.C,J6*%
X195250000Y-106500000D03*
D13*
X195250000Y-104000000D03*
X195250000Y-101500000D03*
%TD*%
D30*
%TO.C,J16*%
X110500000Y-87250000D03*
D31*
X113000000Y-87250000D03*
X115500000Y-87250000D03*
X118000000Y-87250000D03*
%TD*%
D26*
%TO.C,H2*%
X200600000Y-54000000D03*
X201302944Y-52302944D03*
X201302944Y-55697056D03*
X203000000Y-51600000D03*
D27*
X203000000Y-54000000D03*
D26*
X203000000Y-56400000D03*
X204697056Y-52302944D03*
X204697056Y-55697056D03*
X205400000Y-54000000D03*
%TD*%
D38*
%TO.C,D1*%
X157000000Y-125000000D03*
X157000000Y-118200000D03*
%TD*%
D39*
%TO.C,C24*%
X155050000Y-110750000D03*
X152100000Y-110750000D03*
%TD*%
D30*
%TO.C,J14*%
X110500000Y-95250000D03*
D31*
X113000000Y-95250000D03*
X115500000Y-95250000D03*
%TD*%
D28*
%TO.C,R23*%
X137800000Y-134325000D03*
X137800000Y-132500000D03*
%TD*%
D40*
%TO.C,C20*%
X136162500Y-108000000D03*
X136162500Y-116700000D03*
%TD*%
D41*
%TO.C,C10*%
X163200000Y-144400000D03*
D42*
X158200000Y-144400000D03*
%TD*%
D10*
%TO.C,R8*%
X181275000Y-84200000D03*
X183100000Y-84200000D03*
%TD*%
D12*
%TO.C,J22*%
X110400000Y-133750000D03*
D13*
X110400000Y-131250000D03*
X110400000Y-128750000D03*
X110400000Y-126250000D03*
X110400000Y-123750000D03*
%TD*%
D15*
%TO.C,TP14*%
X141737500Y-86000000D03*
%TD*%
D43*
%TO.C,J28*%
X126200000Y-145450000D03*
D44*
X126200000Y-142950000D03*
%TD*%
D35*
%TO.C,R49*%
X149000000Y-101050000D03*
X147175000Y-101050000D03*
%TD*%
D36*
%TO.C,D4*%
X120800000Y-148337500D03*
X120800000Y-146462500D03*
%TD*%
D10*
%TO.C,R30*%
X135000000Y-123400000D03*
X136825000Y-123400000D03*
%TD*%
D28*
%TO.C,R25*%
X143200000Y-134312500D03*
X143200000Y-132487500D03*
%TD*%
D34*
%TO.C,R14*%
X120800000Y-143000000D03*
X120800000Y-144825000D03*
%TD*%
D38*
%TO.C,D5*%
X157000000Y-135800000D03*
X157000000Y-129000000D03*
%TD*%
D15*
%TO.C,TP9*%
X177100000Y-76200000D03*
%TD*%
D43*
%TO.C,J4*%
X117750000Y-113750000D03*
D44*
X117750000Y-111250000D03*
%TD*%
D15*
%TO.C,TP6*%
X120000000Y-100150000D03*
%TD*%
D28*
%TO.C,R22*%
X135800000Y-134312500D03*
X135800000Y-132487500D03*
%TD*%
D30*
%TO.C,J24*%
X110500000Y-63225000D03*
D31*
X113000000Y-63225000D03*
X115500000Y-63225000D03*
X118000000Y-63225000D03*
%TD*%
D45*
%TO.C,U4*%
X138950000Y-123220000D03*
X138950000Y-124490000D03*
X138950000Y-125760000D03*
X138950000Y-127030000D03*
X138950000Y-128300000D03*
X138950000Y-129570000D03*
X138950000Y-130840000D03*
X143900000Y-130840000D03*
X143900000Y-129570000D03*
X143900000Y-128300000D03*
X143900000Y-127030000D03*
X143900000Y-125760000D03*
X143900000Y-124490000D03*
X143900000Y-123220000D03*
%TD*%
D10*
%TO.C,R11*%
X157925000Y-115500000D03*
X159750000Y-115500000D03*
%TD*%
D14*
%TO.C,C26*%
X148600000Y-103000000D03*
X148600000Y-105950000D03*
%TD*%
D26*
%TO.C,H4*%
X108600000Y-146000000D03*
X109302944Y-144302944D03*
X109302944Y-147697056D03*
X111000000Y-143600000D03*
D27*
X111000000Y-146000000D03*
D26*
X111000000Y-148400000D03*
X112697056Y-144302944D03*
X112697056Y-147697056D03*
X113400000Y-146000000D03*
%TD*%
D34*
%TO.C,R12*%
X120800000Y-139487500D03*
X120800000Y-141312500D03*
%TD*%
D15*
%TO.C,TP12*%
X172150000Y-106550000D03*
%TD*%
D17*
%TO.C,J26*%
X133700000Y-143200000D03*
D18*
X138700000Y-143200000D03*
%TD*%
D35*
%TO.C,R33*%
X140312500Y-121400000D03*
X138487500Y-121400000D03*
%TD*%
D12*
%TO.C,J12*%
X117750000Y-128750000D03*
D13*
X117750000Y-126250000D03*
X117750000Y-123750000D03*
%TD*%
D16*
%TO.C,RV1*%
X174607323Y-144600000D03*
X172067323Y-144600000D03*
X169527323Y-144600000D03*
%TD*%
D10*
%TO.C,R39*%
X146087500Y-123400000D03*
X147912500Y-123400000D03*
%TD*%
%TO.C,R47*%
X138350000Y-104550000D03*
X140175000Y-104550000D03*
%TD*%
D46*
%TO.C,L1*%
X162150000Y-132600000D03*
X171850000Y-132600000D03*
%TD*%
D15*
%TO.C,TP7*%
X120000000Y-102900000D03*
%TD*%
D17*
%TO.C,J17*%
X180900000Y-143100000D03*
D18*
X185900000Y-143100000D03*
%TD*%
D47*
%TO.C,C6*%
X134650000Y-127000000D03*
X132750000Y-127000000D03*
%TD*%
D28*
%TO.C,R31*%
X147400000Y-134312500D03*
X147400000Y-132487500D03*
%TD*%
D48*
%TO.C,J30*%
X146000000Y-56500000D03*
D49*
X146000000Y-53960000D03*
X143460000Y-56500000D03*
X143460000Y-53960000D03*
X140920000Y-56500000D03*
X140920000Y-53960000D03*
X138380000Y-56500000D03*
X138380000Y-53960000D03*
X135840000Y-56500000D03*
X135840000Y-53960000D03*
%TD*%
D30*
%TO.C,J29*%
X170500000Y-54180000D03*
D31*
X173000000Y-54180000D03*
X175500000Y-54180000D03*
X178000000Y-54180000D03*
X180500000Y-54180000D03*
%TD*%
M02*
