M48
; DRILL file {KiCad 7.0.1} date Thu Apr  6 21:06:24 2023
; FORMAT={-:-/ absolute / inch / decimal}
; #@! TF.CreationDate,2023-04-06T21:06:24+02:00
; #@! TF.GenerationSoftware,Kicad,Pcbnew,7.0.1
; #@! TF.FileFunction,Plated,1,2,PTH
FMAT,2
INCH
; #@! TA.AperFunction,Plated,PTH,ViaDrill
T1C0.0118
; #@! TA.AperFunction,Plated,PTH,ViaDrill
T2C0.0157
; #@! TA.AperFunction,Plated,PTH,ComponentDrill
T3C0.0197
; #@! TA.AperFunction,Plated,PTH,ComponentDrill
T4C0.0315
; #@! TA.AperFunction,Plated,PTH,ComponentDrill
T5C0.0374
; #@! TA.AperFunction,Plated,PTH,ComponentDrill
T6C0.0394
; #@! TA.AperFunction,Plated,PTH,ComponentDrill
T7C0.0512
; #@! TA.AperFunction,Plated,PTH,ComponentDrill
T8C0.1260
%
G90
G05
T1
X4.2999Y-3.9377
X4.3028Y-3.9034
X4.3169Y-4.8051
X4.5039Y-4.2165
X4.5177Y-4.1496
X4.5787Y-3.8952
X4.7244Y-3.8937
X4.7559Y-5.4488
X4.7559Y-5.6299
X4.8031Y-2.9055
X4.8425Y-2.9055
X4.8703Y-2.6177
X4.8819Y-3.122
X4.9041Y-4.0689
X4.9312Y-2.4863
X4.9449Y-2.5354
X4.9724Y-3.063
X4.9724Y-3.0945
X5.0849Y-4.5413
X5.0978Y-4.8819
X5.1088Y-3.7967
X5.1181Y-4.9843
X5.1339Y-3.6023
X5.1339Y-3.7638
X5.1339Y-4.0689
X5.1378Y-3.5709
X5.1403Y-3.7967
X5.1556Y-3.1181
X5.1678Y-4.6239
X5.1678Y-4.8189
X5.2151Y-4.7697
X5.2612Y-4.086
X5.2795Y-4.6693
X5.2795Y-4.7244
X5.3602Y-4.1791
X5.3602Y-4.3228
X5.3602Y-4.5236
X5.3602Y-4.5925
X5.3602Y-4.6654
X5.3607Y-4.252
X5.3858Y-4.7756
X5.3976Y-5.0512
X5.4004Y-3.7967
X5.4004Y-3.8426
X5.4004Y-3.874
X5.4004Y-3.9055
X5.4004Y-3.937
X5.5217Y-4.2244
X5.5217Y-4.2874
X5.5433Y-5.4961
X5.5437Y-5.1152
X5.563Y-5.3189
X5.5876Y-4.2244
X5.5876Y-4.2874
X5.6535Y-4.2244
X5.6535Y-4.2874
X5.6654Y-5.0012
X5.719Y-4.3484
X5.7205Y-4.3819
X5.7205Y-4.5059
X5.7205Y-4.561
X5.7205Y-4.6161
X5.7224Y-4.3169
X5.7874Y-5.3307
X5.7874Y-5.3661
X5.7874Y-5.4016
X5.8228Y-5.3307
X5.8228Y-5.3661
X5.8228Y-5.4016
X5.8622Y-5.3307
X5.8622Y-5.3661
X5.8622Y-5.4016
X5.874Y-3.311
X5.8858Y-4.7047
X5.9173Y-3.311
X6.0197Y-5.437
X6.0197Y-5.4803
X6.0197Y-5.5236
X6.0433Y-3.3898
X6.0433Y-3.4409
X6.0531Y-4.6161
X6.0531Y-4.6555
X6.0531Y-4.6949
X6.0551Y-5.437
X6.0551Y-5.4803
X6.0551Y-5.5236
X6.083Y-3.811
X6.0847Y-3.7225
X6.0895Y-3.3717
X6.0906Y-5.437
X6.0906Y-5.4803
X6.0906Y-5.5236
X6.0925Y-4.6161
X6.0925Y-4.6949
X6.0958Y-3.4032
X6.1083Y-3.7775
X6.1118Y-3.3495
X6.122Y-4.7677
X6.124Y-4.8031
X6.126Y-5.437
X6.126Y-5.4803
X6.126Y-5.5236
X6.1452Y-3.3431
X6.1476Y-4.3366
X6.1496Y-4.378
X6.1536Y-3.055
X6.1614Y-4.7677
X6.1614Y-4.8031
X6.1654Y-3.3189
X6.1811Y-4.3366
X6.1811Y-4.378
X6.1871Y-3.0255
X6.2146Y-4.3366
X6.2146Y-4.378
X6.2402Y-4.4291
X6.2697Y-4.498
X6.3022Y-4.4637
X6.3253Y-4.4291
X6.3258Y-4.5028
X6.3701Y-5.0
X6.5996Y-2.6766
X6.6219Y-2.6544
X6.6434Y-2.6314
X6.6655Y-2.609
X6.6886Y-2.5876
X6.7298Y-4.2864
X6.7638Y-4.8504
X6.7717Y-3.4213
X6.7717Y-4.2421
X6.7717Y-3.5
X6.7717Y-3.0236
X6.8031Y-3.4213
X6.8032Y-3.0236
X6.8032Y-3.5
X6.8346Y-3.0236
X6.8346Y-3.4213
X6.8346Y-3.5
X6.8346Y-5.5236
X6.8661Y-3.0236
X6.8661Y-3.4213
X6.8661Y-3.5
X6.8858Y-5.2835
X6.8858Y-5.3189
X6.9331Y-5.2835
X6.9331Y-5.3189
X6.9587Y-4.4587
X6.9764Y-5.2835
X6.9764Y-5.3189
X6.9882Y-4.6516
X7.0472Y-2.4921
X7.0472Y-2.6339
X7.0472Y-2.7835
X7.0827Y-2.3858
X7.0827Y-4.3189
X7.0827Y-4.4252
X7.0827Y-4.5276
X7.0866Y-3.0
X7.0866Y-3.1181
X7.1024Y-3.315
X7.1024Y-3.4173
X7.1048Y-4.6024
X7.1082Y-3.9664
X7.1264Y-4.7362
X7.1358Y-3.7126
X7.1421Y-3.7446
X7.155Y-3.6831
X7.184Y-4.2189
X7.1993Y-3.7283
X7.1993Y-3.8645
X7.2008Y-2.4921
X7.2008Y-2.878
X7.2008Y-4.7756
X7.2018Y-3.8022
X7.2028Y-3.7657
X7.2028Y-4.6161
X7.2087Y-3.3622
X7.2087Y-3.4646
X7.2121Y-4.3312
X7.2182Y-3.9194
X7.229Y-4.122
X7.229Y-4.1693
X7.2441Y-3.9803
X7.252Y-3.0157
X7.2588Y-4.0621
X7.2748Y-3.5669
X7.2835Y-3.0157
X7.287Y-2.9488
X7.2933Y-3.7697
X7.3346Y-3.0358
X7.3465Y-5.1969
X7.3811Y-3.8369
X7.3842Y-3.2441
X7.4033Y-3.4646
X7.4131Y-4.1689
X7.4311Y-3.0487
X7.44Y-2.81
X7.4409Y-2.7785
X7.4606Y-4.2677
X7.4621Y-4.0689
X7.465Y-4.1784
X7.4916Y-4.5728
X7.498Y-4.7421
X7.5197Y-4.7795
X7.5433Y-5.0197
X7.5655Y-2.315
X7.5655Y-2.3464
X7.5746Y-4.5728
X7.5769Y-4.7459
X7.5872Y-4.4189
X7.597Y-4.7795
X7.6024Y-5.0197
X7.6063Y-4.252
X7.607Y-2.842
X7.607Y-2.8105
X7.6078Y-4.2163
X7.6161Y-4.185
X7.6448Y-3.2749
X7.654Y-3.3332
X7.6763Y-3.276
X7.685Y-3.3386
X7.7033Y-3.3642
X7.7123Y-3.276
X7.727Y-3.1944
X7.752Y-3.8346
X7.7598Y-2.4905
X7.7835Y-4.3661
X7.7913Y-5.4961
X7.811Y-4.9291
X8.0239Y-5.3089
X8.0354Y-4.7362
X8.0394Y-4.1654
X8.0433Y-3.5984
X8.0551Y-2.4921
T2
X4.3209Y-2.2933
X4.3209Y-4.6555
X4.3209Y-5.4429
X4.5177Y-2.0965
X4.5177Y-2.2933
X4.5177Y-2.687
X4.5177Y-3.2776
X4.5177Y-4.2618
X4.5177Y-4.4587
X4.5177Y-5.4429
X4.5177Y-5.6398
X4.5177Y-5.8366
X4.7146Y-2.0965
X4.7146Y-2.2933
X4.7146Y-2.4902
X4.7146Y-2.687
X4.7146Y-3.0807
X4.7146Y-3.2776
X4.7146Y-4.2618
X4.7146Y-4.4587
X4.7146Y-4.8524
X4.7146Y-5.0492
X4.7146Y-5.2461
X4.7146Y-5.4429
X4.7146Y-5.8366
X4.9114Y-2.2933
X4.9114Y-5.4429
X4.9114Y-5.8366
X5.1083Y-2.0965
X5.1083Y-2.4902
X5.1083Y-2.687
X5.1083Y-5.8366
X5.3051Y-2.2933
X5.3051Y-2.4902
X5.3051Y-2.687
X5.3051Y-3.2776
X5.3051Y-3.4744
X5.3051Y-3.6713
X5.3051Y-3.8681
X5.3051Y-5.8366
X5.502Y-2.2933
X5.502Y-2.4902
X5.502Y-2.687
X5.502Y-3.2776
X5.502Y-3.4744
X5.502Y-3.6713
X5.502Y-5.8366
X5.5039Y-3.998
X5.6988Y-2.2933
X5.6988Y-2.687
X5.6988Y-2.8839
X5.6988Y-3.2776
X5.6988Y-3.4744
X5.6988Y-5.4429
X5.6988Y-5.8366
X5.8957Y-2.0965
X5.8957Y-2.2933
X5.8957Y-2.4902
X5.8957Y-2.8839
X5.8957Y-3.6713
X5.8957Y-4.6555
X5.8957Y-4.8524
X5.8957Y-5.0492
X5.8957Y-5.2461
X5.8957Y-5.4429
X5.8957Y-5.8366
X6.0925Y-2.0965
X6.0925Y-2.2933
X6.0925Y-2.4902
X6.0925Y-2.687
X6.0925Y-3.0807
X6.0925Y-3.8681
X6.0925Y-4.4587
X6.0925Y-5.0492
X6.0925Y-5.2461
X6.0925Y-5.6398
X6.0925Y-5.8366
X6.2894Y-2.0965
X6.2894Y-2.2933
X6.2894Y-2.4902
X6.2894Y-2.687
X6.2894Y-2.8839
X6.2894Y-3.2776
X6.2894Y-3.6713
X6.2894Y-3.8681
X6.2894Y-5.6398
X6.2894Y-5.8366
X6.4862Y-2.0965
X6.4862Y-2.2933
X6.4862Y-2.4902
X6.4862Y-2.687
X6.4862Y-3.2776
X6.4862Y-3.6713
X6.4862Y-3.8681
X6.4862Y-4.065
X6.4862Y-4.2618
X6.4862Y-5.0492
X6.4862Y-5.8366
X6.6831Y-2.2933
X6.6831Y-2.4902
X6.6831Y-2.8839
X6.6831Y-3.2776
X6.6831Y-3.6713
X6.6831Y-3.8681
X6.6831Y-4.065
X6.6831Y-5.0492
X6.6831Y-5.6398
X6.6831Y-5.8366
X6.8799Y-2.2933
X6.8799Y-2.687
X6.8799Y-2.8839
X6.8799Y-3.2776
X6.8799Y-3.6713
X6.8799Y-3.8681
X6.8799Y-4.065
X6.8799Y-4.8524
X6.8799Y-5.0492
X6.8799Y-5.4429
X6.8799Y-5.6398
X6.8799Y-5.8366
X7.0768Y-3.6713
X7.0768Y-3.8681
X7.0768Y-4.065
X7.0768Y-4.8524
X7.0768Y-5.4429
X7.0768Y-5.8366
X7.2185Y-2.6378
X7.2185Y-2.7047
X7.2185Y-2.7972
X7.2736Y-2.2933
X7.2736Y-4.8524
X7.2736Y-5.0492
X7.2736Y-5.4429
X7.2736Y-5.8366
X7.315Y-2.6378
X7.315Y-2.7047
X7.315Y-2.7972
X7.4705Y-2.2933
X7.4705Y-2.4902
X7.4705Y-5.2461
X7.4705Y-5.4429
X7.4705Y-5.6398
X7.4705Y-5.8366
X7.6673Y-3.8681
X7.6673Y-4.4587
X7.6673Y-5.0492
X7.6673Y-5.6398
X7.6673Y-5.8366
X7.8642Y-3.2776
X7.8642Y-3.4744
X7.8642Y-4.065
X7.8642Y-5.2461
X7.8642Y-5.6398
X7.8642Y-5.8366
X8.061Y-2.2933
T3
X4.2756Y-2.126
X4.2756Y-5.748
X4.3033Y-2.0592
X4.3033Y-2.1928
X4.3033Y-5.6812
X4.3033Y-5.8148
X4.3701Y-2.0315
X4.3701Y-2.2205
X4.3701Y-5.6535
X4.3701Y-5.8425
X4.4369Y-2.0592
X4.4369Y-2.1928
X4.4369Y-5.6812
X4.4369Y-5.8148
X4.4646Y-2.126
X4.4646Y-5.748
X7.8976Y-2.126
X7.8976Y-5.748
X7.9253Y-2.0592
X7.9253Y-2.1928
X7.9253Y-5.6812
X7.9253Y-5.8148
X7.9921Y-2.0315
X7.9921Y-2.2205
X7.9921Y-5.6535
X7.9921Y-5.8425
X8.0589Y-2.0592
X8.0589Y-2.1928
X8.0589Y-5.6812
X8.0589Y-5.8148
X8.0866Y-2.126
X8.0866Y-5.748
T4
X6.6743Y-5.6929
X6.7743Y-5.6929
X6.8743Y-5.6929
X7.115Y-5.2677
X7.215Y-5.2677
X7.315Y-5.2677
T5
X4.3465Y-4.3799
X4.3465Y-4.4783
X4.3465Y-4.5768
X4.3465Y-4.872
X4.3465Y-4.9705
X4.3465Y-5.0689
X4.3465Y-5.1673
X4.3465Y-5.2657
X4.3504Y-2.4892
X4.3504Y-2.8051
X4.3504Y-3.1201
X4.3504Y-3.435
X4.3504Y-3.75
X4.3504Y-4.065
X4.4488Y-2.4892
X4.4488Y-2.8051
X4.4488Y-3.1201
X4.4488Y-3.435
X4.4488Y-3.75
X4.4488Y-4.065
X4.5472Y-2.4892
X4.5472Y-2.8051
X4.5472Y-3.1201
X4.5472Y-3.435
X4.5472Y-3.75
X4.5472Y-4.065
X4.6358Y-4.872
X4.6358Y-4.9705
X4.6358Y-5.0689
X4.6457Y-2.4892
X4.6457Y-2.8051
X4.6457Y-3.1201
X4.6457Y-3.435
X6.7126Y-2.1331
X6.811Y-2.1331
X6.9094Y-2.1331
X7.0079Y-2.1331
X7.1063Y-2.1331
X7.687Y-2.6575
X7.687Y-2.7559
X7.687Y-2.8543
X7.687Y-2.9528
X7.687Y-3.0512
X7.687Y-3.4252
X7.687Y-3.5236
X7.687Y-3.622
X7.687Y-3.9961
X7.687Y-4.0945
X7.687Y-4.1929
X7.687Y-4.5669
X7.687Y-4.6654
X7.687Y-4.7638
X7.687Y-5.128
X7.687Y-5.2264
X7.687Y-5.3248
X7.9724Y-2.6575
X7.9724Y-2.7559
X7.9724Y-2.8543
X7.9724Y-2.9528
X7.9724Y-3.0512
X7.9724Y-3.1496
X7.9724Y-3.4252
X7.9724Y-3.5236
X7.9724Y-3.622
X7.9724Y-3.7205
X7.9724Y-3.9961
X7.9724Y-4.0945
X7.9724Y-4.1929
X7.9724Y-4.2913
X7.9724Y-4.5669
X7.9724Y-4.6654
X7.9724Y-4.7638
X7.9724Y-4.8622
X7.9724Y-5.1378
X7.9724Y-5.2362
X7.9724Y-5.3346
X7.9724Y-5.4331
T6
X4.6358Y-4.3799
X4.6358Y-4.4783
X4.9311Y-2.1161
X4.9311Y-2.2161
X4.9311Y-3.2189
X4.9311Y-3.3189
X4.9311Y-3.4189
X4.9311Y-3.5189
X4.9311Y-3.6189
X4.9311Y-3.7189
X4.9311Y-3.8189
X4.9311Y-3.9189
X4.9311Y-4.0189
X4.9311Y-4.1189
X4.9311Y-4.2189
X4.9311Y-4.3189
X4.9311Y-4.4189
X4.9311Y-4.5189
X4.9311Y-4.6189
X4.9311Y-4.7189
X4.9311Y-4.8189
X4.9311Y-4.9189
X4.9311Y-5.0189
X4.9685Y-5.628
X4.9685Y-5.7264
X5.0311Y-3.2189
X5.0311Y-3.3189
X5.0311Y-3.4189
X5.0311Y-3.5189
X5.0311Y-3.6189
X5.0311Y-3.7189
X5.0311Y-3.8189
X5.0311Y-3.9189
X5.0311Y-4.0189
X5.0311Y-4.1189
X5.0311Y-4.2189
X5.0311Y-4.3189
X5.0311Y-4.4189
X5.0311Y-4.5189
X5.0311Y-4.6189
X5.0311Y-4.7189
X5.0311Y-4.8189
X5.0311Y-4.9189
X5.0311Y-5.0189
X5.348Y-2.1244
X5.348Y-2.2244
X5.448Y-2.1244
X5.448Y-2.2244
X5.548Y-2.1244
X5.548Y-2.2244
X5.648Y-2.1244
X5.648Y-2.2244
X5.748Y-2.1244
X5.748Y-2.2244
X6.2283Y-5.685
X6.4252Y-5.685
X7.3311Y-3.2189
X7.3311Y-3.3189
X7.3311Y-3.4189
X7.3311Y-3.5189
X7.3311Y-3.6189
X7.3311Y-3.7189
X7.3311Y-3.8189
X7.3311Y-3.9189
X7.3311Y-4.0189
X7.3311Y-4.1189
X7.3311Y-4.2189
X7.3311Y-4.3189
X7.3311Y-4.4189
X7.3311Y-4.5189
X7.3311Y-4.6189
X7.3311Y-4.7189
X7.3311Y-4.8189
X7.3311Y-4.9189
X7.3311Y-5.0189
X7.4311Y-2.1161
X7.4311Y-2.2161
X7.4311Y-3.2189
X7.4311Y-3.3189
X7.4311Y-3.4189
X7.4311Y-3.5189
X7.4311Y-3.6189
X7.4311Y-3.7189
X7.4311Y-3.8189
X7.4311Y-3.9189
X7.4311Y-4.0189
X7.4311Y-4.1189
X7.4311Y-4.2189
X7.4311Y-4.3189
X7.4311Y-4.4189
X7.4311Y-4.5189
X7.4311Y-4.6189
X7.4311Y-4.7189
X7.4311Y-4.8189
X7.4311Y-4.9189
X7.4311Y-5.0189
X7.6673Y-2.065
X7.6673Y-2.165
X7.6673Y-2.265
X7.6673Y-2.365
X7.7673Y-2.065
X7.7673Y-2.165
X7.7673Y-2.265
X7.7673Y-2.365
T7
X5.2638Y-5.6378
X5.4606Y-5.6378
X5.7165Y-5.6378
X5.9134Y-5.6378
X7.122Y-5.6339
X7.3189Y-5.6339
T8
X4.3701Y-2.126
X4.3701Y-5.748
X7.9921Y-2.126
X7.9921Y-5.748
T0
M30
