%TF.GenerationSoftware,KiCad,Pcbnew,7.0.1*%
%TF.CreationDate,2023-04-06T21:06:24+02:00*%
%TF.ProjectId,Scout_Robot_Controller,53636f75-745f-4526-9f62-6f745f436f6e,rev?*%
%TF.SameCoordinates,Original*%
%TF.FileFunction,Legend,Bot*%
%TF.FilePolarity,Positive*%
%FSLAX46Y46*%
G04 Gerber Fmt 4.6, Leading zero omitted, Abs format (unit mm)*
G04 Created by KiCad (PCBNEW 7.0.1) date 2023-04-06 21:06:24*
%MOMM*%
%LPD*%
G01*
G04 APERTURE LIST*
G04 Aperture macros list*
%AMRoundRect*
0 Rectangle with rounded corners*
0 $1 Rounding radius*
0 $2 $3 $4 $5 $6 $7 $8 $9 X,Y pos of 4 corners*
0 Add a 4 corners polygon primitive as box body*
4,1,4,$2,$3,$4,$5,$6,$7,$8,$9,$2,$3,0*
0 Add four circle primitives for the rounded corners*
1,1,$1+$1,$2,$3*
1,1,$1+$1,$4,$5*
1,1,$1+$1,$6,$7*
1,1,$1+$1,$8,$9*
0 Add four rect primitives between the rounded corners*
20,1,$1+$1,$2,$3,$4,$5,0*
20,1,$1+$1,$4,$5,$6,$7,0*
20,1,$1+$1,$6,$7,$8,$9,0*
20,1,$1+$1,$8,$9,$2,$3,0*%
%AMFreePoly0*
4,1,19,0.500000,-0.750000,0.000000,-0.750000,0.000000,-0.744911,-0.071157,-0.744911,-0.207708,-0.704816,-0.327430,-0.627875,-0.420627,-0.520320,-0.479746,-0.390866,-0.500000,-0.250000,-0.500000,0.250000,-0.479746,0.390866,-0.420627,0.520320,-0.327430,0.627875,-0.207708,0.704816,-0.071157,0.744911,0.000000,0.744911,0.000000,0.750000,0.500000,0.750000,0.500000,-0.750000,0.500000,-0.750000,
$1*%
%AMFreePoly1*
4,1,19,0.000000,0.744911,0.071157,0.744911,0.207708,0.704816,0.327430,0.627875,0.420627,0.520320,0.479746,0.390866,0.500000,0.250000,0.500000,-0.250000,0.479746,-0.390866,0.420627,-0.520320,0.327430,-0.627875,0.207708,-0.704816,0.071157,-0.744911,0.000000,-0.744911,0.000000,-0.750000,-0.500000,-0.750000,-0.500000,0.750000,0.000000,0.750000,0.000000,0.744911,0.000000,0.744911,
$1*%
%AMFreePoly2*
4,1,19,0.550000,-0.750000,0.000000,-0.750000,0.000000,-0.744911,-0.071157,-0.744911,-0.207708,-0.704816,-0.327430,-0.627875,-0.420627,-0.520320,-0.479746,-0.390866,-0.500000,-0.250000,-0.500000,0.250000,-0.479746,0.390866,-0.420627,0.520320,-0.327430,0.627875,-0.207708,0.704816,-0.071157,0.744911,0.000000,0.744911,0.000000,0.750000,0.550000,0.750000,0.550000,-0.750000,0.550000,-0.750000,
$1*%
%AMFreePoly3*
4,1,19,0.000000,0.744911,0.071157,0.744911,0.207708,0.704816,0.327430,0.627875,0.420627,0.520320,0.479746,0.390866,0.500000,0.250000,0.500000,-0.250000,0.479746,-0.390866,0.420627,-0.520320,0.327430,-0.627875,0.207708,-0.704816,0.071157,-0.744911,0.000000,-0.744911,0.000000,-0.750000,-0.550000,-0.750000,-0.550000,0.750000,0.000000,0.750000,0.000000,0.744911,0.000000,0.744911,
$1*%
G04 Aperture macros list end*
%ADD10C,0.300000*%
%ADD11C,0.150000*%
%ADD12C,0.120000*%
%ADD13RoundRect,0.250000X0.725000X-0.600000X0.725000X0.600000X-0.725000X0.600000X-0.725000X-0.600000X0*%
%ADD14O,1.950000X1.700000*%
%ADD15C,1.440000*%
%ADD16R,2.600000X2.600000*%
%ADD17C,2.600000*%
%ADD18C,0.800000*%
%ADD19C,6.400000*%
%ADD20RoundRect,0.250000X-0.600000X-0.725000X0.600000X-0.725000X0.600000X0.725000X-0.600000X0.725000X0*%
%ADD21O,1.700000X1.950000*%
%ADD22R,1.700000X1.700000*%
%ADD23O,1.700000X1.700000*%
%ADD24R,2.000000X2.000000*%
%ADD25C,2.000000*%
%ADD26RoundRect,0.250000X0.750000X-0.600000X0.750000X0.600000X-0.750000X0.600000X-0.750000X-0.600000X0*%
%ADD27O,2.000000X1.700000*%
%ADD28RoundRect,0.250000X0.450000X-0.262500X0.450000X0.262500X-0.450000X0.262500X-0.450000X-0.262500X0*%
%ADD29RoundRect,0.250000X-0.450000X0.262500X-0.450000X-0.262500X0.450000X-0.262500X0.450000X0.262500X0*%
%ADD30FreePoly0,0.000000*%
%ADD31FreePoly1,0.000000*%
%ADD32RoundRect,0.250000X0.250000X0.475000X-0.250000X0.475000X-0.250000X-0.475000X0.250000X-0.475000X0*%
%ADD33FreePoly2,180.000000*%
%ADD34R,1.000000X1.500000*%
%ADD35FreePoly3,180.000000*%
%ADD36RoundRect,0.250000X-0.475000X0.250000X-0.475000X-0.250000X0.475000X-0.250000X0.475000X0.250000X0*%
%ADD37RoundRect,0.150000X-0.587500X-0.150000X0.587500X-0.150000X0.587500X0.150000X-0.587500X0.150000X0*%
%ADD38FreePoly0,270.000000*%
%ADD39FreePoly1,270.000000*%
%ADD40RoundRect,0.250000X-0.250000X-0.475000X0.250000X-0.475000X0.250000X0.475000X-0.250000X0.475000X0*%
%ADD41RoundRect,0.250000X-0.262500X-0.450000X0.262500X-0.450000X0.262500X0.450000X-0.262500X0.450000X0*%
%ADD42RoundRect,0.250000X0.262500X0.450000X-0.262500X0.450000X-0.262500X-0.450000X0.262500X-0.450000X0*%
%ADD43RoundRect,0.250000X0.600000X-0.600000X0.600000X0.600000X-0.600000X0.600000X-0.600000X-0.600000X0*%
%ADD44C,1.700000*%
%ADD45RoundRect,0.250000X0.350000X-0.850000X0.350000X0.850000X-0.350000X0.850000X-0.350000X-0.850000X0*%
%ADD46RoundRect,0.249997X2.650003X-2.950003X2.650003X2.950003X-2.650003X2.950003X-2.650003X-2.950003X0*%
%ADD47RoundRect,0.225000X-0.375000X0.225000X-0.375000X-0.225000X0.375000X-0.225000X0.375000X0.225000X0*%
%ADD48RoundRect,0.100000X0.637500X0.100000X-0.637500X0.100000X-0.637500X-0.100000X0.637500X-0.100000X0*%
%ADD49RoundRect,0.250000X1.075000X-0.312500X1.075000X0.312500X-1.075000X0.312500X-1.075000X-0.312500X0*%
%ADD50RoundRect,0.250000X-0.850000X-0.350000X0.850000X-0.350000X0.850000X0.350000X-0.850000X0.350000X0*%
%ADD51RoundRect,0.249997X-2.950003X-2.650003X2.950003X-2.650003X2.950003X2.650003X-2.950003X2.650003X0*%
%ADD52RoundRect,0.250000X0.475000X-0.250000X0.475000X0.250000X-0.475000X0.250000X-0.475000X-0.250000X0*%
%ADD53R,5.700000X1.600000*%
%ADD54FreePoly2,90.000000*%
%ADD55R,1.500000X1.000000*%
%ADD56FreePoly3,90.000000*%
%ADD57RoundRect,0.150000X0.825000X0.150000X-0.825000X0.150000X-0.825000X-0.150000X0.825000X-0.150000X0*%
%ADD58RoundRect,0.250000X-0.312500X-1.075000X0.312500X-1.075000X0.312500X1.075000X-0.312500X1.075000X0*%
%ADD59RoundRect,0.150000X0.512500X0.150000X-0.512500X0.150000X-0.512500X-0.150000X0.512500X-0.150000X0*%
%ADD60RoundRect,0.150000X-0.150000X0.587500X-0.150000X-0.587500X0.150000X-0.587500X0.150000X0.587500X0*%
G04 APERTURE END LIST*
D10*
X144864285Y-61703142D02*
X144864285Y-60503142D01*
X144864285Y-60503142D02*
X144464285Y-61360285D01*
X144464285Y-61360285D02*
X144064285Y-60503142D01*
X144064285Y-60503142D02*
X144064285Y-61703142D01*
X143264285Y-60503142D02*
X143035713Y-60503142D01*
X143035713Y-60503142D02*
X142921428Y-60560285D01*
X142921428Y-60560285D02*
X142807142Y-60674571D01*
X142807142Y-60674571D02*
X142749999Y-60903142D01*
X142749999Y-60903142D02*
X142749999Y-61303142D01*
X142749999Y-61303142D02*
X142807142Y-61531714D01*
X142807142Y-61531714D02*
X142921428Y-61646000D01*
X142921428Y-61646000D02*
X143035713Y-61703142D01*
X143035713Y-61703142D02*
X143264285Y-61703142D01*
X143264285Y-61703142D02*
X143378571Y-61646000D01*
X143378571Y-61646000D02*
X143492856Y-61531714D01*
X143492856Y-61531714D02*
X143549999Y-61303142D01*
X143549999Y-61303142D02*
X143549999Y-60903142D01*
X143549999Y-60903142D02*
X143492856Y-60674571D01*
X143492856Y-60674571D02*
X143378571Y-60560285D01*
X143378571Y-60560285D02*
X143264285Y-60503142D01*
X142407142Y-60503142D02*
X141721428Y-60503142D01*
X142064285Y-61703142D02*
X142064285Y-60503142D01*
X141607142Y-61817428D02*
X140692856Y-61817428D01*
X139721427Y-61588857D02*
X139778570Y-61646000D01*
X139778570Y-61646000D02*
X139949998Y-61703142D01*
X139949998Y-61703142D02*
X140064284Y-61703142D01*
X140064284Y-61703142D02*
X140235713Y-61646000D01*
X140235713Y-61646000D02*
X140349998Y-61531714D01*
X140349998Y-61531714D02*
X140407141Y-61417428D01*
X140407141Y-61417428D02*
X140464284Y-61188857D01*
X140464284Y-61188857D02*
X140464284Y-61017428D01*
X140464284Y-61017428D02*
X140407141Y-60788857D01*
X140407141Y-60788857D02*
X140349998Y-60674571D01*
X140349998Y-60674571D02*
X140235713Y-60560285D01*
X140235713Y-60560285D02*
X140064284Y-60503142D01*
X140064284Y-60503142D02*
X139949998Y-60503142D01*
X139949998Y-60503142D02*
X139778570Y-60560285D01*
X139778570Y-60560285D02*
X139721427Y-60617428D01*
X139378570Y-60503142D02*
X138692856Y-60503142D01*
X139035713Y-61703142D02*
X139035713Y-60503142D01*
X137607141Y-61703142D02*
X138007141Y-61131714D01*
X138292855Y-61703142D02*
X138292855Y-60503142D01*
X138292855Y-60503142D02*
X137835712Y-60503142D01*
X137835712Y-60503142D02*
X137721427Y-60560285D01*
X137721427Y-60560285D02*
X137664284Y-60617428D01*
X137664284Y-60617428D02*
X137607141Y-60731714D01*
X137607141Y-60731714D02*
X137607141Y-60903142D01*
X137607141Y-60903142D02*
X137664284Y-61017428D01*
X137664284Y-61017428D02*
X137721427Y-61074571D01*
X137721427Y-61074571D02*
X137835712Y-61131714D01*
X137835712Y-61131714D02*
X138292855Y-61131714D01*
X136521427Y-61703142D02*
X137092855Y-61703142D01*
X137092855Y-61703142D02*
X137092855Y-60503142D01*
D11*
X205628571Y-65353809D02*
X205485714Y-65401428D01*
X205485714Y-65401428D02*
X205438095Y-65449047D01*
X205438095Y-65449047D02*
X205390476Y-65544285D01*
X205390476Y-65544285D02*
X205390476Y-65687142D01*
X205390476Y-65687142D02*
X205438095Y-65782380D01*
X205438095Y-65782380D02*
X205485714Y-65830000D01*
X205485714Y-65830000D02*
X205580952Y-65877619D01*
X205580952Y-65877619D02*
X205961904Y-65877619D01*
X205961904Y-65877619D02*
X205961904Y-64877619D01*
X205961904Y-64877619D02*
X205628571Y-64877619D01*
X205628571Y-64877619D02*
X205533333Y-64925238D01*
X205533333Y-64925238D02*
X205485714Y-64972857D01*
X205485714Y-64972857D02*
X205438095Y-65068095D01*
X205438095Y-65068095D02*
X205438095Y-65163333D01*
X205438095Y-65163333D02*
X205485714Y-65258571D01*
X205485714Y-65258571D02*
X205533333Y-65306190D01*
X205533333Y-65306190D02*
X205628571Y-65353809D01*
X205628571Y-65353809D02*
X205961904Y-65353809D01*
X204961904Y-65877619D02*
X204961904Y-64877619D01*
X204961904Y-64877619D02*
X204628571Y-65591904D01*
X204628571Y-65591904D02*
X204295238Y-64877619D01*
X204295238Y-64877619D02*
X204295238Y-65877619D01*
X203819047Y-65877619D02*
X203819047Y-64877619D01*
X203819047Y-64877619D02*
X203438095Y-64877619D01*
X203438095Y-64877619D02*
X203342857Y-64925238D01*
X203342857Y-64925238D02*
X203295238Y-64972857D01*
X203295238Y-64972857D02*
X203247619Y-65068095D01*
X203247619Y-65068095D02*
X203247619Y-65210952D01*
X203247619Y-65210952D02*
X203295238Y-65306190D01*
X203295238Y-65306190D02*
X203342857Y-65353809D01*
X203342857Y-65353809D02*
X203438095Y-65401428D01*
X203438095Y-65401428D02*
X203819047Y-65401428D01*
X202104761Y-65591904D02*
X201628571Y-65591904D01*
X202199999Y-65877619D02*
X201866666Y-64877619D01*
X201866666Y-64877619D02*
X201533333Y-65877619D01*
X201199999Y-65877619D02*
X201199999Y-64877619D01*
X201199999Y-64877619D02*
X200961904Y-64877619D01*
X200961904Y-64877619D02*
X200819047Y-64925238D01*
X200819047Y-64925238D02*
X200723809Y-65020476D01*
X200723809Y-65020476D02*
X200676190Y-65115714D01*
X200676190Y-65115714D02*
X200628571Y-65306190D01*
X200628571Y-65306190D02*
X200628571Y-65449047D01*
X200628571Y-65449047D02*
X200676190Y-65639523D01*
X200676190Y-65639523D02*
X200723809Y-65734761D01*
X200723809Y-65734761D02*
X200819047Y-65830000D01*
X200819047Y-65830000D02*
X200961904Y-65877619D01*
X200961904Y-65877619D02*
X201199999Y-65877619D01*
X200009523Y-64877619D02*
X199914285Y-64877619D01*
X199914285Y-64877619D02*
X199819047Y-64925238D01*
X199819047Y-64925238D02*
X199771428Y-64972857D01*
X199771428Y-64972857D02*
X199723809Y-65068095D01*
X199723809Y-65068095D02*
X199676190Y-65258571D01*
X199676190Y-65258571D02*
X199676190Y-65496666D01*
X199676190Y-65496666D02*
X199723809Y-65687142D01*
X199723809Y-65687142D02*
X199771428Y-65782380D01*
X199771428Y-65782380D02*
X199819047Y-65830000D01*
X199819047Y-65830000D02*
X199914285Y-65877619D01*
X199914285Y-65877619D02*
X200009523Y-65877619D01*
X200009523Y-65877619D02*
X200104761Y-65830000D01*
X200104761Y-65830000D02*
X200152380Y-65782380D01*
X200152380Y-65782380D02*
X200199999Y-65687142D01*
X200199999Y-65687142D02*
X200247618Y-65496666D01*
X200247618Y-65496666D02*
X200247618Y-65258571D01*
X200247618Y-65258571D02*
X200199999Y-65068095D01*
X200199999Y-65068095D02*
X200152380Y-64972857D01*
X200152380Y-64972857D02*
X200104761Y-64925238D01*
X200104761Y-64925238D02*
X200009523Y-64877619D01*
X206461904Y-85027619D02*
X206461904Y-84027619D01*
X206461904Y-84027619D02*
X206080952Y-84027619D01*
X206080952Y-84027619D02*
X205985714Y-84075238D01*
X205985714Y-84075238D02*
X205938095Y-84122857D01*
X205938095Y-84122857D02*
X205890476Y-84218095D01*
X205890476Y-84218095D02*
X205890476Y-84360952D01*
X205890476Y-84360952D02*
X205938095Y-84456190D01*
X205938095Y-84456190D02*
X205985714Y-84503809D01*
X205985714Y-84503809D02*
X206080952Y-84551428D01*
X206080952Y-84551428D02*
X206461904Y-84551428D01*
X204890476Y-85027619D02*
X205223809Y-84551428D01*
X205461904Y-85027619D02*
X205461904Y-84027619D01*
X205461904Y-84027619D02*
X205080952Y-84027619D01*
X205080952Y-84027619D02*
X204985714Y-84075238D01*
X204985714Y-84075238D02*
X204938095Y-84122857D01*
X204938095Y-84122857D02*
X204890476Y-84218095D01*
X204890476Y-84218095D02*
X204890476Y-84360952D01*
X204890476Y-84360952D02*
X204938095Y-84456190D01*
X204938095Y-84456190D02*
X204985714Y-84503809D01*
X204985714Y-84503809D02*
X205080952Y-84551428D01*
X205080952Y-84551428D02*
X205461904Y-84551428D01*
X204271428Y-84027619D02*
X204080952Y-84027619D01*
X204080952Y-84027619D02*
X203985714Y-84075238D01*
X203985714Y-84075238D02*
X203890476Y-84170476D01*
X203890476Y-84170476D02*
X203842857Y-84360952D01*
X203842857Y-84360952D02*
X203842857Y-84694285D01*
X203842857Y-84694285D02*
X203890476Y-84884761D01*
X203890476Y-84884761D02*
X203985714Y-84980000D01*
X203985714Y-84980000D02*
X204080952Y-85027619D01*
X204080952Y-85027619D02*
X204271428Y-85027619D01*
X204271428Y-85027619D02*
X204366666Y-84980000D01*
X204366666Y-84980000D02*
X204461904Y-84884761D01*
X204461904Y-84884761D02*
X204509523Y-84694285D01*
X204509523Y-84694285D02*
X204509523Y-84360952D01*
X204509523Y-84360952D02*
X204461904Y-84170476D01*
X204461904Y-84170476D02*
X204366666Y-84075238D01*
X204366666Y-84075238D02*
X204271428Y-84027619D01*
X202890476Y-84075238D02*
X202985714Y-84027619D01*
X202985714Y-84027619D02*
X203128571Y-84027619D01*
X203128571Y-84027619D02*
X203271428Y-84075238D01*
X203271428Y-84075238D02*
X203366666Y-84170476D01*
X203366666Y-84170476D02*
X203414285Y-84265714D01*
X203414285Y-84265714D02*
X203461904Y-84456190D01*
X203461904Y-84456190D02*
X203461904Y-84599047D01*
X203461904Y-84599047D02*
X203414285Y-84789523D01*
X203414285Y-84789523D02*
X203366666Y-84884761D01*
X203366666Y-84884761D02*
X203271428Y-84980000D01*
X203271428Y-84980000D02*
X203128571Y-85027619D01*
X203128571Y-85027619D02*
X203033333Y-85027619D01*
X203033333Y-85027619D02*
X202890476Y-84980000D01*
X202890476Y-84980000D02*
X202842857Y-84932380D01*
X202842857Y-84932380D02*
X202842857Y-84599047D01*
X202842857Y-84599047D02*
X203033333Y-84599047D01*
X201652380Y-85027619D02*
X201652380Y-84027619D01*
X201652380Y-84027619D02*
X201414285Y-84027619D01*
X201414285Y-84027619D02*
X201271428Y-84075238D01*
X201271428Y-84075238D02*
X201176190Y-84170476D01*
X201176190Y-84170476D02*
X201128571Y-84265714D01*
X201128571Y-84265714D02*
X201080952Y-84456190D01*
X201080952Y-84456190D02*
X201080952Y-84599047D01*
X201080952Y-84599047D02*
X201128571Y-84789523D01*
X201128571Y-84789523D02*
X201176190Y-84884761D01*
X201176190Y-84884761D02*
X201271428Y-84980000D01*
X201271428Y-84980000D02*
X201414285Y-85027619D01*
X201414285Y-85027619D02*
X201652380Y-85027619D01*
X206411904Y-128527619D02*
X206411904Y-127527619D01*
X206411904Y-127527619D02*
X206030952Y-127527619D01*
X206030952Y-127527619D02*
X205935714Y-127575238D01*
X205935714Y-127575238D02*
X205888095Y-127622857D01*
X205888095Y-127622857D02*
X205840476Y-127718095D01*
X205840476Y-127718095D02*
X205840476Y-127860952D01*
X205840476Y-127860952D02*
X205888095Y-127956190D01*
X205888095Y-127956190D02*
X205935714Y-128003809D01*
X205935714Y-128003809D02*
X206030952Y-128051428D01*
X206030952Y-128051428D02*
X206411904Y-128051428D01*
X204840476Y-128527619D02*
X205173809Y-128051428D01*
X205411904Y-128527619D02*
X205411904Y-127527619D01*
X205411904Y-127527619D02*
X205030952Y-127527619D01*
X205030952Y-127527619D02*
X204935714Y-127575238D01*
X204935714Y-127575238D02*
X204888095Y-127622857D01*
X204888095Y-127622857D02*
X204840476Y-127718095D01*
X204840476Y-127718095D02*
X204840476Y-127860952D01*
X204840476Y-127860952D02*
X204888095Y-127956190D01*
X204888095Y-127956190D02*
X204935714Y-128003809D01*
X204935714Y-128003809D02*
X205030952Y-128051428D01*
X205030952Y-128051428D02*
X205411904Y-128051428D01*
X204221428Y-127527619D02*
X204030952Y-127527619D01*
X204030952Y-127527619D02*
X203935714Y-127575238D01*
X203935714Y-127575238D02*
X203840476Y-127670476D01*
X203840476Y-127670476D02*
X203792857Y-127860952D01*
X203792857Y-127860952D02*
X203792857Y-128194285D01*
X203792857Y-128194285D02*
X203840476Y-128384761D01*
X203840476Y-128384761D02*
X203935714Y-128480000D01*
X203935714Y-128480000D02*
X204030952Y-128527619D01*
X204030952Y-128527619D02*
X204221428Y-128527619D01*
X204221428Y-128527619D02*
X204316666Y-128480000D01*
X204316666Y-128480000D02*
X204411904Y-128384761D01*
X204411904Y-128384761D02*
X204459523Y-128194285D01*
X204459523Y-128194285D02*
X204459523Y-127860952D01*
X204459523Y-127860952D02*
X204411904Y-127670476D01*
X204411904Y-127670476D02*
X204316666Y-127575238D01*
X204316666Y-127575238D02*
X204221428Y-127527619D01*
X202840476Y-127575238D02*
X202935714Y-127527619D01*
X202935714Y-127527619D02*
X203078571Y-127527619D01*
X203078571Y-127527619D02*
X203221428Y-127575238D01*
X203221428Y-127575238D02*
X203316666Y-127670476D01*
X203316666Y-127670476D02*
X203364285Y-127765714D01*
X203364285Y-127765714D02*
X203411904Y-127956190D01*
X203411904Y-127956190D02*
X203411904Y-128099047D01*
X203411904Y-128099047D02*
X203364285Y-128289523D01*
X203364285Y-128289523D02*
X203316666Y-128384761D01*
X203316666Y-128384761D02*
X203221428Y-128480000D01*
X203221428Y-128480000D02*
X203078571Y-128527619D01*
X203078571Y-128527619D02*
X202983333Y-128527619D01*
X202983333Y-128527619D02*
X202840476Y-128480000D01*
X202840476Y-128480000D02*
X202792857Y-128432380D01*
X202792857Y-128432380D02*
X202792857Y-128099047D01*
X202792857Y-128099047D02*
X202983333Y-128099047D01*
X201649999Y-128241904D02*
X201173809Y-128241904D01*
X201745237Y-128527619D02*
X201411904Y-127527619D01*
X201411904Y-127527619D02*
X201078571Y-128527619D01*
X197861904Y-128027619D02*
X197861904Y-127027619D01*
X197861904Y-127027619D02*
X197623809Y-127027619D01*
X197623809Y-127027619D02*
X197480952Y-127075238D01*
X197480952Y-127075238D02*
X197385714Y-127170476D01*
X197385714Y-127170476D02*
X197338095Y-127265714D01*
X197338095Y-127265714D02*
X197290476Y-127456190D01*
X197290476Y-127456190D02*
X197290476Y-127599047D01*
X197290476Y-127599047D02*
X197338095Y-127789523D01*
X197338095Y-127789523D02*
X197385714Y-127884761D01*
X197385714Y-127884761D02*
X197480952Y-127980000D01*
X197480952Y-127980000D02*
X197623809Y-128027619D01*
X197623809Y-128027619D02*
X197861904Y-128027619D01*
X196861904Y-128027619D02*
X196861904Y-127027619D01*
X195814286Y-128027619D02*
X196147619Y-127551428D01*
X196385714Y-128027619D02*
X196385714Y-127027619D01*
X196385714Y-127027619D02*
X196004762Y-127027619D01*
X196004762Y-127027619D02*
X195909524Y-127075238D01*
X195909524Y-127075238D02*
X195861905Y-127122857D01*
X195861905Y-127122857D02*
X195814286Y-127218095D01*
X195814286Y-127218095D02*
X195814286Y-127360952D01*
X195814286Y-127360952D02*
X195861905Y-127456190D01*
X195861905Y-127456190D02*
X195909524Y-127503809D01*
X195909524Y-127503809D02*
X196004762Y-127551428D01*
X196004762Y-127551428D02*
X196385714Y-127551428D01*
X194671428Y-127980000D02*
X194528571Y-128027619D01*
X194528571Y-128027619D02*
X194290476Y-128027619D01*
X194290476Y-128027619D02*
X194195238Y-127980000D01*
X194195238Y-127980000D02*
X194147619Y-127932380D01*
X194147619Y-127932380D02*
X194100000Y-127837142D01*
X194100000Y-127837142D02*
X194100000Y-127741904D01*
X194100000Y-127741904D02*
X194147619Y-127646666D01*
X194147619Y-127646666D02*
X194195238Y-127599047D01*
X194195238Y-127599047D02*
X194290476Y-127551428D01*
X194290476Y-127551428D02*
X194480952Y-127503809D01*
X194480952Y-127503809D02*
X194576190Y-127456190D01*
X194576190Y-127456190D02*
X194623809Y-127408571D01*
X194623809Y-127408571D02*
X194671428Y-127313333D01*
X194671428Y-127313333D02*
X194671428Y-127218095D01*
X194671428Y-127218095D02*
X194623809Y-127122857D01*
X194623809Y-127122857D02*
X194576190Y-127075238D01*
X194576190Y-127075238D02*
X194480952Y-127027619D01*
X194480952Y-127027619D02*
X194242857Y-127027619D01*
X194242857Y-127027619D02*
X194100000Y-127075238D01*
X193671428Y-127503809D02*
X193338095Y-127503809D01*
X193195238Y-128027619D02*
X193671428Y-128027619D01*
X193671428Y-128027619D02*
X193671428Y-127027619D01*
X193671428Y-127027619D02*
X193195238Y-127027619D01*
X192290476Y-128027619D02*
X192766666Y-128027619D01*
X192766666Y-128027619D02*
X192766666Y-127027619D01*
X190861904Y-127503809D02*
X190719047Y-127551428D01*
X190719047Y-127551428D02*
X190671428Y-127599047D01*
X190671428Y-127599047D02*
X190623809Y-127694285D01*
X190623809Y-127694285D02*
X190623809Y-127837142D01*
X190623809Y-127837142D02*
X190671428Y-127932380D01*
X190671428Y-127932380D02*
X190719047Y-127980000D01*
X190719047Y-127980000D02*
X190814285Y-128027619D01*
X190814285Y-128027619D02*
X191195237Y-128027619D01*
X191195237Y-128027619D02*
X191195237Y-127027619D01*
X191195237Y-127027619D02*
X190861904Y-127027619D01*
X190861904Y-127027619D02*
X190766666Y-127075238D01*
X190766666Y-127075238D02*
X190719047Y-127122857D01*
X190719047Y-127122857D02*
X190671428Y-127218095D01*
X190671428Y-127218095D02*
X190671428Y-127313333D01*
X190671428Y-127313333D02*
X190719047Y-127408571D01*
X190719047Y-127408571D02*
X190766666Y-127456190D01*
X190766666Y-127456190D02*
X190861904Y-127503809D01*
X190861904Y-127503809D02*
X191195237Y-127503809D01*
X183040476Y-125582380D02*
X183088095Y-125630000D01*
X183088095Y-125630000D02*
X183230952Y-125677619D01*
X183230952Y-125677619D02*
X183326190Y-125677619D01*
X183326190Y-125677619D02*
X183469047Y-125630000D01*
X183469047Y-125630000D02*
X183564285Y-125534761D01*
X183564285Y-125534761D02*
X183611904Y-125439523D01*
X183611904Y-125439523D02*
X183659523Y-125249047D01*
X183659523Y-125249047D02*
X183659523Y-125106190D01*
X183659523Y-125106190D02*
X183611904Y-124915714D01*
X183611904Y-124915714D02*
X183564285Y-124820476D01*
X183564285Y-124820476D02*
X183469047Y-124725238D01*
X183469047Y-124725238D02*
X183326190Y-124677619D01*
X183326190Y-124677619D02*
X183230952Y-124677619D01*
X183230952Y-124677619D02*
X183088095Y-124725238D01*
X183088095Y-124725238D02*
X183040476Y-124772857D01*
X182040476Y-125677619D02*
X182373809Y-125201428D01*
X182611904Y-125677619D02*
X182611904Y-124677619D01*
X182611904Y-124677619D02*
X182230952Y-124677619D01*
X182230952Y-124677619D02*
X182135714Y-124725238D01*
X182135714Y-124725238D02*
X182088095Y-124772857D01*
X182088095Y-124772857D02*
X182040476Y-124868095D01*
X182040476Y-124868095D02*
X182040476Y-125010952D01*
X182040476Y-125010952D02*
X182088095Y-125106190D01*
X182088095Y-125106190D02*
X182135714Y-125153809D01*
X182135714Y-125153809D02*
X182230952Y-125201428D01*
X182230952Y-125201428D02*
X182611904Y-125201428D01*
X181088095Y-124725238D02*
X181183333Y-124677619D01*
X181183333Y-124677619D02*
X181326190Y-124677619D01*
X181326190Y-124677619D02*
X181469047Y-124725238D01*
X181469047Y-124725238D02*
X181564285Y-124820476D01*
X181564285Y-124820476D02*
X181611904Y-124915714D01*
X181611904Y-124915714D02*
X181659523Y-125106190D01*
X181659523Y-125106190D02*
X181659523Y-125249047D01*
X181659523Y-125249047D02*
X181611904Y-125439523D01*
X181611904Y-125439523D02*
X181564285Y-125534761D01*
X181564285Y-125534761D02*
X181469047Y-125630000D01*
X181469047Y-125630000D02*
X181326190Y-125677619D01*
X181326190Y-125677619D02*
X181230952Y-125677619D01*
X181230952Y-125677619D02*
X181088095Y-125630000D01*
X181088095Y-125630000D02*
X181040476Y-125582380D01*
X181040476Y-125582380D02*
X181040476Y-125249047D01*
X181040476Y-125249047D02*
X181230952Y-125249047D01*
X179849999Y-125153809D02*
X179516666Y-125153809D01*
X179373809Y-125677619D02*
X179849999Y-125677619D01*
X179849999Y-125677619D02*
X179849999Y-124677619D01*
X179849999Y-124677619D02*
X179373809Y-124677619D01*
X178945237Y-125677619D02*
X178945237Y-124677619D01*
X178945237Y-124677619D02*
X178373809Y-125677619D01*
X178373809Y-125677619D02*
X178373809Y-124677619D01*
X175161904Y-73027619D02*
X175161904Y-72027619D01*
X175161904Y-72027619D02*
X174828571Y-72741904D01*
X174828571Y-72741904D02*
X174495238Y-72027619D01*
X174495238Y-72027619D02*
X174495238Y-73027619D01*
X174019047Y-72027619D02*
X174019047Y-72837142D01*
X174019047Y-72837142D02*
X173971428Y-72932380D01*
X173971428Y-72932380D02*
X173923809Y-72980000D01*
X173923809Y-72980000D02*
X173828571Y-73027619D01*
X173828571Y-73027619D02*
X173638095Y-73027619D01*
X173638095Y-73027619D02*
X173542857Y-72980000D01*
X173542857Y-72980000D02*
X173495238Y-72932380D01*
X173495238Y-72932380D02*
X173447619Y-72837142D01*
X173447619Y-72837142D02*
X173447619Y-72027619D01*
X173066666Y-72027619D02*
X172400000Y-73027619D01*
X172400000Y-72027619D02*
X173066666Y-73027619D01*
X171304761Y-72741904D02*
X170828571Y-72741904D01*
X171399999Y-73027619D02*
X171066666Y-72027619D01*
X171066666Y-72027619D02*
X170733333Y-73027619D01*
X170399999Y-73027619D02*
X170399999Y-72027619D01*
X170399999Y-72027619D02*
X170161904Y-72027619D01*
X170161904Y-72027619D02*
X170019047Y-72075238D01*
X170019047Y-72075238D02*
X169923809Y-72170476D01*
X169923809Y-72170476D02*
X169876190Y-72265714D01*
X169876190Y-72265714D02*
X169828571Y-72456190D01*
X169828571Y-72456190D02*
X169828571Y-72599047D01*
X169828571Y-72599047D02*
X169876190Y-72789523D01*
X169876190Y-72789523D02*
X169923809Y-72884761D01*
X169923809Y-72884761D02*
X170019047Y-72980000D01*
X170019047Y-72980000D02*
X170161904Y-73027619D01*
X170161904Y-73027619D02*
X170399999Y-73027619D01*
X169447618Y-72122857D02*
X169399999Y-72075238D01*
X169399999Y-72075238D02*
X169304761Y-72027619D01*
X169304761Y-72027619D02*
X169066666Y-72027619D01*
X169066666Y-72027619D02*
X168971428Y-72075238D01*
X168971428Y-72075238D02*
X168923809Y-72122857D01*
X168923809Y-72122857D02*
X168876190Y-72218095D01*
X168876190Y-72218095D02*
X168876190Y-72313333D01*
X168876190Y-72313333D02*
X168923809Y-72456190D01*
X168923809Y-72456190D02*
X169495237Y-73027619D01*
X169495237Y-73027619D02*
X168876190Y-73027619D01*
X206461904Y-114177619D02*
X206461904Y-113177619D01*
X206461904Y-113177619D02*
X206080952Y-113177619D01*
X206080952Y-113177619D02*
X205985714Y-113225238D01*
X205985714Y-113225238D02*
X205938095Y-113272857D01*
X205938095Y-113272857D02*
X205890476Y-113368095D01*
X205890476Y-113368095D02*
X205890476Y-113510952D01*
X205890476Y-113510952D02*
X205938095Y-113606190D01*
X205938095Y-113606190D02*
X205985714Y-113653809D01*
X205985714Y-113653809D02*
X206080952Y-113701428D01*
X206080952Y-113701428D02*
X206461904Y-113701428D01*
X204890476Y-114177619D02*
X205223809Y-113701428D01*
X205461904Y-114177619D02*
X205461904Y-113177619D01*
X205461904Y-113177619D02*
X205080952Y-113177619D01*
X205080952Y-113177619D02*
X204985714Y-113225238D01*
X204985714Y-113225238D02*
X204938095Y-113272857D01*
X204938095Y-113272857D02*
X204890476Y-113368095D01*
X204890476Y-113368095D02*
X204890476Y-113510952D01*
X204890476Y-113510952D02*
X204938095Y-113606190D01*
X204938095Y-113606190D02*
X204985714Y-113653809D01*
X204985714Y-113653809D02*
X205080952Y-113701428D01*
X205080952Y-113701428D02*
X205461904Y-113701428D01*
X204271428Y-113177619D02*
X204080952Y-113177619D01*
X204080952Y-113177619D02*
X203985714Y-113225238D01*
X203985714Y-113225238D02*
X203890476Y-113320476D01*
X203890476Y-113320476D02*
X203842857Y-113510952D01*
X203842857Y-113510952D02*
X203842857Y-113844285D01*
X203842857Y-113844285D02*
X203890476Y-114034761D01*
X203890476Y-114034761D02*
X203985714Y-114130000D01*
X203985714Y-114130000D02*
X204080952Y-114177619D01*
X204080952Y-114177619D02*
X204271428Y-114177619D01*
X204271428Y-114177619D02*
X204366666Y-114130000D01*
X204366666Y-114130000D02*
X204461904Y-114034761D01*
X204461904Y-114034761D02*
X204509523Y-113844285D01*
X204509523Y-113844285D02*
X204509523Y-113510952D01*
X204509523Y-113510952D02*
X204461904Y-113320476D01*
X204461904Y-113320476D02*
X204366666Y-113225238D01*
X204366666Y-113225238D02*
X204271428Y-113177619D01*
X202890476Y-113225238D02*
X202985714Y-113177619D01*
X202985714Y-113177619D02*
X203128571Y-113177619D01*
X203128571Y-113177619D02*
X203271428Y-113225238D01*
X203271428Y-113225238D02*
X203366666Y-113320476D01*
X203366666Y-113320476D02*
X203414285Y-113415714D01*
X203414285Y-113415714D02*
X203461904Y-113606190D01*
X203461904Y-113606190D02*
X203461904Y-113749047D01*
X203461904Y-113749047D02*
X203414285Y-113939523D01*
X203414285Y-113939523D02*
X203366666Y-114034761D01*
X203366666Y-114034761D02*
X203271428Y-114130000D01*
X203271428Y-114130000D02*
X203128571Y-114177619D01*
X203128571Y-114177619D02*
X203033333Y-114177619D01*
X203033333Y-114177619D02*
X202890476Y-114130000D01*
X202890476Y-114130000D02*
X202842857Y-114082380D01*
X202842857Y-114082380D02*
X202842857Y-113749047D01*
X202842857Y-113749047D02*
X203033333Y-113749047D01*
X201319047Y-113653809D02*
X201176190Y-113701428D01*
X201176190Y-113701428D02*
X201128571Y-113749047D01*
X201128571Y-113749047D02*
X201080952Y-113844285D01*
X201080952Y-113844285D02*
X201080952Y-113987142D01*
X201080952Y-113987142D02*
X201128571Y-114082380D01*
X201128571Y-114082380D02*
X201176190Y-114130000D01*
X201176190Y-114130000D02*
X201271428Y-114177619D01*
X201271428Y-114177619D02*
X201652380Y-114177619D01*
X201652380Y-114177619D02*
X201652380Y-113177619D01*
X201652380Y-113177619D02*
X201319047Y-113177619D01*
X201319047Y-113177619D02*
X201223809Y-113225238D01*
X201223809Y-113225238D02*
X201176190Y-113272857D01*
X201176190Y-113272857D02*
X201128571Y-113368095D01*
X201128571Y-113368095D02*
X201128571Y-113463333D01*
X201128571Y-113463333D02*
X201176190Y-113558571D01*
X201176190Y-113558571D02*
X201223809Y-113606190D01*
X201223809Y-113606190D02*
X201319047Y-113653809D01*
X201319047Y-113653809D02*
X201652380Y-113653809D01*
D10*
X179764285Y-58803142D02*
X179764285Y-57603142D01*
X179764285Y-57603142D02*
X179364285Y-58460285D01*
X179364285Y-58460285D02*
X178964285Y-57603142D01*
X178964285Y-57603142D02*
X178964285Y-58803142D01*
X178164285Y-57603142D02*
X177935713Y-57603142D01*
X177935713Y-57603142D02*
X177821428Y-57660285D01*
X177821428Y-57660285D02*
X177707142Y-57774571D01*
X177707142Y-57774571D02*
X177649999Y-58003142D01*
X177649999Y-58003142D02*
X177649999Y-58403142D01*
X177649999Y-58403142D02*
X177707142Y-58631714D01*
X177707142Y-58631714D02*
X177821428Y-58746000D01*
X177821428Y-58746000D02*
X177935713Y-58803142D01*
X177935713Y-58803142D02*
X178164285Y-58803142D01*
X178164285Y-58803142D02*
X178278571Y-58746000D01*
X178278571Y-58746000D02*
X178392856Y-58631714D01*
X178392856Y-58631714D02*
X178449999Y-58403142D01*
X178449999Y-58403142D02*
X178449999Y-58003142D01*
X178449999Y-58003142D02*
X178392856Y-57774571D01*
X178392856Y-57774571D02*
X178278571Y-57660285D01*
X178278571Y-57660285D02*
X178164285Y-57603142D01*
X177307142Y-57603142D02*
X176621428Y-57603142D01*
X176964285Y-58803142D02*
X176964285Y-57603142D01*
X176507142Y-58917428D02*
X175592856Y-58917428D01*
X175364284Y-58460285D02*
X174792856Y-58460285D01*
X175478570Y-58803142D02*
X175078570Y-57603142D01*
X175078570Y-57603142D02*
X174678570Y-58803142D01*
X174278570Y-58803142D02*
X174278570Y-57603142D01*
X174278570Y-57603142D02*
X173992856Y-57603142D01*
X173992856Y-57603142D02*
X173821427Y-57660285D01*
X173821427Y-57660285D02*
X173707142Y-57774571D01*
X173707142Y-57774571D02*
X173649999Y-57888857D01*
X173649999Y-57888857D02*
X173592856Y-58117428D01*
X173592856Y-58117428D02*
X173592856Y-58288857D01*
X173592856Y-58288857D02*
X173649999Y-58517428D01*
X173649999Y-58517428D02*
X173707142Y-58631714D01*
X173707142Y-58631714D02*
X173821427Y-58746000D01*
X173821427Y-58746000D02*
X173992856Y-58803142D01*
X173992856Y-58803142D02*
X174278570Y-58803142D01*
X172392856Y-58688857D02*
X172449999Y-58746000D01*
X172449999Y-58746000D02*
X172621427Y-58803142D01*
X172621427Y-58803142D02*
X172735713Y-58803142D01*
X172735713Y-58803142D02*
X172907142Y-58746000D01*
X172907142Y-58746000D02*
X173021427Y-58631714D01*
X173021427Y-58631714D02*
X173078570Y-58517428D01*
X173078570Y-58517428D02*
X173135713Y-58288857D01*
X173135713Y-58288857D02*
X173135713Y-58117428D01*
X173135713Y-58117428D02*
X173078570Y-57888857D01*
X173078570Y-57888857D02*
X173021427Y-57774571D01*
X173021427Y-57774571D02*
X172907142Y-57660285D01*
X172907142Y-57660285D02*
X172735713Y-57603142D01*
X172735713Y-57603142D02*
X172621427Y-57603142D01*
X172621427Y-57603142D02*
X172449999Y-57660285D01*
X172449999Y-57660285D02*
X172392856Y-57717428D01*
D11*
X206461904Y-99527619D02*
X206461904Y-98527619D01*
X206461904Y-98527619D02*
X206080952Y-98527619D01*
X206080952Y-98527619D02*
X205985714Y-98575238D01*
X205985714Y-98575238D02*
X205938095Y-98622857D01*
X205938095Y-98622857D02*
X205890476Y-98718095D01*
X205890476Y-98718095D02*
X205890476Y-98860952D01*
X205890476Y-98860952D02*
X205938095Y-98956190D01*
X205938095Y-98956190D02*
X205985714Y-99003809D01*
X205985714Y-99003809D02*
X206080952Y-99051428D01*
X206080952Y-99051428D02*
X206461904Y-99051428D01*
X204890476Y-99527619D02*
X205223809Y-99051428D01*
X205461904Y-99527619D02*
X205461904Y-98527619D01*
X205461904Y-98527619D02*
X205080952Y-98527619D01*
X205080952Y-98527619D02*
X204985714Y-98575238D01*
X204985714Y-98575238D02*
X204938095Y-98622857D01*
X204938095Y-98622857D02*
X204890476Y-98718095D01*
X204890476Y-98718095D02*
X204890476Y-98860952D01*
X204890476Y-98860952D02*
X204938095Y-98956190D01*
X204938095Y-98956190D02*
X204985714Y-99003809D01*
X204985714Y-99003809D02*
X205080952Y-99051428D01*
X205080952Y-99051428D02*
X205461904Y-99051428D01*
X204271428Y-98527619D02*
X204080952Y-98527619D01*
X204080952Y-98527619D02*
X203985714Y-98575238D01*
X203985714Y-98575238D02*
X203890476Y-98670476D01*
X203890476Y-98670476D02*
X203842857Y-98860952D01*
X203842857Y-98860952D02*
X203842857Y-99194285D01*
X203842857Y-99194285D02*
X203890476Y-99384761D01*
X203890476Y-99384761D02*
X203985714Y-99480000D01*
X203985714Y-99480000D02*
X204080952Y-99527619D01*
X204080952Y-99527619D02*
X204271428Y-99527619D01*
X204271428Y-99527619D02*
X204366666Y-99480000D01*
X204366666Y-99480000D02*
X204461904Y-99384761D01*
X204461904Y-99384761D02*
X204509523Y-99194285D01*
X204509523Y-99194285D02*
X204509523Y-98860952D01*
X204509523Y-98860952D02*
X204461904Y-98670476D01*
X204461904Y-98670476D02*
X204366666Y-98575238D01*
X204366666Y-98575238D02*
X204271428Y-98527619D01*
X202890476Y-98575238D02*
X202985714Y-98527619D01*
X202985714Y-98527619D02*
X203128571Y-98527619D01*
X203128571Y-98527619D02*
X203271428Y-98575238D01*
X203271428Y-98575238D02*
X203366666Y-98670476D01*
X203366666Y-98670476D02*
X203414285Y-98765714D01*
X203414285Y-98765714D02*
X203461904Y-98956190D01*
X203461904Y-98956190D02*
X203461904Y-99099047D01*
X203461904Y-99099047D02*
X203414285Y-99289523D01*
X203414285Y-99289523D02*
X203366666Y-99384761D01*
X203366666Y-99384761D02*
X203271428Y-99480000D01*
X203271428Y-99480000D02*
X203128571Y-99527619D01*
X203128571Y-99527619D02*
X203033333Y-99527619D01*
X203033333Y-99527619D02*
X202890476Y-99480000D01*
X202890476Y-99480000D02*
X202842857Y-99432380D01*
X202842857Y-99432380D02*
X202842857Y-99099047D01*
X202842857Y-99099047D02*
X203033333Y-99099047D01*
X201080952Y-99432380D02*
X201128571Y-99480000D01*
X201128571Y-99480000D02*
X201271428Y-99527619D01*
X201271428Y-99527619D02*
X201366666Y-99527619D01*
X201366666Y-99527619D02*
X201509523Y-99480000D01*
X201509523Y-99480000D02*
X201604761Y-99384761D01*
X201604761Y-99384761D02*
X201652380Y-99289523D01*
X201652380Y-99289523D02*
X201699999Y-99099047D01*
X201699999Y-99099047D02*
X201699999Y-98956190D01*
X201699999Y-98956190D02*
X201652380Y-98765714D01*
X201652380Y-98765714D02*
X201604761Y-98670476D01*
X201604761Y-98670476D02*
X201509523Y-98575238D01*
X201509523Y-98575238D02*
X201366666Y-98527619D01*
X201366666Y-98527619D02*
X201271428Y-98527619D01*
X201271428Y-98527619D02*
X201128571Y-98575238D01*
X201128571Y-98575238D02*
X201080952Y-98622857D01*
X175161904Y-69177619D02*
X175161904Y-68177619D01*
X175161904Y-68177619D02*
X174828571Y-68891904D01*
X174828571Y-68891904D02*
X174495238Y-68177619D01*
X174495238Y-68177619D02*
X174495238Y-69177619D01*
X174019047Y-68177619D02*
X174019047Y-68987142D01*
X174019047Y-68987142D02*
X173971428Y-69082380D01*
X173971428Y-69082380D02*
X173923809Y-69130000D01*
X173923809Y-69130000D02*
X173828571Y-69177619D01*
X173828571Y-69177619D02*
X173638095Y-69177619D01*
X173638095Y-69177619D02*
X173542857Y-69130000D01*
X173542857Y-69130000D02*
X173495238Y-69082380D01*
X173495238Y-69082380D02*
X173447619Y-68987142D01*
X173447619Y-68987142D02*
X173447619Y-68177619D01*
X173066666Y-68177619D02*
X172400000Y-69177619D01*
X172400000Y-68177619D02*
X173066666Y-69177619D01*
X171304761Y-68891904D02*
X170828571Y-68891904D01*
X171399999Y-69177619D02*
X171066666Y-68177619D01*
X171066666Y-68177619D02*
X170733333Y-69177619D01*
X170399999Y-69177619D02*
X170399999Y-68177619D01*
X170399999Y-68177619D02*
X170161904Y-68177619D01*
X170161904Y-68177619D02*
X170019047Y-68225238D01*
X170019047Y-68225238D02*
X169923809Y-68320476D01*
X169923809Y-68320476D02*
X169876190Y-68415714D01*
X169876190Y-68415714D02*
X169828571Y-68606190D01*
X169828571Y-68606190D02*
X169828571Y-68749047D01*
X169828571Y-68749047D02*
X169876190Y-68939523D01*
X169876190Y-68939523D02*
X169923809Y-69034761D01*
X169923809Y-69034761D02*
X170019047Y-69130000D01*
X170019047Y-69130000D02*
X170161904Y-69177619D01*
X170161904Y-69177619D02*
X170399999Y-69177619D01*
X168876190Y-69177619D02*
X169447618Y-69177619D01*
X169161904Y-69177619D02*
X169161904Y-68177619D01*
X169161904Y-68177619D02*
X169257142Y-68320476D01*
X169257142Y-68320476D02*
X169352380Y-68415714D01*
X169352380Y-68415714D02*
X169447618Y-68463333D01*
X198111904Y-65977619D02*
X198111904Y-64977619D01*
X197635714Y-65977619D02*
X197635714Y-64977619D01*
X197635714Y-64977619D02*
X197302381Y-65691904D01*
X197302381Y-65691904D02*
X196969048Y-64977619D01*
X196969048Y-64977619D02*
X196969048Y-65977619D01*
X196492857Y-64977619D02*
X196492857Y-65787142D01*
X196492857Y-65787142D02*
X196445238Y-65882380D01*
X196445238Y-65882380D02*
X196397619Y-65930000D01*
X196397619Y-65930000D02*
X196302381Y-65977619D01*
X196302381Y-65977619D02*
X196111905Y-65977619D01*
X196111905Y-65977619D02*
X196016667Y-65930000D01*
X196016667Y-65930000D02*
X195969048Y-65882380D01*
X195969048Y-65882380D02*
X195921429Y-65787142D01*
X195921429Y-65787142D02*
X195921429Y-64977619D01*
X194730952Y-65691904D02*
X194254762Y-65691904D01*
X194826190Y-65977619D02*
X194492857Y-64977619D01*
X194492857Y-64977619D02*
X194159524Y-65977619D01*
X193826190Y-65977619D02*
X193826190Y-64977619D01*
X193826190Y-64977619D02*
X193588095Y-64977619D01*
X193588095Y-64977619D02*
X193445238Y-65025238D01*
X193445238Y-65025238D02*
X193350000Y-65120476D01*
X193350000Y-65120476D02*
X193302381Y-65215714D01*
X193302381Y-65215714D02*
X193254762Y-65406190D01*
X193254762Y-65406190D02*
X193254762Y-65549047D01*
X193254762Y-65549047D02*
X193302381Y-65739523D01*
X193302381Y-65739523D02*
X193350000Y-65834761D01*
X193350000Y-65834761D02*
X193445238Y-65930000D01*
X193445238Y-65930000D02*
X193588095Y-65977619D01*
X193588095Y-65977619D02*
X193826190Y-65977619D01*
X192635714Y-64977619D02*
X192540476Y-64977619D01*
X192540476Y-64977619D02*
X192445238Y-65025238D01*
X192445238Y-65025238D02*
X192397619Y-65072857D01*
X192397619Y-65072857D02*
X192350000Y-65168095D01*
X192350000Y-65168095D02*
X192302381Y-65358571D01*
X192302381Y-65358571D02*
X192302381Y-65596666D01*
X192302381Y-65596666D02*
X192350000Y-65787142D01*
X192350000Y-65787142D02*
X192397619Y-65882380D01*
X192397619Y-65882380D02*
X192445238Y-65930000D01*
X192445238Y-65930000D02*
X192540476Y-65977619D01*
X192540476Y-65977619D02*
X192635714Y-65977619D01*
X192635714Y-65977619D02*
X192730952Y-65930000D01*
X192730952Y-65930000D02*
X192778571Y-65882380D01*
X192778571Y-65882380D02*
X192826190Y-65787142D01*
X192826190Y-65787142D02*
X192873809Y-65596666D01*
X192873809Y-65596666D02*
X192873809Y-65358571D01*
X192873809Y-65358571D02*
X192826190Y-65168095D01*
X192826190Y-65168095D02*
X192778571Y-65072857D01*
X192778571Y-65072857D02*
X192730952Y-65025238D01*
X192730952Y-65025238D02*
X192635714Y-64977619D01*
X114627619Y-127464285D02*
X114627619Y-126988095D01*
X114627619Y-126988095D02*
X113627619Y-126988095D01*
X114580000Y-127750000D02*
X114627619Y-127892857D01*
X114627619Y-127892857D02*
X114627619Y-128130952D01*
X114627619Y-128130952D02*
X114580000Y-128226190D01*
X114580000Y-128226190D02*
X114532380Y-128273809D01*
X114532380Y-128273809D02*
X114437142Y-128321428D01*
X114437142Y-128321428D02*
X114341904Y-128321428D01*
X114341904Y-128321428D02*
X114246666Y-128273809D01*
X114246666Y-128273809D02*
X114199047Y-128226190D01*
X114199047Y-128226190D02*
X114151428Y-128130952D01*
X114151428Y-128130952D02*
X114103809Y-127940476D01*
X114103809Y-127940476D02*
X114056190Y-127845238D01*
X114056190Y-127845238D02*
X114008571Y-127797619D01*
X114008571Y-127797619D02*
X113913333Y-127750000D01*
X113913333Y-127750000D02*
X113818095Y-127750000D01*
X113818095Y-127750000D02*
X113722857Y-127797619D01*
X113722857Y-127797619D02*
X113675238Y-127845238D01*
X113675238Y-127845238D02*
X113627619Y-127940476D01*
X113627619Y-127940476D02*
X113627619Y-128178571D01*
X113627619Y-128178571D02*
X113675238Y-128321428D01*
X114722857Y-128511905D02*
X114722857Y-129273809D01*
X114627619Y-129511905D02*
X113627619Y-129511905D01*
X113627619Y-129511905D02*
X113627619Y-129750000D01*
X113627619Y-129750000D02*
X113675238Y-129892857D01*
X113675238Y-129892857D02*
X113770476Y-129988095D01*
X113770476Y-129988095D02*
X113865714Y-130035714D01*
X113865714Y-130035714D02*
X114056190Y-130083333D01*
X114056190Y-130083333D02*
X114199047Y-130083333D01*
X114199047Y-130083333D02*
X114389523Y-130035714D01*
X114389523Y-130035714D02*
X114484761Y-129988095D01*
X114484761Y-129988095D02*
X114580000Y-129892857D01*
X114580000Y-129892857D02*
X114627619Y-129750000D01*
X114627619Y-129750000D02*
X114627619Y-129511905D01*
X114341904Y-131226191D02*
X114341904Y-131702381D01*
X114627619Y-131130953D02*
X113627619Y-131464286D01*
X113627619Y-131464286D02*
X114627619Y-131797619D01*
X114627619Y-132130953D02*
X113627619Y-132130953D01*
X113627619Y-132130953D02*
X113627619Y-132369048D01*
X113627619Y-132369048D02*
X113675238Y-132511905D01*
X113675238Y-132511905D02*
X113770476Y-132607143D01*
X113770476Y-132607143D02*
X113865714Y-132654762D01*
X113865714Y-132654762D02*
X114056190Y-132702381D01*
X114056190Y-132702381D02*
X114199047Y-132702381D01*
X114199047Y-132702381D02*
X114389523Y-132654762D01*
X114389523Y-132654762D02*
X114484761Y-132607143D01*
X114484761Y-132607143D02*
X114580000Y-132511905D01*
X114580000Y-132511905D02*
X114627619Y-132369048D01*
X114627619Y-132369048D02*
X114627619Y-132130953D01*
X113627619Y-133321429D02*
X113627619Y-133416667D01*
X113627619Y-133416667D02*
X113675238Y-133511905D01*
X113675238Y-133511905D02*
X113722857Y-133559524D01*
X113722857Y-133559524D02*
X113818095Y-133607143D01*
X113818095Y-133607143D02*
X114008571Y-133654762D01*
X114008571Y-133654762D02*
X114246666Y-133654762D01*
X114246666Y-133654762D02*
X114437142Y-133607143D01*
X114437142Y-133607143D02*
X114532380Y-133559524D01*
X114532380Y-133559524D02*
X114580000Y-133511905D01*
X114580000Y-133511905D02*
X114627619Y-133416667D01*
X114627619Y-133416667D02*
X114627619Y-133321429D01*
X114627619Y-133321429D02*
X114580000Y-133226191D01*
X114580000Y-133226191D02*
X114532380Y-133178572D01*
X114532380Y-133178572D02*
X114437142Y-133130953D01*
X114437142Y-133130953D02*
X114246666Y-133083334D01*
X114246666Y-133083334D02*
X114008571Y-133083334D01*
X114008571Y-133083334D02*
X113818095Y-133130953D01*
X113818095Y-133130953D02*
X113722857Y-133178572D01*
X113722857Y-133178572D02*
X113675238Y-133226191D01*
X113675238Y-133226191D02*
X113627619Y-133321429D01*
X197861904Y-113477619D02*
X197861904Y-112477619D01*
X197861904Y-112477619D02*
X197623809Y-112477619D01*
X197623809Y-112477619D02*
X197480952Y-112525238D01*
X197480952Y-112525238D02*
X197385714Y-112620476D01*
X197385714Y-112620476D02*
X197338095Y-112715714D01*
X197338095Y-112715714D02*
X197290476Y-112906190D01*
X197290476Y-112906190D02*
X197290476Y-113049047D01*
X197290476Y-113049047D02*
X197338095Y-113239523D01*
X197338095Y-113239523D02*
X197385714Y-113334761D01*
X197385714Y-113334761D02*
X197480952Y-113430000D01*
X197480952Y-113430000D02*
X197623809Y-113477619D01*
X197623809Y-113477619D02*
X197861904Y-113477619D01*
X196861904Y-113477619D02*
X196861904Y-112477619D01*
X195814286Y-113477619D02*
X196147619Y-113001428D01*
X196385714Y-113477619D02*
X196385714Y-112477619D01*
X196385714Y-112477619D02*
X196004762Y-112477619D01*
X196004762Y-112477619D02*
X195909524Y-112525238D01*
X195909524Y-112525238D02*
X195861905Y-112572857D01*
X195861905Y-112572857D02*
X195814286Y-112668095D01*
X195814286Y-112668095D02*
X195814286Y-112810952D01*
X195814286Y-112810952D02*
X195861905Y-112906190D01*
X195861905Y-112906190D02*
X195909524Y-112953809D01*
X195909524Y-112953809D02*
X196004762Y-113001428D01*
X196004762Y-113001428D02*
X196385714Y-113001428D01*
X194671428Y-113430000D02*
X194528571Y-113477619D01*
X194528571Y-113477619D02*
X194290476Y-113477619D01*
X194290476Y-113477619D02*
X194195238Y-113430000D01*
X194195238Y-113430000D02*
X194147619Y-113382380D01*
X194147619Y-113382380D02*
X194100000Y-113287142D01*
X194100000Y-113287142D02*
X194100000Y-113191904D01*
X194100000Y-113191904D02*
X194147619Y-113096666D01*
X194147619Y-113096666D02*
X194195238Y-113049047D01*
X194195238Y-113049047D02*
X194290476Y-113001428D01*
X194290476Y-113001428D02*
X194480952Y-112953809D01*
X194480952Y-112953809D02*
X194576190Y-112906190D01*
X194576190Y-112906190D02*
X194623809Y-112858571D01*
X194623809Y-112858571D02*
X194671428Y-112763333D01*
X194671428Y-112763333D02*
X194671428Y-112668095D01*
X194671428Y-112668095D02*
X194623809Y-112572857D01*
X194623809Y-112572857D02*
X194576190Y-112525238D01*
X194576190Y-112525238D02*
X194480952Y-112477619D01*
X194480952Y-112477619D02*
X194242857Y-112477619D01*
X194242857Y-112477619D02*
X194100000Y-112525238D01*
X193671428Y-112953809D02*
X193338095Y-112953809D01*
X193195238Y-113477619D02*
X193671428Y-113477619D01*
X193671428Y-113477619D02*
X193671428Y-112477619D01*
X193671428Y-112477619D02*
X193195238Y-112477619D01*
X192290476Y-113477619D02*
X192766666Y-113477619D01*
X192766666Y-113477619D02*
X192766666Y-112477619D01*
X190623809Y-113382380D02*
X190671428Y-113430000D01*
X190671428Y-113430000D02*
X190814285Y-113477619D01*
X190814285Y-113477619D02*
X190909523Y-113477619D01*
X190909523Y-113477619D02*
X191052380Y-113430000D01*
X191052380Y-113430000D02*
X191147618Y-113334761D01*
X191147618Y-113334761D02*
X191195237Y-113239523D01*
X191195237Y-113239523D02*
X191242856Y-113049047D01*
X191242856Y-113049047D02*
X191242856Y-112906190D01*
X191242856Y-112906190D02*
X191195237Y-112715714D01*
X191195237Y-112715714D02*
X191147618Y-112620476D01*
X191147618Y-112620476D02*
X191052380Y-112525238D01*
X191052380Y-112525238D02*
X190909523Y-112477619D01*
X190909523Y-112477619D02*
X190814285Y-112477619D01*
X190814285Y-112477619D02*
X190671428Y-112525238D01*
X190671428Y-112525238D02*
X190623809Y-112572857D01*
X197861904Y-99027619D02*
X197861904Y-98027619D01*
X197861904Y-98027619D02*
X197623809Y-98027619D01*
X197623809Y-98027619D02*
X197480952Y-98075238D01*
X197480952Y-98075238D02*
X197385714Y-98170476D01*
X197385714Y-98170476D02*
X197338095Y-98265714D01*
X197338095Y-98265714D02*
X197290476Y-98456190D01*
X197290476Y-98456190D02*
X197290476Y-98599047D01*
X197290476Y-98599047D02*
X197338095Y-98789523D01*
X197338095Y-98789523D02*
X197385714Y-98884761D01*
X197385714Y-98884761D02*
X197480952Y-98980000D01*
X197480952Y-98980000D02*
X197623809Y-99027619D01*
X197623809Y-99027619D02*
X197861904Y-99027619D01*
X196861904Y-99027619D02*
X196861904Y-98027619D01*
X195814286Y-99027619D02*
X196147619Y-98551428D01*
X196385714Y-99027619D02*
X196385714Y-98027619D01*
X196385714Y-98027619D02*
X196004762Y-98027619D01*
X196004762Y-98027619D02*
X195909524Y-98075238D01*
X195909524Y-98075238D02*
X195861905Y-98122857D01*
X195861905Y-98122857D02*
X195814286Y-98218095D01*
X195814286Y-98218095D02*
X195814286Y-98360952D01*
X195814286Y-98360952D02*
X195861905Y-98456190D01*
X195861905Y-98456190D02*
X195909524Y-98503809D01*
X195909524Y-98503809D02*
X196004762Y-98551428D01*
X196004762Y-98551428D02*
X196385714Y-98551428D01*
X194671428Y-98980000D02*
X194528571Y-99027619D01*
X194528571Y-99027619D02*
X194290476Y-99027619D01*
X194290476Y-99027619D02*
X194195238Y-98980000D01*
X194195238Y-98980000D02*
X194147619Y-98932380D01*
X194147619Y-98932380D02*
X194100000Y-98837142D01*
X194100000Y-98837142D02*
X194100000Y-98741904D01*
X194100000Y-98741904D02*
X194147619Y-98646666D01*
X194147619Y-98646666D02*
X194195238Y-98599047D01*
X194195238Y-98599047D02*
X194290476Y-98551428D01*
X194290476Y-98551428D02*
X194480952Y-98503809D01*
X194480952Y-98503809D02*
X194576190Y-98456190D01*
X194576190Y-98456190D02*
X194623809Y-98408571D01*
X194623809Y-98408571D02*
X194671428Y-98313333D01*
X194671428Y-98313333D02*
X194671428Y-98218095D01*
X194671428Y-98218095D02*
X194623809Y-98122857D01*
X194623809Y-98122857D02*
X194576190Y-98075238D01*
X194576190Y-98075238D02*
X194480952Y-98027619D01*
X194480952Y-98027619D02*
X194242857Y-98027619D01*
X194242857Y-98027619D02*
X194100000Y-98075238D01*
X193671428Y-98503809D02*
X193338095Y-98503809D01*
X193195238Y-99027619D02*
X193671428Y-99027619D01*
X193671428Y-99027619D02*
X193671428Y-98027619D01*
X193671428Y-98027619D02*
X193195238Y-98027619D01*
X192290476Y-99027619D02*
X192766666Y-99027619D01*
X192766666Y-99027619D02*
X192766666Y-98027619D01*
X191195237Y-99027619D02*
X191195237Y-98027619D01*
X191195237Y-98027619D02*
X190957142Y-98027619D01*
X190957142Y-98027619D02*
X190814285Y-98075238D01*
X190814285Y-98075238D02*
X190719047Y-98170476D01*
X190719047Y-98170476D02*
X190671428Y-98265714D01*
X190671428Y-98265714D02*
X190623809Y-98456190D01*
X190623809Y-98456190D02*
X190623809Y-98599047D01*
X190623809Y-98599047D02*
X190671428Y-98789523D01*
X190671428Y-98789523D02*
X190719047Y-98884761D01*
X190719047Y-98884761D02*
X190814285Y-98980000D01*
X190814285Y-98980000D02*
X190957142Y-99027619D01*
X190957142Y-99027619D02*
X191195237Y-99027619D01*
X197861904Y-142377619D02*
X197861904Y-141377619D01*
X197861904Y-141377619D02*
X197623809Y-141377619D01*
X197623809Y-141377619D02*
X197480952Y-141425238D01*
X197480952Y-141425238D02*
X197385714Y-141520476D01*
X197385714Y-141520476D02*
X197338095Y-141615714D01*
X197338095Y-141615714D02*
X197290476Y-141806190D01*
X197290476Y-141806190D02*
X197290476Y-141949047D01*
X197290476Y-141949047D02*
X197338095Y-142139523D01*
X197338095Y-142139523D02*
X197385714Y-142234761D01*
X197385714Y-142234761D02*
X197480952Y-142330000D01*
X197480952Y-142330000D02*
X197623809Y-142377619D01*
X197623809Y-142377619D02*
X197861904Y-142377619D01*
X196861904Y-142377619D02*
X196861904Y-141377619D01*
X195814286Y-142377619D02*
X196147619Y-141901428D01*
X196385714Y-142377619D02*
X196385714Y-141377619D01*
X196385714Y-141377619D02*
X196004762Y-141377619D01*
X196004762Y-141377619D02*
X195909524Y-141425238D01*
X195909524Y-141425238D02*
X195861905Y-141472857D01*
X195861905Y-141472857D02*
X195814286Y-141568095D01*
X195814286Y-141568095D02*
X195814286Y-141710952D01*
X195814286Y-141710952D02*
X195861905Y-141806190D01*
X195861905Y-141806190D02*
X195909524Y-141853809D01*
X195909524Y-141853809D02*
X196004762Y-141901428D01*
X196004762Y-141901428D02*
X196385714Y-141901428D01*
X194671428Y-142330000D02*
X194528571Y-142377619D01*
X194528571Y-142377619D02*
X194290476Y-142377619D01*
X194290476Y-142377619D02*
X194195238Y-142330000D01*
X194195238Y-142330000D02*
X194147619Y-142282380D01*
X194147619Y-142282380D02*
X194100000Y-142187142D01*
X194100000Y-142187142D02*
X194100000Y-142091904D01*
X194100000Y-142091904D02*
X194147619Y-141996666D01*
X194147619Y-141996666D02*
X194195238Y-141949047D01*
X194195238Y-141949047D02*
X194290476Y-141901428D01*
X194290476Y-141901428D02*
X194480952Y-141853809D01*
X194480952Y-141853809D02*
X194576190Y-141806190D01*
X194576190Y-141806190D02*
X194623809Y-141758571D01*
X194623809Y-141758571D02*
X194671428Y-141663333D01*
X194671428Y-141663333D02*
X194671428Y-141568095D01*
X194671428Y-141568095D02*
X194623809Y-141472857D01*
X194623809Y-141472857D02*
X194576190Y-141425238D01*
X194576190Y-141425238D02*
X194480952Y-141377619D01*
X194480952Y-141377619D02*
X194242857Y-141377619D01*
X194242857Y-141377619D02*
X194100000Y-141425238D01*
X193671428Y-141853809D02*
X193338095Y-141853809D01*
X193195238Y-142377619D02*
X193671428Y-142377619D01*
X193671428Y-142377619D02*
X193671428Y-141377619D01*
X193671428Y-141377619D02*
X193195238Y-141377619D01*
X192290476Y-142377619D02*
X192766666Y-142377619D01*
X192766666Y-142377619D02*
X192766666Y-141377619D01*
X191242856Y-142091904D02*
X190766666Y-142091904D01*
X191338094Y-142377619D02*
X191004761Y-141377619D01*
X191004761Y-141377619D02*
X190671428Y-142377619D01*
X175161904Y-65327619D02*
X175161904Y-64327619D01*
X175161904Y-64327619D02*
X174828571Y-65041904D01*
X174828571Y-65041904D02*
X174495238Y-64327619D01*
X174495238Y-64327619D02*
X174495238Y-65327619D01*
X174019047Y-64327619D02*
X174019047Y-65137142D01*
X174019047Y-65137142D02*
X173971428Y-65232380D01*
X173971428Y-65232380D02*
X173923809Y-65280000D01*
X173923809Y-65280000D02*
X173828571Y-65327619D01*
X173828571Y-65327619D02*
X173638095Y-65327619D01*
X173638095Y-65327619D02*
X173542857Y-65280000D01*
X173542857Y-65280000D02*
X173495238Y-65232380D01*
X173495238Y-65232380D02*
X173447619Y-65137142D01*
X173447619Y-65137142D02*
X173447619Y-64327619D01*
X173066666Y-64327619D02*
X172400000Y-65327619D01*
X172400000Y-64327619D02*
X173066666Y-65327619D01*
X171304761Y-65041904D02*
X170828571Y-65041904D01*
X171399999Y-65327619D02*
X171066666Y-64327619D01*
X171066666Y-64327619D02*
X170733333Y-65327619D01*
X170399999Y-65327619D02*
X170399999Y-64327619D01*
X170399999Y-64327619D02*
X170161904Y-64327619D01*
X170161904Y-64327619D02*
X170019047Y-64375238D01*
X170019047Y-64375238D02*
X169923809Y-64470476D01*
X169923809Y-64470476D02*
X169876190Y-64565714D01*
X169876190Y-64565714D02*
X169828571Y-64756190D01*
X169828571Y-64756190D02*
X169828571Y-64899047D01*
X169828571Y-64899047D02*
X169876190Y-65089523D01*
X169876190Y-65089523D02*
X169923809Y-65184761D01*
X169923809Y-65184761D02*
X170019047Y-65280000D01*
X170019047Y-65280000D02*
X170161904Y-65327619D01*
X170161904Y-65327619D02*
X170399999Y-65327619D01*
X169209523Y-64327619D02*
X169114285Y-64327619D01*
X169114285Y-64327619D02*
X169019047Y-64375238D01*
X169019047Y-64375238D02*
X168971428Y-64422857D01*
X168971428Y-64422857D02*
X168923809Y-64518095D01*
X168923809Y-64518095D02*
X168876190Y-64708571D01*
X168876190Y-64708571D02*
X168876190Y-64946666D01*
X168876190Y-64946666D02*
X168923809Y-65137142D01*
X168923809Y-65137142D02*
X168971428Y-65232380D01*
X168971428Y-65232380D02*
X169019047Y-65280000D01*
X169019047Y-65280000D02*
X169114285Y-65327619D01*
X169114285Y-65327619D02*
X169209523Y-65327619D01*
X169209523Y-65327619D02*
X169304761Y-65280000D01*
X169304761Y-65280000D02*
X169352380Y-65232380D01*
X169352380Y-65232380D02*
X169399999Y-65137142D01*
X169399999Y-65137142D02*
X169447618Y-64946666D01*
X169447618Y-64946666D02*
X169447618Y-64708571D01*
X169447618Y-64708571D02*
X169399999Y-64518095D01*
X169399999Y-64518095D02*
X169352380Y-64422857D01*
X169352380Y-64422857D02*
X169304761Y-64375238D01*
X169304761Y-64375238D02*
X169209523Y-64327619D01*
%TO.C,R93*%
X200612619Y-124557142D02*
X200136428Y-124223809D01*
X200612619Y-123985714D02*
X199612619Y-123985714D01*
X199612619Y-123985714D02*
X199612619Y-124366666D01*
X199612619Y-124366666D02*
X199660238Y-124461904D01*
X199660238Y-124461904D02*
X199707857Y-124509523D01*
X199707857Y-124509523D02*
X199803095Y-124557142D01*
X199803095Y-124557142D02*
X199945952Y-124557142D01*
X199945952Y-124557142D02*
X200041190Y-124509523D01*
X200041190Y-124509523D02*
X200088809Y-124461904D01*
X200088809Y-124461904D02*
X200136428Y-124366666D01*
X200136428Y-124366666D02*
X200136428Y-123985714D01*
X200612619Y-125033333D02*
X200612619Y-125223809D01*
X200612619Y-125223809D02*
X200565000Y-125319047D01*
X200565000Y-125319047D02*
X200517380Y-125366666D01*
X200517380Y-125366666D02*
X200374523Y-125461904D01*
X200374523Y-125461904D02*
X200184047Y-125509523D01*
X200184047Y-125509523D02*
X199803095Y-125509523D01*
X199803095Y-125509523D02*
X199707857Y-125461904D01*
X199707857Y-125461904D02*
X199660238Y-125414285D01*
X199660238Y-125414285D02*
X199612619Y-125319047D01*
X199612619Y-125319047D02*
X199612619Y-125128571D01*
X199612619Y-125128571D02*
X199660238Y-125033333D01*
X199660238Y-125033333D02*
X199707857Y-124985714D01*
X199707857Y-124985714D02*
X199803095Y-124938095D01*
X199803095Y-124938095D02*
X200041190Y-124938095D01*
X200041190Y-124938095D02*
X200136428Y-124985714D01*
X200136428Y-124985714D02*
X200184047Y-125033333D01*
X200184047Y-125033333D02*
X200231666Y-125128571D01*
X200231666Y-125128571D02*
X200231666Y-125319047D01*
X200231666Y-125319047D02*
X200184047Y-125414285D01*
X200184047Y-125414285D02*
X200136428Y-125461904D01*
X200136428Y-125461904D02*
X200041190Y-125509523D01*
X199612619Y-125842857D02*
X199612619Y-126461904D01*
X199612619Y-126461904D02*
X199993571Y-126128571D01*
X199993571Y-126128571D02*
X199993571Y-126271428D01*
X199993571Y-126271428D02*
X200041190Y-126366666D01*
X200041190Y-126366666D02*
X200088809Y-126414285D01*
X200088809Y-126414285D02*
X200184047Y-126461904D01*
X200184047Y-126461904D02*
X200422142Y-126461904D01*
X200422142Y-126461904D02*
X200517380Y-126414285D01*
X200517380Y-126414285D02*
X200565000Y-126366666D01*
X200565000Y-126366666D02*
X200612619Y-126271428D01*
X200612619Y-126271428D02*
X200612619Y-125985714D01*
X200612619Y-125985714D02*
X200565000Y-125890476D01*
X200565000Y-125890476D02*
X200517380Y-125842857D01*
%TO.C,R2*%
X115662619Y-107883333D02*
X115186428Y-107550000D01*
X115662619Y-107311905D02*
X114662619Y-107311905D01*
X114662619Y-107311905D02*
X114662619Y-107692857D01*
X114662619Y-107692857D02*
X114710238Y-107788095D01*
X114710238Y-107788095D02*
X114757857Y-107835714D01*
X114757857Y-107835714D02*
X114853095Y-107883333D01*
X114853095Y-107883333D02*
X114995952Y-107883333D01*
X114995952Y-107883333D02*
X115091190Y-107835714D01*
X115091190Y-107835714D02*
X115138809Y-107788095D01*
X115138809Y-107788095D02*
X115186428Y-107692857D01*
X115186428Y-107692857D02*
X115186428Y-107311905D01*
X114757857Y-108264286D02*
X114710238Y-108311905D01*
X114710238Y-108311905D02*
X114662619Y-108407143D01*
X114662619Y-108407143D02*
X114662619Y-108645238D01*
X114662619Y-108645238D02*
X114710238Y-108740476D01*
X114710238Y-108740476D02*
X114757857Y-108788095D01*
X114757857Y-108788095D02*
X114853095Y-108835714D01*
X114853095Y-108835714D02*
X114948333Y-108835714D01*
X114948333Y-108835714D02*
X115091190Y-108788095D01*
X115091190Y-108788095D02*
X115662619Y-108216667D01*
X115662619Y-108216667D02*
X115662619Y-108835714D01*
%TO.C,C2*%
X157766666Y-125567380D02*
X157814285Y-125615000D01*
X157814285Y-125615000D02*
X157957142Y-125662619D01*
X157957142Y-125662619D02*
X158052380Y-125662619D01*
X158052380Y-125662619D02*
X158195237Y-125615000D01*
X158195237Y-125615000D02*
X158290475Y-125519761D01*
X158290475Y-125519761D02*
X158338094Y-125424523D01*
X158338094Y-125424523D02*
X158385713Y-125234047D01*
X158385713Y-125234047D02*
X158385713Y-125091190D01*
X158385713Y-125091190D02*
X158338094Y-124900714D01*
X158338094Y-124900714D02*
X158290475Y-124805476D01*
X158290475Y-124805476D02*
X158195237Y-124710238D01*
X158195237Y-124710238D02*
X158052380Y-124662619D01*
X158052380Y-124662619D02*
X157957142Y-124662619D01*
X157957142Y-124662619D02*
X157814285Y-124710238D01*
X157814285Y-124710238D02*
X157766666Y-124757857D01*
X157385713Y-124757857D02*
X157338094Y-124710238D01*
X157338094Y-124710238D02*
X157242856Y-124662619D01*
X157242856Y-124662619D02*
X157004761Y-124662619D01*
X157004761Y-124662619D02*
X156909523Y-124710238D01*
X156909523Y-124710238D02*
X156861904Y-124757857D01*
X156861904Y-124757857D02*
X156814285Y-124853095D01*
X156814285Y-124853095D02*
X156814285Y-124948333D01*
X156814285Y-124948333D02*
X156861904Y-125091190D01*
X156861904Y-125091190D02*
X157433332Y-125662619D01*
X157433332Y-125662619D02*
X156814285Y-125662619D01*
%TO.C,R94*%
X205562619Y-107457142D02*
X205086428Y-107123809D01*
X205562619Y-106885714D02*
X204562619Y-106885714D01*
X204562619Y-106885714D02*
X204562619Y-107266666D01*
X204562619Y-107266666D02*
X204610238Y-107361904D01*
X204610238Y-107361904D02*
X204657857Y-107409523D01*
X204657857Y-107409523D02*
X204753095Y-107457142D01*
X204753095Y-107457142D02*
X204895952Y-107457142D01*
X204895952Y-107457142D02*
X204991190Y-107409523D01*
X204991190Y-107409523D02*
X205038809Y-107361904D01*
X205038809Y-107361904D02*
X205086428Y-107266666D01*
X205086428Y-107266666D02*
X205086428Y-106885714D01*
X205562619Y-107933333D02*
X205562619Y-108123809D01*
X205562619Y-108123809D02*
X205515000Y-108219047D01*
X205515000Y-108219047D02*
X205467380Y-108266666D01*
X205467380Y-108266666D02*
X205324523Y-108361904D01*
X205324523Y-108361904D02*
X205134047Y-108409523D01*
X205134047Y-108409523D02*
X204753095Y-108409523D01*
X204753095Y-108409523D02*
X204657857Y-108361904D01*
X204657857Y-108361904D02*
X204610238Y-108314285D01*
X204610238Y-108314285D02*
X204562619Y-108219047D01*
X204562619Y-108219047D02*
X204562619Y-108028571D01*
X204562619Y-108028571D02*
X204610238Y-107933333D01*
X204610238Y-107933333D02*
X204657857Y-107885714D01*
X204657857Y-107885714D02*
X204753095Y-107838095D01*
X204753095Y-107838095D02*
X204991190Y-107838095D01*
X204991190Y-107838095D02*
X205086428Y-107885714D01*
X205086428Y-107885714D02*
X205134047Y-107933333D01*
X205134047Y-107933333D02*
X205181666Y-108028571D01*
X205181666Y-108028571D02*
X205181666Y-108219047D01*
X205181666Y-108219047D02*
X205134047Y-108314285D01*
X205134047Y-108314285D02*
X205086428Y-108361904D01*
X205086428Y-108361904D02*
X204991190Y-108409523D01*
X204895952Y-109266666D02*
X205562619Y-109266666D01*
X204515000Y-109028571D02*
X205229285Y-108790476D01*
X205229285Y-108790476D02*
X205229285Y-109409523D01*
%TO.C,C4*%
X164937380Y-106883333D02*
X164985000Y-106835714D01*
X164985000Y-106835714D02*
X165032619Y-106692857D01*
X165032619Y-106692857D02*
X165032619Y-106597619D01*
X165032619Y-106597619D02*
X164985000Y-106454762D01*
X164985000Y-106454762D02*
X164889761Y-106359524D01*
X164889761Y-106359524D02*
X164794523Y-106311905D01*
X164794523Y-106311905D02*
X164604047Y-106264286D01*
X164604047Y-106264286D02*
X164461190Y-106264286D01*
X164461190Y-106264286D02*
X164270714Y-106311905D01*
X164270714Y-106311905D02*
X164175476Y-106359524D01*
X164175476Y-106359524D02*
X164080238Y-106454762D01*
X164080238Y-106454762D02*
X164032619Y-106597619D01*
X164032619Y-106597619D02*
X164032619Y-106692857D01*
X164032619Y-106692857D02*
X164080238Y-106835714D01*
X164080238Y-106835714D02*
X164127857Y-106883333D01*
X164365952Y-107740476D02*
X165032619Y-107740476D01*
X163985000Y-107502381D02*
X164699285Y-107264286D01*
X164699285Y-107264286D02*
X164699285Y-107883333D01*
%TO.C,R95*%
X200612619Y-109857142D02*
X200136428Y-109523809D01*
X200612619Y-109285714D02*
X199612619Y-109285714D01*
X199612619Y-109285714D02*
X199612619Y-109666666D01*
X199612619Y-109666666D02*
X199660238Y-109761904D01*
X199660238Y-109761904D02*
X199707857Y-109809523D01*
X199707857Y-109809523D02*
X199803095Y-109857142D01*
X199803095Y-109857142D02*
X199945952Y-109857142D01*
X199945952Y-109857142D02*
X200041190Y-109809523D01*
X200041190Y-109809523D02*
X200088809Y-109761904D01*
X200088809Y-109761904D02*
X200136428Y-109666666D01*
X200136428Y-109666666D02*
X200136428Y-109285714D01*
X200612619Y-110333333D02*
X200612619Y-110523809D01*
X200612619Y-110523809D02*
X200565000Y-110619047D01*
X200565000Y-110619047D02*
X200517380Y-110666666D01*
X200517380Y-110666666D02*
X200374523Y-110761904D01*
X200374523Y-110761904D02*
X200184047Y-110809523D01*
X200184047Y-110809523D02*
X199803095Y-110809523D01*
X199803095Y-110809523D02*
X199707857Y-110761904D01*
X199707857Y-110761904D02*
X199660238Y-110714285D01*
X199660238Y-110714285D02*
X199612619Y-110619047D01*
X199612619Y-110619047D02*
X199612619Y-110428571D01*
X199612619Y-110428571D02*
X199660238Y-110333333D01*
X199660238Y-110333333D02*
X199707857Y-110285714D01*
X199707857Y-110285714D02*
X199803095Y-110238095D01*
X199803095Y-110238095D02*
X200041190Y-110238095D01*
X200041190Y-110238095D02*
X200136428Y-110285714D01*
X200136428Y-110285714D02*
X200184047Y-110333333D01*
X200184047Y-110333333D02*
X200231666Y-110428571D01*
X200231666Y-110428571D02*
X200231666Y-110619047D01*
X200231666Y-110619047D02*
X200184047Y-110714285D01*
X200184047Y-110714285D02*
X200136428Y-110761904D01*
X200136428Y-110761904D02*
X200041190Y-110809523D01*
X199612619Y-111714285D02*
X199612619Y-111238095D01*
X199612619Y-111238095D02*
X200088809Y-111190476D01*
X200088809Y-111190476D02*
X200041190Y-111238095D01*
X200041190Y-111238095D02*
X199993571Y-111333333D01*
X199993571Y-111333333D02*
X199993571Y-111571428D01*
X199993571Y-111571428D02*
X200041190Y-111666666D01*
X200041190Y-111666666D02*
X200088809Y-111714285D01*
X200088809Y-111714285D02*
X200184047Y-111761904D01*
X200184047Y-111761904D02*
X200422142Y-111761904D01*
X200422142Y-111761904D02*
X200517380Y-111714285D01*
X200517380Y-111714285D02*
X200565000Y-111666666D01*
X200565000Y-111666666D02*
X200612619Y-111571428D01*
X200612619Y-111571428D02*
X200612619Y-111333333D01*
X200612619Y-111333333D02*
X200565000Y-111238095D01*
X200565000Y-111238095D02*
X200517380Y-111190476D01*
%TO.C,Q1*%
X108807857Y-110904761D02*
X108760238Y-110809523D01*
X108760238Y-110809523D02*
X108665000Y-110714285D01*
X108665000Y-110714285D02*
X108522142Y-110571428D01*
X108522142Y-110571428D02*
X108474523Y-110476190D01*
X108474523Y-110476190D02*
X108474523Y-110380952D01*
X108712619Y-110428571D02*
X108665000Y-110333333D01*
X108665000Y-110333333D02*
X108569761Y-110238095D01*
X108569761Y-110238095D02*
X108379285Y-110190476D01*
X108379285Y-110190476D02*
X108045952Y-110190476D01*
X108045952Y-110190476D02*
X107855476Y-110238095D01*
X107855476Y-110238095D02*
X107760238Y-110333333D01*
X107760238Y-110333333D02*
X107712619Y-110428571D01*
X107712619Y-110428571D02*
X107712619Y-110619047D01*
X107712619Y-110619047D02*
X107760238Y-110714285D01*
X107760238Y-110714285D02*
X107855476Y-110809523D01*
X107855476Y-110809523D02*
X108045952Y-110857142D01*
X108045952Y-110857142D02*
X108379285Y-110857142D01*
X108379285Y-110857142D02*
X108569761Y-110809523D01*
X108569761Y-110809523D02*
X108665000Y-110714285D01*
X108665000Y-110714285D02*
X108712619Y-110619047D01*
X108712619Y-110619047D02*
X108712619Y-110428571D01*
X108712619Y-111809523D02*
X108712619Y-111238095D01*
X108712619Y-111523809D02*
X107712619Y-111523809D01*
X107712619Y-111523809D02*
X107855476Y-111428571D01*
X107855476Y-111428571D02*
X107950714Y-111333333D01*
X107950714Y-111333333D02*
X107998333Y-111238095D01*
%TO.C,R92*%
X205462619Y-122157142D02*
X204986428Y-121823809D01*
X205462619Y-121585714D02*
X204462619Y-121585714D01*
X204462619Y-121585714D02*
X204462619Y-121966666D01*
X204462619Y-121966666D02*
X204510238Y-122061904D01*
X204510238Y-122061904D02*
X204557857Y-122109523D01*
X204557857Y-122109523D02*
X204653095Y-122157142D01*
X204653095Y-122157142D02*
X204795952Y-122157142D01*
X204795952Y-122157142D02*
X204891190Y-122109523D01*
X204891190Y-122109523D02*
X204938809Y-122061904D01*
X204938809Y-122061904D02*
X204986428Y-121966666D01*
X204986428Y-121966666D02*
X204986428Y-121585714D01*
X205462619Y-122633333D02*
X205462619Y-122823809D01*
X205462619Y-122823809D02*
X205415000Y-122919047D01*
X205415000Y-122919047D02*
X205367380Y-122966666D01*
X205367380Y-122966666D02*
X205224523Y-123061904D01*
X205224523Y-123061904D02*
X205034047Y-123109523D01*
X205034047Y-123109523D02*
X204653095Y-123109523D01*
X204653095Y-123109523D02*
X204557857Y-123061904D01*
X204557857Y-123061904D02*
X204510238Y-123014285D01*
X204510238Y-123014285D02*
X204462619Y-122919047D01*
X204462619Y-122919047D02*
X204462619Y-122728571D01*
X204462619Y-122728571D02*
X204510238Y-122633333D01*
X204510238Y-122633333D02*
X204557857Y-122585714D01*
X204557857Y-122585714D02*
X204653095Y-122538095D01*
X204653095Y-122538095D02*
X204891190Y-122538095D01*
X204891190Y-122538095D02*
X204986428Y-122585714D01*
X204986428Y-122585714D02*
X205034047Y-122633333D01*
X205034047Y-122633333D02*
X205081666Y-122728571D01*
X205081666Y-122728571D02*
X205081666Y-122919047D01*
X205081666Y-122919047D02*
X205034047Y-123014285D01*
X205034047Y-123014285D02*
X204986428Y-123061904D01*
X204986428Y-123061904D02*
X204891190Y-123109523D01*
X204557857Y-123490476D02*
X204510238Y-123538095D01*
X204510238Y-123538095D02*
X204462619Y-123633333D01*
X204462619Y-123633333D02*
X204462619Y-123871428D01*
X204462619Y-123871428D02*
X204510238Y-123966666D01*
X204510238Y-123966666D02*
X204557857Y-124014285D01*
X204557857Y-124014285D02*
X204653095Y-124061904D01*
X204653095Y-124061904D02*
X204748333Y-124061904D01*
X204748333Y-124061904D02*
X204891190Y-124014285D01*
X204891190Y-124014285D02*
X205462619Y-123442857D01*
X205462619Y-123442857D02*
X205462619Y-124061904D01*
%TO.C,R13*%
X119612619Y-143244642D02*
X119136428Y-142911309D01*
X119612619Y-142673214D02*
X118612619Y-142673214D01*
X118612619Y-142673214D02*
X118612619Y-143054166D01*
X118612619Y-143054166D02*
X118660238Y-143149404D01*
X118660238Y-143149404D02*
X118707857Y-143197023D01*
X118707857Y-143197023D02*
X118803095Y-143244642D01*
X118803095Y-143244642D02*
X118945952Y-143244642D01*
X118945952Y-143244642D02*
X119041190Y-143197023D01*
X119041190Y-143197023D02*
X119088809Y-143149404D01*
X119088809Y-143149404D02*
X119136428Y-143054166D01*
X119136428Y-143054166D02*
X119136428Y-142673214D01*
X119612619Y-144197023D02*
X119612619Y-143625595D01*
X119612619Y-143911309D02*
X118612619Y-143911309D01*
X118612619Y-143911309D02*
X118755476Y-143816071D01*
X118755476Y-143816071D02*
X118850714Y-143720833D01*
X118850714Y-143720833D02*
X118898333Y-143625595D01*
X118612619Y-144530357D02*
X118612619Y-145149404D01*
X118612619Y-145149404D02*
X118993571Y-144816071D01*
X118993571Y-144816071D02*
X118993571Y-144958928D01*
X118993571Y-144958928D02*
X119041190Y-145054166D01*
X119041190Y-145054166D02*
X119088809Y-145101785D01*
X119088809Y-145101785D02*
X119184047Y-145149404D01*
X119184047Y-145149404D02*
X119422142Y-145149404D01*
X119422142Y-145149404D02*
X119517380Y-145101785D01*
X119517380Y-145101785D02*
X119565000Y-145054166D01*
X119565000Y-145054166D02*
X119612619Y-144958928D01*
X119612619Y-144958928D02*
X119612619Y-144673214D01*
X119612619Y-144673214D02*
X119565000Y-144577976D01*
X119565000Y-144577976D02*
X119517380Y-144530357D01*
%TO.C,C22*%
X134749880Y-111657142D02*
X134797500Y-111609523D01*
X134797500Y-111609523D02*
X134845119Y-111466666D01*
X134845119Y-111466666D02*
X134845119Y-111371428D01*
X134845119Y-111371428D02*
X134797500Y-111228571D01*
X134797500Y-111228571D02*
X134702261Y-111133333D01*
X134702261Y-111133333D02*
X134607023Y-111085714D01*
X134607023Y-111085714D02*
X134416547Y-111038095D01*
X134416547Y-111038095D02*
X134273690Y-111038095D01*
X134273690Y-111038095D02*
X134083214Y-111085714D01*
X134083214Y-111085714D02*
X133987976Y-111133333D01*
X133987976Y-111133333D02*
X133892738Y-111228571D01*
X133892738Y-111228571D02*
X133845119Y-111371428D01*
X133845119Y-111371428D02*
X133845119Y-111466666D01*
X133845119Y-111466666D02*
X133892738Y-111609523D01*
X133892738Y-111609523D02*
X133940357Y-111657142D01*
X133940357Y-112038095D02*
X133892738Y-112085714D01*
X133892738Y-112085714D02*
X133845119Y-112180952D01*
X133845119Y-112180952D02*
X133845119Y-112419047D01*
X133845119Y-112419047D02*
X133892738Y-112514285D01*
X133892738Y-112514285D02*
X133940357Y-112561904D01*
X133940357Y-112561904D02*
X134035595Y-112609523D01*
X134035595Y-112609523D02*
X134130833Y-112609523D01*
X134130833Y-112609523D02*
X134273690Y-112561904D01*
X134273690Y-112561904D02*
X134845119Y-111990476D01*
X134845119Y-111990476D02*
X134845119Y-112609523D01*
X133940357Y-112990476D02*
X133892738Y-113038095D01*
X133892738Y-113038095D02*
X133845119Y-113133333D01*
X133845119Y-113133333D02*
X133845119Y-113371428D01*
X133845119Y-113371428D02*
X133892738Y-113466666D01*
X133892738Y-113466666D02*
X133940357Y-113514285D01*
X133940357Y-113514285D02*
X134035595Y-113561904D01*
X134035595Y-113561904D02*
X134130833Y-113561904D01*
X134130833Y-113561904D02*
X134273690Y-113514285D01*
X134273690Y-113514285D02*
X134845119Y-112942857D01*
X134845119Y-112942857D02*
X134845119Y-113561904D01*
%TO.C,R91*%
X200512619Y-138957142D02*
X200036428Y-138623809D01*
X200512619Y-138385714D02*
X199512619Y-138385714D01*
X199512619Y-138385714D02*
X199512619Y-138766666D01*
X199512619Y-138766666D02*
X199560238Y-138861904D01*
X199560238Y-138861904D02*
X199607857Y-138909523D01*
X199607857Y-138909523D02*
X199703095Y-138957142D01*
X199703095Y-138957142D02*
X199845952Y-138957142D01*
X199845952Y-138957142D02*
X199941190Y-138909523D01*
X199941190Y-138909523D02*
X199988809Y-138861904D01*
X199988809Y-138861904D02*
X200036428Y-138766666D01*
X200036428Y-138766666D02*
X200036428Y-138385714D01*
X200512619Y-139433333D02*
X200512619Y-139623809D01*
X200512619Y-139623809D02*
X200465000Y-139719047D01*
X200465000Y-139719047D02*
X200417380Y-139766666D01*
X200417380Y-139766666D02*
X200274523Y-139861904D01*
X200274523Y-139861904D02*
X200084047Y-139909523D01*
X200084047Y-139909523D02*
X199703095Y-139909523D01*
X199703095Y-139909523D02*
X199607857Y-139861904D01*
X199607857Y-139861904D02*
X199560238Y-139814285D01*
X199560238Y-139814285D02*
X199512619Y-139719047D01*
X199512619Y-139719047D02*
X199512619Y-139528571D01*
X199512619Y-139528571D02*
X199560238Y-139433333D01*
X199560238Y-139433333D02*
X199607857Y-139385714D01*
X199607857Y-139385714D02*
X199703095Y-139338095D01*
X199703095Y-139338095D02*
X199941190Y-139338095D01*
X199941190Y-139338095D02*
X200036428Y-139385714D01*
X200036428Y-139385714D02*
X200084047Y-139433333D01*
X200084047Y-139433333D02*
X200131666Y-139528571D01*
X200131666Y-139528571D02*
X200131666Y-139719047D01*
X200131666Y-139719047D02*
X200084047Y-139814285D01*
X200084047Y-139814285D02*
X200036428Y-139861904D01*
X200036428Y-139861904D02*
X199941190Y-139909523D01*
X200512619Y-140861904D02*
X200512619Y-140290476D01*
X200512619Y-140576190D02*
X199512619Y-140576190D01*
X199512619Y-140576190D02*
X199655476Y-140480952D01*
X199655476Y-140480952D02*
X199750714Y-140385714D01*
X199750714Y-140385714D02*
X199798333Y-140290476D01*
%TO.C,C16*%
X146855357Y-118697380D02*
X146902976Y-118745000D01*
X146902976Y-118745000D02*
X147045833Y-118792619D01*
X147045833Y-118792619D02*
X147141071Y-118792619D01*
X147141071Y-118792619D02*
X147283928Y-118745000D01*
X147283928Y-118745000D02*
X147379166Y-118649761D01*
X147379166Y-118649761D02*
X147426785Y-118554523D01*
X147426785Y-118554523D02*
X147474404Y-118364047D01*
X147474404Y-118364047D02*
X147474404Y-118221190D01*
X147474404Y-118221190D02*
X147426785Y-118030714D01*
X147426785Y-118030714D02*
X147379166Y-117935476D01*
X147379166Y-117935476D02*
X147283928Y-117840238D01*
X147283928Y-117840238D02*
X147141071Y-117792619D01*
X147141071Y-117792619D02*
X147045833Y-117792619D01*
X147045833Y-117792619D02*
X146902976Y-117840238D01*
X146902976Y-117840238D02*
X146855357Y-117887857D01*
X145902976Y-118792619D02*
X146474404Y-118792619D01*
X146188690Y-118792619D02*
X146188690Y-117792619D01*
X146188690Y-117792619D02*
X146283928Y-117935476D01*
X146283928Y-117935476D02*
X146379166Y-118030714D01*
X146379166Y-118030714D02*
X146474404Y-118078333D01*
X145045833Y-117792619D02*
X145236309Y-117792619D01*
X145236309Y-117792619D02*
X145331547Y-117840238D01*
X145331547Y-117840238D02*
X145379166Y-117887857D01*
X145379166Y-117887857D02*
X145474404Y-118030714D01*
X145474404Y-118030714D02*
X145522023Y-118221190D01*
X145522023Y-118221190D02*
X145522023Y-118602142D01*
X145522023Y-118602142D02*
X145474404Y-118697380D01*
X145474404Y-118697380D02*
X145426785Y-118745000D01*
X145426785Y-118745000D02*
X145331547Y-118792619D01*
X145331547Y-118792619D02*
X145141071Y-118792619D01*
X145141071Y-118792619D02*
X145045833Y-118745000D01*
X145045833Y-118745000D02*
X144998214Y-118697380D01*
X144998214Y-118697380D02*
X144950595Y-118602142D01*
X144950595Y-118602142D02*
X144950595Y-118364047D01*
X144950595Y-118364047D02*
X144998214Y-118268809D01*
X144998214Y-118268809D02*
X145045833Y-118221190D01*
X145045833Y-118221190D02*
X145141071Y-118173571D01*
X145141071Y-118173571D02*
X145331547Y-118173571D01*
X145331547Y-118173571D02*
X145426785Y-118221190D01*
X145426785Y-118221190D02*
X145474404Y-118268809D01*
X145474404Y-118268809D02*
X145522023Y-118364047D01*
%TO.C,R4*%
X108612619Y-118683333D02*
X108136428Y-118350000D01*
X108612619Y-118111905D02*
X107612619Y-118111905D01*
X107612619Y-118111905D02*
X107612619Y-118492857D01*
X107612619Y-118492857D02*
X107660238Y-118588095D01*
X107660238Y-118588095D02*
X107707857Y-118635714D01*
X107707857Y-118635714D02*
X107803095Y-118683333D01*
X107803095Y-118683333D02*
X107945952Y-118683333D01*
X107945952Y-118683333D02*
X108041190Y-118635714D01*
X108041190Y-118635714D02*
X108088809Y-118588095D01*
X108088809Y-118588095D02*
X108136428Y-118492857D01*
X108136428Y-118492857D02*
X108136428Y-118111905D01*
X107945952Y-119540476D02*
X108612619Y-119540476D01*
X107565000Y-119302381D02*
X108279285Y-119064286D01*
X108279285Y-119064286D02*
X108279285Y-119683333D01*
%TO.C,R45*%
X139162619Y-115207142D02*
X138686428Y-114873809D01*
X139162619Y-114635714D02*
X138162619Y-114635714D01*
X138162619Y-114635714D02*
X138162619Y-115016666D01*
X138162619Y-115016666D02*
X138210238Y-115111904D01*
X138210238Y-115111904D02*
X138257857Y-115159523D01*
X138257857Y-115159523D02*
X138353095Y-115207142D01*
X138353095Y-115207142D02*
X138495952Y-115207142D01*
X138495952Y-115207142D02*
X138591190Y-115159523D01*
X138591190Y-115159523D02*
X138638809Y-115111904D01*
X138638809Y-115111904D02*
X138686428Y-115016666D01*
X138686428Y-115016666D02*
X138686428Y-114635714D01*
X138495952Y-116064285D02*
X139162619Y-116064285D01*
X138115000Y-115826190D02*
X138829285Y-115588095D01*
X138829285Y-115588095D02*
X138829285Y-116207142D01*
X138162619Y-117064285D02*
X138162619Y-116588095D01*
X138162619Y-116588095D02*
X138638809Y-116540476D01*
X138638809Y-116540476D02*
X138591190Y-116588095D01*
X138591190Y-116588095D02*
X138543571Y-116683333D01*
X138543571Y-116683333D02*
X138543571Y-116921428D01*
X138543571Y-116921428D02*
X138591190Y-117016666D01*
X138591190Y-117016666D02*
X138638809Y-117064285D01*
X138638809Y-117064285D02*
X138734047Y-117111904D01*
X138734047Y-117111904D02*
X138972142Y-117111904D01*
X138972142Y-117111904D02*
X139067380Y-117064285D01*
X139067380Y-117064285D02*
X139115000Y-117016666D01*
X139115000Y-117016666D02*
X139162619Y-116921428D01*
X139162619Y-116921428D02*
X139162619Y-116683333D01*
X139162619Y-116683333D02*
X139115000Y-116588095D01*
X139115000Y-116588095D02*
X139067380Y-116540476D01*
%TO.C,R16*%
X173555357Y-127662619D02*
X173888690Y-127186428D01*
X174126785Y-127662619D02*
X174126785Y-126662619D01*
X174126785Y-126662619D02*
X173745833Y-126662619D01*
X173745833Y-126662619D02*
X173650595Y-126710238D01*
X173650595Y-126710238D02*
X173602976Y-126757857D01*
X173602976Y-126757857D02*
X173555357Y-126853095D01*
X173555357Y-126853095D02*
X173555357Y-126995952D01*
X173555357Y-126995952D02*
X173602976Y-127091190D01*
X173602976Y-127091190D02*
X173650595Y-127138809D01*
X173650595Y-127138809D02*
X173745833Y-127186428D01*
X173745833Y-127186428D02*
X174126785Y-127186428D01*
X172602976Y-127662619D02*
X173174404Y-127662619D01*
X172888690Y-127662619D02*
X172888690Y-126662619D01*
X172888690Y-126662619D02*
X172983928Y-126805476D01*
X172983928Y-126805476D02*
X173079166Y-126900714D01*
X173079166Y-126900714D02*
X173174404Y-126948333D01*
X171745833Y-126662619D02*
X171936309Y-126662619D01*
X171936309Y-126662619D02*
X172031547Y-126710238D01*
X172031547Y-126710238D02*
X172079166Y-126757857D01*
X172079166Y-126757857D02*
X172174404Y-126900714D01*
X172174404Y-126900714D02*
X172222023Y-127091190D01*
X172222023Y-127091190D02*
X172222023Y-127472142D01*
X172222023Y-127472142D02*
X172174404Y-127567380D01*
X172174404Y-127567380D02*
X172126785Y-127615000D01*
X172126785Y-127615000D02*
X172031547Y-127662619D01*
X172031547Y-127662619D02*
X171841071Y-127662619D01*
X171841071Y-127662619D02*
X171745833Y-127615000D01*
X171745833Y-127615000D02*
X171698214Y-127567380D01*
X171698214Y-127567380D02*
X171650595Y-127472142D01*
X171650595Y-127472142D02*
X171650595Y-127234047D01*
X171650595Y-127234047D02*
X171698214Y-127138809D01*
X171698214Y-127138809D02*
X171745833Y-127091190D01*
X171745833Y-127091190D02*
X171841071Y-127043571D01*
X171841071Y-127043571D02*
X172031547Y-127043571D01*
X172031547Y-127043571D02*
X172126785Y-127091190D01*
X172126785Y-127091190D02*
X172174404Y-127138809D01*
X172174404Y-127138809D02*
X172222023Y-127234047D01*
%TO.C,R18*%
X172892857Y-108462619D02*
X173226190Y-107986428D01*
X173464285Y-108462619D02*
X173464285Y-107462619D01*
X173464285Y-107462619D02*
X173083333Y-107462619D01*
X173083333Y-107462619D02*
X172988095Y-107510238D01*
X172988095Y-107510238D02*
X172940476Y-107557857D01*
X172940476Y-107557857D02*
X172892857Y-107653095D01*
X172892857Y-107653095D02*
X172892857Y-107795952D01*
X172892857Y-107795952D02*
X172940476Y-107891190D01*
X172940476Y-107891190D02*
X172988095Y-107938809D01*
X172988095Y-107938809D02*
X173083333Y-107986428D01*
X173083333Y-107986428D02*
X173464285Y-107986428D01*
X171940476Y-108462619D02*
X172511904Y-108462619D01*
X172226190Y-108462619D02*
X172226190Y-107462619D01*
X172226190Y-107462619D02*
X172321428Y-107605476D01*
X172321428Y-107605476D02*
X172416666Y-107700714D01*
X172416666Y-107700714D02*
X172511904Y-107748333D01*
X171369047Y-107891190D02*
X171464285Y-107843571D01*
X171464285Y-107843571D02*
X171511904Y-107795952D01*
X171511904Y-107795952D02*
X171559523Y-107700714D01*
X171559523Y-107700714D02*
X171559523Y-107653095D01*
X171559523Y-107653095D02*
X171511904Y-107557857D01*
X171511904Y-107557857D02*
X171464285Y-107510238D01*
X171464285Y-107510238D02*
X171369047Y-107462619D01*
X171369047Y-107462619D02*
X171178571Y-107462619D01*
X171178571Y-107462619D02*
X171083333Y-107510238D01*
X171083333Y-107510238D02*
X171035714Y-107557857D01*
X171035714Y-107557857D02*
X170988095Y-107653095D01*
X170988095Y-107653095D02*
X170988095Y-107700714D01*
X170988095Y-107700714D02*
X171035714Y-107795952D01*
X171035714Y-107795952D02*
X171083333Y-107843571D01*
X171083333Y-107843571D02*
X171178571Y-107891190D01*
X171178571Y-107891190D02*
X171369047Y-107891190D01*
X171369047Y-107891190D02*
X171464285Y-107938809D01*
X171464285Y-107938809D02*
X171511904Y-107986428D01*
X171511904Y-107986428D02*
X171559523Y-108081666D01*
X171559523Y-108081666D02*
X171559523Y-108272142D01*
X171559523Y-108272142D02*
X171511904Y-108367380D01*
X171511904Y-108367380D02*
X171464285Y-108415000D01*
X171464285Y-108415000D02*
X171369047Y-108462619D01*
X171369047Y-108462619D02*
X171178571Y-108462619D01*
X171178571Y-108462619D02*
X171083333Y-108415000D01*
X171083333Y-108415000D02*
X171035714Y-108367380D01*
X171035714Y-108367380D02*
X170988095Y-108272142D01*
X170988095Y-108272142D02*
X170988095Y-108081666D01*
X170988095Y-108081666D02*
X171035714Y-107986428D01*
X171035714Y-107986428D02*
X171083333Y-107938809D01*
X171083333Y-107938809D02*
X171178571Y-107891190D01*
%TO.C,C8*%
X178216666Y-132347380D02*
X178264285Y-132395000D01*
X178264285Y-132395000D02*
X178407142Y-132442619D01*
X178407142Y-132442619D02*
X178502380Y-132442619D01*
X178502380Y-132442619D02*
X178645237Y-132395000D01*
X178645237Y-132395000D02*
X178740475Y-132299761D01*
X178740475Y-132299761D02*
X178788094Y-132204523D01*
X178788094Y-132204523D02*
X178835713Y-132014047D01*
X178835713Y-132014047D02*
X178835713Y-131871190D01*
X178835713Y-131871190D02*
X178788094Y-131680714D01*
X178788094Y-131680714D02*
X178740475Y-131585476D01*
X178740475Y-131585476D02*
X178645237Y-131490238D01*
X178645237Y-131490238D02*
X178502380Y-131442619D01*
X178502380Y-131442619D02*
X178407142Y-131442619D01*
X178407142Y-131442619D02*
X178264285Y-131490238D01*
X178264285Y-131490238D02*
X178216666Y-131537857D01*
X177645237Y-131871190D02*
X177740475Y-131823571D01*
X177740475Y-131823571D02*
X177788094Y-131775952D01*
X177788094Y-131775952D02*
X177835713Y-131680714D01*
X177835713Y-131680714D02*
X177835713Y-131633095D01*
X177835713Y-131633095D02*
X177788094Y-131537857D01*
X177788094Y-131537857D02*
X177740475Y-131490238D01*
X177740475Y-131490238D02*
X177645237Y-131442619D01*
X177645237Y-131442619D02*
X177454761Y-131442619D01*
X177454761Y-131442619D02*
X177359523Y-131490238D01*
X177359523Y-131490238D02*
X177311904Y-131537857D01*
X177311904Y-131537857D02*
X177264285Y-131633095D01*
X177264285Y-131633095D02*
X177264285Y-131680714D01*
X177264285Y-131680714D02*
X177311904Y-131775952D01*
X177311904Y-131775952D02*
X177359523Y-131823571D01*
X177359523Y-131823571D02*
X177454761Y-131871190D01*
X177454761Y-131871190D02*
X177645237Y-131871190D01*
X177645237Y-131871190D02*
X177740475Y-131918809D01*
X177740475Y-131918809D02*
X177788094Y-131966428D01*
X177788094Y-131966428D02*
X177835713Y-132061666D01*
X177835713Y-132061666D02*
X177835713Y-132252142D01*
X177835713Y-132252142D02*
X177788094Y-132347380D01*
X177788094Y-132347380D02*
X177740475Y-132395000D01*
X177740475Y-132395000D02*
X177645237Y-132442619D01*
X177645237Y-132442619D02*
X177454761Y-132442619D01*
X177454761Y-132442619D02*
X177359523Y-132395000D01*
X177359523Y-132395000D02*
X177311904Y-132347380D01*
X177311904Y-132347380D02*
X177264285Y-132252142D01*
X177264285Y-132252142D02*
X177264285Y-132061666D01*
X177264285Y-132061666D02*
X177311904Y-131966428D01*
X177311904Y-131966428D02*
X177359523Y-131918809D01*
X177359523Y-131918809D02*
X177454761Y-131871190D01*
%TO.C,R1*%
X112866666Y-105862619D02*
X113199999Y-105386428D01*
X113438094Y-105862619D02*
X113438094Y-104862619D01*
X113438094Y-104862619D02*
X113057142Y-104862619D01*
X113057142Y-104862619D02*
X112961904Y-104910238D01*
X112961904Y-104910238D02*
X112914285Y-104957857D01*
X112914285Y-104957857D02*
X112866666Y-105053095D01*
X112866666Y-105053095D02*
X112866666Y-105195952D01*
X112866666Y-105195952D02*
X112914285Y-105291190D01*
X112914285Y-105291190D02*
X112961904Y-105338809D01*
X112961904Y-105338809D02*
X113057142Y-105386428D01*
X113057142Y-105386428D02*
X113438094Y-105386428D01*
X111914285Y-105862619D02*
X112485713Y-105862619D01*
X112199999Y-105862619D02*
X112199999Y-104862619D01*
X112199999Y-104862619D02*
X112295237Y-105005476D01*
X112295237Y-105005476D02*
X112390475Y-105100714D01*
X112390475Y-105100714D02*
X112485713Y-105148333D01*
%TO.C,R41*%
X162562619Y-119207142D02*
X162086428Y-118873809D01*
X162562619Y-118635714D02*
X161562619Y-118635714D01*
X161562619Y-118635714D02*
X161562619Y-119016666D01*
X161562619Y-119016666D02*
X161610238Y-119111904D01*
X161610238Y-119111904D02*
X161657857Y-119159523D01*
X161657857Y-119159523D02*
X161753095Y-119207142D01*
X161753095Y-119207142D02*
X161895952Y-119207142D01*
X161895952Y-119207142D02*
X161991190Y-119159523D01*
X161991190Y-119159523D02*
X162038809Y-119111904D01*
X162038809Y-119111904D02*
X162086428Y-119016666D01*
X162086428Y-119016666D02*
X162086428Y-118635714D01*
X161895952Y-120064285D02*
X162562619Y-120064285D01*
X161515000Y-119826190D02*
X162229285Y-119588095D01*
X162229285Y-119588095D02*
X162229285Y-120207142D01*
X162562619Y-121111904D02*
X162562619Y-120540476D01*
X162562619Y-120826190D02*
X161562619Y-120826190D01*
X161562619Y-120826190D02*
X161705476Y-120730952D01*
X161705476Y-120730952D02*
X161800714Y-120635714D01*
X161800714Y-120635714D02*
X161848333Y-120540476D01*
%TO.C,Q4*%
X122607857Y-134054761D02*
X122560238Y-133959523D01*
X122560238Y-133959523D02*
X122465000Y-133864285D01*
X122465000Y-133864285D02*
X122322142Y-133721428D01*
X122322142Y-133721428D02*
X122274523Y-133626190D01*
X122274523Y-133626190D02*
X122274523Y-133530952D01*
X122512619Y-133578571D02*
X122465000Y-133483333D01*
X122465000Y-133483333D02*
X122369761Y-133388095D01*
X122369761Y-133388095D02*
X122179285Y-133340476D01*
X122179285Y-133340476D02*
X121845952Y-133340476D01*
X121845952Y-133340476D02*
X121655476Y-133388095D01*
X121655476Y-133388095D02*
X121560238Y-133483333D01*
X121560238Y-133483333D02*
X121512619Y-133578571D01*
X121512619Y-133578571D02*
X121512619Y-133769047D01*
X121512619Y-133769047D02*
X121560238Y-133864285D01*
X121560238Y-133864285D02*
X121655476Y-133959523D01*
X121655476Y-133959523D02*
X121845952Y-134007142D01*
X121845952Y-134007142D02*
X122179285Y-134007142D01*
X122179285Y-134007142D02*
X122369761Y-133959523D01*
X122369761Y-133959523D02*
X122465000Y-133864285D01*
X122465000Y-133864285D02*
X122512619Y-133769047D01*
X122512619Y-133769047D02*
X122512619Y-133578571D01*
X121845952Y-134864285D02*
X122512619Y-134864285D01*
X121465000Y-134626190D02*
X122179285Y-134388095D01*
X122179285Y-134388095D02*
X122179285Y-135007142D01*
%TO.C,R3*%
X108612619Y-120933333D02*
X108136428Y-120600000D01*
X108612619Y-120361905D02*
X107612619Y-120361905D01*
X107612619Y-120361905D02*
X107612619Y-120742857D01*
X107612619Y-120742857D02*
X107660238Y-120838095D01*
X107660238Y-120838095D02*
X107707857Y-120885714D01*
X107707857Y-120885714D02*
X107803095Y-120933333D01*
X107803095Y-120933333D02*
X107945952Y-120933333D01*
X107945952Y-120933333D02*
X108041190Y-120885714D01*
X108041190Y-120885714D02*
X108088809Y-120838095D01*
X108088809Y-120838095D02*
X108136428Y-120742857D01*
X108136428Y-120742857D02*
X108136428Y-120361905D01*
X107612619Y-121266667D02*
X107612619Y-121885714D01*
X107612619Y-121885714D02*
X107993571Y-121552381D01*
X107993571Y-121552381D02*
X107993571Y-121695238D01*
X107993571Y-121695238D02*
X108041190Y-121790476D01*
X108041190Y-121790476D02*
X108088809Y-121838095D01*
X108088809Y-121838095D02*
X108184047Y-121885714D01*
X108184047Y-121885714D02*
X108422142Y-121885714D01*
X108422142Y-121885714D02*
X108517380Y-121838095D01*
X108517380Y-121838095D02*
X108565000Y-121790476D01*
X108565000Y-121790476D02*
X108612619Y-121695238D01*
X108612619Y-121695238D02*
X108612619Y-121409524D01*
X108612619Y-121409524D02*
X108565000Y-121314286D01*
X108565000Y-121314286D02*
X108517380Y-121266667D01*
%TO.C,R17*%
X172892857Y-106462619D02*
X173226190Y-105986428D01*
X173464285Y-106462619D02*
X173464285Y-105462619D01*
X173464285Y-105462619D02*
X173083333Y-105462619D01*
X173083333Y-105462619D02*
X172988095Y-105510238D01*
X172988095Y-105510238D02*
X172940476Y-105557857D01*
X172940476Y-105557857D02*
X172892857Y-105653095D01*
X172892857Y-105653095D02*
X172892857Y-105795952D01*
X172892857Y-105795952D02*
X172940476Y-105891190D01*
X172940476Y-105891190D02*
X172988095Y-105938809D01*
X172988095Y-105938809D02*
X173083333Y-105986428D01*
X173083333Y-105986428D02*
X173464285Y-105986428D01*
X171940476Y-106462619D02*
X172511904Y-106462619D01*
X172226190Y-106462619D02*
X172226190Y-105462619D01*
X172226190Y-105462619D02*
X172321428Y-105605476D01*
X172321428Y-105605476D02*
X172416666Y-105700714D01*
X172416666Y-105700714D02*
X172511904Y-105748333D01*
X171607142Y-105462619D02*
X170940476Y-105462619D01*
X170940476Y-105462619D02*
X171369047Y-106462619D01*
%TO.C,R5*%
X115512619Y-111333333D02*
X115036428Y-111000000D01*
X115512619Y-110761905D02*
X114512619Y-110761905D01*
X114512619Y-110761905D02*
X114512619Y-111142857D01*
X114512619Y-111142857D02*
X114560238Y-111238095D01*
X114560238Y-111238095D02*
X114607857Y-111285714D01*
X114607857Y-111285714D02*
X114703095Y-111333333D01*
X114703095Y-111333333D02*
X114845952Y-111333333D01*
X114845952Y-111333333D02*
X114941190Y-111285714D01*
X114941190Y-111285714D02*
X114988809Y-111238095D01*
X114988809Y-111238095D02*
X115036428Y-111142857D01*
X115036428Y-111142857D02*
X115036428Y-110761905D01*
X114512619Y-112238095D02*
X114512619Y-111761905D01*
X114512619Y-111761905D02*
X114988809Y-111714286D01*
X114988809Y-111714286D02*
X114941190Y-111761905D01*
X114941190Y-111761905D02*
X114893571Y-111857143D01*
X114893571Y-111857143D02*
X114893571Y-112095238D01*
X114893571Y-112095238D02*
X114941190Y-112190476D01*
X114941190Y-112190476D02*
X114988809Y-112238095D01*
X114988809Y-112238095D02*
X115084047Y-112285714D01*
X115084047Y-112285714D02*
X115322142Y-112285714D01*
X115322142Y-112285714D02*
X115417380Y-112238095D01*
X115417380Y-112238095D02*
X115465000Y-112190476D01*
X115465000Y-112190476D02*
X115512619Y-112095238D01*
X115512619Y-112095238D02*
X115512619Y-111857143D01*
X115512619Y-111857143D02*
X115465000Y-111761905D01*
X115465000Y-111761905D02*
X115417380Y-111714286D01*
%TO.C,Q3*%
X138857857Y-130194761D02*
X138810238Y-130099523D01*
X138810238Y-130099523D02*
X138715000Y-130004285D01*
X138715000Y-130004285D02*
X138572142Y-129861428D01*
X138572142Y-129861428D02*
X138524523Y-129766190D01*
X138524523Y-129766190D02*
X138524523Y-129670952D01*
X138762619Y-129718571D02*
X138715000Y-129623333D01*
X138715000Y-129623333D02*
X138619761Y-129528095D01*
X138619761Y-129528095D02*
X138429285Y-129480476D01*
X138429285Y-129480476D02*
X138095952Y-129480476D01*
X138095952Y-129480476D02*
X137905476Y-129528095D01*
X137905476Y-129528095D02*
X137810238Y-129623333D01*
X137810238Y-129623333D02*
X137762619Y-129718571D01*
X137762619Y-129718571D02*
X137762619Y-129909047D01*
X137762619Y-129909047D02*
X137810238Y-130004285D01*
X137810238Y-130004285D02*
X137905476Y-130099523D01*
X137905476Y-130099523D02*
X138095952Y-130147142D01*
X138095952Y-130147142D02*
X138429285Y-130147142D01*
X138429285Y-130147142D02*
X138619761Y-130099523D01*
X138619761Y-130099523D02*
X138715000Y-130004285D01*
X138715000Y-130004285D02*
X138762619Y-129909047D01*
X138762619Y-129909047D02*
X138762619Y-129718571D01*
X137762619Y-130480476D02*
X137762619Y-131099523D01*
X137762619Y-131099523D02*
X138143571Y-130766190D01*
X138143571Y-130766190D02*
X138143571Y-130909047D01*
X138143571Y-130909047D02*
X138191190Y-131004285D01*
X138191190Y-131004285D02*
X138238809Y-131051904D01*
X138238809Y-131051904D02*
X138334047Y-131099523D01*
X138334047Y-131099523D02*
X138572142Y-131099523D01*
X138572142Y-131099523D02*
X138667380Y-131051904D01*
X138667380Y-131051904D02*
X138715000Y-131004285D01*
X138715000Y-131004285D02*
X138762619Y-130909047D01*
X138762619Y-130909047D02*
X138762619Y-130623333D01*
X138762619Y-130623333D02*
X138715000Y-130528095D01*
X138715000Y-130528095D02*
X138667380Y-130480476D01*
%TO.C,R29*%
X176012619Y-112307142D02*
X175536428Y-111973809D01*
X176012619Y-111735714D02*
X175012619Y-111735714D01*
X175012619Y-111735714D02*
X175012619Y-112116666D01*
X175012619Y-112116666D02*
X175060238Y-112211904D01*
X175060238Y-112211904D02*
X175107857Y-112259523D01*
X175107857Y-112259523D02*
X175203095Y-112307142D01*
X175203095Y-112307142D02*
X175345952Y-112307142D01*
X175345952Y-112307142D02*
X175441190Y-112259523D01*
X175441190Y-112259523D02*
X175488809Y-112211904D01*
X175488809Y-112211904D02*
X175536428Y-112116666D01*
X175536428Y-112116666D02*
X175536428Y-111735714D01*
X175107857Y-112688095D02*
X175060238Y-112735714D01*
X175060238Y-112735714D02*
X175012619Y-112830952D01*
X175012619Y-112830952D02*
X175012619Y-113069047D01*
X175012619Y-113069047D02*
X175060238Y-113164285D01*
X175060238Y-113164285D02*
X175107857Y-113211904D01*
X175107857Y-113211904D02*
X175203095Y-113259523D01*
X175203095Y-113259523D02*
X175298333Y-113259523D01*
X175298333Y-113259523D02*
X175441190Y-113211904D01*
X175441190Y-113211904D02*
X176012619Y-112640476D01*
X176012619Y-112640476D02*
X176012619Y-113259523D01*
X176012619Y-113735714D02*
X176012619Y-113926190D01*
X176012619Y-113926190D02*
X175965000Y-114021428D01*
X175965000Y-114021428D02*
X175917380Y-114069047D01*
X175917380Y-114069047D02*
X175774523Y-114164285D01*
X175774523Y-114164285D02*
X175584047Y-114211904D01*
X175584047Y-114211904D02*
X175203095Y-114211904D01*
X175203095Y-114211904D02*
X175107857Y-114164285D01*
X175107857Y-114164285D02*
X175060238Y-114116666D01*
X175060238Y-114116666D02*
X175012619Y-114021428D01*
X175012619Y-114021428D02*
X175012619Y-113830952D01*
X175012619Y-113830952D02*
X175060238Y-113735714D01*
X175060238Y-113735714D02*
X175107857Y-113688095D01*
X175107857Y-113688095D02*
X175203095Y-113640476D01*
X175203095Y-113640476D02*
X175441190Y-113640476D01*
X175441190Y-113640476D02*
X175536428Y-113688095D01*
X175536428Y-113688095D02*
X175584047Y-113735714D01*
X175584047Y-113735714D02*
X175631666Y-113830952D01*
X175631666Y-113830952D02*
X175631666Y-114021428D01*
X175631666Y-114021428D02*
X175584047Y-114116666D01*
X175584047Y-114116666D02*
X175536428Y-114164285D01*
X175536428Y-114164285D02*
X175441190Y-114211904D01*
%TO.C,R36*%
X158612619Y-119157142D02*
X158136428Y-118823809D01*
X158612619Y-118585714D02*
X157612619Y-118585714D01*
X157612619Y-118585714D02*
X157612619Y-118966666D01*
X157612619Y-118966666D02*
X157660238Y-119061904D01*
X157660238Y-119061904D02*
X157707857Y-119109523D01*
X157707857Y-119109523D02*
X157803095Y-119157142D01*
X157803095Y-119157142D02*
X157945952Y-119157142D01*
X157945952Y-119157142D02*
X158041190Y-119109523D01*
X158041190Y-119109523D02*
X158088809Y-119061904D01*
X158088809Y-119061904D02*
X158136428Y-118966666D01*
X158136428Y-118966666D02*
X158136428Y-118585714D01*
X157612619Y-119490476D02*
X157612619Y-120109523D01*
X157612619Y-120109523D02*
X157993571Y-119776190D01*
X157993571Y-119776190D02*
X157993571Y-119919047D01*
X157993571Y-119919047D02*
X158041190Y-120014285D01*
X158041190Y-120014285D02*
X158088809Y-120061904D01*
X158088809Y-120061904D02*
X158184047Y-120109523D01*
X158184047Y-120109523D02*
X158422142Y-120109523D01*
X158422142Y-120109523D02*
X158517380Y-120061904D01*
X158517380Y-120061904D02*
X158565000Y-120014285D01*
X158565000Y-120014285D02*
X158612619Y-119919047D01*
X158612619Y-119919047D02*
X158612619Y-119633333D01*
X158612619Y-119633333D02*
X158565000Y-119538095D01*
X158565000Y-119538095D02*
X158517380Y-119490476D01*
X157612619Y-120966666D02*
X157612619Y-120776190D01*
X157612619Y-120776190D02*
X157660238Y-120680952D01*
X157660238Y-120680952D02*
X157707857Y-120633333D01*
X157707857Y-120633333D02*
X157850714Y-120538095D01*
X157850714Y-120538095D02*
X158041190Y-120490476D01*
X158041190Y-120490476D02*
X158422142Y-120490476D01*
X158422142Y-120490476D02*
X158517380Y-120538095D01*
X158517380Y-120538095D02*
X158565000Y-120585714D01*
X158565000Y-120585714D02*
X158612619Y-120680952D01*
X158612619Y-120680952D02*
X158612619Y-120871428D01*
X158612619Y-120871428D02*
X158565000Y-120966666D01*
X158565000Y-120966666D02*
X158517380Y-121014285D01*
X158517380Y-121014285D02*
X158422142Y-121061904D01*
X158422142Y-121061904D02*
X158184047Y-121061904D01*
X158184047Y-121061904D02*
X158088809Y-121014285D01*
X158088809Y-121014285D02*
X158041190Y-120966666D01*
X158041190Y-120966666D02*
X157993571Y-120871428D01*
X157993571Y-120871428D02*
X157993571Y-120680952D01*
X157993571Y-120680952D02*
X158041190Y-120585714D01*
X158041190Y-120585714D02*
X158088809Y-120538095D01*
X158088809Y-120538095D02*
X158184047Y-120490476D01*
%TO.C,D3*%
X123462619Y-147161905D02*
X122462619Y-147161905D01*
X122462619Y-147161905D02*
X122462619Y-147400000D01*
X122462619Y-147400000D02*
X122510238Y-147542857D01*
X122510238Y-147542857D02*
X122605476Y-147638095D01*
X122605476Y-147638095D02*
X122700714Y-147685714D01*
X122700714Y-147685714D02*
X122891190Y-147733333D01*
X122891190Y-147733333D02*
X123034047Y-147733333D01*
X123034047Y-147733333D02*
X123224523Y-147685714D01*
X123224523Y-147685714D02*
X123319761Y-147638095D01*
X123319761Y-147638095D02*
X123415000Y-147542857D01*
X123415000Y-147542857D02*
X123462619Y-147400000D01*
X123462619Y-147400000D02*
X123462619Y-147161905D01*
X122462619Y-148066667D02*
X122462619Y-148685714D01*
X122462619Y-148685714D02*
X122843571Y-148352381D01*
X122843571Y-148352381D02*
X122843571Y-148495238D01*
X122843571Y-148495238D02*
X122891190Y-148590476D01*
X122891190Y-148590476D02*
X122938809Y-148638095D01*
X122938809Y-148638095D02*
X123034047Y-148685714D01*
X123034047Y-148685714D02*
X123272142Y-148685714D01*
X123272142Y-148685714D02*
X123367380Y-148638095D01*
X123367380Y-148638095D02*
X123415000Y-148590476D01*
X123415000Y-148590476D02*
X123462619Y-148495238D01*
X123462619Y-148495238D02*
X123462619Y-148209524D01*
X123462619Y-148209524D02*
X123415000Y-148114286D01*
X123415000Y-148114286D02*
X123367380Y-148066667D01*
%TO.C,C5*%
X166766666Y-121817380D02*
X166814285Y-121865000D01*
X166814285Y-121865000D02*
X166957142Y-121912619D01*
X166957142Y-121912619D02*
X167052380Y-121912619D01*
X167052380Y-121912619D02*
X167195237Y-121865000D01*
X167195237Y-121865000D02*
X167290475Y-121769761D01*
X167290475Y-121769761D02*
X167338094Y-121674523D01*
X167338094Y-121674523D02*
X167385713Y-121484047D01*
X167385713Y-121484047D02*
X167385713Y-121341190D01*
X167385713Y-121341190D02*
X167338094Y-121150714D01*
X167338094Y-121150714D02*
X167290475Y-121055476D01*
X167290475Y-121055476D02*
X167195237Y-120960238D01*
X167195237Y-120960238D02*
X167052380Y-120912619D01*
X167052380Y-120912619D02*
X166957142Y-120912619D01*
X166957142Y-120912619D02*
X166814285Y-120960238D01*
X166814285Y-120960238D02*
X166766666Y-121007857D01*
X165861904Y-120912619D02*
X166338094Y-120912619D01*
X166338094Y-120912619D02*
X166385713Y-121388809D01*
X166385713Y-121388809D02*
X166338094Y-121341190D01*
X166338094Y-121341190D02*
X166242856Y-121293571D01*
X166242856Y-121293571D02*
X166004761Y-121293571D01*
X166004761Y-121293571D02*
X165909523Y-121341190D01*
X165909523Y-121341190D02*
X165861904Y-121388809D01*
X165861904Y-121388809D02*
X165814285Y-121484047D01*
X165814285Y-121484047D02*
X165814285Y-121722142D01*
X165814285Y-121722142D02*
X165861904Y-121817380D01*
X165861904Y-121817380D02*
X165909523Y-121865000D01*
X165909523Y-121865000D02*
X166004761Y-121912619D01*
X166004761Y-121912619D02*
X166242856Y-121912619D01*
X166242856Y-121912619D02*
X166338094Y-121865000D01*
X166338094Y-121865000D02*
X166385713Y-121817380D01*
%TO.C,U19*%
X185938094Y-62912619D02*
X185938094Y-63722142D01*
X185938094Y-63722142D02*
X185890475Y-63817380D01*
X185890475Y-63817380D02*
X185842856Y-63865000D01*
X185842856Y-63865000D02*
X185747618Y-63912619D01*
X185747618Y-63912619D02*
X185557142Y-63912619D01*
X185557142Y-63912619D02*
X185461904Y-63865000D01*
X185461904Y-63865000D02*
X185414285Y-63817380D01*
X185414285Y-63817380D02*
X185366666Y-63722142D01*
X185366666Y-63722142D02*
X185366666Y-62912619D01*
X184366666Y-63912619D02*
X184938094Y-63912619D01*
X184652380Y-63912619D02*
X184652380Y-62912619D01*
X184652380Y-62912619D02*
X184747618Y-63055476D01*
X184747618Y-63055476D02*
X184842856Y-63150714D01*
X184842856Y-63150714D02*
X184938094Y-63198333D01*
X183890475Y-63912619D02*
X183699999Y-63912619D01*
X183699999Y-63912619D02*
X183604761Y-63865000D01*
X183604761Y-63865000D02*
X183557142Y-63817380D01*
X183557142Y-63817380D02*
X183461904Y-63674523D01*
X183461904Y-63674523D02*
X183414285Y-63484047D01*
X183414285Y-63484047D02*
X183414285Y-63103095D01*
X183414285Y-63103095D02*
X183461904Y-63007857D01*
X183461904Y-63007857D02*
X183509523Y-62960238D01*
X183509523Y-62960238D02*
X183604761Y-62912619D01*
X183604761Y-62912619D02*
X183795237Y-62912619D01*
X183795237Y-62912619D02*
X183890475Y-62960238D01*
X183890475Y-62960238D02*
X183938094Y-63007857D01*
X183938094Y-63007857D02*
X183985713Y-63103095D01*
X183985713Y-63103095D02*
X183985713Y-63341190D01*
X183985713Y-63341190D02*
X183938094Y-63436428D01*
X183938094Y-63436428D02*
X183890475Y-63484047D01*
X183890475Y-63484047D02*
X183795237Y-63531666D01*
X183795237Y-63531666D02*
X183604761Y-63531666D01*
X183604761Y-63531666D02*
X183509523Y-63484047D01*
X183509523Y-63484047D02*
X183461904Y-63436428D01*
X183461904Y-63436428D02*
X183414285Y-63341190D01*
%TO.C,R97*%
X200562619Y-95407142D02*
X200086428Y-95073809D01*
X200562619Y-94835714D02*
X199562619Y-94835714D01*
X199562619Y-94835714D02*
X199562619Y-95216666D01*
X199562619Y-95216666D02*
X199610238Y-95311904D01*
X199610238Y-95311904D02*
X199657857Y-95359523D01*
X199657857Y-95359523D02*
X199753095Y-95407142D01*
X199753095Y-95407142D02*
X199895952Y-95407142D01*
X199895952Y-95407142D02*
X199991190Y-95359523D01*
X199991190Y-95359523D02*
X200038809Y-95311904D01*
X200038809Y-95311904D02*
X200086428Y-95216666D01*
X200086428Y-95216666D02*
X200086428Y-94835714D01*
X200562619Y-95883333D02*
X200562619Y-96073809D01*
X200562619Y-96073809D02*
X200515000Y-96169047D01*
X200515000Y-96169047D02*
X200467380Y-96216666D01*
X200467380Y-96216666D02*
X200324523Y-96311904D01*
X200324523Y-96311904D02*
X200134047Y-96359523D01*
X200134047Y-96359523D02*
X199753095Y-96359523D01*
X199753095Y-96359523D02*
X199657857Y-96311904D01*
X199657857Y-96311904D02*
X199610238Y-96264285D01*
X199610238Y-96264285D02*
X199562619Y-96169047D01*
X199562619Y-96169047D02*
X199562619Y-95978571D01*
X199562619Y-95978571D02*
X199610238Y-95883333D01*
X199610238Y-95883333D02*
X199657857Y-95835714D01*
X199657857Y-95835714D02*
X199753095Y-95788095D01*
X199753095Y-95788095D02*
X199991190Y-95788095D01*
X199991190Y-95788095D02*
X200086428Y-95835714D01*
X200086428Y-95835714D02*
X200134047Y-95883333D01*
X200134047Y-95883333D02*
X200181666Y-95978571D01*
X200181666Y-95978571D02*
X200181666Y-96169047D01*
X200181666Y-96169047D02*
X200134047Y-96264285D01*
X200134047Y-96264285D02*
X200086428Y-96311904D01*
X200086428Y-96311904D02*
X199991190Y-96359523D01*
X199562619Y-96692857D02*
X199562619Y-97359523D01*
X199562619Y-97359523D02*
X200562619Y-96930952D01*
%TO.C,R44*%
X137375119Y-108419642D02*
X136898928Y-108086309D01*
X137375119Y-107848214D02*
X136375119Y-107848214D01*
X136375119Y-107848214D02*
X136375119Y-108229166D01*
X136375119Y-108229166D02*
X136422738Y-108324404D01*
X136422738Y-108324404D02*
X136470357Y-108372023D01*
X136470357Y-108372023D02*
X136565595Y-108419642D01*
X136565595Y-108419642D02*
X136708452Y-108419642D01*
X136708452Y-108419642D02*
X136803690Y-108372023D01*
X136803690Y-108372023D02*
X136851309Y-108324404D01*
X136851309Y-108324404D02*
X136898928Y-108229166D01*
X136898928Y-108229166D02*
X136898928Y-107848214D01*
X136708452Y-109276785D02*
X137375119Y-109276785D01*
X136327500Y-109038690D02*
X137041785Y-108800595D01*
X137041785Y-108800595D02*
X137041785Y-109419642D01*
X136708452Y-110229166D02*
X137375119Y-110229166D01*
X136327500Y-109991071D02*
X137041785Y-109752976D01*
X137041785Y-109752976D02*
X137041785Y-110372023D01*
%TO.C,R20*%
X139762619Y-133957142D02*
X139286428Y-133623809D01*
X139762619Y-133385714D02*
X138762619Y-133385714D01*
X138762619Y-133385714D02*
X138762619Y-133766666D01*
X138762619Y-133766666D02*
X138810238Y-133861904D01*
X138810238Y-133861904D02*
X138857857Y-133909523D01*
X138857857Y-133909523D02*
X138953095Y-133957142D01*
X138953095Y-133957142D02*
X139095952Y-133957142D01*
X139095952Y-133957142D02*
X139191190Y-133909523D01*
X139191190Y-133909523D02*
X139238809Y-133861904D01*
X139238809Y-133861904D02*
X139286428Y-133766666D01*
X139286428Y-133766666D02*
X139286428Y-133385714D01*
X138857857Y-134338095D02*
X138810238Y-134385714D01*
X138810238Y-134385714D02*
X138762619Y-134480952D01*
X138762619Y-134480952D02*
X138762619Y-134719047D01*
X138762619Y-134719047D02*
X138810238Y-134814285D01*
X138810238Y-134814285D02*
X138857857Y-134861904D01*
X138857857Y-134861904D02*
X138953095Y-134909523D01*
X138953095Y-134909523D02*
X139048333Y-134909523D01*
X139048333Y-134909523D02*
X139191190Y-134861904D01*
X139191190Y-134861904D02*
X139762619Y-134290476D01*
X139762619Y-134290476D02*
X139762619Y-134909523D01*
X138762619Y-135528571D02*
X138762619Y-135623809D01*
X138762619Y-135623809D02*
X138810238Y-135719047D01*
X138810238Y-135719047D02*
X138857857Y-135766666D01*
X138857857Y-135766666D02*
X138953095Y-135814285D01*
X138953095Y-135814285D02*
X139143571Y-135861904D01*
X139143571Y-135861904D02*
X139381666Y-135861904D01*
X139381666Y-135861904D02*
X139572142Y-135814285D01*
X139572142Y-135814285D02*
X139667380Y-135766666D01*
X139667380Y-135766666D02*
X139715000Y-135719047D01*
X139715000Y-135719047D02*
X139762619Y-135623809D01*
X139762619Y-135623809D02*
X139762619Y-135528571D01*
X139762619Y-135528571D02*
X139715000Y-135433333D01*
X139715000Y-135433333D02*
X139667380Y-135385714D01*
X139667380Y-135385714D02*
X139572142Y-135338095D01*
X139572142Y-135338095D02*
X139381666Y-135290476D01*
X139381666Y-135290476D02*
X139143571Y-135290476D01*
X139143571Y-135290476D02*
X138953095Y-135338095D01*
X138953095Y-135338095D02*
X138857857Y-135385714D01*
X138857857Y-135385714D02*
X138810238Y-135433333D01*
X138810238Y-135433333D02*
X138762619Y-135528571D01*
%TO.C,Q2*%
X122945238Y-123407857D02*
X123040476Y-123360238D01*
X123040476Y-123360238D02*
X123135714Y-123265000D01*
X123135714Y-123265000D02*
X123278571Y-123122142D01*
X123278571Y-123122142D02*
X123373809Y-123074523D01*
X123373809Y-123074523D02*
X123469047Y-123074523D01*
X123421428Y-123312619D02*
X123516666Y-123265000D01*
X123516666Y-123265000D02*
X123611904Y-123169761D01*
X123611904Y-123169761D02*
X123659523Y-122979285D01*
X123659523Y-122979285D02*
X123659523Y-122645952D01*
X123659523Y-122645952D02*
X123611904Y-122455476D01*
X123611904Y-122455476D02*
X123516666Y-122360238D01*
X123516666Y-122360238D02*
X123421428Y-122312619D01*
X123421428Y-122312619D02*
X123230952Y-122312619D01*
X123230952Y-122312619D02*
X123135714Y-122360238D01*
X123135714Y-122360238D02*
X123040476Y-122455476D01*
X123040476Y-122455476D02*
X122992857Y-122645952D01*
X122992857Y-122645952D02*
X122992857Y-122979285D01*
X122992857Y-122979285D02*
X123040476Y-123169761D01*
X123040476Y-123169761D02*
X123135714Y-123265000D01*
X123135714Y-123265000D02*
X123230952Y-123312619D01*
X123230952Y-123312619D02*
X123421428Y-123312619D01*
X122611904Y-122407857D02*
X122564285Y-122360238D01*
X122564285Y-122360238D02*
X122469047Y-122312619D01*
X122469047Y-122312619D02*
X122230952Y-122312619D01*
X122230952Y-122312619D02*
X122135714Y-122360238D01*
X122135714Y-122360238D02*
X122088095Y-122407857D01*
X122088095Y-122407857D02*
X122040476Y-122503095D01*
X122040476Y-122503095D02*
X122040476Y-122598333D01*
X122040476Y-122598333D02*
X122088095Y-122741190D01*
X122088095Y-122741190D02*
X122659523Y-123312619D01*
X122659523Y-123312619D02*
X122040476Y-123312619D01*
%TO.C,C7*%
X173917380Y-113233333D02*
X173965000Y-113185714D01*
X173965000Y-113185714D02*
X174012619Y-113042857D01*
X174012619Y-113042857D02*
X174012619Y-112947619D01*
X174012619Y-112947619D02*
X173965000Y-112804762D01*
X173965000Y-112804762D02*
X173869761Y-112709524D01*
X173869761Y-112709524D02*
X173774523Y-112661905D01*
X173774523Y-112661905D02*
X173584047Y-112614286D01*
X173584047Y-112614286D02*
X173441190Y-112614286D01*
X173441190Y-112614286D02*
X173250714Y-112661905D01*
X173250714Y-112661905D02*
X173155476Y-112709524D01*
X173155476Y-112709524D02*
X173060238Y-112804762D01*
X173060238Y-112804762D02*
X173012619Y-112947619D01*
X173012619Y-112947619D02*
X173012619Y-113042857D01*
X173012619Y-113042857D02*
X173060238Y-113185714D01*
X173060238Y-113185714D02*
X173107857Y-113233333D01*
X173012619Y-113566667D02*
X173012619Y-114233333D01*
X173012619Y-114233333D02*
X174012619Y-113804762D01*
%TO.C,C50*%
X182167380Y-58507142D02*
X182215000Y-58459523D01*
X182215000Y-58459523D02*
X182262619Y-58316666D01*
X182262619Y-58316666D02*
X182262619Y-58221428D01*
X182262619Y-58221428D02*
X182215000Y-58078571D01*
X182215000Y-58078571D02*
X182119761Y-57983333D01*
X182119761Y-57983333D02*
X182024523Y-57935714D01*
X182024523Y-57935714D02*
X181834047Y-57888095D01*
X181834047Y-57888095D02*
X181691190Y-57888095D01*
X181691190Y-57888095D02*
X181500714Y-57935714D01*
X181500714Y-57935714D02*
X181405476Y-57983333D01*
X181405476Y-57983333D02*
X181310238Y-58078571D01*
X181310238Y-58078571D02*
X181262619Y-58221428D01*
X181262619Y-58221428D02*
X181262619Y-58316666D01*
X181262619Y-58316666D02*
X181310238Y-58459523D01*
X181310238Y-58459523D02*
X181357857Y-58507142D01*
X181262619Y-59411904D02*
X181262619Y-58935714D01*
X181262619Y-58935714D02*
X181738809Y-58888095D01*
X181738809Y-58888095D02*
X181691190Y-58935714D01*
X181691190Y-58935714D02*
X181643571Y-59030952D01*
X181643571Y-59030952D02*
X181643571Y-59269047D01*
X181643571Y-59269047D02*
X181691190Y-59364285D01*
X181691190Y-59364285D02*
X181738809Y-59411904D01*
X181738809Y-59411904D02*
X181834047Y-59459523D01*
X181834047Y-59459523D02*
X182072142Y-59459523D01*
X182072142Y-59459523D02*
X182167380Y-59411904D01*
X182167380Y-59411904D02*
X182215000Y-59364285D01*
X182215000Y-59364285D02*
X182262619Y-59269047D01*
X182262619Y-59269047D02*
X182262619Y-59030952D01*
X182262619Y-59030952D02*
X182215000Y-58935714D01*
X182215000Y-58935714D02*
X182167380Y-58888095D01*
X181262619Y-60078571D02*
X181262619Y-60173809D01*
X181262619Y-60173809D02*
X181310238Y-60269047D01*
X181310238Y-60269047D02*
X181357857Y-60316666D01*
X181357857Y-60316666D02*
X181453095Y-60364285D01*
X181453095Y-60364285D02*
X181643571Y-60411904D01*
X181643571Y-60411904D02*
X181881666Y-60411904D01*
X181881666Y-60411904D02*
X182072142Y-60364285D01*
X182072142Y-60364285D02*
X182167380Y-60316666D01*
X182167380Y-60316666D02*
X182215000Y-60269047D01*
X182215000Y-60269047D02*
X182262619Y-60173809D01*
X182262619Y-60173809D02*
X182262619Y-60078571D01*
X182262619Y-60078571D02*
X182215000Y-59983333D01*
X182215000Y-59983333D02*
X182167380Y-59935714D01*
X182167380Y-59935714D02*
X182072142Y-59888095D01*
X182072142Y-59888095D02*
X181881666Y-59840476D01*
X181881666Y-59840476D02*
X181643571Y-59840476D01*
X181643571Y-59840476D02*
X181453095Y-59888095D01*
X181453095Y-59888095D02*
X181357857Y-59935714D01*
X181357857Y-59935714D02*
X181310238Y-59983333D01*
X181310238Y-59983333D02*
X181262619Y-60078571D01*
%TO.C,R6*%
X182054166Y-78212619D02*
X182387499Y-77736428D01*
X182625594Y-78212619D02*
X182625594Y-77212619D01*
X182625594Y-77212619D02*
X182244642Y-77212619D01*
X182244642Y-77212619D02*
X182149404Y-77260238D01*
X182149404Y-77260238D02*
X182101785Y-77307857D01*
X182101785Y-77307857D02*
X182054166Y-77403095D01*
X182054166Y-77403095D02*
X182054166Y-77545952D01*
X182054166Y-77545952D02*
X182101785Y-77641190D01*
X182101785Y-77641190D02*
X182149404Y-77688809D01*
X182149404Y-77688809D02*
X182244642Y-77736428D01*
X182244642Y-77736428D02*
X182625594Y-77736428D01*
X181197023Y-77212619D02*
X181387499Y-77212619D01*
X181387499Y-77212619D02*
X181482737Y-77260238D01*
X181482737Y-77260238D02*
X181530356Y-77307857D01*
X181530356Y-77307857D02*
X181625594Y-77450714D01*
X181625594Y-77450714D02*
X181673213Y-77641190D01*
X181673213Y-77641190D02*
X181673213Y-78022142D01*
X181673213Y-78022142D02*
X181625594Y-78117380D01*
X181625594Y-78117380D02*
X181577975Y-78165000D01*
X181577975Y-78165000D02*
X181482737Y-78212619D01*
X181482737Y-78212619D02*
X181292261Y-78212619D01*
X181292261Y-78212619D02*
X181197023Y-78165000D01*
X181197023Y-78165000D02*
X181149404Y-78117380D01*
X181149404Y-78117380D02*
X181101785Y-78022142D01*
X181101785Y-78022142D02*
X181101785Y-77784047D01*
X181101785Y-77784047D02*
X181149404Y-77688809D01*
X181149404Y-77688809D02*
X181197023Y-77641190D01*
X181197023Y-77641190D02*
X181292261Y-77593571D01*
X181292261Y-77593571D02*
X181482737Y-77593571D01*
X181482737Y-77593571D02*
X181577975Y-77641190D01*
X181577975Y-77641190D02*
X181625594Y-77688809D01*
X181625594Y-77688809D02*
X181673213Y-77784047D01*
%TO.C,R96*%
X205562619Y-86657142D02*
X205086428Y-86323809D01*
X205562619Y-86085714D02*
X204562619Y-86085714D01*
X204562619Y-86085714D02*
X204562619Y-86466666D01*
X204562619Y-86466666D02*
X204610238Y-86561904D01*
X204610238Y-86561904D02*
X204657857Y-86609523D01*
X204657857Y-86609523D02*
X204753095Y-86657142D01*
X204753095Y-86657142D02*
X204895952Y-86657142D01*
X204895952Y-86657142D02*
X204991190Y-86609523D01*
X204991190Y-86609523D02*
X205038809Y-86561904D01*
X205038809Y-86561904D02*
X205086428Y-86466666D01*
X205086428Y-86466666D02*
X205086428Y-86085714D01*
X205562619Y-87133333D02*
X205562619Y-87323809D01*
X205562619Y-87323809D02*
X205515000Y-87419047D01*
X205515000Y-87419047D02*
X205467380Y-87466666D01*
X205467380Y-87466666D02*
X205324523Y-87561904D01*
X205324523Y-87561904D02*
X205134047Y-87609523D01*
X205134047Y-87609523D02*
X204753095Y-87609523D01*
X204753095Y-87609523D02*
X204657857Y-87561904D01*
X204657857Y-87561904D02*
X204610238Y-87514285D01*
X204610238Y-87514285D02*
X204562619Y-87419047D01*
X204562619Y-87419047D02*
X204562619Y-87228571D01*
X204562619Y-87228571D02*
X204610238Y-87133333D01*
X204610238Y-87133333D02*
X204657857Y-87085714D01*
X204657857Y-87085714D02*
X204753095Y-87038095D01*
X204753095Y-87038095D02*
X204991190Y-87038095D01*
X204991190Y-87038095D02*
X205086428Y-87085714D01*
X205086428Y-87085714D02*
X205134047Y-87133333D01*
X205134047Y-87133333D02*
X205181666Y-87228571D01*
X205181666Y-87228571D02*
X205181666Y-87419047D01*
X205181666Y-87419047D02*
X205134047Y-87514285D01*
X205134047Y-87514285D02*
X205086428Y-87561904D01*
X205086428Y-87561904D02*
X204991190Y-87609523D01*
X204562619Y-88466666D02*
X204562619Y-88276190D01*
X204562619Y-88276190D02*
X204610238Y-88180952D01*
X204610238Y-88180952D02*
X204657857Y-88133333D01*
X204657857Y-88133333D02*
X204800714Y-88038095D01*
X204800714Y-88038095D02*
X204991190Y-87990476D01*
X204991190Y-87990476D02*
X205372142Y-87990476D01*
X205372142Y-87990476D02*
X205467380Y-88038095D01*
X205467380Y-88038095D02*
X205515000Y-88085714D01*
X205515000Y-88085714D02*
X205562619Y-88180952D01*
X205562619Y-88180952D02*
X205562619Y-88371428D01*
X205562619Y-88371428D02*
X205515000Y-88466666D01*
X205515000Y-88466666D02*
X205467380Y-88514285D01*
X205467380Y-88514285D02*
X205372142Y-88561904D01*
X205372142Y-88561904D02*
X205134047Y-88561904D01*
X205134047Y-88561904D02*
X205038809Y-88514285D01*
X205038809Y-88514285D02*
X204991190Y-88466666D01*
X204991190Y-88466666D02*
X204943571Y-88371428D01*
X204943571Y-88371428D02*
X204943571Y-88180952D01*
X204943571Y-88180952D02*
X204991190Y-88085714D01*
X204991190Y-88085714D02*
X205038809Y-88038095D01*
X205038809Y-88038095D02*
X205134047Y-87990476D01*
%TO.C,L2*%
X151962619Y-110383333D02*
X151962619Y-109907143D01*
X151962619Y-109907143D02*
X150962619Y-109907143D01*
X151057857Y-110669048D02*
X151010238Y-110716667D01*
X151010238Y-110716667D02*
X150962619Y-110811905D01*
X150962619Y-110811905D02*
X150962619Y-111050000D01*
X150962619Y-111050000D02*
X151010238Y-111145238D01*
X151010238Y-111145238D02*
X151057857Y-111192857D01*
X151057857Y-111192857D02*
X151153095Y-111240476D01*
X151153095Y-111240476D02*
X151248333Y-111240476D01*
X151248333Y-111240476D02*
X151391190Y-111192857D01*
X151391190Y-111192857D02*
X151962619Y-110621429D01*
X151962619Y-110621429D02*
X151962619Y-111240476D01*
%TO.C,R90*%
X205462619Y-136607142D02*
X204986428Y-136273809D01*
X205462619Y-136035714D02*
X204462619Y-136035714D01*
X204462619Y-136035714D02*
X204462619Y-136416666D01*
X204462619Y-136416666D02*
X204510238Y-136511904D01*
X204510238Y-136511904D02*
X204557857Y-136559523D01*
X204557857Y-136559523D02*
X204653095Y-136607142D01*
X204653095Y-136607142D02*
X204795952Y-136607142D01*
X204795952Y-136607142D02*
X204891190Y-136559523D01*
X204891190Y-136559523D02*
X204938809Y-136511904D01*
X204938809Y-136511904D02*
X204986428Y-136416666D01*
X204986428Y-136416666D02*
X204986428Y-136035714D01*
X205462619Y-137083333D02*
X205462619Y-137273809D01*
X205462619Y-137273809D02*
X205415000Y-137369047D01*
X205415000Y-137369047D02*
X205367380Y-137416666D01*
X205367380Y-137416666D02*
X205224523Y-137511904D01*
X205224523Y-137511904D02*
X205034047Y-137559523D01*
X205034047Y-137559523D02*
X204653095Y-137559523D01*
X204653095Y-137559523D02*
X204557857Y-137511904D01*
X204557857Y-137511904D02*
X204510238Y-137464285D01*
X204510238Y-137464285D02*
X204462619Y-137369047D01*
X204462619Y-137369047D02*
X204462619Y-137178571D01*
X204462619Y-137178571D02*
X204510238Y-137083333D01*
X204510238Y-137083333D02*
X204557857Y-137035714D01*
X204557857Y-137035714D02*
X204653095Y-136988095D01*
X204653095Y-136988095D02*
X204891190Y-136988095D01*
X204891190Y-136988095D02*
X204986428Y-137035714D01*
X204986428Y-137035714D02*
X205034047Y-137083333D01*
X205034047Y-137083333D02*
X205081666Y-137178571D01*
X205081666Y-137178571D02*
X205081666Y-137369047D01*
X205081666Y-137369047D02*
X205034047Y-137464285D01*
X205034047Y-137464285D02*
X204986428Y-137511904D01*
X204986428Y-137511904D02*
X204891190Y-137559523D01*
X204462619Y-138178571D02*
X204462619Y-138273809D01*
X204462619Y-138273809D02*
X204510238Y-138369047D01*
X204510238Y-138369047D02*
X204557857Y-138416666D01*
X204557857Y-138416666D02*
X204653095Y-138464285D01*
X204653095Y-138464285D02*
X204843571Y-138511904D01*
X204843571Y-138511904D02*
X205081666Y-138511904D01*
X205081666Y-138511904D02*
X205272142Y-138464285D01*
X205272142Y-138464285D02*
X205367380Y-138416666D01*
X205367380Y-138416666D02*
X205415000Y-138369047D01*
X205415000Y-138369047D02*
X205462619Y-138273809D01*
X205462619Y-138273809D02*
X205462619Y-138178571D01*
X205462619Y-138178571D02*
X205415000Y-138083333D01*
X205415000Y-138083333D02*
X205367380Y-138035714D01*
X205367380Y-138035714D02*
X205272142Y-137988095D01*
X205272142Y-137988095D02*
X205081666Y-137940476D01*
X205081666Y-137940476D02*
X204843571Y-137940476D01*
X204843571Y-137940476D02*
X204653095Y-137988095D01*
X204653095Y-137988095D02*
X204557857Y-138035714D01*
X204557857Y-138035714D02*
X204510238Y-138083333D01*
X204510238Y-138083333D02*
X204462619Y-138178571D01*
%TO.C,R28*%
X177912619Y-112407142D02*
X177436428Y-112073809D01*
X177912619Y-111835714D02*
X176912619Y-111835714D01*
X176912619Y-111835714D02*
X176912619Y-112216666D01*
X176912619Y-112216666D02*
X176960238Y-112311904D01*
X176960238Y-112311904D02*
X177007857Y-112359523D01*
X177007857Y-112359523D02*
X177103095Y-112407142D01*
X177103095Y-112407142D02*
X177245952Y-112407142D01*
X177245952Y-112407142D02*
X177341190Y-112359523D01*
X177341190Y-112359523D02*
X177388809Y-112311904D01*
X177388809Y-112311904D02*
X177436428Y-112216666D01*
X177436428Y-112216666D02*
X177436428Y-111835714D01*
X177007857Y-112788095D02*
X176960238Y-112835714D01*
X176960238Y-112835714D02*
X176912619Y-112930952D01*
X176912619Y-112930952D02*
X176912619Y-113169047D01*
X176912619Y-113169047D02*
X176960238Y-113264285D01*
X176960238Y-113264285D02*
X177007857Y-113311904D01*
X177007857Y-113311904D02*
X177103095Y-113359523D01*
X177103095Y-113359523D02*
X177198333Y-113359523D01*
X177198333Y-113359523D02*
X177341190Y-113311904D01*
X177341190Y-113311904D02*
X177912619Y-112740476D01*
X177912619Y-112740476D02*
X177912619Y-113359523D01*
X177341190Y-113930952D02*
X177293571Y-113835714D01*
X177293571Y-113835714D02*
X177245952Y-113788095D01*
X177245952Y-113788095D02*
X177150714Y-113740476D01*
X177150714Y-113740476D02*
X177103095Y-113740476D01*
X177103095Y-113740476D02*
X177007857Y-113788095D01*
X177007857Y-113788095D02*
X176960238Y-113835714D01*
X176960238Y-113835714D02*
X176912619Y-113930952D01*
X176912619Y-113930952D02*
X176912619Y-114121428D01*
X176912619Y-114121428D02*
X176960238Y-114216666D01*
X176960238Y-114216666D02*
X177007857Y-114264285D01*
X177007857Y-114264285D02*
X177103095Y-114311904D01*
X177103095Y-114311904D02*
X177150714Y-114311904D01*
X177150714Y-114311904D02*
X177245952Y-114264285D01*
X177245952Y-114264285D02*
X177293571Y-114216666D01*
X177293571Y-114216666D02*
X177341190Y-114121428D01*
X177341190Y-114121428D02*
X177341190Y-113930952D01*
X177341190Y-113930952D02*
X177388809Y-113835714D01*
X177388809Y-113835714D02*
X177436428Y-113788095D01*
X177436428Y-113788095D02*
X177531666Y-113740476D01*
X177531666Y-113740476D02*
X177722142Y-113740476D01*
X177722142Y-113740476D02*
X177817380Y-113788095D01*
X177817380Y-113788095D02*
X177865000Y-113835714D01*
X177865000Y-113835714D02*
X177912619Y-113930952D01*
X177912619Y-113930952D02*
X177912619Y-114121428D01*
X177912619Y-114121428D02*
X177865000Y-114216666D01*
X177865000Y-114216666D02*
X177817380Y-114264285D01*
X177817380Y-114264285D02*
X177722142Y-114311904D01*
X177722142Y-114311904D02*
X177531666Y-114311904D01*
X177531666Y-114311904D02*
X177436428Y-114264285D01*
X177436428Y-114264285D02*
X177388809Y-114216666D01*
X177388809Y-114216666D02*
X177341190Y-114121428D01*
%TO.C,R37*%
X160562619Y-119157142D02*
X160086428Y-118823809D01*
X160562619Y-118585714D02*
X159562619Y-118585714D01*
X159562619Y-118585714D02*
X159562619Y-118966666D01*
X159562619Y-118966666D02*
X159610238Y-119061904D01*
X159610238Y-119061904D02*
X159657857Y-119109523D01*
X159657857Y-119109523D02*
X159753095Y-119157142D01*
X159753095Y-119157142D02*
X159895952Y-119157142D01*
X159895952Y-119157142D02*
X159991190Y-119109523D01*
X159991190Y-119109523D02*
X160038809Y-119061904D01*
X160038809Y-119061904D02*
X160086428Y-118966666D01*
X160086428Y-118966666D02*
X160086428Y-118585714D01*
X159562619Y-119490476D02*
X159562619Y-120109523D01*
X159562619Y-120109523D02*
X159943571Y-119776190D01*
X159943571Y-119776190D02*
X159943571Y-119919047D01*
X159943571Y-119919047D02*
X159991190Y-120014285D01*
X159991190Y-120014285D02*
X160038809Y-120061904D01*
X160038809Y-120061904D02*
X160134047Y-120109523D01*
X160134047Y-120109523D02*
X160372142Y-120109523D01*
X160372142Y-120109523D02*
X160467380Y-120061904D01*
X160467380Y-120061904D02*
X160515000Y-120014285D01*
X160515000Y-120014285D02*
X160562619Y-119919047D01*
X160562619Y-119919047D02*
X160562619Y-119633333D01*
X160562619Y-119633333D02*
X160515000Y-119538095D01*
X160515000Y-119538095D02*
X160467380Y-119490476D01*
X159562619Y-120442857D02*
X159562619Y-121109523D01*
X159562619Y-121109523D02*
X160562619Y-120680952D01*
%TO.C,C3*%
X157766666Y-123467380D02*
X157814285Y-123515000D01*
X157814285Y-123515000D02*
X157957142Y-123562619D01*
X157957142Y-123562619D02*
X158052380Y-123562619D01*
X158052380Y-123562619D02*
X158195237Y-123515000D01*
X158195237Y-123515000D02*
X158290475Y-123419761D01*
X158290475Y-123419761D02*
X158338094Y-123324523D01*
X158338094Y-123324523D02*
X158385713Y-123134047D01*
X158385713Y-123134047D02*
X158385713Y-122991190D01*
X158385713Y-122991190D02*
X158338094Y-122800714D01*
X158338094Y-122800714D02*
X158290475Y-122705476D01*
X158290475Y-122705476D02*
X158195237Y-122610238D01*
X158195237Y-122610238D02*
X158052380Y-122562619D01*
X158052380Y-122562619D02*
X157957142Y-122562619D01*
X157957142Y-122562619D02*
X157814285Y-122610238D01*
X157814285Y-122610238D02*
X157766666Y-122657857D01*
X157433332Y-122562619D02*
X156814285Y-122562619D01*
X156814285Y-122562619D02*
X157147618Y-122943571D01*
X157147618Y-122943571D02*
X157004761Y-122943571D01*
X157004761Y-122943571D02*
X156909523Y-122991190D01*
X156909523Y-122991190D02*
X156861904Y-123038809D01*
X156861904Y-123038809D02*
X156814285Y-123134047D01*
X156814285Y-123134047D02*
X156814285Y-123372142D01*
X156814285Y-123372142D02*
X156861904Y-123467380D01*
X156861904Y-123467380D02*
X156909523Y-123515000D01*
X156909523Y-123515000D02*
X157004761Y-123562619D01*
X157004761Y-123562619D02*
X157290475Y-123562619D01*
X157290475Y-123562619D02*
X157385713Y-123515000D01*
X157385713Y-123515000D02*
X157433332Y-123467380D01*
%TO.C,U2*%
X172611904Y-109262619D02*
X172611904Y-110072142D01*
X172611904Y-110072142D02*
X172564285Y-110167380D01*
X172564285Y-110167380D02*
X172516666Y-110215000D01*
X172516666Y-110215000D02*
X172421428Y-110262619D01*
X172421428Y-110262619D02*
X172230952Y-110262619D01*
X172230952Y-110262619D02*
X172135714Y-110215000D01*
X172135714Y-110215000D02*
X172088095Y-110167380D01*
X172088095Y-110167380D02*
X172040476Y-110072142D01*
X172040476Y-110072142D02*
X172040476Y-109262619D01*
X171611904Y-109357857D02*
X171564285Y-109310238D01*
X171564285Y-109310238D02*
X171469047Y-109262619D01*
X171469047Y-109262619D02*
X171230952Y-109262619D01*
X171230952Y-109262619D02*
X171135714Y-109310238D01*
X171135714Y-109310238D02*
X171088095Y-109357857D01*
X171088095Y-109357857D02*
X171040476Y-109453095D01*
X171040476Y-109453095D02*
X171040476Y-109548333D01*
X171040476Y-109548333D02*
X171088095Y-109691190D01*
X171088095Y-109691190D02*
X171659523Y-110262619D01*
X171659523Y-110262619D02*
X171040476Y-110262619D01*
%TO.C,R32*%
X158842857Y-141992619D02*
X159176190Y-141516428D01*
X159414285Y-141992619D02*
X159414285Y-140992619D01*
X159414285Y-140992619D02*
X159033333Y-140992619D01*
X159033333Y-140992619D02*
X158938095Y-141040238D01*
X158938095Y-141040238D02*
X158890476Y-141087857D01*
X158890476Y-141087857D02*
X158842857Y-141183095D01*
X158842857Y-141183095D02*
X158842857Y-141325952D01*
X158842857Y-141325952D02*
X158890476Y-141421190D01*
X158890476Y-141421190D02*
X158938095Y-141468809D01*
X158938095Y-141468809D02*
X159033333Y-141516428D01*
X159033333Y-141516428D02*
X159414285Y-141516428D01*
X158509523Y-140992619D02*
X157890476Y-140992619D01*
X157890476Y-140992619D02*
X158223809Y-141373571D01*
X158223809Y-141373571D02*
X158080952Y-141373571D01*
X158080952Y-141373571D02*
X157985714Y-141421190D01*
X157985714Y-141421190D02*
X157938095Y-141468809D01*
X157938095Y-141468809D02*
X157890476Y-141564047D01*
X157890476Y-141564047D02*
X157890476Y-141802142D01*
X157890476Y-141802142D02*
X157938095Y-141897380D01*
X157938095Y-141897380D02*
X157985714Y-141945000D01*
X157985714Y-141945000D02*
X158080952Y-141992619D01*
X158080952Y-141992619D02*
X158366666Y-141992619D01*
X158366666Y-141992619D02*
X158461904Y-141945000D01*
X158461904Y-141945000D02*
X158509523Y-141897380D01*
X157509523Y-141087857D02*
X157461904Y-141040238D01*
X157461904Y-141040238D02*
X157366666Y-140992619D01*
X157366666Y-140992619D02*
X157128571Y-140992619D01*
X157128571Y-140992619D02*
X157033333Y-141040238D01*
X157033333Y-141040238D02*
X156985714Y-141087857D01*
X156985714Y-141087857D02*
X156938095Y-141183095D01*
X156938095Y-141183095D02*
X156938095Y-141278333D01*
X156938095Y-141278333D02*
X156985714Y-141421190D01*
X156985714Y-141421190D02*
X157557142Y-141992619D01*
X157557142Y-141992619D02*
X156938095Y-141992619D01*
%TO.C,R7*%
X179366666Y-74712619D02*
X179699999Y-74236428D01*
X179938094Y-74712619D02*
X179938094Y-73712619D01*
X179938094Y-73712619D02*
X179557142Y-73712619D01*
X179557142Y-73712619D02*
X179461904Y-73760238D01*
X179461904Y-73760238D02*
X179414285Y-73807857D01*
X179414285Y-73807857D02*
X179366666Y-73903095D01*
X179366666Y-73903095D02*
X179366666Y-74045952D01*
X179366666Y-74045952D02*
X179414285Y-74141190D01*
X179414285Y-74141190D02*
X179461904Y-74188809D01*
X179461904Y-74188809D02*
X179557142Y-74236428D01*
X179557142Y-74236428D02*
X179938094Y-74236428D01*
X179033332Y-73712619D02*
X178366666Y-73712619D01*
X178366666Y-73712619D02*
X178795237Y-74712619D01*
%TO.C,R15*%
X176692857Y-119712619D02*
X177026190Y-119236428D01*
X177264285Y-119712619D02*
X177264285Y-118712619D01*
X177264285Y-118712619D02*
X176883333Y-118712619D01*
X176883333Y-118712619D02*
X176788095Y-118760238D01*
X176788095Y-118760238D02*
X176740476Y-118807857D01*
X176740476Y-118807857D02*
X176692857Y-118903095D01*
X176692857Y-118903095D02*
X176692857Y-119045952D01*
X176692857Y-119045952D02*
X176740476Y-119141190D01*
X176740476Y-119141190D02*
X176788095Y-119188809D01*
X176788095Y-119188809D02*
X176883333Y-119236428D01*
X176883333Y-119236428D02*
X177264285Y-119236428D01*
X175740476Y-119712619D02*
X176311904Y-119712619D01*
X176026190Y-119712619D02*
X176026190Y-118712619D01*
X176026190Y-118712619D02*
X176121428Y-118855476D01*
X176121428Y-118855476D02*
X176216666Y-118950714D01*
X176216666Y-118950714D02*
X176311904Y-118998333D01*
X174835714Y-118712619D02*
X175311904Y-118712619D01*
X175311904Y-118712619D02*
X175359523Y-119188809D01*
X175359523Y-119188809D02*
X175311904Y-119141190D01*
X175311904Y-119141190D02*
X175216666Y-119093571D01*
X175216666Y-119093571D02*
X174978571Y-119093571D01*
X174978571Y-119093571D02*
X174883333Y-119141190D01*
X174883333Y-119141190D02*
X174835714Y-119188809D01*
X174835714Y-119188809D02*
X174788095Y-119284047D01*
X174788095Y-119284047D02*
X174788095Y-119522142D01*
X174788095Y-119522142D02*
X174835714Y-119617380D01*
X174835714Y-119617380D02*
X174883333Y-119665000D01*
X174883333Y-119665000D02*
X174978571Y-119712619D01*
X174978571Y-119712619D02*
X175216666Y-119712619D01*
X175216666Y-119712619D02*
X175311904Y-119665000D01*
X175311904Y-119665000D02*
X175359523Y-119617380D01*
%TO.C,R10*%
X130630357Y-145312619D02*
X130963690Y-144836428D01*
X131201785Y-145312619D02*
X131201785Y-144312619D01*
X131201785Y-144312619D02*
X130820833Y-144312619D01*
X130820833Y-144312619D02*
X130725595Y-144360238D01*
X130725595Y-144360238D02*
X130677976Y-144407857D01*
X130677976Y-144407857D02*
X130630357Y-144503095D01*
X130630357Y-144503095D02*
X130630357Y-144645952D01*
X130630357Y-144645952D02*
X130677976Y-144741190D01*
X130677976Y-144741190D02*
X130725595Y-144788809D01*
X130725595Y-144788809D02*
X130820833Y-144836428D01*
X130820833Y-144836428D02*
X131201785Y-144836428D01*
X129677976Y-145312619D02*
X130249404Y-145312619D01*
X129963690Y-145312619D02*
X129963690Y-144312619D01*
X129963690Y-144312619D02*
X130058928Y-144455476D01*
X130058928Y-144455476D02*
X130154166Y-144550714D01*
X130154166Y-144550714D02*
X130249404Y-144598333D01*
X129058928Y-144312619D02*
X128963690Y-144312619D01*
X128963690Y-144312619D02*
X128868452Y-144360238D01*
X128868452Y-144360238D02*
X128820833Y-144407857D01*
X128820833Y-144407857D02*
X128773214Y-144503095D01*
X128773214Y-144503095D02*
X128725595Y-144693571D01*
X128725595Y-144693571D02*
X128725595Y-144931666D01*
X128725595Y-144931666D02*
X128773214Y-145122142D01*
X128773214Y-145122142D02*
X128820833Y-145217380D01*
X128820833Y-145217380D02*
X128868452Y-145265000D01*
X128868452Y-145265000D02*
X128963690Y-145312619D01*
X128963690Y-145312619D02*
X129058928Y-145312619D01*
X129058928Y-145312619D02*
X129154166Y-145265000D01*
X129154166Y-145265000D02*
X129201785Y-145217380D01*
X129201785Y-145217380D02*
X129249404Y-145122142D01*
X129249404Y-145122142D02*
X129297023Y-144931666D01*
X129297023Y-144931666D02*
X129297023Y-144693571D01*
X129297023Y-144693571D02*
X129249404Y-144503095D01*
X129249404Y-144503095D02*
X129201785Y-144407857D01*
X129201785Y-144407857D02*
X129154166Y-144360238D01*
X129154166Y-144360238D02*
X129058928Y-144312619D01*
%TO.C,R19*%
X145142619Y-137657142D02*
X144666428Y-137323809D01*
X145142619Y-137085714D02*
X144142619Y-137085714D01*
X144142619Y-137085714D02*
X144142619Y-137466666D01*
X144142619Y-137466666D02*
X144190238Y-137561904D01*
X144190238Y-137561904D02*
X144237857Y-137609523D01*
X144237857Y-137609523D02*
X144333095Y-137657142D01*
X144333095Y-137657142D02*
X144475952Y-137657142D01*
X144475952Y-137657142D02*
X144571190Y-137609523D01*
X144571190Y-137609523D02*
X144618809Y-137561904D01*
X144618809Y-137561904D02*
X144666428Y-137466666D01*
X144666428Y-137466666D02*
X144666428Y-137085714D01*
X145142619Y-138609523D02*
X145142619Y-138038095D01*
X145142619Y-138323809D02*
X144142619Y-138323809D01*
X144142619Y-138323809D02*
X144285476Y-138228571D01*
X144285476Y-138228571D02*
X144380714Y-138133333D01*
X144380714Y-138133333D02*
X144428333Y-138038095D01*
X145142619Y-139085714D02*
X145142619Y-139276190D01*
X145142619Y-139276190D02*
X145095000Y-139371428D01*
X145095000Y-139371428D02*
X145047380Y-139419047D01*
X145047380Y-139419047D02*
X144904523Y-139514285D01*
X144904523Y-139514285D02*
X144714047Y-139561904D01*
X144714047Y-139561904D02*
X144333095Y-139561904D01*
X144333095Y-139561904D02*
X144237857Y-139514285D01*
X144237857Y-139514285D02*
X144190238Y-139466666D01*
X144190238Y-139466666D02*
X144142619Y-139371428D01*
X144142619Y-139371428D02*
X144142619Y-139180952D01*
X144142619Y-139180952D02*
X144190238Y-139085714D01*
X144190238Y-139085714D02*
X144237857Y-139038095D01*
X144237857Y-139038095D02*
X144333095Y-138990476D01*
X144333095Y-138990476D02*
X144571190Y-138990476D01*
X144571190Y-138990476D02*
X144666428Y-139038095D01*
X144666428Y-139038095D02*
X144714047Y-139085714D01*
X144714047Y-139085714D02*
X144761666Y-139180952D01*
X144761666Y-139180952D02*
X144761666Y-139371428D01*
X144761666Y-139371428D02*
X144714047Y-139466666D01*
X144714047Y-139466666D02*
X144666428Y-139514285D01*
X144666428Y-139514285D02*
X144571190Y-139561904D01*
%TO.C,R35*%
X160812619Y-112562142D02*
X160336428Y-112228809D01*
X160812619Y-111990714D02*
X159812619Y-111990714D01*
X159812619Y-111990714D02*
X159812619Y-112371666D01*
X159812619Y-112371666D02*
X159860238Y-112466904D01*
X159860238Y-112466904D02*
X159907857Y-112514523D01*
X159907857Y-112514523D02*
X160003095Y-112562142D01*
X160003095Y-112562142D02*
X160145952Y-112562142D01*
X160145952Y-112562142D02*
X160241190Y-112514523D01*
X160241190Y-112514523D02*
X160288809Y-112466904D01*
X160288809Y-112466904D02*
X160336428Y-112371666D01*
X160336428Y-112371666D02*
X160336428Y-111990714D01*
X159812619Y-112895476D02*
X159812619Y-113514523D01*
X159812619Y-113514523D02*
X160193571Y-113181190D01*
X160193571Y-113181190D02*
X160193571Y-113324047D01*
X160193571Y-113324047D02*
X160241190Y-113419285D01*
X160241190Y-113419285D02*
X160288809Y-113466904D01*
X160288809Y-113466904D02*
X160384047Y-113514523D01*
X160384047Y-113514523D02*
X160622142Y-113514523D01*
X160622142Y-113514523D02*
X160717380Y-113466904D01*
X160717380Y-113466904D02*
X160765000Y-113419285D01*
X160765000Y-113419285D02*
X160812619Y-113324047D01*
X160812619Y-113324047D02*
X160812619Y-113038333D01*
X160812619Y-113038333D02*
X160765000Y-112943095D01*
X160765000Y-112943095D02*
X160717380Y-112895476D01*
X159812619Y-114419285D02*
X159812619Y-113943095D01*
X159812619Y-113943095D02*
X160288809Y-113895476D01*
X160288809Y-113895476D02*
X160241190Y-113943095D01*
X160241190Y-113943095D02*
X160193571Y-114038333D01*
X160193571Y-114038333D02*
X160193571Y-114276428D01*
X160193571Y-114276428D02*
X160241190Y-114371666D01*
X160241190Y-114371666D02*
X160288809Y-114419285D01*
X160288809Y-114419285D02*
X160384047Y-114466904D01*
X160384047Y-114466904D02*
X160622142Y-114466904D01*
X160622142Y-114466904D02*
X160717380Y-114419285D01*
X160717380Y-114419285D02*
X160765000Y-114371666D01*
X160765000Y-114371666D02*
X160812619Y-114276428D01*
X160812619Y-114276428D02*
X160812619Y-114038333D01*
X160812619Y-114038333D02*
X160765000Y-113943095D01*
X160765000Y-113943095D02*
X160717380Y-113895476D01*
%TO.C,U6*%
X142661904Y-115212619D02*
X142661904Y-116022142D01*
X142661904Y-116022142D02*
X142614285Y-116117380D01*
X142614285Y-116117380D02*
X142566666Y-116165000D01*
X142566666Y-116165000D02*
X142471428Y-116212619D01*
X142471428Y-116212619D02*
X142280952Y-116212619D01*
X142280952Y-116212619D02*
X142185714Y-116165000D01*
X142185714Y-116165000D02*
X142138095Y-116117380D01*
X142138095Y-116117380D02*
X142090476Y-116022142D01*
X142090476Y-116022142D02*
X142090476Y-115212619D01*
X141185714Y-115212619D02*
X141376190Y-115212619D01*
X141376190Y-115212619D02*
X141471428Y-115260238D01*
X141471428Y-115260238D02*
X141519047Y-115307857D01*
X141519047Y-115307857D02*
X141614285Y-115450714D01*
X141614285Y-115450714D02*
X141661904Y-115641190D01*
X141661904Y-115641190D02*
X141661904Y-116022142D01*
X141661904Y-116022142D02*
X141614285Y-116117380D01*
X141614285Y-116117380D02*
X141566666Y-116165000D01*
X141566666Y-116165000D02*
X141471428Y-116212619D01*
X141471428Y-116212619D02*
X141280952Y-116212619D01*
X141280952Y-116212619D02*
X141185714Y-116165000D01*
X141185714Y-116165000D02*
X141138095Y-116117380D01*
X141138095Y-116117380D02*
X141090476Y-116022142D01*
X141090476Y-116022142D02*
X141090476Y-115784047D01*
X141090476Y-115784047D02*
X141138095Y-115688809D01*
X141138095Y-115688809D02*
X141185714Y-115641190D01*
X141185714Y-115641190D02*
X141280952Y-115593571D01*
X141280952Y-115593571D02*
X141471428Y-115593571D01*
X141471428Y-115593571D02*
X141566666Y-115641190D01*
X141566666Y-115641190D02*
X141614285Y-115688809D01*
X141614285Y-115688809D02*
X141661904Y-115784047D01*
%TO.C,C19*%
X142392857Y-109017380D02*
X142440476Y-109065000D01*
X142440476Y-109065000D02*
X142583333Y-109112619D01*
X142583333Y-109112619D02*
X142678571Y-109112619D01*
X142678571Y-109112619D02*
X142821428Y-109065000D01*
X142821428Y-109065000D02*
X142916666Y-108969761D01*
X142916666Y-108969761D02*
X142964285Y-108874523D01*
X142964285Y-108874523D02*
X143011904Y-108684047D01*
X143011904Y-108684047D02*
X143011904Y-108541190D01*
X143011904Y-108541190D02*
X142964285Y-108350714D01*
X142964285Y-108350714D02*
X142916666Y-108255476D01*
X142916666Y-108255476D02*
X142821428Y-108160238D01*
X142821428Y-108160238D02*
X142678571Y-108112619D01*
X142678571Y-108112619D02*
X142583333Y-108112619D01*
X142583333Y-108112619D02*
X142440476Y-108160238D01*
X142440476Y-108160238D02*
X142392857Y-108207857D01*
X141440476Y-109112619D02*
X142011904Y-109112619D01*
X141726190Y-109112619D02*
X141726190Y-108112619D01*
X141726190Y-108112619D02*
X141821428Y-108255476D01*
X141821428Y-108255476D02*
X141916666Y-108350714D01*
X141916666Y-108350714D02*
X142011904Y-108398333D01*
X140964285Y-109112619D02*
X140773809Y-109112619D01*
X140773809Y-109112619D02*
X140678571Y-109065000D01*
X140678571Y-109065000D02*
X140630952Y-109017380D01*
X140630952Y-109017380D02*
X140535714Y-108874523D01*
X140535714Y-108874523D02*
X140488095Y-108684047D01*
X140488095Y-108684047D02*
X140488095Y-108303095D01*
X140488095Y-108303095D02*
X140535714Y-108207857D01*
X140535714Y-108207857D02*
X140583333Y-108160238D01*
X140583333Y-108160238D02*
X140678571Y-108112619D01*
X140678571Y-108112619D02*
X140869047Y-108112619D01*
X140869047Y-108112619D02*
X140964285Y-108160238D01*
X140964285Y-108160238D02*
X141011904Y-108207857D01*
X141011904Y-108207857D02*
X141059523Y-108303095D01*
X141059523Y-108303095D02*
X141059523Y-108541190D01*
X141059523Y-108541190D02*
X141011904Y-108636428D01*
X141011904Y-108636428D02*
X140964285Y-108684047D01*
X140964285Y-108684047D02*
X140869047Y-108731666D01*
X140869047Y-108731666D02*
X140678571Y-108731666D01*
X140678571Y-108731666D02*
X140583333Y-108684047D01*
X140583333Y-108684047D02*
X140535714Y-108636428D01*
X140535714Y-108636428D02*
X140488095Y-108541190D01*
%TO.C,R38*%
X182142857Y-129112619D02*
X182476190Y-128636428D01*
X182714285Y-129112619D02*
X182714285Y-128112619D01*
X182714285Y-128112619D02*
X182333333Y-128112619D01*
X182333333Y-128112619D02*
X182238095Y-128160238D01*
X182238095Y-128160238D02*
X182190476Y-128207857D01*
X182190476Y-128207857D02*
X182142857Y-128303095D01*
X182142857Y-128303095D02*
X182142857Y-128445952D01*
X182142857Y-128445952D02*
X182190476Y-128541190D01*
X182190476Y-128541190D02*
X182238095Y-128588809D01*
X182238095Y-128588809D02*
X182333333Y-128636428D01*
X182333333Y-128636428D02*
X182714285Y-128636428D01*
X181809523Y-128112619D02*
X181190476Y-128112619D01*
X181190476Y-128112619D02*
X181523809Y-128493571D01*
X181523809Y-128493571D02*
X181380952Y-128493571D01*
X181380952Y-128493571D02*
X181285714Y-128541190D01*
X181285714Y-128541190D02*
X181238095Y-128588809D01*
X181238095Y-128588809D02*
X181190476Y-128684047D01*
X181190476Y-128684047D02*
X181190476Y-128922142D01*
X181190476Y-128922142D02*
X181238095Y-129017380D01*
X181238095Y-129017380D02*
X181285714Y-129065000D01*
X181285714Y-129065000D02*
X181380952Y-129112619D01*
X181380952Y-129112619D02*
X181666666Y-129112619D01*
X181666666Y-129112619D02*
X181761904Y-129065000D01*
X181761904Y-129065000D02*
X181809523Y-129017380D01*
X180619047Y-128541190D02*
X180714285Y-128493571D01*
X180714285Y-128493571D02*
X180761904Y-128445952D01*
X180761904Y-128445952D02*
X180809523Y-128350714D01*
X180809523Y-128350714D02*
X180809523Y-128303095D01*
X180809523Y-128303095D02*
X180761904Y-128207857D01*
X180761904Y-128207857D02*
X180714285Y-128160238D01*
X180714285Y-128160238D02*
X180619047Y-128112619D01*
X180619047Y-128112619D02*
X180428571Y-128112619D01*
X180428571Y-128112619D02*
X180333333Y-128160238D01*
X180333333Y-128160238D02*
X180285714Y-128207857D01*
X180285714Y-128207857D02*
X180238095Y-128303095D01*
X180238095Y-128303095D02*
X180238095Y-128350714D01*
X180238095Y-128350714D02*
X180285714Y-128445952D01*
X180285714Y-128445952D02*
X180333333Y-128493571D01*
X180333333Y-128493571D02*
X180428571Y-128541190D01*
X180428571Y-128541190D02*
X180619047Y-128541190D01*
X180619047Y-128541190D02*
X180714285Y-128588809D01*
X180714285Y-128588809D02*
X180761904Y-128636428D01*
X180761904Y-128636428D02*
X180809523Y-128731666D01*
X180809523Y-128731666D02*
X180809523Y-128922142D01*
X180809523Y-128922142D02*
X180761904Y-129017380D01*
X180761904Y-129017380D02*
X180714285Y-129065000D01*
X180714285Y-129065000D02*
X180619047Y-129112619D01*
X180619047Y-129112619D02*
X180428571Y-129112619D01*
X180428571Y-129112619D02*
X180333333Y-129065000D01*
X180333333Y-129065000D02*
X180285714Y-129017380D01*
X180285714Y-129017380D02*
X180238095Y-128922142D01*
X180238095Y-128922142D02*
X180238095Y-128731666D01*
X180238095Y-128731666D02*
X180285714Y-128636428D01*
X180285714Y-128636428D02*
X180333333Y-128588809D01*
X180333333Y-128588809D02*
X180428571Y-128541190D01*
%TO.C,C9*%
X160687380Y-109533333D02*
X160735000Y-109485714D01*
X160735000Y-109485714D02*
X160782619Y-109342857D01*
X160782619Y-109342857D02*
X160782619Y-109247619D01*
X160782619Y-109247619D02*
X160735000Y-109104762D01*
X160735000Y-109104762D02*
X160639761Y-109009524D01*
X160639761Y-109009524D02*
X160544523Y-108961905D01*
X160544523Y-108961905D02*
X160354047Y-108914286D01*
X160354047Y-108914286D02*
X160211190Y-108914286D01*
X160211190Y-108914286D02*
X160020714Y-108961905D01*
X160020714Y-108961905D02*
X159925476Y-109009524D01*
X159925476Y-109009524D02*
X159830238Y-109104762D01*
X159830238Y-109104762D02*
X159782619Y-109247619D01*
X159782619Y-109247619D02*
X159782619Y-109342857D01*
X159782619Y-109342857D02*
X159830238Y-109485714D01*
X159830238Y-109485714D02*
X159877857Y-109533333D01*
X160782619Y-110009524D02*
X160782619Y-110200000D01*
X160782619Y-110200000D02*
X160735000Y-110295238D01*
X160735000Y-110295238D02*
X160687380Y-110342857D01*
X160687380Y-110342857D02*
X160544523Y-110438095D01*
X160544523Y-110438095D02*
X160354047Y-110485714D01*
X160354047Y-110485714D02*
X159973095Y-110485714D01*
X159973095Y-110485714D02*
X159877857Y-110438095D01*
X159877857Y-110438095D02*
X159830238Y-110390476D01*
X159830238Y-110390476D02*
X159782619Y-110295238D01*
X159782619Y-110295238D02*
X159782619Y-110104762D01*
X159782619Y-110104762D02*
X159830238Y-110009524D01*
X159830238Y-110009524D02*
X159877857Y-109961905D01*
X159877857Y-109961905D02*
X159973095Y-109914286D01*
X159973095Y-109914286D02*
X160211190Y-109914286D01*
X160211190Y-109914286D02*
X160306428Y-109961905D01*
X160306428Y-109961905D02*
X160354047Y-110009524D01*
X160354047Y-110009524D02*
X160401666Y-110104762D01*
X160401666Y-110104762D02*
X160401666Y-110295238D01*
X160401666Y-110295238D02*
X160354047Y-110390476D01*
X160354047Y-110390476D02*
X160306428Y-110438095D01*
X160306428Y-110438095D02*
X160211190Y-110485714D01*
%TO.C,Q5*%
X170145238Y-122957857D02*
X170240476Y-122910238D01*
X170240476Y-122910238D02*
X170335714Y-122815000D01*
X170335714Y-122815000D02*
X170478571Y-122672142D01*
X170478571Y-122672142D02*
X170573809Y-122624523D01*
X170573809Y-122624523D02*
X170669047Y-122624523D01*
X170621428Y-122862619D02*
X170716666Y-122815000D01*
X170716666Y-122815000D02*
X170811904Y-122719761D01*
X170811904Y-122719761D02*
X170859523Y-122529285D01*
X170859523Y-122529285D02*
X170859523Y-122195952D01*
X170859523Y-122195952D02*
X170811904Y-122005476D01*
X170811904Y-122005476D02*
X170716666Y-121910238D01*
X170716666Y-121910238D02*
X170621428Y-121862619D01*
X170621428Y-121862619D02*
X170430952Y-121862619D01*
X170430952Y-121862619D02*
X170335714Y-121910238D01*
X170335714Y-121910238D02*
X170240476Y-122005476D01*
X170240476Y-122005476D02*
X170192857Y-122195952D01*
X170192857Y-122195952D02*
X170192857Y-122529285D01*
X170192857Y-122529285D02*
X170240476Y-122719761D01*
X170240476Y-122719761D02*
X170335714Y-122815000D01*
X170335714Y-122815000D02*
X170430952Y-122862619D01*
X170430952Y-122862619D02*
X170621428Y-122862619D01*
X169288095Y-121862619D02*
X169764285Y-121862619D01*
X169764285Y-121862619D02*
X169811904Y-122338809D01*
X169811904Y-122338809D02*
X169764285Y-122291190D01*
X169764285Y-122291190D02*
X169669047Y-122243571D01*
X169669047Y-122243571D02*
X169430952Y-122243571D01*
X169430952Y-122243571D02*
X169335714Y-122291190D01*
X169335714Y-122291190D02*
X169288095Y-122338809D01*
X169288095Y-122338809D02*
X169240476Y-122434047D01*
X169240476Y-122434047D02*
X169240476Y-122672142D01*
X169240476Y-122672142D02*
X169288095Y-122767380D01*
X169288095Y-122767380D02*
X169335714Y-122815000D01*
X169335714Y-122815000D02*
X169430952Y-122862619D01*
X169430952Y-122862619D02*
X169669047Y-122862619D01*
X169669047Y-122862619D02*
X169764285Y-122815000D01*
X169764285Y-122815000D02*
X169811904Y-122767380D01*
D12*
%TO.C,R93*%
X199365000Y-122139564D02*
X199365000Y-121685436D01*
X200835000Y-122139564D02*
X200835000Y-121685436D01*
%TO.C,R2*%
X114035000Y-107860436D02*
X114035000Y-108314564D01*
X112565000Y-107860436D02*
X112565000Y-108314564D01*
%TO.C,JP12*%
X175150000Y-125000000D02*
X175150000Y-125600000D01*
X175850000Y-126300000D02*
X177250000Y-126300000D01*
X177250000Y-124300000D02*
X175850000Y-124300000D01*
X177950000Y-125600000D02*
X177950000Y-125000000D01*
X175850000Y-124300000D02*
G75*
G03*
X175150000Y-125000000I-1J-699999D01*
G01*
X175150000Y-125600000D02*
G75*
G03*
X175850000Y-126300000I699999J-1D01*
G01*
X177950000Y-125000000D02*
G75*
G03*
X177250000Y-124300000I-700000J0D01*
G01*
X177250000Y-126300000D02*
G75*
G03*
X177950000Y-125600000I0J700000D01*
G01*
%TO.C,C2*%
X155011252Y-125935000D02*
X154488748Y-125935000D01*
X155011252Y-124465000D02*
X154488748Y-124465000D01*
%TO.C,R94*%
X204265000Y-105139564D02*
X204265000Y-104685436D01*
X205735000Y-105139564D02*
X205735000Y-104685436D01*
%TO.C,JP9*%
X204050000Y-63500000D02*
X204050000Y-62900000D01*
X203500000Y-64700000D02*
X202900000Y-64700000D01*
X203400000Y-62200000D02*
X200600000Y-62200000D01*
X203200000Y-64400000D02*
X203500000Y-64700000D01*
X203200000Y-64400000D02*
X202900000Y-64700000D01*
X200600000Y-64200000D02*
X203400000Y-64200000D01*
X199950000Y-62900000D02*
X199950000Y-63500000D01*
X203350000Y-64200000D02*
G75*
G03*
X204050000Y-63500000I1J699999D01*
G01*
X204050000Y-62900000D02*
G75*
G03*
X203350000Y-62200000I-699999J1D01*
G01*
X199950000Y-63500000D02*
G75*
G03*
X200650000Y-64200000I700000J0D01*
G01*
X200650000Y-62200000D02*
G75*
G03*
X199950000Y-62900000I0J-700000D01*
G01*
%TO.C,C4*%
X166985000Y-106788748D02*
X166985000Y-107311252D01*
X165515000Y-106788748D02*
X165515000Y-107311252D01*
%TO.C,R95*%
X199365000Y-107639564D02*
X199365000Y-107185436D01*
X200835000Y-107639564D02*
X200835000Y-107185436D01*
%TO.C,Q1*%
X110237500Y-106590000D02*
X109587500Y-106590000D01*
X110237500Y-106590000D02*
X110887500Y-106590000D01*
X110237500Y-109710000D02*
X108562500Y-109710000D01*
X110237500Y-109710000D02*
X110887500Y-109710000D01*
%TO.C,R92*%
X204265000Y-119639564D02*
X204265000Y-119185436D01*
X205735000Y-119639564D02*
X205735000Y-119185436D01*
%TO.C,R13*%
X121535000Y-143660436D02*
X121535000Y-144114564D01*
X120065000Y-143660436D02*
X120065000Y-144114564D01*
%TO.C,C22*%
X136797500Y-112038748D02*
X136797500Y-112561252D01*
X135327500Y-112038748D02*
X135327500Y-112561252D01*
%TO.C,R91*%
X199365000Y-136639564D02*
X199365000Y-136185436D01*
X200835000Y-136639564D02*
X200835000Y-136185436D01*
%TO.C,JP3*%
X199900000Y-127750000D02*
X199300000Y-127750000D01*
X198600000Y-128450000D02*
X198600000Y-129850000D01*
X200600000Y-129850000D02*
X200600000Y-128450000D01*
X199300000Y-130550000D02*
X199900000Y-130550000D01*
X200600000Y-128450000D02*
G75*
G03*
X199900000Y-127750000I-699999J1D01*
G01*
X199300000Y-127750000D02*
G75*
G03*
X198600000Y-128450000I-1J-699999D01*
G01*
X199900000Y-130550000D02*
G75*
G03*
X200600000Y-129850000I0J700000D01*
G01*
X198600000Y-129850000D02*
G75*
G03*
X199300000Y-130550000I700000J0D01*
G01*
%TO.C,JP6*%
X197825000Y-96600000D02*
X197825000Y-96000000D01*
X197275000Y-97800000D02*
X196675000Y-97800000D01*
X197175000Y-95300000D02*
X194375000Y-95300000D01*
X196975000Y-97500000D02*
X197275000Y-97800000D01*
X196975000Y-97500000D02*
X196675000Y-97800000D01*
X194375000Y-97300000D02*
X197175000Y-97300000D01*
X193725000Y-96000000D02*
X193725000Y-96600000D01*
X197125000Y-97300000D02*
G75*
G03*
X197825000Y-96600000I1J699999D01*
G01*
X197825000Y-96000000D02*
G75*
G03*
X197125000Y-95300000I-699999J1D01*
G01*
X193725000Y-96600000D02*
G75*
G03*
X194425000Y-97300000I700000J0D01*
G01*
X194425000Y-95300000D02*
G75*
G03*
X193725000Y-96000000I0J-700000D01*
G01*
%TO.C,JP5*%
X197850000Y-125600000D02*
X197850000Y-125000000D01*
X197300000Y-126800000D02*
X196700000Y-126800000D01*
X197200000Y-124300000D02*
X194400000Y-124300000D01*
X197000000Y-126500000D02*
X197300000Y-126800000D01*
X197000000Y-126500000D02*
X196700000Y-126800000D01*
X194400000Y-126300000D02*
X197200000Y-126300000D01*
X193750000Y-125000000D02*
X193750000Y-125600000D01*
X197150000Y-126300000D02*
G75*
G03*
X197850000Y-125600000I1J699999D01*
G01*
X197850000Y-125000000D02*
G75*
G03*
X197150000Y-124300000I-699999J1D01*
G01*
X193750000Y-125600000D02*
G75*
G03*
X194450000Y-126300000I700000J0D01*
G01*
X194450000Y-124300000D02*
G75*
G03*
X193750000Y-125000000I0J-700000D01*
G01*
%TO.C,C16*%
X145951248Y-115915000D02*
X146473752Y-115915000D01*
X145951248Y-117385000D02*
X146473752Y-117385000D01*
%TO.C,JP4*%
X199900000Y-98750000D02*
X199300000Y-98750000D01*
X198600000Y-99450000D02*
X198600000Y-100850000D01*
X200600000Y-100850000D02*
X200600000Y-99450000D01*
X199300000Y-101550000D02*
X199900000Y-101550000D01*
X200600000Y-99450000D02*
G75*
G03*
X199900000Y-98750000I-699999J1D01*
G01*
X199300000Y-98750000D02*
G75*
G03*
X198600000Y-99450000I-1J-699999D01*
G01*
X199900000Y-101550000D02*
G75*
G03*
X200600000Y-100850000I0J700000D01*
G01*
X198600000Y-100850000D02*
G75*
G03*
X199300000Y-101550000I700000J0D01*
G01*
%TO.C,R4*%
X110360436Y-118165000D02*
X110814564Y-118165000D01*
X110360436Y-119635000D02*
X110814564Y-119635000D01*
%TO.C,JP16*%
X179750000Y-68365000D02*
X179750000Y-67765000D01*
X179200000Y-69565000D02*
X178600000Y-69565000D01*
X179100000Y-67065000D02*
X176300000Y-67065000D01*
X178900000Y-69265000D02*
X179200000Y-69565000D01*
X178900000Y-69265000D02*
X178600000Y-69565000D01*
X176300000Y-69065000D02*
X179100000Y-69065000D01*
X175650000Y-67765000D02*
X175650000Y-68365000D01*
X179050000Y-69065000D02*
G75*
G03*
X179750000Y-68365000I1J699999D01*
G01*
X179750000Y-67765000D02*
G75*
G03*
X179050000Y-67065000I-699999J1D01*
G01*
X175650000Y-68365000D02*
G75*
G03*
X176350000Y-69065000I700000J0D01*
G01*
X176350000Y-67065000D02*
G75*
G03*
X175650000Y-67765000I0J-700000D01*
G01*
%TO.C,R45*%
X139297500Y-112347936D02*
X139297500Y-112802064D01*
X137827500Y-112347936D02*
X137827500Y-112802064D01*
%TO.C,R16*%
X173139564Y-126235000D02*
X172685436Y-126235000D01*
X173139564Y-124765000D02*
X172685436Y-124765000D01*
%TO.C,JP8*%
X199900000Y-84250000D02*
X199300000Y-84250000D01*
X198600000Y-84950000D02*
X198600000Y-86350000D01*
X200600000Y-86350000D02*
X200600000Y-84950000D01*
X199300000Y-87050000D02*
X199900000Y-87050000D01*
X200600000Y-84950000D02*
G75*
G03*
X199900000Y-84250000I-699999J1D01*
G01*
X199300000Y-84250000D02*
G75*
G03*
X198600000Y-84950000I-1J-699999D01*
G01*
X199900000Y-87050000D02*
G75*
G03*
X200600000Y-86350000I0J700000D01*
G01*
X198600000Y-86350000D02*
G75*
G03*
X199300000Y-87050000I700000J0D01*
G01*
%TO.C,R18*%
X169227064Y-108735000D02*
X168772936Y-108735000D01*
X169227064Y-107265000D02*
X168772936Y-107265000D01*
%TO.C,C8*%
X177788748Y-129565000D02*
X178311252Y-129565000D01*
X177788748Y-131035000D02*
X178311252Y-131035000D01*
%TO.C,R1*%
X109760436Y-104665000D02*
X110214564Y-104665000D01*
X109760436Y-106135000D02*
X110214564Y-106135000D01*
%TO.C,J30*%
X145500000Y-61180000D02*
X146000000Y-60180000D01*
X146500000Y-61180000D02*
X145500000Y-61180000D01*
X146000000Y-60180000D02*
X146500000Y-61180000D01*
X130630000Y-59790000D02*
X151210000Y-59790000D01*
X142970000Y-59790000D02*
X142970000Y-58480000D01*
X151210000Y-59790000D02*
X151210000Y-50670000D01*
X131930000Y-58480000D02*
X138870000Y-58480000D01*
X138870000Y-58480000D02*
X138870000Y-59790000D01*
X138870000Y-58480000D02*
X138870000Y-58480000D01*
X142970000Y-58480000D02*
X149910000Y-58480000D01*
X149910000Y-58480000D02*
X149910000Y-51980000D01*
X131930000Y-51980000D02*
X131930000Y-58480000D01*
X149910000Y-51980000D02*
X131930000Y-51980000D01*
X130630000Y-50670000D02*
X130630000Y-59790000D01*
X151210000Y-50670000D02*
X130630000Y-50670000D01*
%TO.C,R41*%
X162735000Y-116462936D02*
X162735000Y-116917064D01*
X161265000Y-116462936D02*
X161265000Y-116917064D01*
%TO.C,Q4*%
X123150000Y-137470000D02*
X123420000Y-137470000D01*
X123420000Y-137470000D02*
X123420000Y-138570000D01*
X129780000Y-137470000D02*
X129780000Y-140300000D01*
X130050000Y-137470000D02*
X129780000Y-137470000D01*
X123150000Y-131050000D02*
X123150000Y-137470000D01*
X130050000Y-131050000D02*
X130050000Y-137470000D01*
%TO.C,R3*%
X110814564Y-121810000D02*
X110360436Y-121810000D01*
X110814564Y-120340000D02*
X110360436Y-120340000D01*
%TO.C,R17*%
X168772936Y-105265000D02*
X169227064Y-105265000D01*
X168772936Y-106735000D02*
X169227064Y-106735000D01*
%TO.C,R5*%
X114035000Y-111472936D02*
X114035000Y-111927064D01*
X112565000Y-111472936D02*
X112565000Y-111927064D01*
%TO.C,Q3*%
X130350000Y-137470000D02*
X130620000Y-137470000D01*
X130620000Y-137470000D02*
X130620000Y-138570000D01*
X136980000Y-137470000D02*
X136980000Y-140300000D01*
X137250000Y-137470000D02*
X136980000Y-137470000D01*
X130350000Y-131050000D02*
X130350000Y-137470000D01*
X137250000Y-131050000D02*
X137250000Y-137470000D01*
%TO.C,JP15*%
X179750000Y-64530000D02*
X179750000Y-63930000D01*
X179200000Y-65730000D02*
X178600000Y-65730000D01*
X179100000Y-63230000D02*
X176300000Y-63230000D01*
X178900000Y-65430000D02*
X179200000Y-65730000D01*
X178900000Y-65430000D02*
X178600000Y-65730000D01*
X176300000Y-65230000D02*
X179100000Y-65230000D01*
X175650000Y-63930000D02*
X175650000Y-64530000D01*
X179050000Y-65230000D02*
G75*
G03*
X179750000Y-64530000I1J699999D01*
G01*
X179750000Y-63930000D02*
G75*
G03*
X179050000Y-63230000I-699999J1D01*
G01*
X175650000Y-64530000D02*
G75*
G03*
X176350000Y-65230000I700000J0D01*
G01*
X176350000Y-63230000D02*
G75*
G03*
X175650000Y-63930000I0J-700000D01*
G01*
%TO.C,R29*%
X176235000Y-116022936D02*
X176235000Y-116477064D01*
X174765000Y-116022936D02*
X174765000Y-116477064D01*
%TO.C,R36*%
X157265000Y-116889564D02*
X157265000Y-116435436D01*
X158735000Y-116889564D02*
X158735000Y-116435436D01*
%TO.C,D3*%
X124000000Y-142240000D02*
X124000000Y-146250000D01*
X122000000Y-142240000D02*
X124000000Y-142240000D01*
X122000000Y-142240000D02*
X122000000Y-146250000D01*
%TO.C,C5*%
X166711252Y-120335000D02*
X166188748Y-120335000D01*
X166711252Y-118865000D02*
X166188748Y-118865000D01*
%TO.C,U19*%
X184700000Y-72335000D02*
X186900000Y-72335000D01*
X184700000Y-72335000D02*
X182500000Y-72335000D01*
X184700000Y-64265000D02*
X188300000Y-64265000D01*
X184700000Y-64265000D02*
X182500000Y-64265000D01*
%TO.C,R97*%
X199365000Y-93127064D02*
X199365000Y-92672936D01*
X200835000Y-93127064D02*
X200835000Y-92672936D01*
%TO.C,R44*%
X139297500Y-108835436D02*
X139297500Y-109289564D01*
X137827500Y-108835436D02*
X137827500Y-109289564D01*
%TO.C,R20*%
X137745000Y-139023737D02*
X137745000Y-137576263D01*
X140455000Y-139023737D02*
X140455000Y-137576263D01*
%TO.C,J29*%
X167650000Y-56930000D02*
X167650000Y-55680000D01*
X167940000Y-50670000D02*
X183060000Y-50670000D01*
X167940000Y-56640000D02*
X167940000Y-50670000D01*
X167950000Y-54380000D02*
X168700000Y-54380000D01*
X167950000Y-55880000D02*
X169750000Y-55880000D01*
X167950000Y-56630000D02*
X167950000Y-55880000D01*
X168700000Y-51430000D02*
X175500000Y-51430000D01*
X168700000Y-54380000D02*
X168700000Y-51430000D01*
X168900000Y-56930000D02*
X167650000Y-56930000D01*
X169750000Y-55880000D02*
X169750000Y-56630000D01*
X169750000Y-56630000D02*
X167950000Y-56630000D01*
X171250000Y-55880000D02*
X179750000Y-55880000D01*
X171250000Y-56630000D02*
X171250000Y-55880000D01*
X179750000Y-55880000D02*
X179750000Y-56630000D01*
X179750000Y-56630000D02*
X171250000Y-56630000D01*
X181250000Y-55880000D02*
X183050000Y-55880000D01*
X181250000Y-56630000D02*
X181250000Y-55880000D01*
X182300000Y-51430000D02*
X175500000Y-51430000D01*
X182300000Y-54380000D02*
X182300000Y-51430000D01*
X183050000Y-54380000D02*
X182300000Y-54380000D01*
X183050000Y-55880000D02*
X183050000Y-56630000D01*
X183050000Y-56630000D02*
X181250000Y-56630000D01*
X183060000Y-50670000D02*
X183060000Y-56640000D01*
X183060000Y-56640000D02*
X167940000Y-56640000D01*
%TO.C,Q2*%
X115505000Y-115075000D02*
X115505000Y-115345000D01*
X115505000Y-115345000D02*
X114405000Y-115345000D01*
X115505000Y-121705000D02*
X112675000Y-121705000D01*
X115505000Y-121975000D02*
X115505000Y-121705000D01*
X121925000Y-115075000D02*
X115505000Y-115075000D01*
X121925000Y-121975000D02*
X115505000Y-121975000D01*
%TO.C,C7*%
X174185000Y-115988748D02*
X174185000Y-116511252D01*
X172715000Y-115988748D02*
X172715000Y-116511252D01*
%TO.C,JP11*%
X196750000Y-63557500D02*
X196750000Y-62957500D01*
X196200000Y-64757500D02*
X195600000Y-64757500D01*
X196100000Y-62257500D02*
X193300000Y-62257500D01*
X195900000Y-64457500D02*
X196200000Y-64757500D01*
X195900000Y-64457500D02*
X195600000Y-64757500D01*
X193300000Y-64257500D02*
X196100000Y-64257500D01*
X192650000Y-62957500D02*
X192650000Y-63557500D01*
X196050000Y-64257500D02*
G75*
G03*
X196750000Y-63557500I1J699999D01*
G01*
X196750000Y-62957500D02*
G75*
G03*
X196050000Y-62257500I-699999J1D01*
G01*
X192650000Y-63557500D02*
G75*
G03*
X193350000Y-64257500I700000J0D01*
G01*
X193350000Y-62257500D02*
G75*
G03*
X192650000Y-62957500I0J-700000D01*
G01*
%TO.C,C50*%
X181065000Y-62611252D02*
X181065000Y-62088748D01*
X182535000Y-62611252D02*
X182535000Y-62088748D01*
%TO.C,JP17*%
X179750000Y-72200000D02*
X179750000Y-71600000D01*
X179200000Y-73400000D02*
X178600000Y-73400000D01*
X179100000Y-70900000D02*
X176300000Y-70900000D01*
X178900000Y-73100000D02*
X179200000Y-73400000D01*
X178900000Y-73100000D02*
X178600000Y-73400000D01*
X176300000Y-72900000D02*
X179100000Y-72900000D01*
X175650000Y-71600000D02*
X175650000Y-72200000D01*
X179050000Y-72900000D02*
G75*
G03*
X179750000Y-72200000I1J699999D01*
G01*
X179750000Y-71600000D02*
G75*
G03*
X179050000Y-70900000I-699999J1D01*
G01*
X175650000Y-72200000D02*
G75*
G03*
X176350000Y-72900000I700000J0D01*
G01*
X176350000Y-70900000D02*
G75*
G03*
X175650000Y-71600000I0J-700000D01*
G01*
%TO.C,R6*%
X181660436Y-75365000D02*
X182114564Y-75365000D01*
X181660436Y-76835000D02*
X182114564Y-76835000D01*
%TO.C,R96*%
X204365000Y-90639564D02*
X204365000Y-90185436D01*
X205835000Y-90639564D02*
X205835000Y-90185436D01*
%TO.C,JP1*%
X197825000Y-139900000D02*
X197825000Y-139300000D01*
X197275000Y-141100000D02*
X196675000Y-141100000D01*
X197175000Y-138600000D02*
X194375000Y-138600000D01*
X196975000Y-140800000D02*
X197275000Y-141100000D01*
X196975000Y-140800000D02*
X196675000Y-141100000D01*
X194375000Y-140600000D02*
X197175000Y-140600000D01*
X193725000Y-139300000D02*
X193725000Y-139900000D01*
X197125000Y-140600000D02*
G75*
G03*
X197825000Y-139900000I1J699999D01*
G01*
X197825000Y-139300000D02*
G75*
G03*
X197125000Y-138600000I-699999J1D01*
G01*
X193725000Y-139900000D02*
G75*
G03*
X194425000Y-140600000I700000J0D01*
G01*
X194425000Y-138600000D02*
G75*
G03*
X193725000Y-139300000I0J-700000D01*
G01*
%TO.C,L2*%
X144400000Y-113700000D02*
X144400000Y-107400000D01*
X150600000Y-113700000D02*
X150600000Y-107400000D01*
%TO.C,R90*%
X204265000Y-134139564D02*
X204265000Y-133685436D01*
X205735000Y-134139564D02*
X205735000Y-133685436D01*
%TO.C,R28*%
X176765000Y-116477064D02*
X176765000Y-116022936D01*
X178235000Y-116477064D02*
X178235000Y-116022936D01*
%TO.C,R37*%
X160735000Y-116435436D02*
X160735000Y-116889564D01*
X159265000Y-116435436D02*
X159265000Y-116889564D01*
%TO.C,C3*%
X155011252Y-123835000D02*
X154488748Y-123835000D01*
X155011252Y-122365000D02*
X154488748Y-122365000D01*
%TO.C,JP10*%
X113200000Y-126450000D02*
X113800000Y-126450000D01*
X112000000Y-125900000D02*
X112000000Y-125300000D01*
X114500000Y-125800000D02*
X114500000Y-123000000D01*
X112300000Y-125600000D02*
X112000000Y-125900000D01*
X112300000Y-125600000D02*
X112000000Y-125300000D01*
X112500000Y-123000000D02*
X112500000Y-125800000D01*
X113800000Y-122350000D02*
X113200000Y-122350000D01*
X112500000Y-125750000D02*
G75*
G03*
X113200000Y-126450000I699999J-1D01*
G01*
X113800000Y-126450000D02*
G75*
G03*
X114500000Y-125750000I1J699999D01*
G01*
X113200000Y-122350000D02*
G75*
G03*
X112500000Y-123050000I0J-700000D01*
G01*
X114500000Y-123050000D02*
G75*
G03*
X113800000Y-122350000I-700000J0D01*
G01*
%TO.C,U2*%
X166975000Y-118225000D02*
X168925000Y-118225000D01*
X166975000Y-118225000D02*
X165025000Y-118225000D01*
X166975000Y-109355000D02*
X170425000Y-109355000D01*
X166975000Y-109355000D02*
X165025000Y-109355000D01*
%TO.C,R32*%
X157476263Y-137895000D02*
X158923737Y-137895000D01*
X157476263Y-140605000D02*
X158923737Y-140605000D01*
%TO.C,R7*%
X181685436Y-73365000D02*
X182139564Y-73365000D01*
X181685436Y-74835000D02*
X182139564Y-74835000D01*
%TO.C,R15*%
X172977064Y-119985000D02*
X172522936Y-119985000D01*
X172977064Y-118515000D02*
X172522936Y-118515000D01*
%TO.C,JP2*%
X197825000Y-111100000D02*
X197825000Y-110500000D01*
X197275000Y-112300000D02*
X196675000Y-112300000D01*
X197175000Y-109800000D02*
X194375000Y-109800000D01*
X196975000Y-112000000D02*
X197275000Y-112300000D01*
X196975000Y-112000000D02*
X196675000Y-112300000D01*
X194375000Y-111800000D02*
X197175000Y-111800000D01*
X193725000Y-110500000D02*
X193725000Y-111100000D01*
X197125000Y-111800000D02*
G75*
G03*
X197825000Y-111100000I1J699999D01*
G01*
X197825000Y-110500000D02*
G75*
G03*
X197125000Y-109800000I-699999J1D01*
G01*
X193725000Y-111100000D02*
G75*
G03*
X194425000Y-111800000I700000J0D01*
G01*
X194425000Y-109800000D02*
G75*
G03*
X193725000Y-110500000I0J-700000D01*
G01*
%TO.C,R10*%
X129760436Y-142465000D02*
X130214564Y-142465000D01*
X129760436Y-143935000D02*
X130214564Y-143935000D01*
%TO.C,R19*%
X141045000Y-139023737D02*
X141045000Y-137576263D01*
X143755000Y-139023737D02*
X143755000Y-137576263D01*
%TO.C,R35*%
X162735000Y-112977936D02*
X162735000Y-113432064D01*
X161265000Y-112977936D02*
X161265000Y-113432064D01*
%TO.C,U6*%
X141862500Y-114710000D02*
X142662500Y-114710000D01*
X141862500Y-114710000D02*
X141062500Y-114710000D01*
X141862500Y-111590000D02*
X143662500Y-111590000D01*
X141862500Y-111590000D02*
X141062500Y-111590000D01*
%TO.C,C19*%
X141551248Y-109615000D02*
X142073752Y-109615000D01*
X141551248Y-111085000D02*
X142073752Y-111085000D01*
%TO.C,JP7*%
X200000000Y-113350000D02*
X199400000Y-113350000D01*
X198700000Y-114050000D02*
X198700000Y-115450000D01*
X200700000Y-115450000D02*
X200700000Y-114050000D01*
X199400000Y-116150000D02*
X200000000Y-116150000D01*
X200700000Y-114050000D02*
G75*
G03*
X200000000Y-113350000I-699999J1D01*
G01*
X199400000Y-113350000D02*
G75*
G03*
X198700000Y-114050000I-1J-699999D01*
G01*
X200000000Y-116150000D02*
G75*
G03*
X200700000Y-115450000I0J700000D01*
G01*
X198700000Y-115450000D02*
G75*
G03*
X199400000Y-116150000I700000J0D01*
G01*
%TO.C,R38*%
X181727064Y-131035000D02*
X181272936Y-131035000D01*
X181727064Y-129565000D02*
X181272936Y-129565000D01*
%TO.C,C9*%
X162735000Y-109438748D02*
X162735000Y-109961252D01*
X161265000Y-109438748D02*
X161265000Y-109961252D01*
%TO.C,Q5*%
X174310000Y-122312500D02*
X174310000Y-121662500D01*
X174310000Y-122312500D02*
X174310000Y-122962500D01*
X171190000Y-122312500D02*
X171190000Y-120637500D01*
X171190000Y-122312500D02*
X171190000Y-122962500D01*
%TD*%
%LPC*%
D13*
%TO.C,J5*%
X195250000Y-135250000D03*
D14*
X195250000Y-132750000D03*
X195250000Y-130250000D03*
%TD*%
D13*
%TO.C,J7*%
X202500000Y-123500000D03*
D14*
X202500000Y-121000000D03*
X202500000Y-118500000D03*
X202500000Y-116000000D03*
%TD*%
D13*
%TO.C,J1*%
X202500000Y-138000000D03*
D14*
X202500000Y-135500000D03*
X202500000Y-133000000D03*
X202500000Y-130500000D03*
%TD*%
D15*
%TO.C,RV2*%
X185800000Y-133800000D03*
X183260000Y-133800000D03*
X180720000Y-133800000D03*
%TD*%
D16*
%TO.C,J27*%
X145200000Y-143200000D03*
D17*
X150200000Y-143200000D03*
%TD*%
D13*
%TO.C,J23*%
X195250000Y-77500000D03*
D14*
X195250000Y-75000000D03*
X195250000Y-72500000D03*
X195250000Y-70000000D03*
X195250000Y-67500000D03*
%TD*%
D13*
%TO.C,J8*%
X202500000Y-94500000D03*
D14*
X202500000Y-92000000D03*
X202500000Y-89500000D03*
X202500000Y-87000000D03*
%TD*%
D18*
%TO.C,H3*%
X200600000Y-146000000D03*
X201302944Y-144302944D03*
X201302944Y-147697056D03*
X203000000Y-143600000D03*
D19*
X203000000Y-146000000D03*
D18*
X203000000Y-148400000D03*
X204697056Y-144302944D03*
X204697056Y-147697056D03*
X205400000Y-146000000D03*
%TD*%
%TO.C,H1*%
X108600000Y-54000000D03*
X109302944Y-52302944D03*
X109302944Y-55697056D03*
X111000000Y-51600000D03*
D19*
X111000000Y-54000000D03*
D18*
X111000000Y-56400000D03*
X112697056Y-52302944D03*
X112697056Y-55697056D03*
X113400000Y-54000000D03*
%TD*%
D13*
%TO.C,J2*%
X202500000Y-109000000D03*
D14*
X202500000Y-106500000D03*
X202500000Y-104000000D03*
X202500000Y-101500000D03*
%TD*%
D13*
%TO.C,J10*%
X195250000Y-121000000D03*
D14*
X195250000Y-118500000D03*
X195250000Y-116000000D03*
%TD*%
D20*
%TO.C,J15*%
X110500000Y-103250000D03*
D21*
X113000000Y-103250000D03*
X115500000Y-103250000D03*
%TD*%
D22*
%TO.C,U1*%
X125250000Y-81760000D03*
D23*
X127790000Y-81760000D03*
X125250000Y-84300000D03*
X127790000Y-84300000D03*
X125250000Y-86840000D03*
X127790000Y-86840000D03*
X125250000Y-89380000D03*
X127790000Y-89380000D03*
X125250000Y-91920000D03*
X127790000Y-91920000D03*
X125250000Y-94460000D03*
X127790000Y-94460000D03*
X125250000Y-97000000D03*
X127790000Y-97000000D03*
X125250000Y-99540000D03*
X127790000Y-99540000D03*
X125250000Y-102080000D03*
X127790000Y-102080000D03*
X125250000Y-104620000D03*
X127790000Y-104620000D03*
X125250000Y-107160000D03*
X127790000Y-107160000D03*
X125250000Y-109700000D03*
X127790000Y-109700000D03*
X125250000Y-112240000D03*
X127790000Y-112240000D03*
X125250000Y-114780000D03*
X127790000Y-114780000D03*
X125250000Y-117320000D03*
X127790000Y-117320000D03*
X125250000Y-119860000D03*
X127790000Y-119860000D03*
X125250000Y-122400000D03*
X127790000Y-122400000D03*
X125250000Y-124940000D03*
X127790000Y-124940000D03*
X125250000Y-127480000D03*
X127790000Y-127480000D03*
D22*
X186210000Y-81760000D03*
D23*
X188750000Y-81760000D03*
X186210000Y-84300000D03*
X188750000Y-84300000D03*
X186210000Y-86840000D03*
X188750000Y-86840000D03*
X186210000Y-89380000D03*
X188750000Y-89380000D03*
X186210000Y-91920000D03*
X188750000Y-91920000D03*
X186210000Y-94460000D03*
X188750000Y-94460000D03*
X186210000Y-97000000D03*
X188750000Y-97000000D03*
X186210000Y-99540000D03*
X188750000Y-99540000D03*
X186210000Y-102080000D03*
X188750000Y-102080000D03*
X186210000Y-104620000D03*
X188750000Y-104620000D03*
X186210000Y-107160000D03*
X188750000Y-107160000D03*
X186210000Y-109700000D03*
X188750000Y-109700000D03*
X186210000Y-112240000D03*
X188750000Y-112240000D03*
X186210000Y-114780000D03*
X188750000Y-114780000D03*
X186210000Y-117320000D03*
X188750000Y-117320000D03*
X186210000Y-119860000D03*
X188750000Y-119860000D03*
X186210000Y-122400000D03*
X188750000Y-122400000D03*
X186210000Y-124940000D03*
X188750000Y-124940000D03*
X186210000Y-127480000D03*
X188750000Y-127480000D03*
D22*
X188750000Y-53750000D03*
D23*
X188750000Y-56290000D03*
D22*
X125250000Y-53750000D03*
D23*
X125250000Y-56290000D03*
%TD*%
D20*
%TO.C,J21*%
X110500000Y-79250000D03*
D21*
X113000000Y-79250000D03*
X115500000Y-79250000D03*
X118000000Y-79250000D03*
%TD*%
D13*
%TO.C,J11*%
X195250000Y-92000000D03*
D14*
X195250000Y-89500000D03*
X195250000Y-87000000D03*
%TD*%
D13*
%TO.C,J13*%
X202500000Y-80000000D03*
D14*
X202500000Y-77500000D03*
X202500000Y-75000000D03*
X202500000Y-72500000D03*
X202500000Y-70000000D03*
X202500000Y-67500000D03*
%TD*%
D20*
%TO.C,J25*%
X110500000Y-71250000D03*
D21*
X113000000Y-71250000D03*
X115500000Y-71250000D03*
X118000000Y-71250000D03*
%TD*%
D13*
%TO.C,J3*%
X110400000Y-116250000D03*
D14*
X110400000Y-113750000D03*
X110400000Y-111250000D03*
%TD*%
D22*
%TO.C,J9*%
X197290000Y-52450000D03*
D23*
X194750000Y-52450000D03*
X197290000Y-54990000D03*
X194750000Y-54990000D03*
X197290000Y-57530000D03*
X194750000Y-57530000D03*
X197290000Y-60070000D03*
X194750000Y-60070000D03*
%TD*%
D13*
%TO.C,J6*%
X195250000Y-106500000D03*
D14*
X195250000Y-104000000D03*
X195250000Y-101500000D03*
%TD*%
D20*
%TO.C,J16*%
X110500000Y-87250000D03*
D21*
X113000000Y-87250000D03*
X115500000Y-87250000D03*
X118000000Y-87250000D03*
%TD*%
D18*
%TO.C,H2*%
X200600000Y-54000000D03*
X201302944Y-52302944D03*
X201302944Y-55697056D03*
X203000000Y-51600000D03*
D19*
X203000000Y-54000000D03*
D18*
X203000000Y-56400000D03*
X204697056Y-52302944D03*
X204697056Y-55697056D03*
X205400000Y-54000000D03*
%TD*%
D20*
%TO.C,J14*%
X110500000Y-95250000D03*
D21*
X113000000Y-95250000D03*
X115500000Y-95250000D03*
%TD*%
D24*
%TO.C,C10*%
X163200000Y-144400000D03*
D25*
X158200000Y-144400000D03*
%TD*%
D13*
%TO.C,J22*%
X110400000Y-133750000D03*
D14*
X110400000Y-131250000D03*
X110400000Y-128750000D03*
X110400000Y-126250000D03*
X110400000Y-123750000D03*
%TD*%
D26*
%TO.C,J28*%
X126200000Y-145450000D03*
D27*
X126200000Y-142950000D03*
%TD*%
D26*
%TO.C,J4*%
X117750000Y-113750000D03*
D27*
X117750000Y-111250000D03*
%TD*%
D20*
%TO.C,J24*%
X110500000Y-63225000D03*
D21*
X113000000Y-63225000D03*
X115500000Y-63225000D03*
X118000000Y-63225000D03*
%TD*%
D18*
%TO.C,H4*%
X108600000Y-146000000D03*
X109302944Y-144302944D03*
X109302944Y-147697056D03*
X111000000Y-143600000D03*
D19*
X111000000Y-146000000D03*
D18*
X111000000Y-148400000D03*
X112697056Y-144302944D03*
X112697056Y-147697056D03*
X113400000Y-146000000D03*
%TD*%
D16*
%TO.C,J26*%
X133700000Y-143200000D03*
D17*
X138700000Y-143200000D03*
%TD*%
D13*
%TO.C,J12*%
X117750000Y-128750000D03*
D14*
X117750000Y-126250000D03*
X117750000Y-123750000D03*
%TD*%
D15*
%TO.C,RV1*%
X174607323Y-144600000D03*
X172067323Y-144600000D03*
X169527323Y-144600000D03*
%TD*%
D16*
%TO.C,J17*%
X180900000Y-143100000D03*
D17*
X185900000Y-143100000D03*
%TD*%
D28*
%TO.C,R93*%
X200100000Y-122825000D03*
X200100000Y-121000000D03*
%TD*%
D29*
%TO.C,R2*%
X113300000Y-107175000D03*
X113300000Y-109000000D03*
%TD*%
D30*
%TO.C,JP12*%
X175900000Y-125300000D03*
D31*
X177200000Y-125300000D03*
%TD*%
D32*
%TO.C,C2*%
X155700000Y-125200000D03*
X153800000Y-125200000D03*
%TD*%
D28*
%TO.C,R94*%
X205000000Y-105825000D03*
X205000000Y-104000000D03*
%TD*%
D33*
%TO.C,JP9*%
X203300000Y-63200000D03*
D34*
X202000000Y-63200000D03*
D35*
X200700000Y-63200000D03*
%TD*%
D36*
%TO.C,C4*%
X166250000Y-106100000D03*
X166250000Y-108000000D03*
%TD*%
D28*
%TO.C,R95*%
X200100000Y-108325000D03*
X200100000Y-106500000D03*
%TD*%
D37*
%TO.C,Q1*%
X109300000Y-109100000D03*
X109300000Y-107200000D03*
X111175000Y-108150000D03*
%TD*%
D28*
%TO.C,R92*%
X205000000Y-120325000D03*
X205000000Y-118500000D03*
%TD*%
D29*
%TO.C,R13*%
X120800000Y-142975000D03*
X120800000Y-144800000D03*
%TD*%
D36*
%TO.C,C22*%
X136062500Y-111350000D03*
X136062500Y-113250000D03*
%TD*%
D28*
%TO.C,R91*%
X200100000Y-137325000D03*
X200100000Y-135500000D03*
%TD*%
D38*
%TO.C,JP3*%
X199600000Y-128500000D03*
D39*
X199600000Y-129800000D03*
%TD*%
D33*
%TO.C,JP6*%
X197075000Y-96300000D03*
D34*
X195775000Y-96300000D03*
D35*
X194475000Y-96300000D03*
%TD*%
D33*
%TO.C,JP5*%
X197100000Y-125300000D03*
D34*
X195800000Y-125300000D03*
D35*
X194500000Y-125300000D03*
%TD*%
D40*
%TO.C,C16*%
X145262500Y-116650000D03*
X147162500Y-116650000D03*
%TD*%
D38*
%TO.C,JP4*%
X199600000Y-99500000D03*
D39*
X199600000Y-100800000D03*
%TD*%
D41*
%TO.C,R4*%
X109675000Y-118900000D03*
X111500000Y-118900000D03*
%TD*%
D33*
%TO.C,JP16*%
X179000000Y-68065000D03*
D34*
X177700000Y-68065000D03*
D35*
X176400000Y-68065000D03*
%TD*%
D29*
%TO.C,R45*%
X138562500Y-111662500D03*
X138562500Y-113487500D03*
%TD*%
D42*
%TO.C,R16*%
X173825000Y-125500000D03*
X172000000Y-125500000D03*
%TD*%
D38*
%TO.C,JP8*%
X199600000Y-85000000D03*
D39*
X199600000Y-86300000D03*
%TD*%
D42*
%TO.C,R18*%
X169912500Y-108000000D03*
X168087500Y-108000000D03*
%TD*%
D40*
%TO.C,C8*%
X177100000Y-130300000D03*
X179000000Y-130300000D03*
%TD*%
D41*
%TO.C,R1*%
X109075000Y-105400000D03*
X110900000Y-105400000D03*
%TD*%
D43*
%TO.C,J30*%
X146000000Y-56500000D03*
D44*
X146000000Y-53960000D03*
X143460000Y-56500000D03*
X143460000Y-53960000D03*
X140920000Y-56500000D03*
X140920000Y-53960000D03*
X138380000Y-56500000D03*
X138380000Y-53960000D03*
X135840000Y-56500000D03*
X135840000Y-53960000D03*
%TD*%
D29*
%TO.C,R41*%
X162000000Y-115777500D03*
X162000000Y-117602500D03*
%TD*%
D45*
%TO.C,Q4*%
X128880000Y-139200000D03*
D46*
X126600000Y-132900000D03*
D45*
X124320000Y-139200000D03*
%TD*%
D42*
%TO.C,R3*%
X111500000Y-121075000D03*
X109675000Y-121075000D03*
%TD*%
D41*
%TO.C,R17*%
X168087500Y-106000000D03*
X169912500Y-106000000D03*
%TD*%
D29*
%TO.C,R5*%
X113300000Y-110787500D03*
X113300000Y-112612500D03*
%TD*%
D45*
%TO.C,Q3*%
X136080000Y-139200000D03*
D46*
X133800000Y-132900000D03*
D45*
X131520000Y-139200000D03*
%TD*%
D33*
%TO.C,JP15*%
X179000000Y-64230000D03*
D34*
X177700000Y-64230000D03*
D35*
X176400000Y-64230000D03*
%TD*%
D29*
%TO.C,R29*%
X175500000Y-115337500D03*
X175500000Y-117162500D03*
%TD*%
D28*
%TO.C,R36*%
X158000000Y-117575000D03*
X158000000Y-115750000D03*
%TD*%
D47*
%TO.C,D3*%
X123000000Y-142950000D03*
X123000000Y-146250000D03*
%TD*%
D32*
%TO.C,C5*%
X167400000Y-119600000D03*
X165500000Y-119600000D03*
%TD*%
D48*
%TO.C,U19*%
X187562500Y-64725000D03*
X187562500Y-65375000D03*
X187562500Y-66025000D03*
X187562500Y-66675000D03*
X187562500Y-67325000D03*
X187562500Y-67975000D03*
X187562500Y-68625000D03*
X187562500Y-69275000D03*
X187562500Y-69925000D03*
X187562500Y-70575000D03*
X187562500Y-71225000D03*
X187562500Y-71875000D03*
X181837500Y-71875000D03*
X181837500Y-71225000D03*
X181837500Y-70575000D03*
X181837500Y-69925000D03*
X181837500Y-69275000D03*
X181837500Y-68625000D03*
X181837500Y-67975000D03*
X181837500Y-67325000D03*
X181837500Y-66675000D03*
X181837500Y-66025000D03*
X181837500Y-65375000D03*
X181837500Y-64725000D03*
%TD*%
D28*
%TO.C,R97*%
X200100000Y-93812500D03*
X200100000Y-91987500D03*
%TD*%
D29*
%TO.C,R44*%
X138562500Y-108150000D03*
X138562500Y-109975000D03*
%TD*%
D49*
%TO.C,R20*%
X139100000Y-139762500D03*
X139100000Y-136837500D03*
%TD*%
D20*
%TO.C,J29*%
X170500000Y-54180000D03*
D21*
X173000000Y-54180000D03*
X175500000Y-54180000D03*
X178000000Y-54180000D03*
X180500000Y-54180000D03*
%TD*%
D50*
%TO.C,Q2*%
X113775000Y-120805000D03*
D51*
X120075000Y-118525000D03*
D50*
X113775000Y-116245000D03*
%TD*%
D36*
%TO.C,C7*%
X173450000Y-115300000D03*
X173450000Y-117200000D03*
%TD*%
D33*
%TO.C,JP11*%
X196000000Y-63257500D03*
D34*
X194700000Y-63257500D03*
D35*
X193400000Y-63257500D03*
%TD*%
D52*
%TO.C,C50*%
X181800000Y-63300000D03*
X181800000Y-61400000D03*
%TD*%
D33*
%TO.C,JP17*%
X179000000Y-71900000D03*
D34*
X177700000Y-71900000D03*
D35*
X176400000Y-71900000D03*
%TD*%
D41*
%TO.C,R6*%
X180975000Y-76100000D03*
X182800000Y-76100000D03*
%TD*%
D28*
%TO.C,R96*%
X205100000Y-91325000D03*
X205100000Y-89500000D03*
%TD*%
D33*
%TO.C,JP1*%
X197075000Y-139600000D03*
D34*
X195775000Y-139600000D03*
D35*
X194475000Y-139600000D03*
%TD*%
D53*
%TO.C,L2*%
X147500000Y-112900000D03*
X147500000Y-108200000D03*
%TD*%
D28*
%TO.C,R90*%
X205000000Y-134825000D03*
X205000000Y-133000000D03*
%TD*%
%TO.C,R28*%
X177500000Y-117162500D03*
X177500000Y-115337500D03*
%TD*%
D29*
%TO.C,R37*%
X160000000Y-115750000D03*
X160000000Y-117575000D03*
%TD*%
D32*
%TO.C,C3*%
X155700000Y-123100000D03*
X153800000Y-123100000D03*
%TD*%
D54*
%TO.C,JP10*%
X113500000Y-125700000D03*
D55*
X113500000Y-124400000D03*
D56*
X113500000Y-123100000D03*
%TD*%
D57*
%TO.C,U2*%
X169450000Y-109980000D03*
X169450000Y-111250000D03*
X169450000Y-112520000D03*
X169450000Y-113790000D03*
X169450000Y-115060000D03*
X169450000Y-116330000D03*
X169450000Y-117600000D03*
X164500000Y-117600000D03*
X164500000Y-116330000D03*
X164500000Y-115060000D03*
X164500000Y-113790000D03*
X164500000Y-112520000D03*
X164500000Y-111250000D03*
X164500000Y-109980000D03*
%TD*%
D58*
%TO.C,R32*%
X156737500Y-139250000D03*
X159662500Y-139250000D03*
%TD*%
D41*
%TO.C,R7*%
X181000000Y-74100000D03*
X182825000Y-74100000D03*
%TD*%
D42*
%TO.C,R15*%
X173662500Y-119250000D03*
X171837500Y-119250000D03*
%TD*%
D33*
%TO.C,JP2*%
X197075000Y-110800000D03*
D34*
X195775000Y-110800000D03*
D35*
X194475000Y-110800000D03*
%TD*%
D41*
%TO.C,R10*%
X129075000Y-143200000D03*
X130900000Y-143200000D03*
%TD*%
D49*
%TO.C,R19*%
X142400000Y-139762500D03*
X142400000Y-136837500D03*
%TD*%
D29*
%TO.C,R35*%
X162000000Y-112292500D03*
X162000000Y-114117500D03*
%TD*%
D59*
%TO.C,U6*%
X143000000Y-112200000D03*
X143000000Y-113150000D03*
X143000000Y-114100000D03*
X140725000Y-114100000D03*
X140725000Y-113150000D03*
X140725000Y-112200000D03*
%TD*%
D40*
%TO.C,C19*%
X140862500Y-110350000D03*
X142762500Y-110350000D03*
%TD*%
D38*
%TO.C,JP7*%
X199700000Y-114100000D03*
D39*
X199700000Y-115400000D03*
%TD*%
D42*
%TO.C,R38*%
X182412500Y-130300000D03*
X180587500Y-130300000D03*
%TD*%
D36*
%TO.C,C9*%
X162000000Y-108750000D03*
X162000000Y-110650000D03*
%TD*%
D60*
%TO.C,Q5*%
X171800000Y-121375000D03*
X173700000Y-121375000D03*
X172750000Y-123250000D03*
%TD*%
M02*
