%TF.GenerationSoftware,KiCad,Pcbnew,7.0.1*%
%TF.CreationDate,2023-04-06T21:06:24+02:00*%
%TF.ProjectId,Scout_Robot_Controller,53636f75-745f-4526-9f62-6f745f436f6e,rev?*%
%TF.SameCoordinates,Original*%
%TF.FileFunction,Paste,Bot*%
%TF.FilePolarity,Positive*%
%FSLAX46Y46*%
G04 Gerber Fmt 4.6, Leading zero omitted, Abs format (unit mm)*
G04 Created by KiCad (PCBNEW 7.0.1) date 2023-04-06 21:06:24*
%MOMM*%
%LPD*%
G01*
G04 APERTURE LIST*
G04 Aperture macros list*
%AMRoundRect*
0 Rectangle with rounded corners*
0 $1 Rounding radius*
0 $2 $3 $4 $5 $6 $7 $8 $9 X,Y pos of 4 corners*
0 Add a 4 corners polygon primitive as box body*
4,1,4,$2,$3,$4,$5,$6,$7,$8,$9,$2,$3,0*
0 Add four circle primitives for the rounded corners*
1,1,$1+$1,$2,$3*
1,1,$1+$1,$4,$5*
1,1,$1+$1,$6,$7*
1,1,$1+$1,$8,$9*
0 Add four rect primitives between the rounded corners*
20,1,$1+$1,$2,$3,$4,$5,0*
20,1,$1+$1,$4,$5,$6,$7,0*
20,1,$1+$1,$6,$7,$8,$9,0*
20,1,$1+$1,$8,$9,$2,$3,0*%
G04 Aperture macros list end*
%ADD10RoundRect,0.250000X0.450000X-0.262500X0.450000X0.262500X-0.450000X0.262500X-0.450000X-0.262500X0*%
%ADD11RoundRect,0.250000X-0.450000X0.262500X-0.450000X-0.262500X0.450000X-0.262500X0.450000X0.262500X0*%
%ADD12RoundRect,0.250000X0.250000X0.475000X-0.250000X0.475000X-0.250000X-0.475000X0.250000X-0.475000X0*%
%ADD13RoundRect,0.250000X-0.475000X0.250000X-0.475000X-0.250000X0.475000X-0.250000X0.475000X0.250000X0*%
%ADD14RoundRect,0.150000X-0.587500X-0.150000X0.587500X-0.150000X0.587500X0.150000X-0.587500X0.150000X0*%
%ADD15RoundRect,0.250000X-0.250000X-0.475000X0.250000X-0.475000X0.250000X0.475000X-0.250000X0.475000X0*%
%ADD16RoundRect,0.250000X-0.262500X-0.450000X0.262500X-0.450000X0.262500X0.450000X-0.262500X0.450000X0*%
%ADD17RoundRect,0.250000X0.262500X0.450000X-0.262500X0.450000X-0.262500X-0.450000X0.262500X-0.450000X0*%
%ADD18RoundRect,0.250000X0.350000X-0.850000X0.350000X0.850000X-0.350000X0.850000X-0.350000X-0.850000X0*%
%ADD19RoundRect,0.250000X1.125000X-1.275000X1.125000X1.275000X-1.125000X1.275000X-1.125000X-1.275000X0*%
%ADD20RoundRect,0.225000X-0.375000X0.225000X-0.375000X-0.225000X0.375000X-0.225000X0.375000X0.225000X0*%
%ADD21RoundRect,0.100000X0.637500X0.100000X-0.637500X0.100000X-0.637500X-0.100000X0.637500X-0.100000X0*%
%ADD22RoundRect,0.250000X1.075000X-0.312500X1.075000X0.312500X-1.075000X0.312500X-1.075000X-0.312500X0*%
%ADD23RoundRect,0.250000X-0.850000X-0.350000X0.850000X-0.350000X0.850000X0.350000X-0.850000X0.350000X0*%
%ADD24RoundRect,0.250000X-1.275000X-1.125000X1.275000X-1.125000X1.275000X1.125000X-1.275000X1.125000X0*%
%ADD25RoundRect,0.250000X0.475000X-0.250000X0.475000X0.250000X-0.475000X0.250000X-0.475000X-0.250000X0*%
%ADD26R,5.700000X1.600000*%
%ADD27RoundRect,0.150000X0.825000X0.150000X-0.825000X0.150000X-0.825000X-0.150000X0.825000X-0.150000X0*%
%ADD28RoundRect,0.250000X-0.312500X-1.075000X0.312500X-1.075000X0.312500X1.075000X-0.312500X1.075000X0*%
%ADD29RoundRect,0.150000X0.512500X0.150000X-0.512500X0.150000X-0.512500X-0.150000X0.512500X-0.150000X0*%
%ADD30RoundRect,0.150000X-0.150000X0.587500X-0.150000X-0.587500X0.150000X-0.587500X0.150000X0.587500X0*%
G04 APERTURE END LIST*
D10*
%TO.C,R93*%
X200100000Y-122825000D03*
X200100000Y-121000000D03*
%TD*%
D11*
%TO.C,R2*%
X113300000Y-107175000D03*
X113300000Y-109000000D03*
%TD*%
D12*
%TO.C,C2*%
X155700000Y-125200000D03*
X153800000Y-125200000D03*
%TD*%
D10*
%TO.C,R94*%
X205000000Y-105825000D03*
X205000000Y-104000000D03*
%TD*%
D13*
%TO.C,C4*%
X166250000Y-106100000D03*
X166250000Y-108000000D03*
%TD*%
D10*
%TO.C,R95*%
X200100000Y-108325000D03*
X200100000Y-106500000D03*
%TD*%
D14*
%TO.C,Q1*%
X109300000Y-109100000D03*
X109300000Y-107200000D03*
X111175000Y-108150000D03*
%TD*%
D10*
%TO.C,R92*%
X205000000Y-120325000D03*
X205000000Y-118500000D03*
%TD*%
D11*
%TO.C,R13*%
X120800000Y-142975000D03*
X120800000Y-144800000D03*
%TD*%
D13*
%TO.C,C22*%
X136062500Y-111350000D03*
X136062500Y-113250000D03*
%TD*%
D10*
%TO.C,R91*%
X200100000Y-137325000D03*
X200100000Y-135500000D03*
%TD*%
D15*
%TO.C,C16*%
X145262500Y-116650000D03*
X147162500Y-116650000D03*
%TD*%
D16*
%TO.C,R4*%
X109675000Y-118900000D03*
X111500000Y-118900000D03*
%TD*%
D11*
%TO.C,R45*%
X138562500Y-111662500D03*
X138562500Y-113487500D03*
%TD*%
D17*
%TO.C,R16*%
X173825000Y-125500000D03*
X172000000Y-125500000D03*
%TD*%
%TO.C,R18*%
X169912500Y-108000000D03*
X168087500Y-108000000D03*
%TD*%
D15*
%TO.C,C8*%
X177100000Y-130300000D03*
X179000000Y-130300000D03*
%TD*%
D16*
%TO.C,R1*%
X109075000Y-105400000D03*
X110900000Y-105400000D03*
%TD*%
D11*
%TO.C,R41*%
X162000000Y-115777500D03*
X162000000Y-117602500D03*
%TD*%
D18*
%TO.C,Q4*%
X128880000Y-139200000D03*
D19*
X125075000Y-134575000D03*
X128125000Y-134575000D03*
X125075000Y-131225000D03*
X128125000Y-131225000D03*
D18*
X124320000Y-139200000D03*
%TD*%
D17*
%TO.C,R3*%
X111500000Y-121075000D03*
X109675000Y-121075000D03*
%TD*%
D16*
%TO.C,R17*%
X168087500Y-106000000D03*
X169912500Y-106000000D03*
%TD*%
D11*
%TO.C,R5*%
X113300000Y-110787500D03*
X113300000Y-112612500D03*
%TD*%
D18*
%TO.C,Q3*%
X136080000Y-139200000D03*
D19*
X132275000Y-134575000D03*
X135325000Y-134575000D03*
X132275000Y-131225000D03*
X135325000Y-131225000D03*
D18*
X131520000Y-139200000D03*
%TD*%
D11*
%TO.C,R29*%
X175500000Y-115337500D03*
X175500000Y-117162500D03*
%TD*%
D10*
%TO.C,R36*%
X158000000Y-117575000D03*
X158000000Y-115750000D03*
%TD*%
D20*
%TO.C,D3*%
X123000000Y-142950000D03*
X123000000Y-146250000D03*
%TD*%
D12*
%TO.C,C5*%
X167400000Y-119600000D03*
X165500000Y-119600000D03*
%TD*%
D21*
%TO.C,U19*%
X187562500Y-64725000D03*
X187562500Y-65375000D03*
X187562500Y-66025000D03*
X187562500Y-66675000D03*
X187562500Y-67325000D03*
X187562500Y-67975000D03*
X187562500Y-68625000D03*
X187562500Y-69275000D03*
X187562500Y-69925000D03*
X187562500Y-70575000D03*
X187562500Y-71225000D03*
X187562500Y-71875000D03*
X181837500Y-71875000D03*
X181837500Y-71225000D03*
X181837500Y-70575000D03*
X181837500Y-69925000D03*
X181837500Y-69275000D03*
X181837500Y-68625000D03*
X181837500Y-67975000D03*
X181837500Y-67325000D03*
X181837500Y-66675000D03*
X181837500Y-66025000D03*
X181837500Y-65375000D03*
X181837500Y-64725000D03*
%TD*%
D10*
%TO.C,R97*%
X200100000Y-93812500D03*
X200100000Y-91987500D03*
%TD*%
D11*
%TO.C,R44*%
X138562500Y-108150000D03*
X138562500Y-109975000D03*
%TD*%
D22*
%TO.C,R20*%
X139100000Y-139762500D03*
X139100000Y-136837500D03*
%TD*%
D23*
%TO.C,Q2*%
X113775000Y-120805000D03*
D24*
X118400000Y-117000000D03*
X118400000Y-120050000D03*
X121750000Y-117000000D03*
X121750000Y-120050000D03*
D23*
X113775000Y-116245000D03*
%TD*%
D13*
%TO.C,C7*%
X173450000Y-115300000D03*
X173450000Y-117200000D03*
%TD*%
D25*
%TO.C,C50*%
X181800000Y-63300000D03*
X181800000Y-61400000D03*
%TD*%
D16*
%TO.C,R6*%
X180975000Y-76100000D03*
X182800000Y-76100000D03*
%TD*%
D10*
%TO.C,R96*%
X205100000Y-91325000D03*
X205100000Y-89500000D03*
%TD*%
D26*
%TO.C,L2*%
X147500000Y-112900000D03*
X147500000Y-108200000D03*
%TD*%
D10*
%TO.C,R90*%
X205000000Y-134825000D03*
X205000000Y-133000000D03*
%TD*%
%TO.C,R28*%
X177500000Y-117162500D03*
X177500000Y-115337500D03*
%TD*%
D11*
%TO.C,R37*%
X160000000Y-115750000D03*
X160000000Y-117575000D03*
%TD*%
D12*
%TO.C,C3*%
X155700000Y-123100000D03*
X153800000Y-123100000D03*
%TD*%
D27*
%TO.C,U2*%
X169450000Y-109980000D03*
X169450000Y-111250000D03*
X169450000Y-112520000D03*
X169450000Y-113790000D03*
X169450000Y-115060000D03*
X169450000Y-116330000D03*
X169450000Y-117600000D03*
X164500000Y-117600000D03*
X164500000Y-116330000D03*
X164500000Y-115060000D03*
X164500000Y-113790000D03*
X164500000Y-112520000D03*
X164500000Y-111250000D03*
X164500000Y-109980000D03*
%TD*%
D28*
%TO.C,R32*%
X156737500Y-139250000D03*
X159662500Y-139250000D03*
%TD*%
D16*
%TO.C,R7*%
X181000000Y-74100000D03*
X182825000Y-74100000D03*
%TD*%
D17*
%TO.C,R15*%
X173662500Y-119250000D03*
X171837500Y-119250000D03*
%TD*%
D16*
%TO.C,R10*%
X129075000Y-143200000D03*
X130900000Y-143200000D03*
%TD*%
D22*
%TO.C,R19*%
X142400000Y-139762500D03*
X142400000Y-136837500D03*
%TD*%
D11*
%TO.C,R35*%
X162000000Y-112292500D03*
X162000000Y-114117500D03*
%TD*%
D29*
%TO.C,U6*%
X143000000Y-112200000D03*
X143000000Y-113150000D03*
X143000000Y-114100000D03*
X140725000Y-114100000D03*
X140725000Y-113150000D03*
X140725000Y-112200000D03*
%TD*%
D15*
%TO.C,C19*%
X140862500Y-110350000D03*
X142762500Y-110350000D03*
%TD*%
D17*
%TO.C,R38*%
X182412500Y-130300000D03*
X180587500Y-130300000D03*
%TD*%
D13*
%TO.C,C9*%
X162000000Y-108750000D03*
X162000000Y-110650000D03*
%TD*%
D30*
%TO.C,Q5*%
X171800000Y-121375000D03*
X173700000Y-121375000D03*
X172750000Y-123250000D03*
%TD*%
M02*
