%TF.GenerationSoftware,KiCad,Pcbnew,7.0.1*%
%TF.CreationDate,2023-04-06T21:06:24+02:00*%
%TF.ProjectId,Scout_Robot_Controller,53636f75-745f-4526-9f62-6f745f436f6e,rev?*%
%TF.SameCoordinates,Original*%
%TF.FileFunction,Paste,Top*%
%TF.FilePolarity,Positive*%
%FSLAX46Y46*%
G04 Gerber Fmt 4.6, Leading zero omitted, Abs format (unit mm)*
G04 Created by KiCad (PCBNEW 7.0.1) date 2023-04-06 21:06:24*
%MOMM*%
%LPD*%
G01*
G04 APERTURE LIST*
G04 Aperture macros list*
%AMRoundRect*
0 Rectangle with rounded corners*
0 $1 Rounding radius*
0 $2 $3 $4 $5 $6 $7 $8 $9 X,Y pos of 4 corners*
0 Add a 4 corners polygon primitive as box body*
4,1,4,$2,$3,$4,$5,$6,$7,$8,$9,$2,$3,0*
0 Add four circle primitives for the rounded corners*
1,1,$1+$1,$2,$3*
1,1,$1+$1,$4,$5*
1,1,$1+$1,$6,$7*
1,1,$1+$1,$8,$9*
0 Add four rect primitives between the rounded corners*
20,1,$1+$1,$2,$3,$4,$5,0*
20,1,$1+$1,$4,$5,$6,$7,0*
20,1,$1+$1,$6,$7,$8,$9,0*
20,1,$1+$1,$8,$9,$2,$3,0*%
G04 Aperture macros list end*
%ADD10RoundRect,0.250000X-0.262500X-0.450000X0.262500X-0.450000X0.262500X0.450000X-0.262500X0.450000X0*%
%ADD11RoundRect,0.250000X0.625000X-0.375000X0.625000X0.375000X-0.625000X0.375000X-0.625000X-0.375000X0*%
%ADD12RoundRect,0.250000X-0.650000X0.325000X-0.650000X-0.325000X0.650000X-0.325000X0.650000X0.325000X0*%
%ADD13RoundRect,0.250000X0.300000X-2.050000X0.300000X2.050000X-0.300000X2.050000X-0.300000X-2.050000X0*%
%ADD14RoundRect,0.250000X2.375000X-2.025000X2.375000X2.025000X-2.375000X2.025000X-2.375000X-2.025000X0*%
%ADD15RoundRect,0.250000X-0.325000X-0.650000X0.325000X-0.650000X0.325000X0.650000X-0.325000X0.650000X0*%
%ADD16RoundRect,0.243750X0.243750X0.456250X-0.243750X0.456250X-0.243750X-0.456250X0.243750X-0.456250X0*%
%ADD17RoundRect,0.250000X0.550000X-1.500000X0.550000X1.500000X-0.550000X1.500000X-0.550000X-1.500000X0*%
%ADD18R,1.500000X2.000000*%
%ADD19R,3.800000X2.000000*%
%ADD20RoundRect,0.250000X0.450000X-0.262500X0.450000X0.262500X-0.450000X0.262500X-0.450000X-0.262500X0*%
%ADD21RoundRect,0.243750X-0.243750X-0.456250X0.243750X-0.456250X0.243750X0.456250X-0.243750X0.456250X0*%
%ADD22RoundRect,0.250000X-0.450000X0.262500X-0.450000X-0.262500X0.450000X-0.262500X0.450000X0.262500X0*%
%ADD23RoundRect,0.250000X0.262500X0.450000X-0.262500X0.450000X-0.262500X-0.450000X0.262500X-0.450000X0*%
%ADD24RoundRect,0.243750X0.456250X-0.243750X0.456250X0.243750X-0.456250X0.243750X-0.456250X-0.243750X0*%
%ADD25RoundRect,0.243750X-0.456250X0.243750X-0.456250X-0.243750X0.456250X-0.243750X0.456250X0.243750X0*%
%ADD26RoundRect,0.250000X1.400000X1.000000X-1.400000X1.000000X-1.400000X-1.000000X1.400000X-1.000000X0*%
%ADD27RoundRect,0.250000X0.325000X0.650000X-0.325000X0.650000X-0.325000X-0.650000X0.325000X-0.650000X0*%
%ADD28RoundRect,0.250000X-0.700000X1.950000X-0.700000X-1.950000X0.700000X-1.950000X0.700000X1.950000X0*%
%ADD29RoundRect,0.150000X-0.825000X-0.150000X0.825000X-0.150000X0.825000X0.150000X-0.825000X0.150000X0*%
%ADD30R,2.900000X5.400000*%
%ADD31RoundRect,0.250000X0.250000X0.475000X-0.250000X0.475000X-0.250000X-0.475000X0.250000X-0.475000X0*%
G04 APERTURE END LIST*
D10*
%TO.C,R9*%
X181275000Y-86800000D03*
X183100000Y-86800000D03*
%TD*%
D11*
%TO.C,D10*%
X158500000Y-106150000D03*
X158500000Y-103350000D03*
%TD*%
D10*
%TO.C,R27*%
X146100000Y-128000000D03*
X147925000Y-128000000D03*
%TD*%
D12*
%TO.C,C12*%
X150000000Y-125325000D03*
X150000000Y-128275000D03*
%TD*%
%TO.C,C25*%
X146000000Y-102975000D03*
X146000000Y-105925000D03*
%TD*%
D13*
%TO.C,U3*%
X163175000Y-123225000D03*
X164875000Y-123225000D03*
X166575000Y-123225000D03*
D14*
X163800000Y-116500000D03*
X169350000Y-116500000D03*
X163800000Y-111650000D03*
X169350000Y-111650000D03*
D13*
X168275000Y-123225000D03*
X169975000Y-123225000D03*
%TD*%
D15*
%TO.C,C11*%
X142050000Y-121200000D03*
X145000000Y-121200000D03*
%TD*%
D16*
%TO.C,D8*%
X143837500Y-104550000D03*
X141962500Y-104550000D03*
%TD*%
D17*
%TO.C,C15*%
X145262500Y-115850000D03*
X145262500Y-110450000D03*
%TD*%
D18*
%TO.C,U7*%
X151200000Y-108000000D03*
X153500000Y-108000000D03*
D19*
X153500000Y-101700000D03*
D18*
X155800000Y-108000000D03*
%TD*%
D20*
%TO.C,R24*%
X139800000Y-134312500D03*
X139800000Y-132487500D03*
%TD*%
D15*
%TO.C,C1*%
X202250000Y-61400000D03*
X205200000Y-61400000D03*
%TD*%
D21*
%TO.C,D2*%
X154375000Y-115500000D03*
X156250000Y-115500000D03*
%TD*%
D22*
%TO.C,R21*%
X174000000Y-118887500D03*
X174000000Y-120712500D03*
%TD*%
D23*
%TO.C,R40*%
X136812500Y-130630000D03*
X134987500Y-130630000D03*
%TD*%
D20*
%TO.C,R26*%
X145200000Y-134312500D03*
X145200000Y-132487500D03*
%TD*%
D24*
%TO.C,D6*%
X174000000Y-117187500D03*
X174000000Y-115312500D03*
%TD*%
D10*
%TO.C,R34*%
X146087500Y-125700000D03*
X147912500Y-125700000D03*
%TD*%
D25*
%TO.C,D11*%
X145100000Y-99375000D03*
X145100000Y-101250000D03*
%TD*%
D26*
%TO.C,D1*%
X157000000Y-125000000D03*
X157000000Y-118200000D03*
%TD*%
D27*
%TO.C,C24*%
X155050000Y-110750000D03*
X152100000Y-110750000D03*
%TD*%
D20*
%TO.C,R23*%
X137800000Y-134325000D03*
X137800000Y-132500000D03*
%TD*%
D28*
%TO.C,C20*%
X136162500Y-108000000D03*
X136162500Y-116700000D03*
%TD*%
D10*
%TO.C,R8*%
X181275000Y-84200000D03*
X183100000Y-84200000D03*
%TD*%
D23*
%TO.C,R49*%
X149000000Y-101050000D03*
X147175000Y-101050000D03*
%TD*%
D24*
%TO.C,D4*%
X120800000Y-148337500D03*
X120800000Y-146462500D03*
%TD*%
D10*
%TO.C,R30*%
X135000000Y-123400000D03*
X136825000Y-123400000D03*
%TD*%
D20*
%TO.C,R25*%
X143200000Y-134312500D03*
X143200000Y-132487500D03*
%TD*%
D22*
%TO.C,R14*%
X120800000Y-143000000D03*
X120800000Y-144825000D03*
%TD*%
D26*
%TO.C,D5*%
X157000000Y-135800000D03*
X157000000Y-129000000D03*
%TD*%
D20*
%TO.C,R22*%
X135800000Y-134312500D03*
X135800000Y-132487500D03*
%TD*%
D29*
%TO.C,U4*%
X138950000Y-123220000D03*
X138950000Y-124490000D03*
X138950000Y-125760000D03*
X138950000Y-127030000D03*
X138950000Y-128300000D03*
X138950000Y-129570000D03*
X138950000Y-130840000D03*
X143900000Y-130840000D03*
X143900000Y-129570000D03*
X143900000Y-128300000D03*
X143900000Y-127030000D03*
X143900000Y-125760000D03*
X143900000Y-124490000D03*
X143900000Y-123220000D03*
%TD*%
D10*
%TO.C,R11*%
X157925000Y-115500000D03*
X159750000Y-115500000D03*
%TD*%
D12*
%TO.C,C26*%
X148600000Y-103000000D03*
X148600000Y-105950000D03*
%TD*%
D22*
%TO.C,R12*%
X120800000Y-139487500D03*
X120800000Y-141312500D03*
%TD*%
D23*
%TO.C,R33*%
X140312500Y-121400000D03*
X138487500Y-121400000D03*
%TD*%
D10*
%TO.C,R39*%
X146087500Y-123400000D03*
X147912500Y-123400000D03*
%TD*%
%TO.C,R47*%
X138350000Y-104550000D03*
X140175000Y-104550000D03*
%TD*%
D30*
%TO.C,L1*%
X162150000Y-132600000D03*
X171850000Y-132600000D03*
%TD*%
D31*
%TO.C,C6*%
X134650000Y-127000000D03*
X132750000Y-127000000D03*
%TD*%
D20*
%TO.C,R31*%
X147400000Y-134312500D03*
X147400000Y-132487500D03*
%TD*%
M02*
