M48
; DRILL file {KiCad 7.0.1} date Thu Apr  6 21:05:58 2023
; FORMAT={-:-/ absolute / inch / decimal}
; #@! TF.CreationDate,2023-04-06T21:05:58+02:00
; #@! TF.GenerationSoftware,Kicad,Pcbnew,7.0.1
; #@! TF.FileFunction,Plated,1,2,PTH
FMAT,2
INCH
; #@! TA.AperFunction,Plated,PTH,ViaDrill
T1C0.0118
; #@! TA.AperFunction,Plated,PTH,ViaDrill
T2C0.0157
; #@! TA.AperFunction,Plated,PTH,ComponentDrill
T3C0.0197
; #@! TA.AperFunction,Plated,PTH,ComponentDrill
T4C0.0315
; #@! TA.AperFunction,Plated,PTH,ComponentDrill
T5C0.0374
; #@! TA.AperFunction,Plated,PTH,ComponentDrill
T6C0.0394
; #@! TA.AperFunction,Plated,PTH,ComponentDrill
T7C0.0512
; #@! TA.AperFunction,Plated,PTH,ComponentDrill
T8C0.1260
%
G90
G05
T1
X6.3976Y-1.998
X6.3976Y-2.1949
X6.3976Y-2.3917
X6.3976Y-2.5886
X6.3976Y-2.7854
X6.3976Y-2.9823
X6.3976Y-3.1791
X6.3976Y-3.376
X6.3976Y-3.5728
X6.3976Y-3.7697
X6.3976Y-3.9665
X6.3976Y-4.1634
X6.3976Y-4.3602
X6.3976Y-4.5571
X6.3976Y-4.7539
X6.3976Y-4.9508
X6.3976Y-5.1476
X6.3976Y-5.3445
X6.5945Y-1.998
X6.5945Y-2.1949
X6.5945Y-2.3917
X6.5945Y-3.1791
X6.5945Y-3.376
X6.5945Y-3.5728
X6.5945Y-3.7697
X6.5945Y-4.3602
X6.5945Y-4.5571
X6.5945Y-4.7539
X6.5945Y-4.9508
X6.5945Y-5.1476
X6.5945Y-5.3445
X6.7913Y-1.8012
X6.7913Y-1.998
X6.7913Y-2.1949
X6.7913Y-3.1791
X6.7913Y-3.376
X6.7913Y-4.5571
X6.7913Y-4.7539
X6.7913Y-4.9508
X6.7913Y-5.1476
X6.7913Y-5.3445
X6.7913Y-5.5413
X6.8169Y-2.5846
X6.8169Y-2.6339
X6.8209Y-3.002
X6.8209Y-3.0512
X6.8209Y-3.9193
X6.8209Y-3.9685
X6.8209Y-4.3327
X6.8209Y-4.3819
X6.853Y-2.5846
X6.853Y-2.6339
X6.857Y-3.002
X6.857Y-3.0512
X6.857Y-3.9193
X6.857Y-3.9685
X6.857Y-4.3327
X6.857Y-4.3819
X6.8891Y-2.5846
X6.8891Y-2.6339
X6.893Y-3.002
X6.893Y-3.0512
X6.893Y-3.9193
X6.893Y-3.9685
X6.893Y-4.3327
X6.893Y-4.3819
X6.9252Y-2.5846
X6.9252Y-2.6339
X6.9291Y-3.002
X6.9291Y-3.0512
X6.9291Y-3.9193
X6.9291Y-3.9685
X6.9291Y-4.3327
X6.9291Y-4.3819
X6.9882Y-1.8012
X6.9882Y-1.998
X6.9882Y-2.1949
X6.9882Y-2.3917
X6.9882Y-2.7854
X6.9882Y-3.1791
X6.9882Y-3.376
X6.9882Y-3.7697
X6.9882Y-4.1634
X6.9882Y-4.5571
X6.9882Y-4.9508
X6.9882Y-5.1476
X6.9882Y-5.3445
X6.9882Y-5.5413
X7.185Y-1.8012
X7.185Y-1.998
X7.185Y-2.1949
X7.185Y-3.376
X7.185Y-4.5571
X7.185Y-4.9508
X7.185Y-5.1476
X7.2492Y-2.4789
X7.2492Y-2.5459
X7.2492Y-2.8923
X7.2492Y-2.9593
X7.2598Y-4.2244
X7.2598Y-4.2874
X7.2618Y-3.811
X7.2618Y-3.874
X7.2638Y-4.6063
X7.2638Y-4.6535
X7.2638Y-4.7008
X7.2925Y-2.4789
X7.2925Y-2.5459
X7.2925Y-2.8923
X7.2925Y-2.9593
X7.3071Y-4.2244
X7.3071Y-4.2874
X7.3071Y-4.6063
X7.3071Y-4.6535
X7.3071Y-4.7008
X7.3091Y-3.811
X7.3091Y-3.874
X7.3819Y-1.8012
X7.3819Y-1.998
X7.3819Y-2.1949
X7.3819Y-3.1791
X7.3819Y-3.376
X7.3819Y-4.7539
X7.3819Y-5.3386
X7.5273Y-2.374
X7.5276Y-2.8583
X7.5354Y-3.2717
X7.5394Y-3.811
X7.5394Y-4.1811
X7.5571Y-4.9862
X7.5571Y-5.0217
X7.563Y-3.7008
X7.5787Y-1.8012
X7.5787Y-1.998
X7.5787Y-2.1949
X7.5787Y-2.4803
X7.5787Y-2.7854
X7.5787Y-2.9823
X7.5787Y-3.376
X7.5787Y-4.3602
X7.5787Y-4.9508
X7.5787Y-5.1476
X7.5787Y-5.3445
X7.5866Y-3.8189
X7.5866Y-4.2008
X7.603Y-4.9862
X7.603Y-5.0217
X7.649Y-4.9862
X7.649Y-5.0217
X7.6949Y-4.9862
X7.6949Y-5.0217
X7.7378Y-2.0054
X7.7737Y-2.0497
X7.7756Y-1.8012
X7.7756Y-2.1949
X7.7756Y-2.5886
X7.7756Y-3.1791
X7.7756Y-3.376
X7.7756Y-3.9665
X7.7756Y-4.1634
X7.7756Y-4.3602
X7.7756Y-4.5571
X7.7756Y-4.7539
X7.7756Y-4.9508
X7.7756Y-5.1476
X7.7756Y-5.3445
X7.8071Y-2.0497
X7.8583Y-2.0276
X7.8661Y-2.3819
X7.8661Y-2.4154
X7.8661Y-2.4488
X7.8661Y-2.4823
X7.8661Y-2.5157
X7.8675Y-3.7047
X7.8675Y-3.7382
X7.8675Y-3.7717
X7.8675Y-3.8051
X7.8675Y-3.8386
X7.9081Y-2.3819
X7.9081Y-2.4154
X7.9081Y-2.4488
X7.9081Y-2.4823
X7.9081Y-2.5157
X7.9094Y-3.7047
X7.9094Y-3.7382
X7.9094Y-3.7717
X7.9094Y-3.8051
X7.9094Y-3.8386
X7.9252Y-2.7323
X7.9389Y-2.0139
X7.9501Y-2.3819
X7.9501Y-2.4154
X7.9501Y-2.4488
X7.9501Y-2.4823
X7.9501Y-2.5157
X7.9514Y-3.7047
X7.9514Y-3.7382
X7.9514Y-3.7717
X7.9514Y-3.8051
X7.9514Y-3.8386
X7.9724Y-1.8012
X7.9724Y-2.1949
X7.9724Y-2.5886
X7.9724Y-3.1791
X7.9724Y-3.376
X7.9724Y-3.9665
X7.9724Y-4.1634
X7.9724Y-4.5571
X7.9724Y-4.7539
X7.9724Y-4.9508
X7.9724Y-5.1476
X7.9724Y-5.3445
X7.9921Y-2.3819
X7.9921Y-2.4154
X7.9921Y-2.4488
X7.9921Y-2.4823
X7.9921Y-2.5157
X7.9921Y-4.0512
X7.9933Y-4.0996
X7.9934Y-3.7047
X7.9934Y-3.7382
X7.9934Y-3.7717
X7.9934Y-3.8051
X7.9934Y-3.8386
X8.0033Y-3.237
X8.0354Y-3.4803
X8.0427Y-3.3465
X8.0435Y-3.315
X8.0438Y-3.2835
X8.0449Y-2.2917
X8.0449Y-2.3366
X8.1289Y-3.277
X8.1417Y-3.3228
X8.1521Y-3.3583
X8.1547Y-3.0524
X8.155Y-2.3123
X8.1555Y-3.1035
X8.1579Y-3.1402
X8.1693Y-1.8012
X8.1693Y-1.998
X8.1693Y-5.1476
X8.1693Y-5.3445
X8.1732Y-4.0512
X8.1744Y-4.0996
X8.1754Y-3.3371
X8.1772Y-2.7323
X8.1772Y-2.7835
X8.1772Y-2.3346
X8.1828Y-3.437
X8.1828Y-3.4843
X8.2345Y-2.3034
X8.2362Y-2.3349
X8.3661Y-1.8012
X8.3661Y-1.998
X8.3661Y-2.1949
X8.3661Y-5.1476
X8.3661Y-5.3445
X8.563Y-1.8012
X8.563Y-1.998
X8.563Y-2.1949
X8.563Y-2.3917
X8.563Y-3.7697
X8.563Y-4.3602
X8.563Y-4.7539
X8.563Y-4.9508
X8.563Y-5.1476
X8.5827Y-2.7874
X8.5827Y-2.8361
X8.6142Y-2.7874
X8.6181Y-3.6142
X8.6473Y-2.7889
X8.6516Y-4.1161
X8.6516Y-4.1496
X8.6516Y-4.2244
X8.6516Y-4.2579
X8.6693Y-3.0669
X8.6788Y-2.7889
X8.7008Y-4.5276
X8.7008Y-4.5669
X8.7008Y-4.6063
X8.7008Y-3.9449
X8.7008Y-3.9783
X8.7008Y-4.0118
X8.7008Y-4.0453
X8.7008Y-4.0787
X8.7008Y-3.067
X8.7047Y-2.6043
X8.7047Y-2.6378
X8.7047Y-2.6713
X8.7047Y-2.7047
X8.7047Y-2.7382
X8.7087Y-3.25
X8.7126Y-2.7889
X8.7162Y-4.6595
X8.7162Y-4.6989
X8.7162Y-4.9351
X8.7324Y-3.0671
X8.7402Y-4.5276
X8.7402Y-4.5669
X8.7402Y-4.6063
X8.7428Y-3.9449
X8.7428Y-3.9783
X8.7428Y-4.0118
X8.7428Y-4.0453
X8.7428Y-4.0787
X8.7467Y-2.6043
X8.7467Y-2.6378
X8.7467Y-2.6713
X8.7467Y-2.7047
X8.7467Y-2.7382
X8.75Y-5.0172
X8.7556Y-4.6595
X8.7556Y-4.6989
X8.7556Y-4.7383
X8.7556Y-4.9351
X8.7598Y-1.8012
X8.7598Y-1.998
X8.7598Y-2.1949
X8.7598Y-2.7854
X8.7598Y-2.9823
X8.7598Y-3.376
X8.7598Y-3.7697
X8.7598Y-4.1634
X8.7598Y-4.3602
X8.7638Y-3.0669
X8.7795Y-4.5276
X8.7795Y-4.5669
X8.7795Y-4.6063
X8.7848Y-3.9449
X8.7848Y-3.9783
X8.7848Y-4.0118
X8.7848Y-4.0453
X8.7848Y-4.0787
X8.7887Y-2.6043
X8.7887Y-2.6378
X8.7887Y-2.6713
X8.7887Y-2.7047
X8.7887Y-2.7382
X8.795Y-4.6595
X8.795Y-4.817
X8.7953Y-4.8583
X8.8189Y-3.2477
X8.8189Y-4.5276
X8.8189Y-4.5669
X8.8189Y-4.6063
X8.8268Y-3.9449
X8.8268Y-3.9783
X8.8268Y-4.0118
X8.8268Y-4.0453
X8.8268Y-4.0787
X8.8307Y-2.6043
X8.8307Y-2.6378
X8.8307Y-2.6713
X8.8307Y-2.7047
X8.8307Y-2.7382
X8.8344Y-4.6595
X8.8344Y-4.817
X8.8346Y-4.8583
X8.8484Y-5.0757
X8.8583Y-4.5276
X8.8583Y-4.5669
X8.8583Y-4.6063
X8.872Y-3.6319
X8.8737Y-4.6595
X8.8737Y-4.817
X8.8737Y-4.8564
X8.8819Y-5.0
X8.8819Y-5.0394
X8.8886Y-1.9772
X8.8976Y-4.5276
X8.8976Y-4.5669
X8.8976Y-4.6063
X8.9131Y-4.6595
X8.9131Y-4.817
X8.9131Y-4.8564
X8.9213Y-5.0
X8.9213Y-5.0394
X8.9252Y-5.0787
X8.9331Y-4.1378
X8.9331Y-4.315
X8.937Y-4.5276
X8.937Y-4.5669
X8.937Y-4.6063
X8.9525Y-4.6595
X8.9525Y-4.817
X8.9525Y-4.8564
X8.9567Y-2.1949
X8.9567Y-2.7854
X8.9567Y-2.9823
X8.9567Y-4.1634
X8.9724Y-3.9213
X8.9918Y-4.817
X8.9918Y-4.8564
X8.9961Y-2.4567
X9.0118Y-4.9921
X9.0217Y-2.0827
X9.0312Y-4.817
X9.0312Y-4.8564
X9.0354Y-3.4803
X9.0706Y-4.817
X9.0706Y-4.8564
X9.0748Y-5.2992
X9.0748Y-5.3346
X9.0748Y-5.374
X9.0748Y-5.4134
X9.1063Y-4.4606
X9.1099Y-4.817
X9.1099Y-4.8564
X9.1102Y-4.0866
X9.1142Y-2.752
X9.1142Y-3.2402
X9.1142Y-5.2992
X9.1142Y-5.3346
X9.1142Y-5.374
X9.1142Y-5.4134
X9.1493Y-4.817
X9.1493Y-4.8564
X9.1535Y-1.8012
X9.1535Y-3.5728
X9.1535Y-4.9508
X9.1535Y-5.1476
X9.1535Y-5.2992
X9.1535Y-5.3346
X9.1535Y-5.374
X9.1535Y-5.4134
X9.1575Y-4.0827
X9.1575Y-4.4646
X9.1614Y-2.752
X9.1614Y-3.126
X9.1634Y-2.0827
X9.1887Y-4.817
X9.1887Y-4.8564
X9.2281Y-4.817
X9.2281Y-4.8564
X9.2281Y-4.8958
X9.2281Y-4.9351
X9.2281Y-4.9745
X9.2281Y-5.0139
X9.2281Y-5.0532
X9.2281Y-5.0926
X9.2281Y-5.132
X9.2281Y-5.1714
X9.2281Y-5.2107
X9.2281Y-5.2501
X9.2674Y-4.817
X9.2674Y-4.8564
X9.2674Y-4.8958
X9.2674Y-4.9351
X9.2674Y-4.9745
X9.2674Y-5.0139
X9.2674Y-5.0532
X9.2674Y-5.0926
X9.2674Y-5.132
X9.2674Y-5.1714
X9.2674Y-5.2107
X9.2674Y-5.2501
X9.3068Y-4.817
X9.3068Y-4.8564
X9.3068Y-4.8958
X9.3068Y-4.9351
X9.3068Y-4.9745
X9.3068Y-5.0139
X9.3068Y-5.0532
X9.3068Y-5.0926
X9.3068Y-5.132
X9.3068Y-5.1714
X9.3068Y-5.2107
X9.3068Y-5.2501
X9.3504Y-1.8012
X9.3504Y-1.998
X9.3504Y-2.1949
X9.3504Y-3.376
X9.3504Y-3.5728
X9.3504Y-3.9665
X9.3504Y-4.3602
X9.3504Y-5.5413
X9.3878Y-3.0669
X9.3878Y-3.1299
X9.3917Y-2.6496
X9.3917Y-2.7126
X9.3917Y-3.9862
X9.3917Y-4.0492
X9.3917Y-4.4035
X9.3917Y-4.4665
X9.435Y-3.0669
X9.435Y-3.1299
X9.439Y-2.6496
X9.439Y-2.7126
X9.439Y-3.9862
X9.439Y-4.0492
X9.439Y-4.4035
X9.439Y-4.4665
X9.5472Y-1.8012
X9.5472Y-1.998
X9.5472Y-2.1949
X9.5472Y-2.7854
X9.5472Y-3.376
X9.5472Y-3.5728
X9.5472Y-4.1634
X9.5472Y-4.5571
X9.5472Y-4.7539
X9.5472Y-4.9508
X9.5472Y-5.1476
X9.5472Y-5.3445
X9.5472Y-5.5413
X9.6063Y-3.8622
X9.7441Y-1.8012
X9.7441Y-1.998
X9.7441Y-2.1949
X9.7441Y-3.1791
X9.7441Y-3.376
X9.7441Y-3.5728
X9.7441Y-4.5571
X9.7441Y-4.7539
X9.7441Y-4.9508
X9.7441Y-5.1476
X9.7441Y-5.3445
X9.7441Y-5.5413
X9.7647Y-4.311
X9.7647Y-4.3602
X9.7669Y-3.8917
X9.7669Y-3.9409
X9.7703Y-2.9705
X9.7703Y-3.0197
X9.7723Y-2.5591
X9.7723Y-2.6083
X9.7968Y-4.3602
X9.799Y-3.9409
X9.8008Y-4.311
X9.8025Y-3.0197
X9.803Y-3.8917
X9.8045Y-2.6083
X9.8064Y-2.9705
X9.8084Y-2.5591
X9.8369Y-4.311
X9.8369Y-4.3602
X9.8391Y-3.8917
X9.8391Y-3.9409
X9.8425Y-2.9705
X9.8425Y-3.0197
X9.8445Y-2.5591
X9.8445Y-2.6083
X9.873Y-4.311
X9.873Y-4.3602
X9.8752Y-3.8917
X9.8752Y-3.9409
X9.8786Y-2.9705
X9.8786Y-3.0197
X9.8806Y-2.5591
X9.8806Y-2.6083
X9.9409Y-1.8012
X9.9409Y-1.998
X9.9409Y-2.1949
X9.9409Y-2.3917
X9.9409Y-2.5886
X9.9409Y-2.7854
X9.9409Y-2.9823
X9.9409Y-3.1791
X9.9409Y-3.376
X9.9409Y-3.5728
X9.9409Y-3.7697
X9.9409Y-4.1634
X9.9409Y-4.3602
X9.9409Y-4.5571
X9.9409Y-4.7539
X9.9409Y-4.9508
X9.9409Y-5.1476
X9.9409Y-5.3445
X9.9409Y-5.5413
X10.1378Y-1.998
X10.1378Y-2.1949
X10.1378Y-2.3917
X10.1378Y-2.5886
X10.1378Y-3.1791
X10.1378Y-3.376
X10.1378Y-3.5728
X10.1378Y-3.7697
X10.1378Y-4.5571
X10.1378Y-4.7539
X10.1378Y-4.9508
X10.1378Y-5.1476
T2
X7.3541Y-3.7805
X7.3673Y-2.8766
X7.3712Y-2.412
X7.3738Y-4.2018
X7.4775Y-2.5755
X7.4775Y-3.0656
X7.488Y-3.9086
X7.488Y-4.3986
X9.2049Y-4.3616
X9.2089Y-3.8734
X9.2128Y-2.548
X9.2165Y-3.0364
X9.323Y-4.0703
X9.3268Y-2.7293
X9.3427Y-4.4797
X9.3504Y-3.1703
T3
X6.4409Y-1.8504
X6.4409Y-5.4724
X6.4686Y-1.7836
X6.4686Y-1.9172
X6.4686Y-5.4056
X6.4686Y-5.5393
X6.5354Y-1.7559
X6.5354Y-1.9449
X6.5354Y-5.378
X6.5354Y-5.5669
X6.6022Y-1.7836
X6.6022Y-1.9172
X6.6022Y-5.4056
X6.6022Y-5.5393
X6.6299Y-1.8504
X6.6299Y-5.4724
X10.063Y-1.8504
X10.063Y-5.4724
X10.0907Y-1.7836
X10.0907Y-1.9172
X10.0907Y-5.4056
X10.0907Y-5.5393
X10.1575Y-1.7559
X10.1575Y-1.9449
X10.1575Y-5.378
X10.1575Y-5.5669
X10.2243Y-1.7836
X10.2243Y-1.9172
X10.2243Y-5.4056
X10.2243Y-5.5393
X10.252Y-1.8504
X10.252Y-5.4724
T4
X8.5236Y-5.2583
X8.5236Y-5.3583
X8.5236Y-5.4583
T5
X8.878Y-1.8591
X8.9764Y-1.8591
X9.0748Y-1.8591
X9.1732Y-1.8591
X9.2717Y-1.8591
T6
X7.5134Y-1.8504
X7.5134Y-1.9504
X7.6134Y-1.8504
X7.6134Y-1.9504
X7.7134Y-1.8504
X7.7134Y-1.9504
X7.8134Y-1.8504
X7.8134Y-1.9504
X7.9134Y-1.8504
X7.9134Y-1.9504
X8.2185Y-4.9658
X8.2185Y-5.1627
X8.75Y-5.3583
X8.9469Y-5.3583
T7
X6.6348Y-2.6758
X6.6348Y-2.8726
X6.6348Y-4.0089
X6.6348Y-4.2057
X9.2815Y-5.3543
X9.4783Y-5.3543
X10.0514Y-4.0703
X10.0514Y-4.2671
X10.0551Y-2.7372
X10.0551Y-2.9341
T8
X6.5354Y-1.8504
X6.5354Y-5.4724
X10.1575Y-1.8504
X10.1575Y-5.4724
T0
M30
