%TF.GenerationSoftware,KiCad,Pcbnew,7.0.1*%
%TF.CreationDate,2023-04-06T21:05:58+02:00*%
%TF.ProjectId,Scout_Robot_Motor_Driver,53636f75-745f-4526-9f62-6f745f4d6f74,rev?*%
%TF.SameCoordinates,Original*%
%TF.FileFunction,Paste,Bot*%
%TF.FilePolarity,Positive*%
%FSLAX46Y46*%
G04 Gerber Fmt 4.6, Leading zero omitted, Abs format (unit mm)*
G04 Created by KiCad (PCBNEW 7.0.1) date 2023-04-06 21:05:58*
%MOMM*%
%LPD*%
G01*
G04 APERTURE LIST*
G04 Aperture macros list*
%AMRoundRect*
0 Rectangle with rounded corners*
0 $1 Rounding radius*
0 $2 $3 $4 $5 $6 $7 $8 $9 X,Y pos of 4 corners*
0 Add a 4 corners polygon primitive as box body*
4,1,4,$2,$3,$4,$5,$6,$7,$8,$9,$2,$3,0*
0 Add four circle primitives for the rounded corners*
1,1,$1+$1,$2,$3*
1,1,$1+$1,$4,$5*
1,1,$1+$1,$6,$7*
1,1,$1+$1,$8,$9*
0 Add four rect primitives between the rounded corners*
20,1,$1+$1,$2,$3,$4,$5,0*
20,1,$1+$1,$4,$5,$6,$7,0*
20,1,$1+$1,$6,$7,$8,$9,0*
20,1,$1+$1,$8,$9,$2,$3,0*%
G04 Aperture macros list end*
%ADD10RoundRect,0.250000X0.262500X0.450000X-0.262500X0.450000X-0.262500X-0.450000X0.262500X-0.450000X0*%
%ADD11R,1.400000X0.300000*%
%ADD12RoundRect,0.150000X0.150000X-0.587500X0.150000X0.587500X-0.150000X0.587500X-0.150000X-0.587500X0*%
%ADD13RoundRect,0.250000X-0.650000X0.325000X-0.650000X-0.325000X0.650000X-0.325000X0.650000X0.325000X0*%
%ADD14RoundRect,0.250000X0.375000X0.625000X-0.375000X0.625000X-0.375000X-0.625000X0.375000X-0.625000X0*%
%ADD15RoundRect,0.250000X-0.262500X-0.450000X0.262500X-0.450000X0.262500X0.450000X-0.262500X0.450000X0*%
%ADD16RoundRect,0.150000X0.825000X0.150000X-0.825000X0.150000X-0.825000X-0.150000X0.825000X-0.150000X0*%
%ADD17RoundRect,0.250000X-0.312500X-1.075000X0.312500X-1.075000X0.312500X1.075000X-0.312500X1.075000X0*%
%ADD18RoundRect,0.250000X-0.325000X-0.650000X0.325000X-0.650000X0.325000X0.650000X-0.325000X0.650000X0*%
%ADD19RoundRect,0.250000X0.250000X0.475000X-0.250000X0.475000X-0.250000X-0.475000X0.250000X-0.475000X0*%
%ADD20RoundRect,0.250000X0.325000X0.650000X-0.325000X0.650000X-0.325000X-0.650000X0.325000X-0.650000X0*%
%ADD21RoundRect,0.250000X-0.475000X0.250000X-0.475000X-0.250000X0.475000X-0.250000X0.475000X0.250000X0*%
%ADD22RoundRect,0.250000X0.475000X-0.250000X0.475000X0.250000X-0.475000X0.250000X-0.475000X-0.250000X0*%
G04 APERTURE END LIST*
D10*
%TO.C,R31*%
X217212500Y-85800000D03*
X215387500Y-85800000D03*
%TD*%
D11*
%TO.C,U12*%
X223550000Y-129500000D03*
X223550000Y-129000000D03*
X223550000Y-128500000D03*
X223550000Y-128000000D03*
X223550000Y-127500000D03*
X227950000Y-127500000D03*
X227950000Y-128000000D03*
X227950000Y-128500000D03*
X227950000Y-129000000D03*
X227950000Y-129500000D03*
%TD*%
D12*
%TO.C,Q7*%
X214850000Y-110475000D03*
X212950000Y-110475000D03*
X213900000Y-108600000D03*
%TD*%
D13*
%TO.C,C33*%
X187500000Y-136650000D03*
X187500000Y-139600000D03*
%TD*%
D14*
%TO.C,D25*%
X226900000Y-131700000D03*
X224100000Y-131700000D03*
%TD*%
D10*
%TO.C,R36*%
X228825000Y-92400000D03*
X227000000Y-92400000D03*
%TD*%
D15*
%TO.C,R33*%
X215387500Y-92400000D03*
X217212500Y-92400000D03*
%TD*%
D10*
%TO.C,R41*%
X221162500Y-130250000D03*
X219337500Y-130250000D03*
%TD*%
D16*
%TO.C,U11*%
X224575000Y-83290000D03*
X224575000Y-84560000D03*
X224575000Y-85830000D03*
X224575000Y-87100000D03*
X224575000Y-88370000D03*
X224575000Y-89640000D03*
X224575000Y-90910000D03*
X219625000Y-90910000D03*
X219625000Y-89640000D03*
X219625000Y-88370000D03*
X219625000Y-87100000D03*
X219625000Y-85830000D03*
X219625000Y-84560000D03*
X219625000Y-83290000D03*
%TD*%
D17*
%TO.C,R26*%
X184575000Y-70400000D03*
X187500000Y-70400000D03*
%TD*%
D18*
%TO.C,C19*%
X230625000Y-84000000D03*
X233575000Y-84000000D03*
%TD*%
D10*
%TO.C,R38*%
X217200000Y-83800000D03*
X215375000Y-83800000D03*
%TD*%
D16*
%TO.C,U2*%
X214575000Y-65590000D03*
X214575000Y-66860000D03*
X214575000Y-68130000D03*
X214575000Y-69400000D03*
X214575000Y-70670000D03*
X214575000Y-71940000D03*
X214575000Y-73210000D03*
X209625000Y-73210000D03*
X209625000Y-71940000D03*
X209625000Y-70670000D03*
X209625000Y-69400000D03*
X209625000Y-68130000D03*
X209625000Y-66860000D03*
X209625000Y-65590000D03*
%TD*%
D17*
%TO.C,R27*%
X185037500Y-104200000D03*
X187962500Y-104200000D03*
%TD*%
D19*
%TO.C,C10*%
X209100000Y-63700000D03*
X207200000Y-63700000D03*
%TD*%
%TO.C,C26*%
X221250000Y-132500000D03*
X219350000Y-132500000D03*
%TD*%
D12*
%TO.C,Q1*%
X210850000Y-110475000D03*
X208950000Y-110475000D03*
X209900000Y-108600000D03*
%TD*%
D10*
%TO.C,R37*%
X217200000Y-90400000D03*
X215375000Y-90400000D03*
%TD*%
%TO.C,R2*%
X211025000Y-79100000D03*
X209200000Y-79100000D03*
%TD*%
D15*
%TO.C,R15*%
X205575000Y-114600000D03*
X207400000Y-114600000D03*
%TD*%
D10*
%TO.C,R35*%
X228825000Y-81800000D03*
X227000000Y-81800000D03*
%TD*%
D19*
%TO.C,C9*%
X205400000Y-99900000D03*
X203500000Y-99900000D03*
%TD*%
D20*
%TO.C,C20*%
X213400000Y-90200000D03*
X210450000Y-90200000D03*
%TD*%
D21*
%TO.C,C23*%
X222300000Y-94050000D03*
X222300000Y-95950000D03*
%TD*%
D19*
%TO.C,C24*%
X217550000Y-128000000D03*
X215650000Y-128000000D03*
%TD*%
D10*
%TO.C,R30*%
X217225000Y-88400000D03*
X215400000Y-88400000D03*
%TD*%
D12*
%TO.C,Q2*%
X211050000Y-76937500D03*
X209150000Y-76937500D03*
X210100000Y-75062500D03*
%TD*%
D21*
%TO.C,C28*%
X211500000Y-127700000D03*
X211500000Y-129600000D03*
%TD*%
D15*
%TO.C,R3*%
X205487500Y-106500000D03*
X207312500Y-106500000D03*
%TD*%
%TO.C,R40*%
X226975000Y-90400000D03*
X228800000Y-90400000D03*
%TD*%
D19*
%TO.C,C25*%
X221200000Y-128000000D03*
X219300000Y-128000000D03*
%TD*%
D15*
%TO.C,R14*%
X213200000Y-79000000D03*
X215025000Y-79000000D03*
%TD*%
%TO.C,R29*%
X226987500Y-85900000D03*
X228812500Y-85900000D03*
%TD*%
%TO.C,R16*%
X205475000Y-81200000D03*
X207300000Y-81200000D03*
%TD*%
D18*
%TO.C,C22*%
X230625000Y-90200000D03*
X233575000Y-90200000D03*
%TD*%
D17*
%TO.C,R25*%
X239137500Y-72100000D03*
X242062500Y-72100000D03*
%TD*%
D15*
%TO.C,R34*%
X215387500Y-81800000D03*
X217212500Y-81800000D03*
%TD*%
D20*
%TO.C,C21*%
X213575000Y-84000000D03*
X210625000Y-84000000D03*
%TD*%
D15*
%TO.C,R13*%
X213100000Y-112500000D03*
X214925000Y-112500000D03*
%TD*%
D10*
%TO.C,R1*%
X210800000Y-112500000D03*
X208975000Y-112500000D03*
%TD*%
D16*
%TO.C,U1*%
X214350000Y-99050000D03*
X214350000Y-100320000D03*
X214350000Y-101590000D03*
X214350000Y-102860000D03*
X214350000Y-104130000D03*
X214350000Y-105400000D03*
X214350000Y-106670000D03*
X209400000Y-106670000D03*
X209400000Y-105400000D03*
X209400000Y-104130000D03*
X209400000Y-102860000D03*
X209400000Y-101590000D03*
X209400000Y-100320000D03*
X209400000Y-99050000D03*
%TD*%
D15*
%TO.C,R4*%
X205475000Y-73200000D03*
X207300000Y-73200000D03*
%TD*%
D22*
%TO.C,C27*%
X230400000Y-129450000D03*
X230400000Y-127550000D03*
%TD*%
D15*
%TO.C,R32*%
X226987500Y-88400000D03*
X228812500Y-88400000D03*
%TD*%
D12*
%TO.C,Q8*%
X215050000Y-76875000D03*
X213150000Y-76875000D03*
X214100000Y-75000000D03*
%TD*%
D17*
%TO.C,R28*%
X239100000Y-107300000D03*
X242025000Y-107300000D03*
%TD*%
D15*
%TO.C,R39*%
X227000000Y-83800000D03*
X228825000Y-83800000D03*
%TD*%
M02*
