%TF.GenerationSoftware,KiCad,Pcbnew,7.0.1*%
%TF.CreationDate,2023-04-06T21:05:58+02:00*%
%TF.ProjectId,Scout_Robot_Motor_Driver,53636f75-745f-4526-9f62-6f745f4d6f74,rev?*%
%TF.SameCoordinates,Original*%
%TF.FileFunction,Paste,Top*%
%TF.FilePolarity,Positive*%
%FSLAX46Y46*%
G04 Gerber Fmt 4.6, Leading zero omitted, Abs format (unit mm)*
G04 Created by KiCad (PCBNEW 7.0.1) date 2023-04-06 21:05:58*
%MOMM*%
%LPD*%
G01*
G04 APERTURE LIST*
G04 Aperture macros list*
%AMRoundRect*
0 Rectangle with rounded corners*
0 $1 Rounding radius*
0 $2 $3 $4 $5 $6 $7 $8 $9 X,Y pos of 4 corners*
0 Add a 4 corners polygon primitive as box body*
4,1,4,$2,$3,$4,$5,$6,$7,$8,$9,$2,$3,0*
0 Add four circle primitives for the rounded corners*
1,1,$1+$1,$2,$3*
1,1,$1+$1,$4,$5*
1,1,$1+$1,$6,$7*
1,1,$1+$1,$8,$9*
0 Add four rect primitives between the rounded corners*
20,1,$1+$1,$2,$3,$4,$5,0*
20,1,$1+$1,$4,$5,$6,$7,0*
20,1,$1+$1,$6,$7,$8,$9,0*
20,1,$1+$1,$8,$9,$2,$3,0*%
G04 Aperture macros list end*
%ADD10RoundRect,0.250000X0.262500X0.450000X-0.262500X0.450000X-0.262500X-0.450000X0.262500X-0.450000X0*%
%ADD11RoundRect,0.250000X0.625000X-0.312500X0.625000X0.312500X-0.625000X0.312500X-0.625000X-0.312500X0*%
%ADD12RoundRect,0.250000X0.375000X0.625000X-0.375000X0.625000X-0.375000X-0.625000X0.375000X-0.625000X0*%
%ADD13RoundRect,0.150000X0.150000X-0.825000X0.150000X0.825000X-0.150000X0.825000X-0.150000X-0.825000X0*%
%ADD14RoundRect,0.243750X-0.243750X-0.456250X0.243750X-0.456250X0.243750X0.456250X-0.243750X0.456250X0*%
%ADD15RoundRect,0.250000X0.625000X-0.375000X0.625000X0.375000X-0.625000X0.375000X-0.625000X-0.375000X0*%
%ADD16RoundRect,0.250000X-0.262500X-0.450000X0.262500X-0.450000X0.262500X0.450000X-0.262500X0.450000X0*%
%ADD17RoundRect,0.150000X-0.825000X-0.150000X0.825000X-0.150000X0.825000X0.150000X-0.825000X0.150000X0*%
%ADD18RoundRect,0.250000X1.950000X0.700000X-1.950000X0.700000X-1.950000X-0.700000X1.950000X-0.700000X0*%
%ADD19RoundRect,0.250000X-0.250000X-0.475000X0.250000X-0.475000X0.250000X0.475000X-0.250000X0.475000X0*%
%ADD20RoundRect,0.250000X-0.625000X0.375000X-0.625000X-0.375000X0.625000X-0.375000X0.625000X0.375000X0*%
%ADD21RoundRect,0.250000X0.250000X0.475000X-0.250000X0.475000X-0.250000X-0.475000X0.250000X-0.475000X0*%
%ADD22RoundRect,0.250000X-0.375000X-0.625000X0.375000X-0.625000X0.375000X0.625000X-0.375000X0.625000X0*%
%ADD23RoundRect,0.150000X0.825000X0.150000X-0.825000X0.150000X-0.825000X-0.150000X0.825000X-0.150000X0*%
%ADD24R,1.500000X2.000000*%
%ADD25R,3.800000X2.000000*%
%ADD26RoundRect,0.250000X0.850000X0.350000X-0.850000X0.350000X-0.850000X-0.350000X0.850000X-0.350000X0*%
%ADD27RoundRect,0.250000X1.275000X1.125000X-1.275000X1.125000X-1.275000X-1.125000X1.275000X-1.125000X0*%
%ADD28RoundRect,0.250000X0.475000X-0.250000X0.475000X0.250000X-0.475000X0.250000X-0.475000X-0.250000X0*%
%ADD29RoundRect,0.250000X-0.475000X0.250000X-0.475000X-0.250000X0.475000X-0.250000X0.475000X0.250000X0*%
%ADD30RoundRect,0.250000X0.450000X-0.262500X0.450000X0.262500X-0.450000X0.262500X-0.450000X-0.262500X0*%
%ADD31RoundRect,0.243750X0.243750X0.456250X-0.243750X0.456250X-0.243750X-0.456250X0.243750X-0.456250X0*%
%ADD32RoundRect,0.150000X-0.150000X0.825000X-0.150000X-0.825000X0.150000X-0.825000X0.150000X0.825000X0*%
%ADD33RoundRect,0.235000X0.940000X1.465000X-0.940000X1.465000X-0.940000X-1.465000X0.940000X-1.465000X0*%
%ADD34RoundRect,0.250000X-0.325000X-0.650000X0.325000X-0.650000X0.325000X0.650000X-0.325000X0.650000X0*%
%ADD35RoundRect,0.250000X0.550000X-1.500000X0.550000X1.500000X-0.550000X1.500000X-0.550000X-1.500000X0*%
G04 APERTURE END LIST*
D10*
%TO.C,R10*%
X187041697Y-71765000D03*
X185216697Y-71765000D03*
%TD*%
%TO.C,R44*%
X210450000Y-135900000D03*
X208625000Y-135900000D03*
%TD*%
D11*
%TO.C,R43*%
X212500000Y-138712500D03*
X212500000Y-135787500D03*
%TD*%
D12*
%TO.C,D6*%
X183095000Y-105425000D03*
X180295000Y-105425000D03*
%TD*%
D10*
%TO.C,R9*%
X187741697Y-79265000D03*
X185916697Y-79265000D03*
%TD*%
D13*
%TO.C,U10*%
X230195000Y-80950000D03*
X231465000Y-80950000D03*
X232735000Y-80950000D03*
X234005000Y-80950000D03*
X234005000Y-76000000D03*
X232735000Y-76000000D03*
X231465000Y-76000000D03*
X230195000Y-76000000D03*
%TD*%
D12*
%TO.C,D9*%
X187529197Y-77095000D03*
X184729197Y-77095000D03*
%TD*%
D13*
%TO.C,U9*%
X230195000Y-68350000D03*
X231465000Y-68350000D03*
X232735000Y-68350000D03*
X234005000Y-68350000D03*
X234005000Y-63400000D03*
X232735000Y-63400000D03*
X231465000Y-63400000D03*
X230195000Y-63400000D03*
%TD*%
D14*
%TO.C,D29*%
X181562500Y-120600000D03*
X183437500Y-120600000D03*
%TD*%
D15*
%TO.C,D2*%
X196195000Y-99325000D03*
X196195000Y-96525000D03*
%TD*%
D16*
%TO.C,R46*%
X187075000Y-129000000D03*
X188900000Y-129000000D03*
%TD*%
D17*
%TO.C,Q10*%
X241330000Y-109430000D03*
X241330000Y-110700000D03*
X241330000Y-111970000D03*
X241330000Y-113240000D03*
X246280000Y-113240000D03*
X246280000Y-111970000D03*
X246280000Y-110700000D03*
X246280000Y-109430000D03*
%TD*%
D18*
%TO.C,C35*%
X182500000Y-129200000D03*
X173800000Y-129200000D03*
%TD*%
D19*
%TO.C,C15*%
X230105000Y-94685000D03*
X232005000Y-94685000D03*
%TD*%
D20*
%TO.C,D15*%
X228000000Y-64325000D03*
X228000000Y-67125000D03*
%TD*%
D21*
%TO.C,C6*%
X194095000Y-102825000D03*
X192195000Y-102825000D03*
%TD*%
D16*
%TO.C,R24*%
X237475000Y-81325000D03*
X239300000Y-81325000D03*
%TD*%
D22*
%TO.C,D18*%
X241005000Y-104785000D03*
X243805000Y-104785000D03*
%TD*%
D23*
%TO.C,Q5*%
X182504197Y-77470000D03*
X182504197Y-76200000D03*
X182504197Y-74930000D03*
X182504197Y-73660000D03*
X177554197Y-73660000D03*
X177554197Y-74930000D03*
X177554197Y-76200000D03*
X177554197Y-77470000D03*
%TD*%
D24*
%TO.C,U13*%
X185600000Y-125050000D03*
D25*
X187900000Y-118750000D03*
D24*
X187900000Y-125050000D03*
X190200000Y-125050000D03*
%TD*%
D17*
%TO.C,Q11*%
X241425000Y-65020000D03*
X241425000Y-66290000D03*
X241425000Y-67560000D03*
X241425000Y-68830000D03*
X246375000Y-68830000D03*
X246375000Y-67560000D03*
X246375000Y-66290000D03*
X246375000Y-65020000D03*
%TD*%
D13*
%TO.C,U8*%
X230065000Y-114835000D03*
X231335000Y-114835000D03*
X232605000Y-114835000D03*
X233875000Y-114835000D03*
X233875000Y-109885000D03*
X232605000Y-109885000D03*
X231335000Y-109885000D03*
X230065000Y-109885000D03*
%TD*%
D15*
%TO.C,D28*%
X185000000Y-139480000D03*
X185000000Y-136680000D03*
%TD*%
D12*
%TO.C,D7*%
X187795000Y-100425000D03*
X184995000Y-100425000D03*
%TD*%
D10*
%TO.C,R12*%
X186441697Y-61165000D03*
X184616697Y-61165000D03*
%TD*%
%TO.C,R6*%
X187320000Y-105625000D03*
X185495000Y-105625000D03*
%TD*%
D21*
%TO.C,C5*%
X194095000Y-115525000D03*
X192195000Y-115525000D03*
%TD*%
%TO.C,C7*%
X193779197Y-81665000D03*
X191879197Y-81665000D03*
%TD*%
D26*
%TO.C,U14*%
X182450000Y-140380000D03*
X182450000Y-135820000D03*
D27*
X174475000Y-136575000D03*
X177825000Y-139625000D03*
X174475000Y-139625000D03*
X177825000Y-136575000D03*
%TD*%
D16*
%TO.C,R22*%
X236875000Y-70725000D03*
X238700000Y-70725000D03*
%TD*%
D28*
%TO.C,C14*%
X225800000Y-66475000D03*
X225800000Y-64575000D03*
%TD*%
D29*
%TO.C,C2*%
X198495000Y-97125000D03*
X198495000Y-99025000D03*
%TD*%
D20*
%TO.C,D13*%
X227905000Y-98185000D03*
X227905000Y-100985000D03*
%TD*%
D19*
%TO.C,C16*%
X230005000Y-107385000D03*
X231905000Y-107385000D03*
%TD*%
D30*
%TO.C,R42*%
X223750000Y-129412500D03*
X223750000Y-127587500D03*
%TD*%
D29*
%TO.C,C1*%
X198595000Y-109675000D03*
X198595000Y-111575000D03*
%TD*%
D15*
%TO.C,D3*%
X195929197Y-78165000D03*
X195929197Y-75365000D03*
%TD*%
%TO.C,D1*%
X196195000Y-112025000D03*
X196195000Y-109225000D03*
%TD*%
D28*
%TO.C,C13*%
X225700000Y-79225000D03*
X225700000Y-77325000D03*
%TD*%
D20*
%TO.C,D16*%
X228000000Y-77025000D03*
X228000000Y-79825000D03*
%TD*%
D17*
%TO.C,Q12*%
X241450000Y-75555000D03*
X241450000Y-76825000D03*
X241450000Y-78095000D03*
X241450000Y-79365000D03*
X246400000Y-79365000D03*
X246400000Y-78095000D03*
X246400000Y-76825000D03*
X246400000Y-75555000D03*
%TD*%
D31*
%TO.C,D30*%
X192600000Y-129000000D03*
X190725000Y-129000000D03*
%TD*%
D13*
%TO.C,Q13*%
X223595000Y-125225000D03*
X224865000Y-125225000D03*
X226135000Y-125225000D03*
X227405000Y-125225000D03*
X227405000Y-120275000D03*
X226135000Y-120275000D03*
X224865000Y-120275000D03*
X223595000Y-120275000D03*
%TD*%
D12*
%TO.C,D8*%
X183095000Y-94825000D03*
X180295000Y-94825000D03*
%TD*%
D16*
%TO.C,R21*%
X236175000Y-63225000D03*
X238000000Y-63225000D03*
%TD*%
D10*
%TO.C,R11*%
X189941697Y-69065000D03*
X188116697Y-69065000D03*
%TD*%
D32*
%TO.C,U6*%
X193734197Y-61540000D03*
X192464197Y-61540000D03*
X191194197Y-61540000D03*
X189924197Y-61540000D03*
X189924197Y-66490000D03*
X191194197Y-66490000D03*
X192464197Y-66490000D03*
X193734197Y-66490000D03*
%TD*%
D21*
%TO.C,C8*%
X193779197Y-68965000D03*
X191879197Y-68965000D03*
%TD*%
D33*
%TO.C,L1*%
X221300000Y-122500000D03*
X215250000Y-122500000D03*
%TD*%
D16*
%TO.C,R23*%
X233975000Y-73425000D03*
X235800000Y-73425000D03*
%TD*%
D34*
%TO.C,C30*%
X194425000Y-128800000D03*
X197375000Y-128800000D03*
%TD*%
D10*
%TO.C,R7*%
X190220000Y-102925000D03*
X188395000Y-102925000D03*
%TD*%
D23*
%TO.C,Q3*%
X182770000Y-111330000D03*
X182770000Y-110060000D03*
X182770000Y-108790000D03*
X182770000Y-107520000D03*
X177820000Y-107520000D03*
X177820000Y-108790000D03*
X177820000Y-110060000D03*
X177820000Y-111330000D03*
%TD*%
D12*
%TO.C,D10*%
X182829197Y-71565000D03*
X180029197Y-71565000D03*
%TD*%
D31*
%TO.C,D26*%
X210475000Y-138100000D03*
X208600000Y-138100000D03*
%TD*%
D15*
%TO.C,D4*%
X195929197Y-65465000D03*
X195929197Y-62665000D03*
%TD*%
D22*
%TO.C,D22*%
X241100000Y-70925000D03*
X243900000Y-70925000D03*
%TD*%
D32*
%TO.C,U4*%
X194005000Y-95375000D03*
X192735000Y-95375000D03*
X191465000Y-95375000D03*
X190195000Y-95375000D03*
X190195000Y-100325000D03*
X191465000Y-100325000D03*
X192735000Y-100325000D03*
X194005000Y-100325000D03*
%TD*%
D10*
%TO.C,R5*%
X188020000Y-113125000D03*
X186195000Y-113125000D03*
%TD*%
D32*
%TO.C,U3*%
X194000000Y-108000000D03*
X192730000Y-108000000D03*
X191460000Y-108000000D03*
X190190000Y-108000000D03*
X190190000Y-112950000D03*
X191460000Y-112950000D03*
X192730000Y-112950000D03*
X194000000Y-112950000D03*
%TD*%
D19*
%TO.C,C17*%
X230200000Y-60825000D03*
X232100000Y-60825000D03*
%TD*%
D13*
%TO.C,U7*%
X230095000Y-102235000D03*
X231365000Y-102235000D03*
X232635000Y-102235000D03*
X233905000Y-102235000D03*
X233905000Y-97285000D03*
X232635000Y-97285000D03*
X231365000Y-97285000D03*
X230095000Y-97285000D03*
%TD*%
D28*
%TO.C,C11*%
X225590000Y-112620000D03*
X225590000Y-110720000D03*
%TD*%
D17*
%TO.C,Q9*%
X241330000Y-98880000D03*
X241330000Y-100150000D03*
X241330000Y-101420000D03*
X241330000Y-102690000D03*
X246280000Y-102690000D03*
X246280000Y-101420000D03*
X246280000Y-100150000D03*
X246280000Y-98880000D03*
%TD*%
D10*
%TO.C,R45*%
X183400000Y-122700000D03*
X181575000Y-122700000D03*
%TD*%
D35*
%TO.C,C31*%
X189800000Y-140800000D03*
X189800000Y-135400000D03*
%TD*%
D22*
%TO.C,D20*%
X241005000Y-115385000D03*
X243805000Y-115385000D03*
%TD*%
%TO.C,D23*%
X236400000Y-75925000D03*
X239200000Y-75925000D03*
%TD*%
D10*
%TO.C,R8*%
X186720000Y-95025000D03*
X184895000Y-95025000D03*
%TD*%
D22*
%TO.C,D19*%
X236305000Y-109785000D03*
X239105000Y-109785000D03*
%TD*%
D29*
%TO.C,C4*%
X198329197Y-75815000D03*
X198329197Y-77715000D03*
%TD*%
D23*
%TO.C,Q6*%
X182504197Y-66920000D03*
X182504197Y-65650000D03*
X182504197Y-64380000D03*
X182504197Y-63110000D03*
X177554197Y-63110000D03*
X177554197Y-64380000D03*
X177554197Y-65650000D03*
X177554197Y-66920000D03*
%TD*%
D16*
%TO.C,R20*%
X237380000Y-115185000D03*
X239205000Y-115185000D03*
%TD*%
D12*
%TO.C,D27*%
X195300000Y-123500000D03*
X192500000Y-123500000D03*
%TD*%
D16*
%TO.C,R19*%
X233880000Y-107285000D03*
X235705000Y-107285000D03*
%TD*%
%TO.C,R17*%
X236080000Y-97085000D03*
X237905000Y-97085000D03*
%TD*%
D21*
%TO.C,C12*%
X222062000Y-98500000D03*
X223962000Y-98500000D03*
%TD*%
D12*
%TO.C,D5*%
X187795000Y-110925000D03*
X184995000Y-110925000D03*
%TD*%
D29*
%TO.C,C3*%
X198229197Y-63215000D03*
X198229197Y-65115000D03*
%TD*%
D34*
%TO.C,C32*%
X192425000Y-118700000D03*
X195375000Y-118700000D03*
%TD*%
D16*
%TO.C,R18*%
X236805000Y-104585000D03*
X238630000Y-104585000D03*
%TD*%
D34*
%TO.C,C34*%
X192425000Y-121100000D03*
X195375000Y-121100000D03*
%TD*%
D19*
%TO.C,C18*%
X230150000Y-73525000D03*
X232050000Y-73525000D03*
%TD*%
D20*
%TO.C,D14*%
X227905000Y-110885000D03*
X227905000Y-113685000D03*
%TD*%
D12*
%TO.C,D11*%
X187529197Y-66565000D03*
X184729197Y-66565000D03*
%TD*%
%TO.C,D12*%
X182829197Y-60965000D03*
X180029197Y-60965000D03*
%TD*%
D22*
%TO.C,D17*%
X236305000Y-99255000D03*
X239105000Y-99255000D03*
%TD*%
%TO.C,D21*%
X236400000Y-65425000D03*
X239200000Y-65425000D03*
%TD*%
D32*
%TO.C,U5*%
X193734197Y-74140000D03*
X192464197Y-74140000D03*
X191194197Y-74140000D03*
X189924197Y-74140000D03*
X189924197Y-79090000D03*
X191194197Y-79090000D03*
X192464197Y-79090000D03*
X193734197Y-79090000D03*
%TD*%
D23*
%TO.C,Q4*%
X182770000Y-100780000D03*
X182770000Y-99510000D03*
X182770000Y-98240000D03*
X182770000Y-96970000D03*
X177820000Y-96970000D03*
X177820000Y-98240000D03*
X177820000Y-99510000D03*
X177820000Y-100780000D03*
%TD*%
D22*
%TO.C,D24*%
X241100000Y-81525000D03*
X243900000Y-81525000D03*
%TD*%
M02*
