%TF.GenerationSoftware,KiCad,Pcbnew,7.0.1*%
%TF.CreationDate,2023-04-06T21:05:58+02:00*%
%TF.ProjectId,Scout_Robot_Motor_Driver,53636f75-745f-4526-9f62-6f745f4d6f74,rev?*%
%TF.SameCoordinates,Original*%
%TF.FileFunction,Legend,Bot*%
%TF.FilePolarity,Positive*%
%FSLAX46Y46*%
G04 Gerber Fmt 4.6, Leading zero omitted, Abs format (unit mm)*
G04 Created by KiCad (PCBNEW 7.0.1) date 2023-04-06 21:05:58*
%MOMM*%
%LPD*%
G01*
G04 APERTURE LIST*
G04 Aperture macros list*
%AMRoundRect*
0 Rectangle with rounded corners*
0 $1 Rounding radius*
0 $2 $3 $4 $5 $6 $7 $8 $9 X,Y pos of 4 corners*
0 Add a 4 corners polygon primitive as box body*
4,1,4,$2,$3,$4,$5,$6,$7,$8,$9,$2,$3,0*
0 Add four circle primitives for the rounded corners*
1,1,$1+$1,$2,$3*
1,1,$1+$1,$4,$5*
1,1,$1+$1,$6,$7*
1,1,$1+$1,$8,$9*
0 Add four rect primitives between the rounded corners*
20,1,$1+$1,$2,$3,$4,$5,0*
20,1,$1+$1,$4,$5,$6,$7,0*
20,1,$1+$1,$6,$7,$8,$9,0*
20,1,$1+$1,$8,$9,$2,$3,0*%
%AMFreePoly0*
4,1,19,0.500000,-0.750000,0.000000,-0.750000,0.000000,-0.744911,-0.071157,-0.744911,-0.207708,-0.704816,-0.327430,-0.627875,-0.420627,-0.520320,-0.479746,-0.390866,-0.500000,-0.250000,-0.500000,0.250000,-0.479746,0.390866,-0.420627,0.520320,-0.327430,0.627875,-0.207708,0.704816,-0.071157,0.744911,0.000000,0.744911,0.000000,0.750000,0.500000,0.750000,0.500000,-0.750000,0.500000,-0.750000,
$1*%
%AMFreePoly1*
4,1,19,0.000000,0.744911,0.071157,0.744911,0.207708,0.704816,0.327430,0.627875,0.420627,0.520320,0.479746,0.390866,0.500000,0.250000,0.500000,-0.250000,0.479746,-0.390866,0.420627,-0.520320,0.327430,-0.627875,0.207708,-0.704816,0.071157,-0.744911,0.000000,-0.744911,0.000000,-0.750000,-0.500000,-0.750000,-0.500000,0.750000,0.000000,0.750000,0.000000,0.744911,0.000000,0.744911,
$1*%
G04 Aperture macros list end*
%ADD10C,0.150000*%
%ADD11C,0.120000*%
%ADD12R,2.000000X2.000000*%
%ADD13C,2.000000*%
%ADD14C,0.800000*%
%ADD15C,6.400000*%
%ADD16R,2.600000X2.600000*%
%ADD17C,2.600000*%
%ADD18RoundRect,0.250000X0.600000X0.725000X-0.600000X0.725000X-0.600000X-0.725000X0.600000X-0.725000X0*%
%ADD19O,1.700000X1.950000*%
%ADD20RoundRect,0.250000X0.600000X-0.600000X0.600000X0.600000X-0.600000X0.600000X-0.600000X-0.600000X0*%
%ADD21C,1.700000*%
%ADD22C,1.440000*%
%ADD23RoundRect,0.250000X0.262500X0.450000X-0.262500X0.450000X-0.262500X-0.450000X0.262500X-0.450000X0*%
%ADD24R,1.400000X0.300000*%
%ADD25RoundRect,0.150000X0.150000X-0.587500X0.150000X0.587500X-0.150000X0.587500X-0.150000X-0.587500X0*%
%ADD26RoundRect,0.250000X-0.650000X0.325000X-0.650000X-0.325000X0.650000X-0.325000X0.650000X0.325000X0*%
%ADD27RoundRect,0.250000X0.375000X0.625000X-0.375000X0.625000X-0.375000X-0.625000X0.375000X-0.625000X0*%
%ADD28RoundRect,0.250000X-0.262500X-0.450000X0.262500X-0.450000X0.262500X0.450000X-0.262500X0.450000X0*%
%ADD29RoundRect,0.150000X0.825000X0.150000X-0.825000X0.150000X-0.825000X-0.150000X0.825000X-0.150000X0*%
%ADD30RoundRect,0.250000X-0.312500X-1.075000X0.312500X-1.075000X0.312500X1.075000X-0.312500X1.075000X0*%
%ADD31FreePoly0,90.000000*%
%ADD32FreePoly1,90.000000*%
%ADD33RoundRect,0.250000X-0.325000X-0.650000X0.325000X-0.650000X0.325000X0.650000X-0.325000X0.650000X0*%
%ADD34RoundRect,0.250000X0.250000X0.475000X-0.250000X0.475000X-0.250000X-0.475000X0.250000X-0.475000X0*%
%ADD35RoundRect,0.250000X0.325000X0.650000X-0.325000X0.650000X-0.325000X-0.650000X0.325000X-0.650000X0*%
%ADD36RoundRect,0.250000X-0.475000X0.250000X-0.475000X-0.250000X0.475000X-0.250000X0.475000X0.250000X0*%
%ADD37RoundRect,0.250000X0.475000X-0.250000X0.475000X0.250000X-0.475000X0.250000X-0.475000X-0.250000X0*%
G04 APERTURE END LIST*
D10*
X237904761Y-116627619D02*
X237571428Y-117627619D01*
X237571428Y-117627619D02*
X237238095Y-116627619D01*
X236904761Y-117627619D02*
X236904761Y-116627619D01*
X236904761Y-116627619D02*
X236571428Y-117341904D01*
X236571428Y-117341904D02*
X236238095Y-116627619D01*
X236238095Y-116627619D02*
X236238095Y-117627619D01*
X235571428Y-116627619D02*
X235380952Y-116627619D01*
X235380952Y-116627619D02*
X235285714Y-116675238D01*
X235285714Y-116675238D02*
X235190476Y-116770476D01*
X235190476Y-116770476D02*
X235142857Y-116960952D01*
X235142857Y-116960952D02*
X235142857Y-117294285D01*
X235142857Y-117294285D02*
X235190476Y-117484761D01*
X235190476Y-117484761D02*
X235285714Y-117580000D01*
X235285714Y-117580000D02*
X235380952Y-117627619D01*
X235380952Y-117627619D02*
X235571428Y-117627619D01*
X235571428Y-117627619D02*
X235666666Y-117580000D01*
X235666666Y-117580000D02*
X235761904Y-117484761D01*
X235761904Y-117484761D02*
X235809523Y-117294285D01*
X235809523Y-117294285D02*
X235809523Y-116960952D01*
X235809523Y-116960952D02*
X235761904Y-116770476D01*
X235761904Y-116770476D02*
X235666666Y-116675238D01*
X235666666Y-116675238D02*
X235571428Y-116627619D01*
X234857142Y-116627619D02*
X234285714Y-116627619D01*
X234571428Y-117627619D02*
X234571428Y-116627619D01*
X232857142Y-117103809D02*
X232714285Y-117151428D01*
X232714285Y-117151428D02*
X232666666Y-117199047D01*
X232666666Y-117199047D02*
X232619047Y-117294285D01*
X232619047Y-117294285D02*
X232619047Y-117437142D01*
X232619047Y-117437142D02*
X232666666Y-117532380D01*
X232666666Y-117532380D02*
X232714285Y-117580000D01*
X232714285Y-117580000D02*
X232809523Y-117627619D01*
X232809523Y-117627619D02*
X233190475Y-117627619D01*
X233190475Y-117627619D02*
X233190475Y-116627619D01*
X233190475Y-116627619D02*
X232857142Y-116627619D01*
X232857142Y-116627619D02*
X232761904Y-116675238D01*
X232761904Y-116675238D02*
X232714285Y-116722857D01*
X232714285Y-116722857D02*
X232666666Y-116818095D01*
X232666666Y-116818095D02*
X232666666Y-116913333D01*
X232666666Y-116913333D02*
X232714285Y-117008571D01*
X232714285Y-117008571D02*
X232761904Y-117056190D01*
X232761904Y-117056190D02*
X232857142Y-117103809D01*
X232857142Y-117103809D02*
X233190475Y-117103809D01*
X231999999Y-117151428D02*
X231999999Y-117627619D01*
X232333332Y-116627619D02*
X231999999Y-117151428D01*
X231999999Y-117151428D02*
X231666666Y-116627619D01*
X231333332Y-117627619D02*
X231333332Y-116627619D01*
X231333332Y-116627619D02*
X230952380Y-116627619D01*
X230952380Y-116627619D02*
X230857142Y-116675238D01*
X230857142Y-116675238D02*
X230809523Y-116722857D01*
X230809523Y-116722857D02*
X230761904Y-116818095D01*
X230761904Y-116818095D02*
X230761904Y-116960952D01*
X230761904Y-116960952D02*
X230809523Y-117056190D01*
X230809523Y-117056190D02*
X230857142Y-117103809D01*
X230857142Y-117103809D02*
X230952380Y-117151428D01*
X230952380Y-117151428D02*
X231333332Y-117151428D01*
X230380951Y-117341904D02*
X229904761Y-117341904D01*
X230476189Y-117627619D02*
X230142856Y-116627619D01*
X230142856Y-116627619D02*
X229809523Y-117627619D01*
X229523808Y-117580000D02*
X229380951Y-117627619D01*
X229380951Y-117627619D02*
X229142856Y-117627619D01*
X229142856Y-117627619D02*
X229047618Y-117580000D01*
X229047618Y-117580000D02*
X228999999Y-117532380D01*
X228999999Y-117532380D02*
X228952380Y-117437142D01*
X228952380Y-117437142D02*
X228952380Y-117341904D01*
X228952380Y-117341904D02*
X228999999Y-117246666D01*
X228999999Y-117246666D02*
X229047618Y-117199047D01*
X229047618Y-117199047D02*
X229142856Y-117151428D01*
X229142856Y-117151428D02*
X229333332Y-117103809D01*
X229333332Y-117103809D02*
X229428570Y-117056190D01*
X229428570Y-117056190D02*
X229476189Y-117008571D01*
X229476189Y-117008571D02*
X229523808Y-116913333D01*
X229523808Y-116913333D02*
X229523808Y-116818095D01*
X229523808Y-116818095D02*
X229476189Y-116722857D01*
X229476189Y-116722857D02*
X229428570Y-116675238D01*
X229428570Y-116675238D02*
X229333332Y-116627619D01*
X229333332Y-116627619D02*
X229095237Y-116627619D01*
X229095237Y-116627619D02*
X228952380Y-116675238D01*
X228571427Y-117580000D02*
X228428570Y-117627619D01*
X228428570Y-117627619D02*
X228190475Y-117627619D01*
X228190475Y-117627619D02*
X228095237Y-117580000D01*
X228095237Y-117580000D02*
X228047618Y-117532380D01*
X228047618Y-117532380D02*
X227999999Y-117437142D01*
X227999999Y-117437142D02*
X227999999Y-117341904D01*
X227999999Y-117341904D02*
X228047618Y-117246666D01*
X228047618Y-117246666D02*
X228095237Y-117199047D01*
X228095237Y-117199047D02*
X228190475Y-117151428D01*
X228190475Y-117151428D02*
X228380951Y-117103809D01*
X228380951Y-117103809D02*
X228476189Y-117056190D01*
X228476189Y-117056190D02*
X228523808Y-117008571D01*
X228523808Y-117008571D02*
X228571427Y-116913333D01*
X228571427Y-116913333D02*
X228571427Y-116818095D01*
X228571427Y-116818095D02*
X228523808Y-116722857D01*
X228523808Y-116722857D02*
X228476189Y-116675238D01*
X228476189Y-116675238D02*
X228380951Y-116627619D01*
X228380951Y-116627619D02*
X228142856Y-116627619D01*
X228142856Y-116627619D02*
X227999999Y-116675238D01*
%TO.C,R31*%
X218892857Y-80462619D02*
X219226190Y-79986428D01*
X219464285Y-80462619D02*
X219464285Y-79462619D01*
X219464285Y-79462619D02*
X219083333Y-79462619D01*
X219083333Y-79462619D02*
X218988095Y-79510238D01*
X218988095Y-79510238D02*
X218940476Y-79557857D01*
X218940476Y-79557857D02*
X218892857Y-79653095D01*
X218892857Y-79653095D02*
X218892857Y-79795952D01*
X218892857Y-79795952D02*
X218940476Y-79891190D01*
X218940476Y-79891190D02*
X218988095Y-79938809D01*
X218988095Y-79938809D02*
X219083333Y-79986428D01*
X219083333Y-79986428D02*
X219464285Y-79986428D01*
X218559523Y-79462619D02*
X217940476Y-79462619D01*
X217940476Y-79462619D02*
X218273809Y-79843571D01*
X218273809Y-79843571D02*
X218130952Y-79843571D01*
X218130952Y-79843571D02*
X218035714Y-79891190D01*
X218035714Y-79891190D02*
X217988095Y-79938809D01*
X217988095Y-79938809D02*
X217940476Y-80034047D01*
X217940476Y-80034047D02*
X217940476Y-80272142D01*
X217940476Y-80272142D02*
X217988095Y-80367380D01*
X217988095Y-80367380D02*
X218035714Y-80415000D01*
X218035714Y-80415000D02*
X218130952Y-80462619D01*
X218130952Y-80462619D02*
X218416666Y-80462619D01*
X218416666Y-80462619D02*
X218511904Y-80415000D01*
X218511904Y-80415000D02*
X218559523Y-80367380D01*
X216988095Y-80462619D02*
X217559523Y-80462619D01*
X217273809Y-80462619D02*
X217273809Y-79462619D01*
X217273809Y-79462619D02*
X217369047Y-79605476D01*
X217369047Y-79605476D02*
X217464285Y-79700714D01*
X217464285Y-79700714D02*
X217559523Y-79748333D01*
%TO.C,U12*%
X226838094Y-125362619D02*
X226838094Y-126172142D01*
X226838094Y-126172142D02*
X226790475Y-126267380D01*
X226790475Y-126267380D02*
X226742856Y-126315000D01*
X226742856Y-126315000D02*
X226647618Y-126362619D01*
X226647618Y-126362619D02*
X226457142Y-126362619D01*
X226457142Y-126362619D02*
X226361904Y-126315000D01*
X226361904Y-126315000D02*
X226314285Y-126267380D01*
X226314285Y-126267380D02*
X226266666Y-126172142D01*
X226266666Y-126172142D02*
X226266666Y-125362619D01*
X225266666Y-126362619D02*
X225838094Y-126362619D01*
X225552380Y-126362619D02*
X225552380Y-125362619D01*
X225552380Y-125362619D02*
X225647618Y-125505476D01*
X225647618Y-125505476D02*
X225742856Y-125600714D01*
X225742856Y-125600714D02*
X225838094Y-125648333D01*
X224885713Y-125457857D02*
X224838094Y-125410238D01*
X224838094Y-125410238D02*
X224742856Y-125362619D01*
X224742856Y-125362619D02*
X224504761Y-125362619D01*
X224504761Y-125362619D02*
X224409523Y-125410238D01*
X224409523Y-125410238D02*
X224361904Y-125457857D01*
X224361904Y-125457857D02*
X224314285Y-125553095D01*
X224314285Y-125553095D02*
X224314285Y-125648333D01*
X224314285Y-125648333D02*
X224361904Y-125791190D01*
X224361904Y-125791190D02*
X224933332Y-126362619D01*
X224933332Y-126362619D02*
X224314285Y-126362619D01*
%TO.C,Q7*%
X216845238Y-110307857D02*
X216940476Y-110260238D01*
X216940476Y-110260238D02*
X217035714Y-110165000D01*
X217035714Y-110165000D02*
X217178571Y-110022142D01*
X217178571Y-110022142D02*
X217273809Y-109974523D01*
X217273809Y-109974523D02*
X217369047Y-109974523D01*
X217321428Y-110212619D02*
X217416666Y-110165000D01*
X217416666Y-110165000D02*
X217511904Y-110069761D01*
X217511904Y-110069761D02*
X217559523Y-109879285D01*
X217559523Y-109879285D02*
X217559523Y-109545952D01*
X217559523Y-109545952D02*
X217511904Y-109355476D01*
X217511904Y-109355476D02*
X217416666Y-109260238D01*
X217416666Y-109260238D02*
X217321428Y-109212619D01*
X217321428Y-109212619D02*
X217130952Y-109212619D01*
X217130952Y-109212619D02*
X217035714Y-109260238D01*
X217035714Y-109260238D02*
X216940476Y-109355476D01*
X216940476Y-109355476D02*
X216892857Y-109545952D01*
X216892857Y-109545952D02*
X216892857Y-109879285D01*
X216892857Y-109879285D02*
X216940476Y-110069761D01*
X216940476Y-110069761D02*
X217035714Y-110165000D01*
X217035714Y-110165000D02*
X217130952Y-110212619D01*
X217130952Y-110212619D02*
X217321428Y-110212619D01*
X216559523Y-109212619D02*
X215892857Y-109212619D01*
X215892857Y-109212619D02*
X216321428Y-110212619D01*
%TO.C,C33*%
X186017380Y-137482142D02*
X186065000Y-137434523D01*
X186065000Y-137434523D02*
X186112619Y-137291666D01*
X186112619Y-137291666D02*
X186112619Y-137196428D01*
X186112619Y-137196428D02*
X186065000Y-137053571D01*
X186065000Y-137053571D02*
X185969761Y-136958333D01*
X185969761Y-136958333D02*
X185874523Y-136910714D01*
X185874523Y-136910714D02*
X185684047Y-136863095D01*
X185684047Y-136863095D02*
X185541190Y-136863095D01*
X185541190Y-136863095D02*
X185350714Y-136910714D01*
X185350714Y-136910714D02*
X185255476Y-136958333D01*
X185255476Y-136958333D02*
X185160238Y-137053571D01*
X185160238Y-137053571D02*
X185112619Y-137196428D01*
X185112619Y-137196428D02*
X185112619Y-137291666D01*
X185112619Y-137291666D02*
X185160238Y-137434523D01*
X185160238Y-137434523D02*
X185207857Y-137482142D01*
X185112619Y-137815476D02*
X185112619Y-138434523D01*
X185112619Y-138434523D02*
X185493571Y-138101190D01*
X185493571Y-138101190D02*
X185493571Y-138244047D01*
X185493571Y-138244047D02*
X185541190Y-138339285D01*
X185541190Y-138339285D02*
X185588809Y-138386904D01*
X185588809Y-138386904D02*
X185684047Y-138434523D01*
X185684047Y-138434523D02*
X185922142Y-138434523D01*
X185922142Y-138434523D02*
X186017380Y-138386904D01*
X186017380Y-138386904D02*
X186065000Y-138339285D01*
X186065000Y-138339285D02*
X186112619Y-138244047D01*
X186112619Y-138244047D02*
X186112619Y-137958333D01*
X186112619Y-137958333D02*
X186065000Y-137863095D01*
X186065000Y-137863095D02*
X186017380Y-137815476D01*
X185112619Y-138767857D02*
X185112619Y-139386904D01*
X185112619Y-139386904D02*
X185493571Y-139053571D01*
X185493571Y-139053571D02*
X185493571Y-139196428D01*
X185493571Y-139196428D02*
X185541190Y-139291666D01*
X185541190Y-139291666D02*
X185588809Y-139339285D01*
X185588809Y-139339285D02*
X185684047Y-139386904D01*
X185684047Y-139386904D02*
X185922142Y-139386904D01*
X185922142Y-139386904D02*
X186017380Y-139339285D01*
X186017380Y-139339285D02*
X186065000Y-139291666D01*
X186065000Y-139291666D02*
X186112619Y-139196428D01*
X186112619Y-139196428D02*
X186112619Y-138910714D01*
X186112619Y-138910714D02*
X186065000Y-138815476D01*
X186065000Y-138815476D02*
X186017380Y-138767857D01*
%TO.C,D25*%
X226714285Y-134162619D02*
X226714285Y-133162619D01*
X226714285Y-133162619D02*
X226476190Y-133162619D01*
X226476190Y-133162619D02*
X226333333Y-133210238D01*
X226333333Y-133210238D02*
X226238095Y-133305476D01*
X226238095Y-133305476D02*
X226190476Y-133400714D01*
X226190476Y-133400714D02*
X226142857Y-133591190D01*
X226142857Y-133591190D02*
X226142857Y-133734047D01*
X226142857Y-133734047D02*
X226190476Y-133924523D01*
X226190476Y-133924523D02*
X226238095Y-134019761D01*
X226238095Y-134019761D02*
X226333333Y-134115000D01*
X226333333Y-134115000D02*
X226476190Y-134162619D01*
X226476190Y-134162619D02*
X226714285Y-134162619D01*
X225761904Y-133257857D02*
X225714285Y-133210238D01*
X225714285Y-133210238D02*
X225619047Y-133162619D01*
X225619047Y-133162619D02*
X225380952Y-133162619D01*
X225380952Y-133162619D02*
X225285714Y-133210238D01*
X225285714Y-133210238D02*
X225238095Y-133257857D01*
X225238095Y-133257857D02*
X225190476Y-133353095D01*
X225190476Y-133353095D02*
X225190476Y-133448333D01*
X225190476Y-133448333D02*
X225238095Y-133591190D01*
X225238095Y-133591190D02*
X225809523Y-134162619D01*
X225809523Y-134162619D02*
X225190476Y-134162619D01*
X224285714Y-133162619D02*
X224761904Y-133162619D01*
X224761904Y-133162619D02*
X224809523Y-133638809D01*
X224809523Y-133638809D02*
X224761904Y-133591190D01*
X224761904Y-133591190D02*
X224666666Y-133543571D01*
X224666666Y-133543571D02*
X224428571Y-133543571D01*
X224428571Y-133543571D02*
X224333333Y-133591190D01*
X224333333Y-133591190D02*
X224285714Y-133638809D01*
X224285714Y-133638809D02*
X224238095Y-133734047D01*
X224238095Y-133734047D02*
X224238095Y-133972142D01*
X224238095Y-133972142D02*
X224285714Y-134067380D01*
X224285714Y-134067380D02*
X224333333Y-134115000D01*
X224333333Y-134115000D02*
X224428571Y-134162619D01*
X224428571Y-134162619D02*
X224666666Y-134162619D01*
X224666666Y-134162619D02*
X224761904Y-134115000D01*
X224761904Y-134115000D02*
X224809523Y-134067380D01*
%TO.C,R36*%
X228642857Y-97212619D02*
X228976190Y-96736428D01*
X229214285Y-97212619D02*
X229214285Y-96212619D01*
X229214285Y-96212619D02*
X228833333Y-96212619D01*
X228833333Y-96212619D02*
X228738095Y-96260238D01*
X228738095Y-96260238D02*
X228690476Y-96307857D01*
X228690476Y-96307857D02*
X228642857Y-96403095D01*
X228642857Y-96403095D02*
X228642857Y-96545952D01*
X228642857Y-96545952D02*
X228690476Y-96641190D01*
X228690476Y-96641190D02*
X228738095Y-96688809D01*
X228738095Y-96688809D02*
X228833333Y-96736428D01*
X228833333Y-96736428D02*
X229214285Y-96736428D01*
X228309523Y-96212619D02*
X227690476Y-96212619D01*
X227690476Y-96212619D02*
X228023809Y-96593571D01*
X228023809Y-96593571D02*
X227880952Y-96593571D01*
X227880952Y-96593571D02*
X227785714Y-96641190D01*
X227785714Y-96641190D02*
X227738095Y-96688809D01*
X227738095Y-96688809D02*
X227690476Y-96784047D01*
X227690476Y-96784047D02*
X227690476Y-97022142D01*
X227690476Y-97022142D02*
X227738095Y-97117380D01*
X227738095Y-97117380D02*
X227785714Y-97165000D01*
X227785714Y-97165000D02*
X227880952Y-97212619D01*
X227880952Y-97212619D02*
X228166666Y-97212619D01*
X228166666Y-97212619D02*
X228261904Y-97165000D01*
X228261904Y-97165000D02*
X228309523Y-97117380D01*
X226833333Y-96212619D02*
X227023809Y-96212619D01*
X227023809Y-96212619D02*
X227119047Y-96260238D01*
X227119047Y-96260238D02*
X227166666Y-96307857D01*
X227166666Y-96307857D02*
X227261904Y-96450714D01*
X227261904Y-96450714D02*
X227309523Y-96641190D01*
X227309523Y-96641190D02*
X227309523Y-97022142D01*
X227309523Y-97022142D02*
X227261904Y-97117380D01*
X227261904Y-97117380D02*
X227214285Y-97165000D01*
X227214285Y-97165000D02*
X227119047Y-97212619D01*
X227119047Y-97212619D02*
X226928571Y-97212619D01*
X226928571Y-97212619D02*
X226833333Y-97165000D01*
X226833333Y-97165000D02*
X226785714Y-97117380D01*
X226785714Y-97117380D02*
X226738095Y-97022142D01*
X226738095Y-97022142D02*
X226738095Y-96784047D01*
X226738095Y-96784047D02*
X226785714Y-96688809D01*
X226785714Y-96688809D02*
X226833333Y-96641190D01*
X226833333Y-96641190D02*
X226928571Y-96593571D01*
X226928571Y-96593571D02*
X227119047Y-96593571D01*
X227119047Y-96593571D02*
X227214285Y-96641190D01*
X227214285Y-96641190D02*
X227261904Y-96688809D01*
X227261904Y-96688809D02*
X227309523Y-96784047D01*
%TO.C,R33*%
X216892857Y-97212619D02*
X217226190Y-96736428D01*
X217464285Y-97212619D02*
X217464285Y-96212619D01*
X217464285Y-96212619D02*
X217083333Y-96212619D01*
X217083333Y-96212619D02*
X216988095Y-96260238D01*
X216988095Y-96260238D02*
X216940476Y-96307857D01*
X216940476Y-96307857D02*
X216892857Y-96403095D01*
X216892857Y-96403095D02*
X216892857Y-96545952D01*
X216892857Y-96545952D02*
X216940476Y-96641190D01*
X216940476Y-96641190D02*
X216988095Y-96688809D01*
X216988095Y-96688809D02*
X217083333Y-96736428D01*
X217083333Y-96736428D02*
X217464285Y-96736428D01*
X216559523Y-96212619D02*
X215940476Y-96212619D01*
X215940476Y-96212619D02*
X216273809Y-96593571D01*
X216273809Y-96593571D02*
X216130952Y-96593571D01*
X216130952Y-96593571D02*
X216035714Y-96641190D01*
X216035714Y-96641190D02*
X215988095Y-96688809D01*
X215988095Y-96688809D02*
X215940476Y-96784047D01*
X215940476Y-96784047D02*
X215940476Y-97022142D01*
X215940476Y-97022142D02*
X215988095Y-97117380D01*
X215988095Y-97117380D02*
X216035714Y-97165000D01*
X216035714Y-97165000D02*
X216130952Y-97212619D01*
X216130952Y-97212619D02*
X216416666Y-97212619D01*
X216416666Y-97212619D02*
X216511904Y-97165000D01*
X216511904Y-97165000D02*
X216559523Y-97117380D01*
X215607142Y-96212619D02*
X214988095Y-96212619D01*
X214988095Y-96212619D02*
X215321428Y-96593571D01*
X215321428Y-96593571D02*
X215178571Y-96593571D01*
X215178571Y-96593571D02*
X215083333Y-96641190D01*
X215083333Y-96641190D02*
X215035714Y-96688809D01*
X215035714Y-96688809D02*
X214988095Y-96784047D01*
X214988095Y-96784047D02*
X214988095Y-97022142D01*
X214988095Y-97022142D02*
X215035714Y-97117380D01*
X215035714Y-97117380D02*
X215083333Y-97165000D01*
X215083333Y-97165000D02*
X215178571Y-97212619D01*
X215178571Y-97212619D02*
X215464285Y-97212619D01*
X215464285Y-97212619D02*
X215559523Y-97165000D01*
X215559523Y-97165000D02*
X215607142Y-97117380D01*
%TO.C,R41*%
X217642857Y-130762619D02*
X217976190Y-130286428D01*
X218214285Y-130762619D02*
X218214285Y-129762619D01*
X218214285Y-129762619D02*
X217833333Y-129762619D01*
X217833333Y-129762619D02*
X217738095Y-129810238D01*
X217738095Y-129810238D02*
X217690476Y-129857857D01*
X217690476Y-129857857D02*
X217642857Y-129953095D01*
X217642857Y-129953095D02*
X217642857Y-130095952D01*
X217642857Y-130095952D02*
X217690476Y-130191190D01*
X217690476Y-130191190D02*
X217738095Y-130238809D01*
X217738095Y-130238809D02*
X217833333Y-130286428D01*
X217833333Y-130286428D02*
X218214285Y-130286428D01*
X216785714Y-130095952D02*
X216785714Y-130762619D01*
X217023809Y-129715000D02*
X217261904Y-130429285D01*
X217261904Y-130429285D02*
X216642857Y-130429285D01*
X215738095Y-130762619D02*
X216309523Y-130762619D01*
X216023809Y-130762619D02*
X216023809Y-129762619D01*
X216023809Y-129762619D02*
X216119047Y-129905476D01*
X216119047Y-129905476D02*
X216214285Y-130000714D01*
X216214285Y-130000714D02*
X216309523Y-130048333D01*
%TO.C,U11*%
X223338094Y-81282619D02*
X223338094Y-82092142D01*
X223338094Y-82092142D02*
X223290475Y-82187380D01*
X223290475Y-82187380D02*
X223242856Y-82235000D01*
X223242856Y-82235000D02*
X223147618Y-82282619D01*
X223147618Y-82282619D02*
X222957142Y-82282619D01*
X222957142Y-82282619D02*
X222861904Y-82235000D01*
X222861904Y-82235000D02*
X222814285Y-82187380D01*
X222814285Y-82187380D02*
X222766666Y-82092142D01*
X222766666Y-82092142D02*
X222766666Y-81282619D01*
X221766666Y-82282619D02*
X222338094Y-82282619D01*
X222052380Y-82282619D02*
X222052380Y-81282619D01*
X222052380Y-81282619D02*
X222147618Y-81425476D01*
X222147618Y-81425476D02*
X222242856Y-81520714D01*
X222242856Y-81520714D02*
X222338094Y-81568333D01*
X220814285Y-82282619D02*
X221385713Y-82282619D01*
X221099999Y-82282619D02*
X221099999Y-81282619D01*
X221099999Y-81282619D02*
X221195237Y-81425476D01*
X221195237Y-81425476D02*
X221290475Y-81520714D01*
X221290475Y-81520714D02*
X221385713Y-81568333D01*
%TO.C,R26*%
X186680357Y-73142619D02*
X187013690Y-72666428D01*
X187251785Y-73142619D02*
X187251785Y-72142619D01*
X187251785Y-72142619D02*
X186870833Y-72142619D01*
X186870833Y-72142619D02*
X186775595Y-72190238D01*
X186775595Y-72190238D02*
X186727976Y-72237857D01*
X186727976Y-72237857D02*
X186680357Y-72333095D01*
X186680357Y-72333095D02*
X186680357Y-72475952D01*
X186680357Y-72475952D02*
X186727976Y-72571190D01*
X186727976Y-72571190D02*
X186775595Y-72618809D01*
X186775595Y-72618809D02*
X186870833Y-72666428D01*
X186870833Y-72666428D02*
X187251785Y-72666428D01*
X186299404Y-72237857D02*
X186251785Y-72190238D01*
X186251785Y-72190238D02*
X186156547Y-72142619D01*
X186156547Y-72142619D02*
X185918452Y-72142619D01*
X185918452Y-72142619D02*
X185823214Y-72190238D01*
X185823214Y-72190238D02*
X185775595Y-72237857D01*
X185775595Y-72237857D02*
X185727976Y-72333095D01*
X185727976Y-72333095D02*
X185727976Y-72428333D01*
X185727976Y-72428333D02*
X185775595Y-72571190D01*
X185775595Y-72571190D02*
X186347023Y-73142619D01*
X186347023Y-73142619D02*
X185727976Y-73142619D01*
X184870833Y-72142619D02*
X185061309Y-72142619D01*
X185061309Y-72142619D02*
X185156547Y-72190238D01*
X185156547Y-72190238D02*
X185204166Y-72237857D01*
X185204166Y-72237857D02*
X185299404Y-72380714D01*
X185299404Y-72380714D02*
X185347023Y-72571190D01*
X185347023Y-72571190D02*
X185347023Y-72952142D01*
X185347023Y-72952142D02*
X185299404Y-73047380D01*
X185299404Y-73047380D02*
X185251785Y-73095000D01*
X185251785Y-73095000D02*
X185156547Y-73142619D01*
X185156547Y-73142619D02*
X184966071Y-73142619D01*
X184966071Y-73142619D02*
X184870833Y-73095000D01*
X184870833Y-73095000D02*
X184823214Y-73047380D01*
X184823214Y-73047380D02*
X184775595Y-72952142D01*
X184775595Y-72952142D02*
X184775595Y-72714047D01*
X184775595Y-72714047D02*
X184823214Y-72618809D01*
X184823214Y-72618809D02*
X184870833Y-72571190D01*
X184870833Y-72571190D02*
X184966071Y-72523571D01*
X184966071Y-72523571D02*
X185156547Y-72523571D01*
X185156547Y-72523571D02*
X185251785Y-72571190D01*
X185251785Y-72571190D02*
X185299404Y-72618809D01*
X185299404Y-72618809D02*
X185347023Y-72714047D01*
%TO.C,C19*%
X232742857Y-86217380D02*
X232790476Y-86265000D01*
X232790476Y-86265000D02*
X232933333Y-86312619D01*
X232933333Y-86312619D02*
X233028571Y-86312619D01*
X233028571Y-86312619D02*
X233171428Y-86265000D01*
X233171428Y-86265000D02*
X233266666Y-86169761D01*
X233266666Y-86169761D02*
X233314285Y-86074523D01*
X233314285Y-86074523D02*
X233361904Y-85884047D01*
X233361904Y-85884047D02*
X233361904Y-85741190D01*
X233361904Y-85741190D02*
X233314285Y-85550714D01*
X233314285Y-85550714D02*
X233266666Y-85455476D01*
X233266666Y-85455476D02*
X233171428Y-85360238D01*
X233171428Y-85360238D02*
X233028571Y-85312619D01*
X233028571Y-85312619D02*
X232933333Y-85312619D01*
X232933333Y-85312619D02*
X232790476Y-85360238D01*
X232790476Y-85360238D02*
X232742857Y-85407857D01*
X231790476Y-86312619D02*
X232361904Y-86312619D01*
X232076190Y-86312619D02*
X232076190Y-85312619D01*
X232076190Y-85312619D02*
X232171428Y-85455476D01*
X232171428Y-85455476D02*
X232266666Y-85550714D01*
X232266666Y-85550714D02*
X232361904Y-85598333D01*
X231314285Y-86312619D02*
X231123809Y-86312619D01*
X231123809Y-86312619D02*
X231028571Y-86265000D01*
X231028571Y-86265000D02*
X230980952Y-86217380D01*
X230980952Y-86217380D02*
X230885714Y-86074523D01*
X230885714Y-86074523D02*
X230838095Y-85884047D01*
X230838095Y-85884047D02*
X230838095Y-85503095D01*
X230838095Y-85503095D02*
X230885714Y-85407857D01*
X230885714Y-85407857D02*
X230933333Y-85360238D01*
X230933333Y-85360238D02*
X231028571Y-85312619D01*
X231028571Y-85312619D02*
X231219047Y-85312619D01*
X231219047Y-85312619D02*
X231314285Y-85360238D01*
X231314285Y-85360238D02*
X231361904Y-85407857D01*
X231361904Y-85407857D02*
X231409523Y-85503095D01*
X231409523Y-85503095D02*
X231409523Y-85741190D01*
X231409523Y-85741190D02*
X231361904Y-85836428D01*
X231361904Y-85836428D02*
X231314285Y-85884047D01*
X231314285Y-85884047D02*
X231219047Y-85931666D01*
X231219047Y-85931666D02*
X231028571Y-85931666D01*
X231028571Y-85931666D02*
X230933333Y-85884047D01*
X230933333Y-85884047D02*
X230885714Y-85836428D01*
X230885714Y-85836428D02*
X230838095Y-85741190D01*
%TO.C,R38*%
X218892857Y-79212619D02*
X219226190Y-78736428D01*
X219464285Y-79212619D02*
X219464285Y-78212619D01*
X219464285Y-78212619D02*
X219083333Y-78212619D01*
X219083333Y-78212619D02*
X218988095Y-78260238D01*
X218988095Y-78260238D02*
X218940476Y-78307857D01*
X218940476Y-78307857D02*
X218892857Y-78403095D01*
X218892857Y-78403095D02*
X218892857Y-78545952D01*
X218892857Y-78545952D02*
X218940476Y-78641190D01*
X218940476Y-78641190D02*
X218988095Y-78688809D01*
X218988095Y-78688809D02*
X219083333Y-78736428D01*
X219083333Y-78736428D02*
X219464285Y-78736428D01*
X218559523Y-78212619D02*
X217940476Y-78212619D01*
X217940476Y-78212619D02*
X218273809Y-78593571D01*
X218273809Y-78593571D02*
X218130952Y-78593571D01*
X218130952Y-78593571D02*
X218035714Y-78641190D01*
X218035714Y-78641190D02*
X217988095Y-78688809D01*
X217988095Y-78688809D02*
X217940476Y-78784047D01*
X217940476Y-78784047D02*
X217940476Y-79022142D01*
X217940476Y-79022142D02*
X217988095Y-79117380D01*
X217988095Y-79117380D02*
X218035714Y-79165000D01*
X218035714Y-79165000D02*
X218130952Y-79212619D01*
X218130952Y-79212619D02*
X218416666Y-79212619D01*
X218416666Y-79212619D02*
X218511904Y-79165000D01*
X218511904Y-79165000D02*
X218559523Y-79117380D01*
X217369047Y-78641190D02*
X217464285Y-78593571D01*
X217464285Y-78593571D02*
X217511904Y-78545952D01*
X217511904Y-78545952D02*
X217559523Y-78450714D01*
X217559523Y-78450714D02*
X217559523Y-78403095D01*
X217559523Y-78403095D02*
X217511904Y-78307857D01*
X217511904Y-78307857D02*
X217464285Y-78260238D01*
X217464285Y-78260238D02*
X217369047Y-78212619D01*
X217369047Y-78212619D02*
X217178571Y-78212619D01*
X217178571Y-78212619D02*
X217083333Y-78260238D01*
X217083333Y-78260238D02*
X217035714Y-78307857D01*
X217035714Y-78307857D02*
X216988095Y-78403095D01*
X216988095Y-78403095D02*
X216988095Y-78450714D01*
X216988095Y-78450714D02*
X217035714Y-78545952D01*
X217035714Y-78545952D02*
X217083333Y-78593571D01*
X217083333Y-78593571D02*
X217178571Y-78641190D01*
X217178571Y-78641190D02*
X217369047Y-78641190D01*
X217369047Y-78641190D02*
X217464285Y-78688809D01*
X217464285Y-78688809D02*
X217511904Y-78736428D01*
X217511904Y-78736428D02*
X217559523Y-78831666D01*
X217559523Y-78831666D02*
X217559523Y-79022142D01*
X217559523Y-79022142D02*
X217511904Y-79117380D01*
X217511904Y-79117380D02*
X217464285Y-79165000D01*
X217464285Y-79165000D02*
X217369047Y-79212619D01*
X217369047Y-79212619D02*
X217178571Y-79212619D01*
X217178571Y-79212619D02*
X217083333Y-79165000D01*
X217083333Y-79165000D02*
X217035714Y-79117380D01*
X217035714Y-79117380D02*
X216988095Y-79022142D01*
X216988095Y-79022142D02*
X216988095Y-78831666D01*
X216988095Y-78831666D02*
X217035714Y-78736428D01*
X217035714Y-78736428D02*
X217083333Y-78688809D01*
X217083333Y-78688809D02*
X217178571Y-78641190D01*
%TO.C,U2*%
X212861904Y-63582619D02*
X212861904Y-64392142D01*
X212861904Y-64392142D02*
X212814285Y-64487380D01*
X212814285Y-64487380D02*
X212766666Y-64535000D01*
X212766666Y-64535000D02*
X212671428Y-64582619D01*
X212671428Y-64582619D02*
X212480952Y-64582619D01*
X212480952Y-64582619D02*
X212385714Y-64535000D01*
X212385714Y-64535000D02*
X212338095Y-64487380D01*
X212338095Y-64487380D02*
X212290476Y-64392142D01*
X212290476Y-64392142D02*
X212290476Y-63582619D01*
X211861904Y-63677857D02*
X211814285Y-63630238D01*
X211814285Y-63630238D02*
X211719047Y-63582619D01*
X211719047Y-63582619D02*
X211480952Y-63582619D01*
X211480952Y-63582619D02*
X211385714Y-63630238D01*
X211385714Y-63630238D02*
X211338095Y-63677857D01*
X211338095Y-63677857D02*
X211290476Y-63773095D01*
X211290476Y-63773095D02*
X211290476Y-63868333D01*
X211290476Y-63868333D02*
X211338095Y-64011190D01*
X211338095Y-64011190D02*
X211909523Y-64582619D01*
X211909523Y-64582619D02*
X211290476Y-64582619D01*
%TO.C,R27*%
X187142857Y-106942619D02*
X187476190Y-106466428D01*
X187714285Y-106942619D02*
X187714285Y-105942619D01*
X187714285Y-105942619D02*
X187333333Y-105942619D01*
X187333333Y-105942619D02*
X187238095Y-105990238D01*
X187238095Y-105990238D02*
X187190476Y-106037857D01*
X187190476Y-106037857D02*
X187142857Y-106133095D01*
X187142857Y-106133095D02*
X187142857Y-106275952D01*
X187142857Y-106275952D02*
X187190476Y-106371190D01*
X187190476Y-106371190D02*
X187238095Y-106418809D01*
X187238095Y-106418809D02*
X187333333Y-106466428D01*
X187333333Y-106466428D02*
X187714285Y-106466428D01*
X186761904Y-106037857D02*
X186714285Y-105990238D01*
X186714285Y-105990238D02*
X186619047Y-105942619D01*
X186619047Y-105942619D02*
X186380952Y-105942619D01*
X186380952Y-105942619D02*
X186285714Y-105990238D01*
X186285714Y-105990238D02*
X186238095Y-106037857D01*
X186238095Y-106037857D02*
X186190476Y-106133095D01*
X186190476Y-106133095D02*
X186190476Y-106228333D01*
X186190476Y-106228333D02*
X186238095Y-106371190D01*
X186238095Y-106371190D02*
X186809523Y-106942619D01*
X186809523Y-106942619D02*
X186190476Y-106942619D01*
X185857142Y-105942619D02*
X185190476Y-105942619D01*
X185190476Y-105942619D02*
X185619047Y-106942619D01*
%TO.C,C10*%
X208792857Y-62387380D02*
X208840476Y-62435000D01*
X208840476Y-62435000D02*
X208983333Y-62482619D01*
X208983333Y-62482619D02*
X209078571Y-62482619D01*
X209078571Y-62482619D02*
X209221428Y-62435000D01*
X209221428Y-62435000D02*
X209316666Y-62339761D01*
X209316666Y-62339761D02*
X209364285Y-62244523D01*
X209364285Y-62244523D02*
X209411904Y-62054047D01*
X209411904Y-62054047D02*
X209411904Y-61911190D01*
X209411904Y-61911190D02*
X209364285Y-61720714D01*
X209364285Y-61720714D02*
X209316666Y-61625476D01*
X209316666Y-61625476D02*
X209221428Y-61530238D01*
X209221428Y-61530238D02*
X209078571Y-61482619D01*
X209078571Y-61482619D02*
X208983333Y-61482619D01*
X208983333Y-61482619D02*
X208840476Y-61530238D01*
X208840476Y-61530238D02*
X208792857Y-61577857D01*
X207840476Y-62482619D02*
X208411904Y-62482619D01*
X208126190Y-62482619D02*
X208126190Y-61482619D01*
X208126190Y-61482619D02*
X208221428Y-61625476D01*
X208221428Y-61625476D02*
X208316666Y-61720714D01*
X208316666Y-61720714D02*
X208411904Y-61768333D01*
X207221428Y-61482619D02*
X207126190Y-61482619D01*
X207126190Y-61482619D02*
X207030952Y-61530238D01*
X207030952Y-61530238D02*
X206983333Y-61577857D01*
X206983333Y-61577857D02*
X206935714Y-61673095D01*
X206935714Y-61673095D02*
X206888095Y-61863571D01*
X206888095Y-61863571D02*
X206888095Y-62101666D01*
X206888095Y-62101666D02*
X206935714Y-62292142D01*
X206935714Y-62292142D02*
X206983333Y-62387380D01*
X206983333Y-62387380D02*
X207030952Y-62435000D01*
X207030952Y-62435000D02*
X207126190Y-62482619D01*
X207126190Y-62482619D02*
X207221428Y-62482619D01*
X207221428Y-62482619D02*
X207316666Y-62435000D01*
X207316666Y-62435000D02*
X207364285Y-62387380D01*
X207364285Y-62387380D02*
X207411904Y-62292142D01*
X207411904Y-62292142D02*
X207459523Y-62101666D01*
X207459523Y-62101666D02*
X207459523Y-61863571D01*
X207459523Y-61863571D02*
X207411904Y-61673095D01*
X207411904Y-61673095D02*
X207364285Y-61577857D01*
X207364285Y-61577857D02*
X207316666Y-61530238D01*
X207316666Y-61530238D02*
X207221428Y-61482619D01*
%TO.C,C26*%
X220742857Y-134667380D02*
X220790476Y-134715000D01*
X220790476Y-134715000D02*
X220933333Y-134762619D01*
X220933333Y-134762619D02*
X221028571Y-134762619D01*
X221028571Y-134762619D02*
X221171428Y-134715000D01*
X221171428Y-134715000D02*
X221266666Y-134619761D01*
X221266666Y-134619761D02*
X221314285Y-134524523D01*
X221314285Y-134524523D02*
X221361904Y-134334047D01*
X221361904Y-134334047D02*
X221361904Y-134191190D01*
X221361904Y-134191190D02*
X221314285Y-134000714D01*
X221314285Y-134000714D02*
X221266666Y-133905476D01*
X221266666Y-133905476D02*
X221171428Y-133810238D01*
X221171428Y-133810238D02*
X221028571Y-133762619D01*
X221028571Y-133762619D02*
X220933333Y-133762619D01*
X220933333Y-133762619D02*
X220790476Y-133810238D01*
X220790476Y-133810238D02*
X220742857Y-133857857D01*
X220361904Y-133857857D02*
X220314285Y-133810238D01*
X220314285Y-133810238D02*
X220219047Y-133762619D01*
X220219047Y-133762619D02*
X219980952Y-133762619D01*
X219980952Y-133762619D02*
X219885714Y-133810238D01*
X219885714Y-133810238D02*
X219838095Y-133857857D01*
X219838095Y-133857857D02*
X219790476Y-133953095D01*
X219790476Y-133953095D02*
X219790476Y-134048333D01*
X219790476Y-134048333D02*
X219838095Y-134191190D01*
X219838095Y-134191190D02*
X220409523Y-134762619D01*
X220409523Y-134762619D02*
X219790476Y-134762619D01*
X218933333Y-133762619D02*
X219123809Y-133762619D01*
X219123809Y-133762619D02*
X219219047Y-133810238D01*
X219219047Y-133810238D02*
X219266666Y-133857857D01*
X219266666Y-133857857D02*
X219361904Y-134000714D01*
X219361904Y-134000714D02*
X219409523Y-134191190D01*
X219409523Y-134191190D02*
X219409523Y-134572142D01*
X219409523Y-134572142D02*
X219361904Y-134667380D01*
X219361904Y-134667380D02*
X219314285Y-134715000D01*
X219314285Y-134715000D02*
X219219047Y-134762619D01*
X219219047Y-134762619D02*
X219028571Y-134762619D01*
X219028571Y-134762619D02*
X218933333Y-134715000D01*
X218933333Y-134715000D02*
X218885714Y-134667380D01*
X218885714Y-134667380D02*
X218838095Y-134572142D01*
X218838095Y-134572142D02*
X218838095Y-134334047D01*
X218838095Y-134334047D02*
X218885714Y-134238809D01*
X218885714Y-134238809D02*
X218933333Y-134191190D01*
X218933333Y-134191190D02*
X219028571Y-134143571D01*
X219028571Y-134143571D02*
X219219047Y-134143571D01*
X219219047Y-134143571D02*
X219314285Y-134191190D01*
X219314285Y-134191190D02*
X219361904Y-134238809D01*
X219361904Y-134238809D02*
X219409523Y-134334047D01*
%TO.C,Q1*%
X207095238Y-110307857D02*
X207190476Y-110260238D01*
X207190476Y-110260238D02*
X207285714Y-110165000D01*
X207285714Y-110165000D02*
X207428571Y-110022142D01*
X207428571Y-110022142D02*
X207523809Y-109974523D01*
X207523809Y-109974523D02*
X207619047Y-109974523D01*
X207571428Y-110212619D02*
X207666666Y-110165000D01*
X207666666Y-110165000D02*
X207761904Y-110069761D01*
X207761904Y-110069761D02*
X207809523Y-109879285D01*
X207809523Y-109879285D02*
X207809523Y-109545952D01*
X207809523Y-109545952D02*
X207761904Y-109355476D01*
X207761904Y-109355476D02*
X207666666Y-109260238D01*
X207666666Y-109260238D02*
X207571428Y-109212619D01*
X207571428Y-109212619D02*
X207380952Y-109212619D01*
X207380952Y-109212619D02*
X207285714Y-109260238D01*
X207285714Y-109260238D02*
X207190476Y-109355476D01*
X207190476Y-109355476D02*
X207142857Y-109545952D01*
X207142857Y-109545952D02*
X207142857Y-109879285D01*
X207142857Y-109879285D02*
X207190476Y-110069761D01*
X207190476Y-110069761D02*
X207285714Y-110165000D01*
X207285714Y-110165000D02*
X207380952Y-110212619D01*
X207380952Y-110212619D02*
X207571428Y-110212619D01*
X206190476Y-110212619D02*
X206761904Y-110212619D01*
X206476190Y-110212619D02*
X206476190Y-109212619D01*
X206476190Y-109212619D02*
X206571428Y-109355476D01*
X206571428Y-109355476D02*
X206666666Y-109450714D01*
X206666666Y-109450714D02*
X206761904Y-109498333D01*
%TO.C,R37*%
X216892857Y-95962619D02*
X217226190Y-95486428D01*
X217464285Y-95962619D02*
X217464285Y-94962619D01*
X217464285Y-94962619D02*
X217083333Y-94962619D01*
X217083333Y-94962619D02*
X216988095Y-95010238D01*
X216988095Y-95010238D02*
X216940476Y-95057857D01*
X216940476Y-95057857D02*
X216892857Y-95153095D01*
X216892857Y-95153095D02*
X216892857Y-95295952D01*
X216892857Y-95295952D02*
X216940476Y-95391190D01*
X216940476Y-95391190D02*
X216988095Y-95438809D01*
X216988095Y-95438809D02*
X217083333Y-95486428D01*
X217083333Y-95486428D02*
X217464285Y-95486428D01*
X216559523Y-94962619D02*
X215940476Y-94962619D01*
X215940476Y-94962619D02*
X216273809Y-95343571D01*
X216273809Y-95343571D02*
X216130952Y-95343571D01*
X216130952Y-95343571D02*
X216035714Y-95391190D01*
X216035714Y-95391190D02*
X215988095Y-95438809D01*
X215988095Y-95438809D02*
X215940476Y-95534047D01*
X215940476Y-95534047D02*
X215940476Y-95772142D01*
X215940476Y-95772142D02*
X215988095Y-95867380D01*
X215988095Y-95867380D02*
X216035714Y-95915000D01*
X216035714Y-95915000D02*
X216130952Y-95962619D01*
X216130952Y-95962619D02*
X216416666Y-95962619D01*
X216416666Y-95962619D02*
X216511904Y-95915000D01*
X216511904Y-95915000D02*
X216559523Y-95867380D01*
X215607142Y-94962619D02*
X214940476Y-94962619D01*
X214940476Y-94962619D02*
X215369047Y-95962619D01*
%TO.C,R2*%
X210166666Y-81212619D02*
X210499999Y-80736428D01*
X210738094Y-81212619D02*
X210738094Y-80212619D01*
X210738094Y-80212619D02*
X210357142Y-80212619D01*
X210357142Y-80212619D02*
X210261904Y-80260238D01*
X210261904Y-80260238D02*
X210214285Y-80307857D01*
X210214285Y-80307857D02*
X210166666Y-80403095D01*
X210166666Y-80403095D02*
X210166666Y-80545952D01*
X210166666Y-80545952D02*
X210214285Y-80641190D01*
X210214285Y-80641190D02*
X210261904Y-80688809D01*
X210261904Y-80688809D02*
X210357142Y-80736428D01*
X210357142Y-80736428D02*
X210738094Y-80736428D01*
X209785713Y-80307857D02*
X209738094Y-80260238D01*
X209738094Y-80260238D02*
X209642856Y-80212619D01*
X209642856Y-80212619D02*
X209404761Y-80212619D01*
X209404761Y-80212619D02*
X209309523Y-80260238D01*
X209309523Y-80260238D02*
X209261904Y-80307857D01*
X209261904Y-80307857D02*
X209214285Y-80403095D01*
X209214285Y-80403095D02*
X209214285Y-80498333D01*
X209214285Y-80498333D02*
X209261904Y-80641190D01*
X209261904Y-80641190D02*
X209833332Y-81212619D01*
X209833332Y-81212619D02*
X209214285Y-81212619D01*
%TO.C,R15*%
X207130357Y-116712619D02*
X207463690Y-116236428D01*
X207701785Y-116712619D02*
X207701785Y-115712619D01*
X207701785Y-115712619D02*
X207320833Y-115712619D01*
X207320833Y-115712619D02*
X207225595Y-115760238D01*
X207225595Y-115760238D02*
X207177976Y-115807857D01*
X207177976Y-115807857D02*
X207130357Y-115903095D01*
X207130357Y-115903095D02*
X207130357Y-116045952D01*
X207130357Y-116045952D02*
X207177976Y-116141190D01*
X207177976Y-116141190D02*
X207225595Y-116188809D01*
X207225595Y-116188809D02*
X207320833Y-116236428D01*
X207320833Y-116236428D02*
X207701785Y-116236428D01*
X206177976Y-116712619D02*
X206749404Y-116712619D01*
X206463690Y-116712619D02*
X206463690Y-115712619D01*
X206463690Y-115712619D02*
X206558928Y-115855476D01*
X206558928Y-115855476D02*
X206654166Y-115950714D01*
X206654166Y-115950714D02*
X206749404Y-115998333D01*
X205273214Y-115712619D02*
X205749404Y-115712619D01*
X205749404Y-115712619D02*
X205797023Y-116188809D01*
X205797023Y-116188809D02*
X205749404Y-116141190D01*
X205749404Y-116141190D02*
X205654166Y-116093571D01*
X205654166Y-116093571D02*
X205416071Y-116093571D01*
X205416071Y-116093571D02*
X205320833Y-116141190D01*
X205320833Y-116141190D02*
X205273214Y-116188809D01*
X205273214Y-116188809D02*
X205225595Y-116284047D01*
X205225595Y-116284047D02*
X205225595Y-116522142D01*
X205225595Y-116522142D02*
X205273214Y-116617380D01*
X205273214Y-116617380D02*
X205320833Y-116665000D01*
X205320833Y-116665000D02*
X205416071Y-116712619D01*
X205416071Y-116712619D02*
X205654166Y-116712619D01*
X205654166Y-116712619D02*
X205749404Y-116665000D01*
X205749404Y-116665000D02*
X205797023Y-116617380D01*
%TO.C,R35*%
X228555357Y-77962619D02*
X228888690Y-77486428D01*
X229126785Y-77962619D02*
X229126785Y-76962619D01*
X229126785Y-76962619D02*
X228745833Y-76962619D01*
X228745833Y-76962619D02*
X228650595Y-77010238D01*
X228650595Y-77010238D02*
X228602976Y-77057857D01*
X228602976Y-77057857D02*
X228555357Y-77153095D01*
X228555357Y-77153095D02*
X228555357Y-77295952D01*
X228555357Y-77295952D02*
X228602976Y-77391190D01*
X228602976Y-77391190D02*
X228650595Y-77438809D01*
X228650595Y-77438809D02*
X228745833Y-77486428D01*
X228745833Y-77486428D02*
X229126785Y-77486428D01*
X228222023Y-76962619D02*
X227602976Y-76962619D01*
X227602976Y-76962619D02*
X227936309Y-77343571D01*
X227936309Y-77343571D02*
X227793452Y-77343571D01*
X227793452Y-77343571D02*
X227698214Y-77391190D01*
X227698214Y-77391190D02*
X227650595Y-77438809D01*
X227650595Y-77438809D02*
X227602976Y-77534047D01*
X227602976Y-77534047D02*
X227602976Y-77772142D01*
X227602976Y-77772142D02*
X227650595Y-77867380D01*
X227650595Y-77867380D02*
X227698214Y-77915000D01*
X227698214Y-77915000D02*
X227793452Y-77962619D01*
X227793452Y-77962619D02*
X228079166Y-77962619D01*
X228079166Y-77962619D02*
X228174404Y-77915000D01*
X228174404Y-77915000D02*
X228222023Y-77867380D01*
X226698214Y-76962619D02*
X227174404Y-76962619D01*
X227174404Y-76962619D02*
X227222023Y-77438809D01*
X227222023Y-77438809D02*
X227174404Y-77391190D01*
X227174404Y-77391190D02*
X227079166Y-77343571D01*
X227079166Y-77343571D02*
X226841071Y-77343571D01*
X226841071Y-77343571D02*
X226745833Y-77391190D01*
X226745833Y-77391190D02*
X226698214Y-77438809D01*
X226698214Y-77438809D02*
X226650595Y-77534047D01*
X226650595Y-77534047D02*
X226650595Y-77772142D01*
X226650595Y-77772142D02*
X226698214Y-77867380D01*
X226698214Y-77867380D02*
X226745833Y-77915000D01*
X226745833Y-77915000D02*
X226841071Y-77962619D01*
X226841071Y-77962619D02*
X227079166Y-77962619D01*
X227079166Y-77962619D02*
X227174404Y-77915000D01*
X227174404Y-77915000D02*
X227222023Y-77867380D01*
%TO.C,C9*%
X204616666Y-98587380D02*
X204664285Y-98635000D01*
X204664285Y-98635000D02*
X204807142Y-98682619D01*
X204807142Y-98682619D02*
X204902380Y-98682619D01*
X204902380Y-98682619D02*
X205045237Y-98635000D01*
X205045237Y-98635000D02*
X205140475Y-98539761D01*
X205140475Y-98539761D02*
X205188094Y-98444523D01*
X205188094Y-98444523D02*
X205235713Y-98254047D01*
X205235713Y-98254047D02*
X205235713Y-98111190D01*
X205235713Y-98111190D02*
X205188094Y-97920714D01*
X205188094Y-97920714D02*
X205140475Y-97825476D01*
X205140475Y-97825476D02*
X205045237Y-97730238D01*
X205045237Y-97730238D02*
X204902380Y-97682619D01*
X204902380Y-97682619D02*
X204807142Y-97682619D01*
X204807142Y-97682619D02*
X204664285Y-97730238D01*
X204664285Y-97730238D02*
X204616666Y-97777857D01*
X204140475Y-98682619D02*
X203949999Y-98682619D01*
X203949999Y-98682619D02*
X203854761Y-98635000D01*
X203854761Y-98635000D02*
X203807142Y-98587380D01*
X203807142Y-98587380D02*
X203711904Y-98444523D01*
X203711904Y-98444523D02*
X203664285Y-98254047D01*
X203664285Y-98254047D02*
X203664285Y-97873095D01*
X203664285Y-97873095D02*
X203711904Y-97777857D01*
X203711904Y-97777857D02*
X203759523Y-97730238D01*
X203759523Y-97730238D02*
X203854761Y-97682619D01*
X203854761Y-97682619D02*
X204045237Y-97682619D01*
X204045237Y-97682619D02*
X204140475Y-97730238D01*
X204140475Y-97730238D02*
X204188094Y-97777857D01*
X204188094Y-97777857D02*
X204235713Y-97873095D01*
X204235713Y-97873095D02*
X204235713Y-98111190D01*
X204235713Y-98111190D02*
X204188094Y-98206428D01*
X204188094Y-98206428D02*
X204140475Y-98254047D01*
X204140475Y-98254047D02*
X204045237Y-98301666D01*
X204045237Y-98301666D02*
X203854761Y-98301666D01*
X203854761Y-98301666D02*
X203759523Y-98254047D01*
X203759523Y-98254047D02*
X203711904Y-98206428D01*
X203711904Y-98206428D02*
X203664285Y-98111190D01*
%TO.C,C20*%
X212567857Y-88717380D02*
X212615476Y-88765000D01*
X212615476Y-88765000D02*
X212758333Y-88812619D01*
X212758333Y-88812619D02*
X212853571Y-88812619D01*
X212853571Y-88812619D02*
X212996428Y-88765000D01*
X212996428Y-88765000D02*
X213091666Y-88669761D01*
X213091666Y-88669761D02*
X213139285Y-88574523D01*
X213139285Y-88574523D02*
X213186904Y-88384047D01*
X213186904Y-88384047D02*
X213186904Y-88241190D01*
X213186904Y-88241190D02*
X213139285Y-88050714D01*
X213139285Y-88050714D02*
X213091666Y-87955476D01*
X213091666Y-87955476D02*
X212996428Y-87860238D01*
X212996428Y-87860238D02*
X212853571Y-87812619D01*
X212853571Y-87812619D02*
X212758333Y-87812619D01*
X212758333Y-87812619D02*
X212615476Y-87860238D01*
X212615476Y-87860238D02*
X212567857Y-87907857D01*
X212186904Y-87907857D02*
X212139285Y-87860238D01*
X212139285Y-87860238D02*
X212044047Y-87812619D01*
X212044047Y-87812619D02*
X211805952Y-87812619D01*
X211805952Y-87812619D02*
X211710714Y-87860238D01*
X211710714Y-87860238D02*
X211663095Y-87907857D01*
X211663095Y-87907857D02*
X211615476Y-88003095D01*
X211615476Y-88003095D02*
X211615476Y-88098333D01*
X211615476Y-88098333D02*
X211663095Y-88241190D01*
X211663095Y-88241190D02*
X212234523Y-88812619D01*
X212234523Y-88812619D02*
X211615476Y-88812619D01*
X210996428Y-87812619D02*
X210901190Y-87812619D01*
X210901190Y-87812619D02*
X210805952Y-87860238D01*
X210805952Y-87860238D02*
X210758333Y-87907857D01*
X210758333Y-87907857D02*
X210710714Y-88003095D01*
X210710714Y-88003095D02*
X210663095Y-88193571D01*
X210663095Y-88193571D02*
X210663095Y-88431666D01*
X210663095Y-88431666D02*
X210710714Y-88622142D01*
X210710714Y-88622142D02*
X210758333Y-88717380D01*
X210758333Y-88717380D02*
X210805952Y-88765000D01*
X210805952Y-88765000D02*
X210901190Y-88812619D01*
X210901190Y-88812619D02*
X210996428Y-88812619D01*
X210996428Y-88812619D02*
X211091666Y-88765000D01*
X211091666Y-88765000D02*
X211139285Y-88717380D01*
X211139285Y-88717380D02*
X211186904Y-88622142D01*
X211186904Y-88622142D02*
X211234523Y-88431666D01*
X211234523Y-88431666D02*
X211234523Y-88193571D01*
X211234523Y-88193571D02*
X211186904Y-88003095D01*
X211186904Y-88003095D02*
X211139285Y-87907857D01*
X211139285Y-87907857D02*
X211091666Y-87860238D01*
X211091666Y-87860238D02*
X210996428Y-87812619D01*
%TO.C,C23*%
X220987380Y-94357142D02*
X221035000Y-94309523D01*
X221035000Y-94309523D02*
X221082619Y-94166666D01*
X221082619Y-94166666D02*
X221082619Y-94071428D01*
X221082619Y-94071428D02*
X221035000Y-93928571D01*
X221035000Y-93928571D02*
X220939761Y-93833333D01*
X220939761Y-93833333D02*
X220844523Y-93785714D01*
X220844523Y-93785714D02*
X220654047Y-93738095D01*
X220654047Y-93738095D02*
X220511190Y-93738095D01*
X220511190Y-93738095D02*
X220320714Y-93785714D01*
X220320714Y-93785714D02*
X220225476Y-93833333D01*
X220225476Y-93833333D02*
X220130238Y-93928571D01*
X220130238Y-93928571D02*
X220082619Y-94071428D01*
X220082619Y-94071428D02*
X220082619Y-94166666D01*
X220082619Y-94166666D02*
X220130238Y-94309523D01*
X220130238Y-94309523D02*
X220177857Y-94357142D01*
X220177857Y-94738095D02*
X220130238Y-94785714D01*
X220130238Y-94785714D02*
X220082619Y-94880952D01*
X220082619Y-94880952D02*
X220082619Y-95119047D01*
X220082619Y-95119047D02*
X220130238Y-95214285D01*
X220130238Y-95214285D02*
X220177857Y-95261904D01*
X220177857Y-95261904D02*
X220273095Y-95309523D01*
X220273095Y-95309523D02*
X220368333Y-95309523D01*
X220368333Y-95309523D02*
X220511190Y-95261904D01*
X220511190Y-95261904D02*
X221082619Y-94690476D01*
X221082619Y-94690476D02*
X221082619Y-95309523D01*
X220082619Y-95642857D02*
X220082619Y-96261904D01*
X220082619Y-96261904D02*
X220463571Y-95928571D01*
X220463571Y-95928571D02*
X220463571Y-96071428D01*
X220463571Y-96071428D02*
X220511190Y-96166666D01*
X220511190Y-96166666D02*
X220558809Y-96214285D01*
X220558809Y-96214285D02*
X220654047Y-96261904D01*
X220654047Y-96261904D02*
X220892142Y-96261904D01*
X220892142Y-96261904D02*
X220987380Y-96214285D01*
X220987380Y-96214285D02*
X221035000Y-96166666D01*
X221035000Y-96166666D02*
X221082619Y-96071428D01*
X221082619Y-96071428D02*
X221082619Y-95785714D01*
X221082619Y-95785714D02*
X221035000Y-95690476D01*
X221035000Y-95690476D02*
X220987380Y-95642857D01*
%TO.C,C24*%
X217442857Y-126667380D02*
X217490476Y-126715000D01*
X217490476Y-126715000D02*
X217633333Y-126762619D01*
X217633333Y-126762619D02*
X217728571Y-126762619D01*
X217728571Y-126762619D02*
X217871428Y-126715000D01*
X217871428Y-126715000D02*
X217966666Y-126619761D01*
X217966666Y-126619761D02*
X218014285Y-126524523D01*
X218014285Y-126524523D02*
X218061904Y-126334047D01*
X218061904Y-126334047D02*
X218061904Y-126191190D01*
X218061904Y-126191190D02*
X218014285Y-126000714D01*
X218014285Y-126000714D02*
X217966666Y-125905476D01*
X217966666Y-125905476D02*
X217871428Y-125810238D01*
X217871428Y-125810238D02*
X217728571Y-125762619D01*
X217728571Y-125762619D02*
X217633333Y-125762619D01*
X217633333Y-125762619D02*
X217490476Y-125810238D01*
X217490476Y-125810238D02*
X217442857Y-125857857D01*
X217061904Y-125857857D02*
X217014285Y-125810238D01*
X217014285Y-125810238D02*
X216919047Y-125762619D01*
X216919047Y-125762619D02*
X216680952Y-125762619D01*
X216680952Y-125762619D02*
X216585714Y-125810238D01*
X216585714Y-125810238D02*
X216538095Y-125857857D01*
X216538095Y-125857857D02*
X216490476Y-125953095D01*
X216490476Y-125953095D02*
X216490476Y-126048333D01*
X216490476Y-126048333D02*
X216538095Y-126191190D01*
X216538095Y-126191190D02*
X217109523Y-126762619D01*
X217109523Y-126762619D02*
X216490476Y-126762619D01*
X215633333Y-126095952D02*
X215633333Y-126762619D01*
X215871428Y-125715000D02*
X216109523Y-126429285D01*
X216109523Y-126429285D02*
X215490476Y-126429285D01*
%TO.C,R30*%
X216892857Y-94712619D02*
X217226190Y-94236428D01*
X217464285Y-94712619D02*
X217464285Y-93712619D01*
X217464285Y-93712619D02*
X217083333Y-93712619D01*
X217083333Y-93712619D02*
X216988095Y-93760238D01*
X216988095Y-93760238D02*
X216940476Y-93807857D01*
X216940476Y-93807857D02*
X216892857Y-93903095D01*
X216892857Y-93903095D02*
X216892857Y-94045952D01*
X216892857Y-94045952D02*
X216940476Y-94141190D01*
X216940476Y-94141190D02*
X216988095Y-94188809D01*
X216988095Y-94188809D02*
X217083333Y-94236428D01*
X217083333Y-94236428D02*
X217464285Y-94236428D01*
X216559523Y-93712619D02*
X215940476Y-93712619D01*
X215940476Y-93712619D02*
X216273809Y-94093571D01*
X216273809Y-94093571D02*
X216130952Y-94093571D01*
X216130952Y-94093571D02*
X216035714Y-94141190D01*
X216035714Y-94141190D02*
X215988095Y-94188809D01*
X215988095Y-94188809D02*
X215940476Y-94284047D01*
X215940476Y-94284047D02*
X215940476Y-94522142D01*
X215940476Y-94522142D02*
X215988095Y-94617380D01*
X215988095Y-94617380D02*
X216035714Y-94665000D01*
X216035714Y-94665000D02*
X216130952Y-94712619D01*
X216130952Y-94712619D02*
X216416666Y-94712619D01*
X216416666Y-94712619D02*
X216511904Y-94665000D01*
X216511904Y-94665000D02*
X216559523Y-94617380D01*
X215321428Y-93712619D02*
X215226190Y-93712619D01*
X215226190Y-93712619D02*
X215130952Y-93760238D01*
X215130952Y-93760238D02*
X215083333Y-93807857D01*
X215083333Y-93807857D02*
X215035714Y-93903095D01*
X215035714Y-93903095D02*
X214988095Y-94093571D01*
X214988095Y-94093571D02*
X214988095Y-94331666D01*
X214988095Y-94331666D02*
X215035714Y-94522142D01*
X215035714Y-94522142D02*
X215083333Y-94617380D01*
X215083333Y-94617380D02*
X215130952Y-94665000D01*
X215130952Y-94665000D02*
X215226190Y-94712619D01*
X215226190Y-94712619D02*
X215321428Y-94712619D01*
X215321428Y-94712619D02*
X215416666Y-94665000D01*
X215416666Y-94665000D02*
X215464285Y-94617380D01*
X215464285Y-94617380D02*
X215511904Y-94522142D01*
X215511904Y-94522142D02*
X215559523Y-94331666D01*
X215559523Y-94331666D02*
X215559523Y-94093571D01*
X215559523Y-94093571D02*
X215511904Y-93903095D01*
X215511904Y-93903095D02*
X215464285Y-93807857D01*
X215464285Y-93807857D02*
X215416666Y-93760238D01*
X215416666Y-93760238D02*
X215321428Y-93712619D01*
%TO.C,Q2*%
X207345238Y-76807857D02*
X207440476Y-76760238D01*
X207440476Y-76760238D02*
X207535714Y-76665000D01*
X207535714Y-76665000D02*
X207678571Y-76522142D01*
X207678571Y-76522142D02*
X207773809Y-76474523D01*
X207773809Y-76474523D02*
X207869047Y-76474523D01*
X207821428Y-76712619D02*
X207916666Y-76665000D01*
X207916666Y-76665000D02*
X208011904Y-76569761D01*
X208011904Y-76569761D02*
X208059523Y-76379285D01*
X208059523Y-76379285D02*
X208059523Y-76045952D01*
X208059523Y-76045952D02*
X208011904Y-75855476D01*
X208011904Y-75855476D02*
X207916666Y-75760238D01*
X207916666Y-75760238D02*
X207821428Y-75712619D01*
X207821428Y-75712619D02*
X207630952Y-75712619D01*
X207630952Y-75712619D02*
X207535714Y-75760238D01*
X207535714Y-75760238D02*
X207440476Y-75855476D01*
X207440476Y-75855476D02*
X207392857Y-76045952D01*
X207392857Y-76045952D02*
X207392857Y-76379285D01*
X207392857Y-76379285D02*
X207440476Y-76569761D01*
X207440476Y-76569761D02*
X207535714Y-76665000D01*
X207535714Y-76665000D02*
X207630952Y-76712619D01*
X207630952Y-76712619D02*
X207821428Y-76712619D01*
X207011904Y-75807857D02*
X206964285Y-75760238D01*
X206964285Y-75760238D02*
X206869047Y-75712619D01*
X206869047Y-75712619D02*
X206630952Y-75712619D01*
X206630952Y-75712619D02*
X206535714Y-75760238D01*
X206535714Y-75760238D02*
X206488095Y-75807857D01*
X206488095Y-75807857D02*
X206440476Y-75903095D01*
X206440476Y-75903095D02*
X206440476Y-75998333D01*
X206440476Y-75998333D02*
X206488095Y-76141190D01*
X206488095Y-76141190D02*
X207059523Y-76712619D01*
X207059523Y-76712619D02*
X206440476Y-76712619D01*
%TO.C,C28*%
X210187380Y-128007142D02*
X210235000Y-127959523D01*
X210235000Y-127959523D02*
X210282619Y-127816666D01*
X210282619Y-127816666D02*
X210282619Y-127721428D01*
X210282619Y-127721428D02*
X210235000Y-127578571D01*
X210235000Y-127578571D02*
X210139761Y-127483333D01*
X210139761Y-127483333D02*
X210044523Y-127435714D01*
X210044523Y-127435714D02*
X209854047Y-127388095D01*
X209854047Y-127388095D02*
X209711190Y-127388095D01*
X209711190Y-127388095D02*
X209520714Y-127435714D01*
X209520714Y-127435714D02*
X209425476Y-127483333D01*
X209425476Y-127483333D02*
X209330238Y-127578571D01*
X209330238Y-127578571D02*
X209282619Y-127721428D01*
X209282619Y-127721428D02*
X209282619Y-127816666D01*
X209282619Y-127816666D02*
X209330238Y-127959523D01*
X209330238Y-127959523D02*
X209377857Y-128007142D01*
X209377857Y-128388095D02*
X209330238Y-128435714D01*
X209330238Y-128435714D02*
X209282619Y-128530952D01*
X209282619Y-128530952D02*
X209282619Y-128769047D01*
X209282619Y-128769047D02*
X209330238Y-128864285D01*
X209330238Y-128864285D02*
X209377857Y-128911904D01*
X209377857Y-128911904D02*
X209473095Y-128959523D01*
X209473095Y-128959523D02*
X209568333Y-128959523D01*
X209568333Y-128959523D02*
X209711190Y-128911904D01*
X209711190Y-128911904D02*
X210282619Y-128340476D01*
X210282619Y-128340476D02*
X210282619Y-128959523D01*
X209711190Y-129530952D02*
X209663571Y-129435714D01*
X209663571Y-129435714D02*
X209615952Y-129388095D01*
X209615952Y-129388095D02*
X209520714Y-129340476D01*
X209520714Y-129340476D02*
X209473095Y-129340476D01*
X209473095Y-129340476D02*
X209377857Y-129388095D01*
X209377857Y-129388095D02*
X209330238Y-129435714D01*
X209330238Y-129435714D02*
X209282619Y-129530952D01*
X209282619Y-129530952D02*
X209282619Y-129721428D01*
X209282619Y-129721428D02*
X209330238Y-129816666D01*
X209330238Y-129816666D02*
X209377857Y-129864285D01*
X209377857Y-129864285D02*
X209473095Y-129911904D01*
X209473095Y-129911904D02*
X209520714Y-129911904D01*
X209520714Y-129911904D02*
X209615952Y-129864285D01*
X209615952Y-129864285D02*
X209663571Y-129816666D01*
X209663571Y-129816666D02*
X209711190Y-129721428D01*
X209711190Y-129721428D02*
X209711190Y-129530952D01*
X209711190Y-129530952D02*
X209758809Y-129435714D01*
X209758809Y-129435714D02*
X209806428Y-129388095D01*
X209806428Y-129388095D02*
X209901666Y-129340476D01*
X209901666Y-129340476D02*
X210092142Y-129340476D01*
X210092142Y-129340476D02*
X210187380Y-129388095D01*
X210187380Y-129388095D02*
X210235000Y-129435714D01*
X210235000Y-129435714D02*
X210282619Y-129530952D01*
X210282619Y-129530952D02*
X210282619Y-129721428D01*
X210282619Y-129721428D02*
X210235000Y-129816666D01*
X210235000Y-129816666D02*
X210187380Y-129864285D01*
X210187380Y-129864285D02*
X210092142Y-129911904D01*
X210092142Y-129911904D02*
X209901666Y-129911904D01*
X209901666Y-129911904D02*
X209806428Y-129864285D01*
X209806428Y-129864285D02*
X209758809Y-129816666D01*
X209758809Y-129816666D02*
X209711190Y-129721428D01*
%TO.C,R3*%
X206566666Y-108612619D02*
X206899999Y-108136428D01*
X207138094Y-108612619D02*
X207138094Y-107612619D01*
X207138094Y-107612619D02*
X206757142Y-107612619D01*
X206757142Y-107612619D02*
X206661904Y-107660238D01*
X206661904Y-107660238D02*
X206614285Y-107707857D01*
X206614285Y-107707857D02*
X206566666Y-107803095D01*
X206566666Y-107803095D02*
X206566666Y-107945952D01*
X206566666Y-107945952D02*
X206614285Y-108041190D01*
X206614285Y-108041190D02*
X206661904Y-108088809D01*
X206661904Y-108088809D02*
X206757142Y-108136428D01*
X206757142Y-108136428D02*
X207138094Y-108136428D01*
X206233332Y-107612619D02*
X205614285Y-107612619D01*
X205614285Y-107612619D02*
X205947618Y-107993571D01*
X205947618Y-107993571D02*
X205804761Y-107993571D01*
X205804761Y-107993571D02*
X205709523Y-108041190D01*
X205709523Y-108041190D02*
X205661904Y-108088809D01*
X205661904Y-108088809D02*
X205614285Y-108184047D01*
X205614285Y-108184047D02*
X205614285Y-108422142D01*
X205614285Y-108422142D02*
X205661904Y-108517380D01*
X205661904Y-108517380D02*
X205709523Y-108565000D01*
X205709523Y-108565000D02*
X205804761Y-108612619D01*
X205804761Y-108612619D02*
X206090475Y-108612619D01*
X206090475Y-108612619D02*
X206185713Y-108565000D01*
X206185713Y-108565000D02*
X206233332Y-108517380D01*
%TO.C,R40*%
X228642857Y-95962619D02*
X228976190Y-95486428D01*
X229214285Y-95962619D02*
X229214285Y-94962619D01*
X229214285Y-94962619D02*
X228833333Y-94962619D01*
X228833333Y-94962619D02*
X228738095Y-95010238D01*
X228738095Y-95010238D02*
X228690476Y-95057857D01*
X228690476Y-95057857D02*
X228642857Y-95153095D01*
X228642857Y-95153095D02*
X228642857Y-95295952D01*
X228642857Y-95295952D02*
X228690476Y-95391190D01*
X228690476Y-95391190D02*
X228738095Y-95438809D01*
X228738095Y-95438809D02*
X228833333Y-95486428D01*
X228833333Y-95486428D02*
X229214285Y-95486428D01*
X227785714Y-95295952D02*
X227785714Y-95962619D01*
X228023809Y-94915000D02*
X228261904Y-95629285D01*
X228261904Y-95629285D02*
X227642857Y-95629285D01*
X227071428Y-94962619D02*
X226976190Y-94962619D01*
X226976190Y-94962619D02*
X226880952Y-95010238D01*
X226880952Y-95010238D02*
X226833333Y-95057857D01*
X226833333Y-95057857D02*
X226785714Y-95153095D01*
X226785714Y-95153095D02*
X226738095Y-95343571D01*
X226738095Y-95343571D02*
X226738095Y-95581666D01*
X226738095Y-95581666D02*
X226785714Y-95772142D01*
X226785714Y-95772142D02*
X226833333Y-95867380D01*
X226833333Y-95867380D02*
X226880952Y-95915000D01*
X226880952Y-95915000D02*
X226976190Y-95962619D01*
X226976190Y-95962619D02*
X227071428Y-95962619D01*
X227071428Y-95962619D02*
X227166666Y-95915000D01*
X227166666Y-95915000D02*
X227214285Y-95867380D01*
X227214285Y-95867380D02*
X227261904Y-95772142D01*
X227261904Y-95772142D02*
X227309523Y-95581666D01*
X227309523Y-95581666D02*
X227309523Y-95343571D01*
X227309523Y-95343571D02*
X227261904Y-95153095D01*
X227261904Y-95153095D02*
X227214285Y-95057857D01*
X227214285Y-95057857D02*
X227166666Y-95010238D01*
X227166666Y-95010238D02*
X227071428Y-94962619D01*
%TO.C,C25*%
X221042857Y-126767380D02*
X221090476Y-126815000D01*
X221090476Y-126815000D02*
X221233333Y-126862619D01*
X221233333Y-126862619D02*
X221328571Y-126862619D01*
X221328571Y-126862619D02*
X221471428Y-126815000D01*
X221471428Y-126815000D02*
X221566666Y-126719761D01*
X221566666Y-126719761D02*
X221614285Y-126624523D01*
X221614285Y-126624523D02*
X221661904Y-126434047D01*
X221661904Y-126434047D02*
X221661904Y-126291190D01*
X221661904Y-126291190D02*
X221614285Y-126100714D01*
X221614285Y-126100714D02*
X221566666Y-126005476D01*
X221566666Y-126005476D02*
X221471428Y-125910238D01*
X221471428Y-125910238D02*
X221328571Y-125862619D01*
X221328571Y-125862619D02*
X221233333Y-125862619D01*
X221233333Y-125862619D02*
X221090476Y-125910238D01*
X221090476Y-125910238D02*
X221042857Y-125957857D01*
X220661904Y-125957857D02*
X220614285Y-125910238D01*
X220614285Y-125910238D02*
X220519047Y-125862619D01*
X220519047Y-125862619D02*
X220280952Y-125862619D01*
X220280952Y-125862619D02*
X220185714Y-125910238D01*
X220185714Y-125910238D02*
X220138095Y-125957857D01*
X220138095Y-125957857D02*
X220090476Y-126053095D01*
X220090476Y-126053095D02*
X220090476Y-126148333D01*
X220090476Y-126148333D02*
X220138095Y-126291190D01*
X220138095Y-126291190D02*
X220709523Y-126862619D01*
X220709523Y-126862619D02*
X220090476Y-126862619D01*
X219185714Y-125862619D02*
X219661904Y-125862619D01*
X219661904Y-125862619D02*
X219709523Y-126338809D01*
X219709523Y-126338809D02*
X219661904Y-126291190D01*
X219661904Y-126291190D02*
X219566666Y-126243571D01*
X219566666Y-126243571D02*
X219328571Y-126243571D01*
X219328571Y-126243571D02*
X219233333Y-126291190D01*
X219233333Y-126291190D02*
X219185714Y-126338809D01*
X219185714Y-126338809D02*
X219138095Y-126434047D01*
X219138095Y-126434047D02*
X219138095Y-126672142D01*
X219138095Y-126672142D02*
X219185714Y-126767380D01*
X219185714Y-126767380D02*
X219233333Y-126815000D01*
X219233333Y-126815000D02*
X219328571Y-126862619D01*
X219328571Y-126862619D02*
X219566666Y-126862619D01*
X219566666Y-126862619D02*
X219661904Y-126815000D01*
X219661904Y-126815000D02*
X219709523Y-126767380D01*
%TO.C,R14*%
X213642857Y-81212619D02*
X213976190Y-80736428D01*
X214214285Y-81212619D02*
X214214285Y-80212619D01*
X214214285Y-80212619D02*
X213833333Y-80212619D01*
X213833333Y-80212619D02*
X213738095Y-80260238D01*
X213738095Y-80260238D02*
X213690476Y-80307857D01*
X213690476Y-80307857D02*
X213642857Y-80403095D01*
X213642857Y-80403095D02*
X213642857Y-80545952D01*
X213642857Y-80545952D02*
X213690476Y-80641190D01*
X213690476Y-80641190D02*
X213738095Y-80688809D01*
X213738095Y-80688809D02*
X213833333Y-80736428D01*
X213833333Y-80736428D02*
X214214285Y-80736428D01*
X212690476Y-81212619D02*
X213261904Y-81212619D01*
X212976190Y-81212619D02*
X212976190Y-80212619D01*
X212976190Y-80212619D02*
X213071428Y-80355476D01*
X213071428Y-80355476D02*
X213166666Y-80450714D01*
X213166666Y-80450714D02*
X213261904Y-80498333D01*
X211833333Y-80545952D02*
X211833333Y-81212619D01*
X212071428Y-80165000D02*
X212309523Y-80879285D01*
X212309523Y-80879285D02*
X211690476Y-80879285D01*
%TO.C,R29*%
X228642857Y-80462619D02*
X228976190Y-79986428D01*
X229214285Y-80462619D02*
X229214285Y-79462619D01*
X229214285Y-79462619D02*
X228833333Y-79462619D01*
X228833333Y-79462619D02*
X228738095Y-79510238D01*
X228738095Y-79510238D02*
X228690476Y-79557857D01*
X228690476Y-79557857D02*
X228642857Y-79653095D01*
X228642857Y-79653095D02*
X228642857Y-79795952D01*
X228642857Y-79795952D02*
X228690476Y-79891190D01*
X228690476Y-79891190D02*
X228738095Y-79938809D01*
X228738095Y-79938809D02*
X228833333Y-79986428D01*
X228833333Y-79986428D02*
X229214285Y-79986428D01*
X228261904Y-79557857D02*
X228214285Y-79510238D01*
X228214285Y-79510238D02*
X228119047Y-79462619D01*
X228119047Y-79462619D02*
X227880952Y-79462619D01*
X227880952Y-79462619D02*
X227785714Y-79510238D01*
X227785714Y-79510238D02*
X227738095Y-79557857D01*
X227738095Y-79557857D02*
X227690476Y-79653095D01*
X227690476Y-79653095D02*
X227690476Y-79748333D01*
X227690476Y-79748333D02*
X227738095Y-79891190D01*
X227738095Y-79891190D02*
X228309523Y-80462619D01*
X228309523Y-80462619D02*
X227690476Y-80462619D01*
X227214285Y-80462619D02*
X227023809Y-80462619D01*
X227023809Y-80462619D02*
X226928571Y-80415000D01*
X226928571Y-80415000D02*
X226880952Y-80367380D01*
X226880952Y-80367380D02*
X226785714Y-80224523D01*
X226785714Y-80224523D02*
X226738095Y-80034047D01*
X226738095Y-80034047D02*
X226738095Y-79653095D01*
X226738095Y-79653095D02*
X226785714Y-79557857D01*
X226785714Y-79557857D02*
X226833333Y-79510238D01*
X226833333Y-79510238D02*
X226928571Y-79462619D01*
X226928571Y-79462619D02*
X227119047Y-79462619D01*
X227119047Y-79462619D02*
X227214285Y-79510238D01*
X227214285Y-79510238D02*
X227261904Y-79557857D01*
X227261904Y-79557857D02*
X227309523Y-79653095D01*
X227309523Y-79653095D02*
X227309523Y-79891190D01*
X227309523Y-79891190D02*
X227261904Y-79986428D01*
X227261904Y-79986428D02*
X227214285Y-80034047D01*
X227214285Y-80034047D02*
X227119047Y-80081666D01*
X227119047Y-80081666D02*
X226928571Y-80081666D01*
X226928571Y-80081666D02*
X226833333Y-80034047D01*
X226833333Y-80034047D02*
X226785714Y-79986428D01*
X226785714Y-79986428D02*
X226738095Y-79891190D01*
%TO.C,R16*%
X207030357Y-83312619D02*
X207363690Y-82836428D01*
X207601785Y-83312619D02*
X207601785Y-82312619D01*
X207601785Y-82312619D02*
X207220833Y-82312619D01*
X207220833Y-82312619D02*
X207125595Y-82360238D01*
X207125595Y-82360238D02*
X207077976Y-82407857D01*
X207077976Y-82407857D02*
X207030357Y-82503095D01*
X207030357Y-82503095D02*
X207030357Y-82645952D01*
X207030357Y-82645952D02*
X207077976Y-82741190D01*
X207077976Y-82741190D02*
X207125595Y-82788809D01*
X207125595Y-82788809D02*
X207220833Y-82836428D01*
X207220833Y-82836428D02*
X207601785Y-82836428D01*
X206077976Y-83312619D02*
X206649404Y-83312619D01*
X206363690Y-83312619D02*
X206363690Y-82312619D01*
X206363690Y-82312619D02*
X206458928Y-82455476D01*
X206458928Y-82455476D02*
X206554166Y-82550714D01*
X206554166Y-82550714D02*
X206649404Y-82598333D01*
X205220833Y-82312619D02*
X205411309Y-82312619D01*
X205411309Y-82312619D02*
X205506547Y-82360238D01*
X205506547Y-82360238D02*
X205554166Y-82407857D01*
X205554166Y-82407857D02*
X205649404Y-82550714D01*
X205649404Y-82550714D02*
X205697023Y-82741190D01*
X205697023Y-82741190D02*
X205697023Y-83122142D01*
X205697023Y-83122142D02*
X205649404Y-83217380D01*
X205649404Y-83217380D02*
X205601785Y-83265000D01*
X205601785Y-83265000D02*
X205506547Y-83312619D01*
X205506547Y-83312619D02*
X205316071Y-83312619D01*
X205316071Y-83312619D02*
X205220833Y-83265000D01*
X205220833Y-83265000D02*
X205173214Y-83217380D01*
X205173214Y-83217380D02*
X205125595Y-83122142D01*
X205125595Y-83122142D02*
X205125595Y-82884047D01*
X205125595Y-82884047D02*
X205173214Y-82788809D01*
X205173214Y-82788809D02*
X205220833Y-82741190D01*
X205220833Y-82741190D02*
X205316071Y-82693571D01*
X205316071Y-82693571D02*
X205506547Y-82693571D01*
X205506547Y-82693571D02*
X205601785Y-82741190D01*
X205601785Y-82741190D02*
X205649404Y-82788809D01*
X205649404Y-82788809D02*
X205697023Y-82884047D01*
%TO.C,C22*%
X232742857Y-92567380D02*
X232790476Y-92615000D01*
X232790476Y-92615000D02*
X232933333Y-92662619D01*
X232933333Y-92662619D02*
X233028571Y-92662619D01*
X233028571Y-92662619D02*
X233171428Y-92615000D01*
X233171428Y-92615000D02*
X233266666Y-92519761D01*
X233266666Y-92519761D02*
X233314285Y-92424523D01*
X233314285Y-92424523D02*
X233361904Y-92234047D01*
X233361904Y-92234047D02*
X233361904Y-92091190D01*
X233361904Y-92091190D02*
X233314285Y-91900714D01*
X233314285Y-91900714D02*
X233266666Y-91805476D01*
X233266666Y-91805476D02*
X233171428Y-91710238D01*
X233171428Y-91710238D02*
X233028571Y-91662619D01*
X233028571Y-91662619D02*
X232933333Y-91662619D01*
X232933333Y-91662619D02*
X232790476Y-91710238D01*
X232790476Y-91710238D02*
X232742857Y-91757857D01*
X232361904Y-91757857D02*
X232314285Y-91710238D01*
X232314285Y-91710238D02*
X232219047Y-91662619D01*
X232219047Y-91662619D02*
X231980952Y-91662619D01*
X231980952Y-91662619D02*
X231885714Y-91710238D01*
X231885714Y-91710238D02*
X231838095Y-91757857D01*
X231838095Y-91757857D02*
X231790476Y-91853095D01*
X231790476Y-91853095D02*
X231790476Y-91948333D01*
X231790476Y-91948333D02*
X231838095Y-92091190D01*
X231838095Y-92091190D02*
X232409523Y-92662619D01*
X232409523Y-92662619D02*
X231790476Y-92662619D01*
X231409523Y-91757857D02*
X231361904Y-91710238D01*
X231361904Y-91710238D02*
X231266666Y-91662619D01*
X231266666Y-91662619D02*
X231028571Y-91662619D01*
X231028571Y-91662619D02*
X230933333Y-91710238D01*
X230933333Y-91710238D02*
X230885714Y-91757857D01*
X230885714Y-91757857D02*
X230838095Y-91853095D01*
X230838095Y-91853095D02*
X230838095Y-91948333D01*
X230838095Y-91948333D02*
X230885714Y-92091190D01*
X230885714Y-92091190D02*
X231457142Y-92662619D01*
X231457142Y-92662619D02*
X230838095Y-92662619D01*
%TO.C,R25*%
X241242857Y-74842619D02*
X241576190Y-74366428D01*
X241814285Y-74842619D02*
X241814285Y-73842619D01*
X241814285Y-73842619D02*
X241433333Y-73842619D01*
X241433333Y-73842619D02*
X241338095Y-73890238D01*
X241338095Y-73890238D02*
X241290476Y-73937857D01*
X241290476Y-73937857D02*
X241242857Y-74033095D01*
X241242857Y-74033095D02*
X241242857Y-74175952D01*
X241242857Y-74175952D02*
X241290476Y-74271190D01*
X241290476Y-74271190D02*
X241338095Y-74318809D01*
X241338095Y-74318809D02*
X241433333Y-74366428D01*
X241433333Y-74366428D02*
X241814285Y-74366428D01*
X240861904Y-73937857D02*
X240814285Y-73890238D01*
X240814285Y-73890238D02*
X240719047Y-73842619D01*
X240719047Y-73842619D02*
X240480952Y-73842619D01*
X240480952Y-73842619D02*
X240385714Y-73890238D01*
X240385714Y-73890238D02*
X240338095Y-73937857D01*
X240338095Y-73937857D02*
X240290476Y-74033095D01*
X240290476Y-74033095D02*
X240290476Y-74128333D01*
X240290476Y-74128333D02*
X240338095Y-74271190D01*
X240338095Y-74271190D02*
X240909523Y-74842619D01*
X240909523Y-74842619D02*
X240290476Y-74842619D01*
X239385714Y-73842619D02*
X239861904Y-73842619D01*
X239861904Y-73842619D02*
X239909523Y-74318809D01*
X239909523Y-74318809D02*
X239861904Y-74271190D01*
X239861904Y-74271190D02*
X239766666Y-74223571D01*
X239766666Y-74223571D02*
X239528571Y-74223571D01*
X239528571Y-74223571D02*
X239433333Y-74271190D01*
X239433333Y-74271190D02*
X239385714Y-74318809D01*
X239385714Y-74318809D02*
X239338095Y-74414047D01*
X239338095Y-74414047D02*
X239338095Y-74652142D01*
X239338095Y-74652142D02*
X239385714Y-74747380D01*
X239385714Y-74747380D02*
X239433333Y-74795000D01*
X239433333Y-74795000D02*
X239528571Y-74842619D01*
X239528571Y-74842619D02*
X239766666Y-74842619D01*
X239766666Y-74842619D02*
X239861904Y-74795000D01*
X239861904Y-74795000D02*
X239909523Y-74747380D01*
%TO.C,R34*%
X218892857Y-77962619D02*
X219226190Y-77486428D01*
X219464285Y-77962619D02*
X219464285Y-76962619D01*
X219464285Y-76962619D02*
X219083333Y-76962619D01*
X219083333Y-76962619D02*
X218988095Y-77010238D01*
X218988095Y-77010238D02*
X218940476Y-77057857D01*
X218940476Y-77057857D02*
X218892857Y-77153095D01*
X218892857Y-77153095D02*
X218892857Y-77295952D01*
X218892857Y-77295952D02*
X218940476Y-77391190D01*
X218940476Y-77391190D02*
X218988095Y-77438809D01*
X218988095Y-77438809D02*
X219083333Y-77486428D01*
X219083333Y-77486428D02*
X219464285Y-77486428D01*
X218559523Y-76962619D02*
X217940476Y-76962619D01*
X217940476Y-76962619D02*
X218273809Y-77343571D01*
X218273809Y-77343571D02*
X218130952Y-77343571D01*
X218130952Y-77343571D02*
X218035714Y-77391190D01*
X218035714Y-77391190D02*
X217988095Y-77438809D01*
X217988095Y-77438809D02*
X217940476Y-77534047D01*
X217940476Y-77534047D02*
X217940476Y-77772142D01*
X217940476Y-77772142D02*
X217988095Y-77867380D01*
X217988095Y-77867380D02*
X218035714Y-77915000D01*
X218035714Y-77915000D02*
X218130952Y-77962619D01*
X218130952Y-77962619D02*
X218416666Y-77962619D01*
X218416666Y-77962619D02*
X218511904Y-77915000D01*
X218511904Y-77915000D02*
X218559523Y-77867380D01*
X217083333Y-77295952D02*
X217083333Y-77962619D01*
X217321428Y-76915000D02*
X217559523Y-77629285D01*
X217559523Y-77629285D02*
X216940476Y-77629285D01*
%TO.C,C21*%
X208892857Y-84617380D02*
X208940476Y-84665000D01*
X208940476Y-84665000D02*
X209083333Y-84712619D01*
X209083333Y-84712619D02*
X209178571Y-84712619D01*
X209178571Y-84712619D02*
X209321428Y-84665000D01*
X209321428Y-84665000D02*
X209416666Y-84569761D01*
X209416666Y-84569761D02*
X209464285Y-84474523D01*
X209464285Y-84474523D02*
X209511904Y-84284047D01*
X209511904Y-84284047D02*
X209511904Y-84141190D01*
X209511904Y-84141190D02*
X209464285Y-83950714D01*
X209464285Y-83950714D02*
X209416666Y-83855476D01*
X209416666Y-83855476D02*
X209321428Y-83760238D01*
X209321428Y-83760238D02*
X209178571Y-83712619D01*
X209178571Y-83712619D02*
X209083333Y-83712619D01*
X209083333Y-83712619D02*
X208940476Y-83760238D01*
X208940476Y-83760238D02*
X208892857Y-83807857D01*
X208511904Y-83807857D02*
X208464285Y-83760238D01*
X208464285Y-83760238D02*
X208369047Y-83712619D01*
X208369047Y-83712619D02*
X208130952Y-83712619D01*
X208130952Y-83712619D02*
X208035714Y-83760238D01*
X208035714Y-83760238D02*
X207988095Y-83807857D01*
X207988095Y-83807857D02*
X207940476Y-83903095D01*
X207940476Y-83903095D02*
X207940476Y-83998333D01*
X207940476Y-83998333D02*
X207988095Y-84141190D01*
X207988095Y-84141190D02*
X208559523Y-84712619D01*
X208559523Y-84712619D02*
X207940476Y-84712619D01*
X206988095Y-84712619D02*
X207559523Y-84712619D01*
X207273809Y-84712619D02*
X207273809Y-83712619D01*
X207273809Y-83712619D02*
X207369047Y-83855476D01*
X207369047Y-83855476D02*
X207464285Y-83950714D01*
X207464285Y-83950714D02*
X207559523Y-83998333D01*
%TO.C,R13*%
X214655357Y-114612619D02*
X214988690Y-114136428D01*
X215226785Y-114612619D02*
X215226785Y-113612619D01*
X215226785Y-113612619D02*
X214845833Y-113612619D01*
X214845833Y-113612619D02*
X214750595Y-113660238D01*
X214750595Y-113660238D02*
X214702976Y-113707857D01*
X214702976Y-113707857D02*
X214655357Y-113803095D01*
X214655357Y-113803095D02*
X214655357Y-113945952D01*
X214655357Y-113945952D02*
X214702976Y-114041190D01*
X214702976Y-114041190D02*
X214750595Y-114088809D01*
X214750595Y-114088809D02*
X214845833Y-114136428D01*
X214845833Y-114136428D02*
X215226785Y-114136428D01*
X213702976Y-114612619D02*
X214274404Y-114612619D01*
X213988690Y-114612619D02*
X213988690Y-113612619D01*
X213988690Y-113612619D02*
X214083928Y-113755476D01*
X214083928Y-113755476D02*
X214179166Y-113850714D01*
X214179166Y-113850714D02*
X214274404Y-113898333D01*
X213369642Y-113612619D02*
X212750595Y-113612619D01*
X212750595Y-113612619D02*
X213083928Y-113993571D01*
X213083928Y-113993571D02*
X212941071Y-113993571D01*
X212941071Y-113993571D02*
X212845833Y-114041190D01*
X212845833Y-114041190D02*
X212798214Y-114088809D01*
X212798214Y-114088809D02*
X212750595Y-114184047D01*
X212750595Y-114184047D02*
X212750595Y-114422142D01*
X212750595Y-114422142D02*
X212798214Y-114517380D01*
X212798214Y-114517380D02*
X212845833Y-114565000D01*
X212845833Y-114565000D02*
X212941071Y-114612619D01*
X212941071Y-114612619D02*
X213226785Y-114612619D01*
X213226785Y-114612619D02*
X213322023Y-114565000D01*
X213322023Y-114565000D02*
X213369642Y-114517380D01*
%TO.C,R1*%
X210054166Y-114712619D02*
X210387499Y-114236428D01*
X210625594Y-114712619D02*
X210625594Y-113712619D01*
X210625594Y-113712619D02*
X210244642Y-113712619D01*
X210244642Y-113712619D02*
X210149404Y-113760238D01*
X210149404Y-113760238D02*
X210101785Y-113807857D01*
X210101785Y-113807857D02*
X210054166Y-113903095D01*
X210054166Y-113903095D02*
X210054166Y-114045952D01*
X210054166Y-114045952D02*
X210101785Y-114141190D01*
X210101785Y-114141190D02*
X210149404Y-114188809D01*
X210149404Y-114188809D02*
X210244642Y-114236428D01*
X210244642Y-114236428D02*
X210625594Y-114236428D01*
X209101785Y-114712619D02*
X209673213Y-114712619D01*
X209387499Y-114712619D02*
X209387499Y-113712619D01*
X209387499Y-113712619D02*
X209482737Y-113855476D01*
X209482737Y-113855476D02*
X209577975Y-113950714D01*
X209577975Y-113950714D02*
X209673213Y-113998333D01*
%TO.C,U1*%
X212636904Y-97042619D02*
X212636904Y-97852142D01*
X212636904Y-97852142D02*
X212589285Y-97947380D01*
X212589285Y-97947380D02*
X212541666Y-97995000D01*
X212541666Y-97995000D02*
X212446428Y-98042619D01*
X212446428Y-98042619D02*
X212255952Y-98042619D01*
X212255952Y-98042619D02*
X212160714Y-97995000D01*
X212160714Y-97995000D02*
X212113095Y-97947380D01*
X212113095Y-97947380D02*
X212065476Y-97852142D01*
X212065476Y-97852142D02*
X212065476Y-97042619D01*
X211065476Y-98042619D02*
X211636904Y-98042619D01*
X211351190Y-98042619D02*
X211351190Y-97042619D01*
X211351190Y-97042619D02*
X211446428Y-97185476D01*
X211446428Y-97185476D02*
X211541666Y-97280714D01*
X211541666Y-97280714D02*
X211636904Y-97328333D01*
%TO.C,R4*%
X206666666Y-71962619D02*
X206999999Y-71486428D01*
X207238094Y-71962619D02*
X207238094Y-70962619D01*
X207238094Y-70962619D02*
X206857142Y-70962619D01*
X206857142Y-70962619D02*
X206761904Y-71010238D01*
X206761904Y-71010238D02*
X206714285Y-71057857D01*
X206714285Y-71057857D02*
X206666666Y-71153095D01*
X206666666Y-71153095D02*
X206666666Y-71295952D01*
X206666666Y-71295952D02*
X206714285Y-71391190D01*
X206714285Y-71391190D02*
X206761904Y-71438809D01*
X206761904Y-71438809D02*
X206857142Y-71486428D01*
X206857142Y-71486428D02*
X207238094Y-71486428D01*
X205809523Y-71295952D02*
X205809523Y-71962619D01*
X206047618Y-70915000D02*
X206285713Y-71629285D01*
X206285713Y-71629285D02*
X205666666Y-71629285D01*
%TO.C,C27*%
X232447380Y-127857142D02*
X232495000Y-127809523D01*
X232495000Y-127809523D02*
X232542619Y-127666666D01*
X232542619Y-127666666D02*
X232542619Y-127571428D01*
X232542619Y-127571428D02*
X232495000Y-127428571D01*
X232495000Y-127428571D02*
X232399761Y-127333333D01*
X232399761Y-127333333D02*
X232304523Y-127285714D01*
X232304523Y-127285714D02*
X232114047Y-127238095D01*
X232114047Y-127238095D02*
X231971190Y-127238095D01*
X231971190Y-127238095D02*
X231780714Y-127285714D01*
X231780714Y-127285714D02*
X231685476Y-127333333D01*
X231685476Y-127333333D02*
X231590238Y-127428571D01*
X231590238Y-127428571D02*
X231542619Y-127571428D01*
X231542619Y-127571428D02*
X231542619Y-127666666D01*
X231542619Y-127666666D02*
X231590238Y-127809523D01*
X231590238Y-127809523D02*
X231637857Y-127857142D01*
X231637857Y-128238095D02*
X231590238Y-128285714D01*
X231590238Y-128285714D02*
X231542619Y-128380952D01*
X231542619Y-128380952D02*
X231542619Y-128619047D01*
X231542619Y-128619047D02*
X231590238Y-128714285D01*
X231590238Y-128714285D02*
X231637857Y-128761904D01*
X231637857Y-128761904D02*
X231733095Y-128809523D01*
X231733095Y-128809523D02*
X231828333Y-128809523D01*
X231828333Y-128809523D02*
X231971190Y-128761904D01*
X231971190Y-128761904D02*
X232542619Y-128190476D01*
X232542619Y-128190476D02*
X232542619Y-128809523D01*
X231542619Y-129142857D02*
X231542619Y-129809523D01*
X231542619Y-129809523D02*
X232542619Y-129380952D01*
%TO.C,R32*%
X228642857Y-94712619D02*
X228976190Y-94236428D01*
X229214285Y-94712619D02*
X229214285Y-93712619D01*
X229214285Y-93712619D02*
X228833333Y-93712619D01*
X228833333Y-93712619D02*
X228738095Y-93760238D01*
X228738095Y-93760238D02*
X228690476Y-93807857D01*
X228690476Y-93807857D02*
X228642857Y-93903095D01*
X228642857Y-93903095D02*
X228642857Y-94045952D01*
X228642857Y-94045952D02*
X228690476Y-94141190D01*
X228690476Y-94141190D02*
X228738095Y-94188809D01*
X228738095Y-94188809D02*
X228833333Y-94236428D01*
X228833333Y-94236428D02*
X229214285Y-94236428D01*
X228309523Y-93712619D02*
X227690476Y-93712619D01*
X227690476Y-93712619D02*
X228023809Y-94093571D01*
X228023809Y-94093571D02*
X227880952Y-94093571D01*
X227880952Y-94093571D02*
X227785714Y-94141190D01*
X227785714Y-94141190D02*
X227738095Y-94188809D01*
X227738095Y-94188809D02*
X227690476Y-94284047D01*
X227690476Y-94284047D02*
X227690476Y-94522142D01*
X227690476Y-94522142D02*
X227738095Y-94617380D01*
X227738095Y-94617380D02*
X227785714Y-94665000D01*
X227785714Y-94665000D02*
X227880952Y-94712619D01*
X227880952Y-94712619D02*
X228166666Y-94712619D01*
X228166666Y-94712619D02*
X228261904Y-94665000D01*
X228261904Y-94665000D02*
X228309523Y-94617380D01*
X227309523Y-93807857D02*
X227261904Y-93760238D01*
X227261904Y-93760238D02*
X227166666Y-93712619D01*
X227166666Y-93712619D02*
X226928571Y-93712619D01*
X226928571Y-93712619D02*
X226833333Y-93760238D01*
X226833333Y-93760238D02*
X226785714Y-93807857D01*
X226785714Y-93807857D02*
X226738095Y-93903095D01*
X226738095Y-93903095D02*
X226738095Y-93998333D01*
X226738095Y-93998333D02*
X226785714Y-94141190D01*
X226785714Y-94141190D02*
X227357142Y-94712619D01*
X227357142Y-94712619D02*
X226738095Y-94712619D01*
%TO.C,Q8*%
X216845238Y-75307857D02*
X216940476Y-75260238D01*
X216940476Y-75260238D02*
X217035714Y-75165000D01*
X217035714Y-75165000D02*
X217178571Y-75022142D01*
X217178571Y-75022142D02*
X217273809Y-74974523D01*
X217273809Y-74974523D02*
X217369047Y-74974523D01*
X217321428Y-75212619D02*
X217416666Y-75165000D01*
X217416666Y-75165000D02*
X217511904Y-75069761D01*
X217511904Y-75069761D02*
X217559523Y-74879285D01*
X217559523Y-74879285D02*
X217559523Y-74545952D01*
X217559523Y-74545952D02*
X217511904Y-74355476D01*
X217511904Y-74355476D02*
X217416666Y-74260238D01*
X217416666Y-74260238D02*
X217321428Y-74212619D01*
X217321428Y-74212619D02*
X217130952Y-74212619D01*
X217130952Y-74212619D02*
X217035714Y-74260238D01*
X217035714Y-74260238D02*
X216940476Y-74355476D01*
X216940476Y-74355476D02*
X216892857Y-74545952D01*
X216892857Y-74545952D02*
X216892857Y-74879285D01*
X216892857Y-74879285D02*
X216940476Y-75069761D01*
X216940476Y-75069761D02*
X217035714Y-75165000D01*
X217035714Y-75165000D02*
X217130952Y-75212619D01*
X217130952Y-75212619D02*
X217321428Y-75212619D01*
X216321428Y-74641190D02*
X216416666Y-74593571D01*
X216416666Y-74593571D02*
X216464285Y-74545952D01*
X216464285Y-74545952D02*
X216511904Y-74450714D01*
X216511904Y-74450714D02*
X216511904Y-74403095D01*
X216511904Y-74403095D02*
X216464285Y-74307857D01*
X216464285Y-74307857D02*
X216416666Y-74260238D01*
X216416666Y-74260238D02*
X216321428Y-74212619D01*
X216321428Y-74212619D02*
X216130952Y-74212619D01*
X216130952Y-74212619D02*
X216035714Y-74260238D01*
X216035714Y-74260238D02*
X215988095Y-74307857D01*
X215988095Y-74307857D02*
X215940476Y-74403095D01*
X215940476Y-74403095D02*
X215940476Y-74450714D01*
X215940476Y-74450714D02*
X215988095Y-74545952D01*
X215988095Y-74545952D02*
X216035714Y-74593571D01*
X216035714Y-74593571D02*
X216130952Y-74641190D01*
X216130952Y-74641190D02*
X216321428Y-74641190D01*
X216321428Y-74641190D02*
X216416666Y-74688809D01*
X216416666Y-74688809D02*
X216464285Y-74736428D01*
X216464285Y-74736428D02*
X216511904Y-74831666D01*
X216511904Y-74831666D02*
X216511904Y-75022142D01*
X216511904Y-75022142D02*
X216464285Y-75117380D01*
X216464285Y-75117380D02*
X216416666Y-75165000D01*
X216416666Y-75165000D02*
X216321428Y-75212619D01*
X216321428Y-75212619D02*
X216130952Y-75212619D01*
X216130952Y-75212619D02*
X216035714Y-75165000D01*
X216035714Y-75165000D02*
X215988095Y-75117380D01*
X215988095Y-75117380D02*
X215940476Y-75022142D01*
X215940476Y-75022142D02*
X215940476Y-74831666D01*
X215940476Y-74831666D02*
X215988095Y-74736428D01*
X215988095Y-74736428D02*
X216035714Y-74688809D01*
X216035714Y-74688809D02*
X216130952Y-74641190D01*
%TO.C,R28*%
X241205357Y-110042619D02*
X241538690Y-109566428D01*
X241776785Y-110042619D02*
X241776785Y-109042619D01*
X241776785Y-109042619D02*
X241395833Y-109042619D01*
X241395833Y-109042619D02*
X241300595Y-109090238D01*
X241300595Y-109090238D02*
X241252976Y-109137857D01*
X241252976Y-109137857D02*
X241205357Y-109233095D01*
X241205357Y-109233095D02*
X241205357Y-109375952D01*
X241205357Y-109375952D02*
X241252976Y-109471190D01*
X241252976Y-109471190D02*
X241300595Y-109518809D01*
X241300595Y-109518809D02*
X241395833Y-109566428D01*
X241395833Y-109566428D02*
X241776785Y-109566428D01*
X240824404Y-109137857D02*
X240776785Y-109090238D01*
X240776785Y-109090238D02*
X240681547Y-109042619D01*
X240681547Y-109042619D02*
X240443452Y-109042619D01*
X240443452Y-109042619D02*
X240348214Y-109090238D01*
X240348214Y-109090238D02*
X240300595Y-109137857D01*
X240300595Y-109137857D02*
X240252976Y-109233095D01*
X240252976Y-109233095D02*
X240252976Y-109328333D01*
X240252976Y-109328333D02*
X240300595Y-109471190D01*
X240300595Y-109471190D02*
X240872023Y-110042619D01*
X240872023Y-110042619D02*
X240252976Y-110042619D01*
X239681547Y-109471190D02*
X239776785Y-109423571D01*
X239776785Y-109423571D02*
X239824404Y-109375952D01*
X239824404Y-109375952D02*
X239872023Y-109280714D01*
X239872023Y-109280714D02*
X239872023Y-109233095D01*
X239872023Y-109233095D02*
X239824404Y-109137857D01*
X239824404Y-109137857D02*
X239776785Y-109090238D01*
X239776785Y-109090238D02*
X239681547Y-109042619D01*
X239681547Y-109042619D02*
X239491071Y-109042619D01*
X239491071Y-109042619D02*
X239395833Y-109090238D01*
X239395833Y-109090238D02*
X239348214Y-109137857D01*
X239348214Y-109137857D02*
X239300595Y-109233095D01*
X239300595Y-109233095D02*
X239300595Y-109280714D01*
X239300595Y-109280714D02*
X239348214Y-109375952D01*
X239348214Y-109375952D02*
X239395833Y-109423571D01*
X239395833Y-109423571D02*
X239491071Y-109471190D01*
X239491071Y-109471190D02*
X239681547Y-109471190D01*
X239681547Y-109471190D02*
X239776785Y-109518809D01*
X239776785Y-109518809D02*
X239824404Y-109566428D01*
X239824404Y-109566428D02*
X239872023Y-109661666D01*
X239872023Y-109661666D02*
X239872023Y-109852142D01*
X239872023Y-109852142D02*
X239824404Y-109947380D01*
X239824404Y-109947380D02*
X239776785Y-109995000D01*
X239776785Y-109995000D02*
X239681547Y-110042619D01*
X239681547Y-110042619D02*
X239491071Y-110042619D01*
X239491071Y-110042619D02*
X239395833Y-109995000D01*
X239395833Y-109995000D02*
X239348214Y-109947380D01*
X239348214Y-109947380D02*
X239300595Y-109852142D01*
X239300595Y-109852142D02*
X239300595Y-109661666D01*
X239300595Y-109661666D02*
X239348214Y-109566428D01*
X239348214Y-109566428D02*
X239395833Y-109518809D01*
X239395833Y-109518809D02*
X239491071Y-109471190D01*
%TO.C,R39*%
X228555357Y-79212619D02*
X228888690Y-78736428D01*
X229126785Y-79212619D02*
X229126785Y-78212619D01*
X229126785Y-78212619D02*
X228745833Y-78212619D01*
X228745833Y-78212619D02*
X228650595Y-78260238D01*
X228650595Y-78260238D02*
X228602976Y-78307857D01*
X228602976Y-78307857D02*
X228555357Y-78403095D01*
X228555357Y-78403095D02*
X228555357Y-78545952D01*
X228555357Y-78545952D02*
X228602976Y-78641190D01*
X228602976Y-78641190D02*
X228650595Y-78688809D01*
X228650595Y-78688809D02*
X228745833Y-78736428D01*
X228745833Y-78736428D02*
X229126785Y-78736428D01*
X228222023Y-78212619D02*
X227602976Y-78212619D01*
X227602976Y-78212619D02*
X227936309Y-78593571D01*
X227936309Y-78593571D02*
X227793452Y-78593571D01*
X227793452Y-78593571D02*
X227698214Y-78641190D01*
X227698214Y-78641190D02*
X227650595Y-78688809D01*
X227650595Y-78688809D02*
X227602976Y-78784047D01*
X227602976Y-78784047D02*
X227602976Y-79022142D01*
X227602976Y-79022142D02*
X227650595Y-79117380D01*
X227650595Y-79117380D02*
X227698214Y-79165000D01*
X227698214Y-79165000D02*
X227793452Y-79212619D01*
X227793452Y-79212619D02*
X228079166Y-79212619D01*
X228079166Y-79212619D02*
X228174404Y-79165000D01*
X228174404Y-79165000D02*
X228222023Y-79117380D01*
X227126785Y-79212619D02*
X226936309Y-79212619D01*
X226936309Y-79212619D02*
X226841071Y-79165000D01*
X226841071Y-79165000D02*
X226793452Y-79117380D01*
X226793452Y-79117380D02*
X226698214Y-78974523D01*
X226698214Y-78974523D02*
X226650595Y-78784047D01*
X226650595Y-78784047D02*
X226650595Y-78403095D01*
X226650595Y-78403095D02*
X226698214Y-78307857D01*
X226698214Y-78307857D02*
X226745833Y-78260238D01*
X226745833Y-78260238D02*
X226841071Y-78212619D01*
X226841071Y-78212619D02*
X227031547Y-78212619D01*
X227031547Y-78212619D02*
X227126785Y-78260238D01*
X227126785Y-78260238D02*
X227174404Y-78307857D01*
X227174404Y-78307857D02*
X227222023Y-78403095D01*
X227222023Y-78403095D02*
X227222023Y-78641190D01*
X227222023Y-78641190D02*
X227174404Y-78736428D01*
X227174404Y-78736428D02*
X227126785Y-78784047D01*
X227126785Y-78784047D02*
X227031547Y-78831666D01*
X227031547Y-78831666D02*
X226841071Y-78831666D01*
X226841071Y-78831666D02*
X226745833Y-78784047D01*
X226745833Y-78784047D02*
X226698214Y-78736428D01*
X226698214Y-78736428D02*
X226650595Y-78641190D01*
D11*
%TO.C,R31*%
X216527064Y-85065000D02*
X216072936Y-85065000D01*
X216527064Y-86535000D02*
X216072936Y-86535000D01*
D10*
%TO.C,U12*%
X227425000Y-130175000D02*
X227425000Y-129875000D01*
X224075000Y-126825000D02*
X224075000Y-127125000D01*
X224075000Y-126825000D02*
X227425000Y-126825000D01*
X227425000Y-126825000D02*
X227425000Y-127125000D01*
X224075000Y-129950000D02*
X222850000Y-129950000D01*
X224075000Y-130175000D02*
X227425000Y-130175000D01*
X224075000Y-130175000D02*
X224075000Y-129950000D01*
D11*
%TO.C,Q7*%
X215460000Y-109537500D02*
X215460000Y-108887500D01*
X212340000Y-109537500D02*
X212340000Y-108887500D01*
X215460000Y-109537500D02*
X215460000Y-111212500D01*
X212340000Y-109537500D02*
X212340000Y-110187500D01*
%TO.C,C33*%
X186590000Y-137413748D02*
X186590000Y-138836252D01*
X188410000Y-137413748D02*
X188410000Y-138836252D01*
%TO.C,D25*%
X227785000Y-130565000D02*
X227785000Y-132835000D01*
X227785000Y-132835000D02*
X223900000Y-132835000D01*
X223900000Y-130565000D02*
X227785000Y-130565000D01*
%TO.C,R36*%
X228139564Y-91665000D02*
X227685436Y-91665000D01*
X228139564Y-93135000D02*
X227685436Y-93135000D01*
%TO.C,R33*%
X216072936Y-93135000D02*
X216527064Y-93135000D01*
X216072936Y-91665000D02*
X216527064Y-91665000D01*
%TO.C,R41*%
X220477064Y-129515000D02*
X220022936Y-129515000D01*
X220477064Y-130985000D02*
X220022936Y-130985000D01*
%TO.C,U11*%
X222100000Y-82665000D02*
X220150000Y-82665000D01*
X222100000Y-91535000D02*
X220150000Y-91535000D01*
X222100000Y-82665000D02*
X225550000Y-82665000D01*
X222100000Y-91535000D02*
X224050000Y-91535000D01*
%TO.C,R26*%
X185313763Y-69045000D02*
X186761237Y-69045000D01*
X185313763Y-71755000D02*
X186761237Y-71755000D01*
%TO.C,JP2*%
X231750000Y-120550000D02*
X231750000Y-119150000D01*
X229750000Y-119150000D02*
X229750000Y-120550000D01*
X231050000Y-118450000D02*
X230450000Y-118450000D01*
X230450000Y-121250000D02*
X231050000Y-121250000D01*
X231750000Y-119150000D02*
G75*
G03*
X231050000Y-118450000I-700000J0D01*
G01*
X231050000Y-121250000D02*
G75*
G03*
X231750000Y-120550000I1J699999D01*
G01*
X229750000Y-120550000D02*
G75*
G03*
X230450000Y-121250000I699999J-1D01*
G01*
X230450000Y-118450000D02*
G75*
G03*
X229750000Y-119150000I0J-700000D01*
G01*
%TO.C,C19*%
X231388748Y-84910000D02*
X232811252Y-84910000D01*
X231388748Y-83090000D02*
X232811252Y-83090000D01*
%TO.C,R38*%
X216514564Y-83065000D02*
X216060436Y-83065000D01*
X216514564Y-84535000D02*
X216060436Y-84535000D01*
%TO.C,U2*%
X212100000Y-64965000D02*
X210150000Y-64965000D01*
X212100000Y-73835000D02*
X210150000Y-73835000D01*
X212100000Y-64965000D02*
X215550000Y-64965000D01*
X212100000Y-73835000D02*
X214050000Y-73835000D01*
%TO.C,R27*%
X185776263Y-102845000D02*
X187223737Y-102845000D01*
X185776263Y-105555000D02*
X187223737Y-105555000D01*
%TO.C,C10*%
X208411252Y-64435000D02*
X207888748Y-64435000D01*
X208411252Y-62965000D02*
X207888748Y-62965000D01*
%TO.C,C26*%
X220561252Y-133235000D02*
X220038748Y-133235000D01*
X220561252Y-131765000D02*
X220038748Y-131765000D01*
%TO.C,Q1*%
X211460000Y-109537500D02*
X211460000Y-108887500D01*
X208340000Y-109537500D02*
X208340000Y-108887500D01*
X211460000Y-109537500D02*
X211460000Y-111212500D01*
X208340000Y-109537500D02*
X208340000Y-110187500D01*
%TO.C,R37*%
X216514564Y-89665000D02*
X216060436Y-89665000D01*
X216514564Y-91135000D02*
X216060436Y-91135000D01*
%TO.C,R2*%
X210339564Y-78365000D02*
X209885436Y-78365000D01*
X210339564Y-79835000D02*
X209885436Y-79835000D01*
%TO.C,R15*%
X206260436Y-115335000D02*
X206714564Y-115335000D01*
X206260436Y-113865000D02*
X206714564Y-113865000D01*
%TO.C,R35*%
X228139564Y-81065000D02*
X227685436Y-81065000D01*
X228139564Y-82535000D02*
X227685436Y-82535000D01*
%TO.C,C9*%
X204711252Y-100635000D02*
X204188748Y-100635000D01*
X204711252Y-99165000D02*
X204188748Y-99165000D01*
%TO.C,C20*%
X212636252Y-89290000D02*
X211213748Y-89290000D01*
X212636252Y-91110000D02*
X211213748Y-91110000D01*
%TO.C,C23*%
X223035000Y-94738748D02*
X223035000Y-95261252D01*
X221565000Y-94738748D02*
X221565000Y-95261252D01*
%TO.C,C24*%
X216861252Y-128735000D02*
X216338748Y-128735000D01*
X216861252Y-127265000D02*
X216338748Y-127265000D01*
%TO.C,R30*%
X216539564Y-87665000D02*
X216085436Y-87665000D01*
X216539564Y-89135000D02*
X216085436Y-89135000D01*
%TO.C,Q2*%
X211660000Y-76000000D02*
X211660000Y-75350000D01*
X208540000Y-76000000D02*
X208540000Y-75350000D01*
X211660000Y-76000000D02*
X211660000Y-77675000D01*
X208540000Y-76000000D02*
X208540000Y-76650000D01*
%TO.C,C28*%
X212235000Y-128388748D02*
X212235000Y-128911252D01*
X210765000Y-128388748D02*
X210765000Y-128911252D01*
%TO.C,R3*%
X206172936Y-107235000D02*
X206627064Y-107235000D01*
X206172936Y-105765000D02*
X206627064Y-105765000D01*
%TO.C,R40*%
X227660436Y-91135000D02*
X228114564Y-91135000D01*
X227660436Y-89665000D02*
X228114564Y-89665000D01*
%TO.C,C25*%
X220511252Y-128735000D02*
X219988748Y-128735000D01*
X220511252Y-127265000D02*
X219988748Y-127265000D01*
%TO.C,R14*%
X213885436Y-79735000D02*
X214339564Y-79735000D01*
X213885436Y-78265000D02*
X214339564Y-78265000D01*
%TO.C,R29*%
X227672936Y-86635000D02*
X228127064Y-86635000D01*
X227672936Y-85165000D02*
X228127064Y-85165000D01*
%TO.C,R16*%
X206160436Y-81935000D02*
X206614564Y-81935000D01*
X206160436Y-80465000D02*
X206614564Y-80465000D01*
%TO.C,C22*%
X231388748Y-91110000D02*
X232811252Y-91110000D01*
X231388748Y-89290000D02*
X232811252Y-89290000D01*
%TO.C,R25*%
X239876263Y-70745000D02*
X241323737Y-70745000D01*
X239876263Y-73455000D02*
X241323737Y-73455000D01*
%TO.C,R34*%
X216072936Y-82535000D02*
X216527064Y-82535000D01*
X216072936Y-81065000D02*
X216527064Y-81065000D01*
%TO.C,C21*%
X212811252Y-83090000D02*
X211388748Y-83090000D01*
X212811252Y-84910000D02*
X211388748Y-84910000D01*
%TO.C,R13*%
X213785436Y-113235000D02*
X214239564Y-113235000D01*
X213785436Y-111765000D02*
X214239564Y-111765000D01*
%TO.C,R1*%
X210114564Y-111765000D02*
X209660436Y-111765000D01*
X210114564Y-113235000D02*
X209660436Y-113235000D01*
%TO.C,U1*%
X211875000Y-98425000D02*
X209925000Y-98425000D01*
X211875000Y-107295000D02*
X209925000Y-107295000D01*
X211875000Y-98425000D02*
X215325000Y-98425000D01*
X211875000Y-107295000D02*
X213825000Y-107295000D01*
%TO.C,R4*%
X206160436Y-73935000D02*
X206614564Y-73935000D01*
X206160436Y-72465000D02*
X206614564Y-72465000D01*
%TO.C,JP1*%
X235300000Y-120550000D02*
X235300000Y-119150000D01*
X233300000Y-119150000D02*
X233300000Y-120550000D01*
X234600000Y-118450000D02*
X234000000Y-118450000D01*
X234000000Y-121250000D02*
X234600000Y-121250000D01*
X235300000Y-119150000D02*
G75*
G03*
X234600000Y-118450000I-700000J0D01*
G01*
X234600000Y-121250000D02*
G75*
G03*
X235300000Y-120550000I1J699999D01*
G01*
X233300000Y-120550000D02*
G75*
G03*
X234000000Y-121250000I699999J-1D01*
G01*
X234000000Y-118450000D02*
G75*
G03*
X233300000Y-119150000I0J-700000D01*
G01*
%TO.C,C27*%
X229665000Y-128761252D02*
X229665000Y-128238748D01*
X231135000Y-128761252D02*
X231135000Y-128238748D01*
%TO.C,R32*%
X227672936Y-89135000D02*
X228127064Y-89135000D01*
X227672936Y-87665000D02*
X228127064Y-87665000D01*
%TO.C,Q8*%
X215660000Y-75937500D02*
X215660000Y-75287500D01*
X212540000Y-75937500D02*
X212540000Y-75287500D01*
X215660000Y-75937500D02*
X215660000Y-77612500D01*
X212540000Y-75937500D02*
X212540000Y-76587500D01*
%TO.C,R28*%
X239838763Y-105945000D02*
X241286237Y-105945000D01*
X239838763Y-108655000D02*
X241286237Y-108655000D01*
%TO.C,R39*%
X227685436Y-84535000D02*
X228139564Y-84535000D01*
X227685436Y-83065000D02*
X228139564Y-83065000D01*
%TD*%
%LPC*%
D12*
%TO.C,C29*%
X208750000Y-126132323D03*
D13*
X208750000Y-131132323D03*
%TD*%
D12*
%TO.C,C36*%
X227250000Y-136100000D03*
D13*
X222250000Y-136100000D03*
%TD*%
D14*
%TO.C,H3*%
X166000000Y-136600000D03*
X167697056Y-140697056D03*
X167697056Y-137302944D03*
X168400000Y-139000000D03*
D15*
X166000000Y-139000000D03*
D14*
X166000000Y-141400000D03*
X164302944Y-137302944D03*
X164302944Y-140697056D03*
X163600000Y-139000000D03*
%TD*%
D16*
%TO.C,J1*%
X168524197Y-67965000D03*
D17*
X168524197Y-72965000D03*
%TD*%
D16*
%TO.C,J6*%
X235750000Y-136000000D03*
D17*
X240750000Y-136000000D03*
%TD*%
D18*
%TO.C,J7*%
X235500000Y-47220000D03*
D19*
X233000000Y-47220000D03*
X230500000Y-47220000D03*
X228000000Y-47220000D03*
X225500000Y-47220000D03*
%TD*%
D16*
%TO.C,J4*%
X255305000Y-108385000D03*
D17*
X255305000Y-103385000D03*
%TD*%
D20*
%TO.C,J5*%
X190840000Y-49540000D03*
D21*
X190840000Y-47000000D03*
X193380000Y-49540000D03*
X193380000Y-47000000D03*
X195920000Y-49540000D03*
X195920000Y-47000000D03*
X198460000Y-49540000D03*
X198460000Y-47000000D03*
X201000000Y-49540000D03*
X201000000Y-47000000D03*
%TD*%
D14*
%TO.C,H4*%
X166000000Y-44600000D03*
X167697056Y-48697056D03*
X167697056Y-45302944D03*
X168400000Y-47000000D03*
D15*
X166000000Y-47000000D03*
D14*
X166000000Y-49400000D03*
X164302944Y-45302944D03*
X164302944Y-48697056D03*
X163600000Y-47000000D03*
%TD*%
%TO.C,H2*%
X258000000Y-136600000D03*
X259697056Y-140697056D03*
X259697056Y-137302944D03*
X260400000Y-139000000D03*
D15*
X258000000Y-139000000D03*
D14*
X258000000Y-141400000D03*
X256302944Y-137302944D03*
X256302944Y-140697056D03*
X255600000Y-139000000D03*
%TD*%
D22*
%TO.C,RV1*%
X216500000Y-138640000D03*
X216500000Y-136100000D03*
X216500000Y-133560000D03*
%TD*%
D16*
%TO.C,J3*%
X168524197Y-101825000D03*
D17*
X168524197Y-106825000D03*
%TD*%
D14*
%TO.C,H1*%
X258000000Y-44600000D03*
X259697056Y-48697056D03*
X259697056Y-45302944D03*
X260400000Y-47000000D03*
D15*
X258000000Y-47000000D03*
D14*
X258000000Y-49400000D03*
X256302944Y-45302944D03*
X256302944Y-48697056D03*
X255600000Y-47000000D03*
%TD*%
D16*
%TO.C,J2*%
X255400000Y-74525000D03*
D17*
X255400000Y-69525000D03*
%TD*%
D23*
%TO.C,R31*%
X217212500Y-85800000D03*
X215387500Y-85800000D03*
%TD*%
D24*
%TO.C,U12*%
X223550000Y-129500000D03*
X223550000Y-129000000D03*
X223550000Y-128500000D03*
X223550000Y-128000000D03*
X223550000Y-127500000D03*
X227950000Y-127500000D03*
X227950000Y-128000000D03*
X227950000Y-128500000D03*
X227950000Y-129000000D03*
X227950000Y-129500000D03*
%TD*%
D25*
%TO.C,Q7*%
X214850000Y-110475000D03*
X212950000Y-110475000D03*
X213900000Y-108600000D03*
%TD*%
D26*
%TO.C,C33*%
X187500000Y-136650000D03*
X187500000Y-139600000D03*
%TD*%
D27*
%TO.C,D25*%
X226900000Y-131700000D03*
X224100000Y-131700000D03*
%TD*%
D23*
%TO.C,R36*%
X228825000Y-92400000D03*
X227000000Y-92400000D03*
%TD*%
D28*
%TO.C,R33*%
X215387500Y-92400000D03*
X217212500Y-92400000D03*
%TD*%
D23*
%TO.C,R41*%
X221162500Y-130250000D03*
X219337500Y-130250000D03*
%TD*%
D29*
%TO.C,U11*%
X224575000Y-83290000D03*
X224575000Y-84560000D03*
X224575000Y-85830000D03*
X224575000Y-87100000D03*
X224575000Y-88370000D03*
X224575000Y-89640000D03*
X224575000Y-90910000D03*
X219625000Y-90910000D03*
X219625000Y-89640000D03*
X219625000Y-88370000D03*
X219625000Y-87100000D03*
X219625000Y-85830000D03*
X219625000Y-84560000D03*
X219625000Y-83290000D03*
%TD*%
D30*
%TO.C,R26*%
X184575000Y-70400000D03*
X187500000Y-70400000D03*
%TD*%
D31*
%TO.C,JP2*%
X230750000Y-120500000D03*
D32*
X230750000Y-119200000D03*
%TD*%
D33*
%TO.C,C19*%
X230625000Y-84000000D03*
X233575000Y-84000000D03*
%TD*%
D23*
%TO.C,R38*%
X217200000Y-83800000D03*
X215375000Y-83800000D03*
%TD*%
D29*
%TO.C,U2*%
X214575000Y-65590000D03*
X214575000Y-66860000D03*
X214575000Y-68130000D03*
X214575000Y-69400000D03*
X214575000Y-70670000D03*
X214575000Y-71940000D03*
X214575000Y-73210000D03*
X209625000Y-73210000D03*
X209625000Y-71940000D03*
X209625000Y-70670000D03*
X209625000Y-69400000D03*
X209625000Y-68130000D03*
X209625000Y-66860000D03*
X209625000Y-65590000D03*
%TD*%
D30*
%TO.C,R27*%
X185037500Y-104200000D03*
X187962500Y-104200000D03*
%TD*%
D34*
%TO.C,C10*%
X209100000Y-63700000D03*
X207200000Y-63700000D03*
%TD*%
%TO.C,C26*%
X221250000Y-132500000D03*
X219350000Y-132500000D03*
%TD*%
D25*
%TO.C,Q1*%
X210850000Y-110475000D03*
X208950000Y-110475000D03*
X209900000Y-108600000D03*
%TD*%
D23*
%TO.C,R37*%
X217200000Y-90400000D03*
X215375000Y-90400000D03*
%TD*%
%TO.C,R2*%
X211025000Y-79100000D03*
X209200000Y-79100000D03*
%TD*%
D28*
%TO.C,R15*%
X205575000Y-114600000D03*
X207400000Y-114600000D03*
%TD*%
D23*
%TO.C,R35*%
X228825000Y-81800000D03*
X227000000Y-81800000D03*
%TD*%
D34*
%TO.C,C9*%
X205400000Y-99900000D03*
X203500000Y-99900000D03*
%TD*%
D35*
%TO.C,C20*%
X213400000Y-90200000D03*
X210450000Y-90200000D03*
%TD*%
D36*
%TO.C,C23*%
X222300000Y-94050000D03*
X222300000Y-95950000D03*
%TD*%
D34*
%TO.C,C24*%
X217550000Y-128000000D03*
X215650000Y-128000000D03*
%TD*%
D23*
%TO.C,R30*%
X217225000Y-88400000D03*
X215400000Y-88400000D03*
%TD*%
D25*
%TO.C,Q2*%
X211050000Y-76937500D03*
X209150000Y-76937500D03*
X210100000Y-75062500D03*
%TD*%
D36*
%TO.C,C28*%
X211500000Y-127700000D03*
X211500000Y-129600000D03*
%TD*%
D28*
%TO.C,R3*%
X205487500Y-106500000D03*
X207312500Y-106500000D03*
%TD*%
%TO.C,R40*%
X226975000Y-90400000D03*
X228800000Y-90400000D03*
%TD*%
D34*
%TO.C,C25*%
X221200000Y-128000000D03*
X219300000Y-128000000D03*
%TD*%
D28*
%TO.C,R14*%
X213200000Y-79000000D03*
X215025000Y-79000000D03*
%TD*%
%TO.C,R29*%
X226987500Y-85900000D03*
X228812500Y-85900000D03*
%TD*%
%TO.C,R16*%
X205475000Y-81200000D03*
X207300000Y-81200000D03*
%TD*%
D33*
%TO.C,C22*%
X230625000Y-90200000D03*
X233575000Y-90200000D03*
%TD*%
D30*
%TO.C,R25*%
X239137500Y-72100000D03*
X242062500Y-72100000D03*
%TD*%
D28*
%TO.C,R34*%
X215387500Y-81800000D03*
X217212500Y-81800000D03*
%TD*%
D35*
%TO.C,C21*%
X213575000Y-84000000D03*
X210625000Y-84000000D03*
%TD*%
D28*
%TO.C,R13*%
X213100000Y-112500000D03*
X214925000Y-112500000D03*
%TD*%
D23*
%TO.C,R1*%
X210800000Y-112500000D03*
X208975000Y-112500000D03*
%TD*%
D29*
%TO.C,U1*%
X214350000Y-99050000D03*
X214350000Y-100320000D03*
X214350000Y-101590000D03*
X214350000Y-102860000D03*
X214350000Y-104130000D03*
X214350000Y-105400000D03*
X214350000Y-106670000D03*
X209400000Y-106670000D03*
X209400000Y-105400000D03*
X209400000Y-104130000D03*
X209400000Y-102860000D03*
X209400000Y-101590000D03*
X209400000Y-100320000D03*
X209400000Y-99050000D03*
%TD*%
D28*
%TO.C,R4*%
X205475000Y-73200000D03*
X207300000Y-73200000D03*
%TD*%
D31*
%TO.C,JP1*%
X234300000Y-120500000D03*
D32*
X234300000Y-119200000D03*
%TD*%
D37*
%TO.C,C27*%
X230400000Y-129450000D03*
X230400000Y-127550000D03*
%TD*%
D28*
%TO.C,R32*%
X226987500Y-88400000D03*
X228812500Y-88400000D03*
%TD*%
D25*
%TO.C,Q8*%
X215050000Y-76875000D03*
X213150000Y-76875000D03*
X214100000Y-75000000D03*
%TD*%
D30*
%TO.C,R28*%
X239100000Y-107300000D03*
X242025000Y-107300000D03*
%TD*%
D28*
%TO.C,R39*%
X227000000Y-83800000D03*
X228825000Y-83800000D03*
%TD*%
M02*
